999
dxfrw 0.6.3
  0
SECTION
  2
HEADER
  9
$ACADVER
  1
AC1021
  9
$DWGCODEPAGE
  3
ANSI_1252
  9
$INSBASE
 10
0
 20
0
 30
0
  9
$EXTMIN
 10
-46.16666666666666
 20
-46.9714161288792
 30
0
  9
$EXTMAX
 10
47.44727354745531
 20
46.97144560630576
 30
0
  9
$LIMMIN
 10
0
 20
0
  9
$LIMMAX
 10
420
 20
297
  9
$ORTHOMODE
 70
    0
  9
$REGENMODE
 70
    1
  9
$FILLMODE
 70
    1
  9
$QTEXTMODE
 70
    0
  9
$MIRRTEXT
 70
    1
  9
$LTSCALE
 40
1
  9
$ATTMODE
 70
    1
  9
$TEXTSIZE
 40
2.5
  9
$TRACEWID
 40
1
  9
$TEXTSTYLE
  7
Standard
  9
$CLAYER
  8
0
  9
$CELTYPE
  6
ByLayer
  9
$CECOLOR
 62
  256
  9
$CELTSCALE
 40
1
  9
$DISPSILH
 70
    0
  9
$DIMSCALE
 40
1
  9
$DIMASZ
 40
2.5
  9
$DIMEXO
 40
0.625
  9
$DIMDLI
 40
3.75
  9
$DIMRND
 40
0
  9
$DIMDLE
 40
0
  9
$DIMEXE
 40
1.25
  9
$DIMTP
 40
0
  9
$DIMTM
 40
0
  9
$DIMTXT
 40
2.5
  9
$DIMCEN
 40
2.5
  9
$DIMTSZ
 40
0
  9
$DIMTOL
 70
    0
  9
$DIMLIM
 70
    0
  9
$DIMTIH
 70
    0
  9
$DIMTOH
 70
    0
  9
$DIMSE1
 70
    0
  9
$DIMSE2
 70
    0
  9
$DIMTAD
 70
    1
  9
$DIMZIN
 70
    8
  9
$DIMBLK
  1

  9
$DIMASO
 70
    1
  9
$DIMSHO
 70
    1
  9
$DIMPOST
  1

  9
$DIMAPOST
  1

  9
$DIMALT
 70
    0
  9
$DIMALTD
 70
    3
  9
$DIMALTF
 40
0.03937007874
  9
$DIMLFAC
 40
1
  9
$DIMTOFL
 70
    1
  9
$DIMTVP
 40
0
  9
$DIMTIX
 70
    0
  9
$DIMSOXD
 70
    0
  9
$DIMSAH
 70
    0
  9
$DIMBLK1
  1

  9
$DIMBLK2
  1

  9
$DIMSTYLE
  2
ISO-25
  9
$DIMCLRD
 70
    0
  9
$DIMCLRE
 70
    0
  9
$DIMCLRT
 70
    0
  9
$DIMTFAC
 40
1
  9
$DIMGAP
 40
0.625
  9
$DIMJUST
 70
    0
  9
$DIMSD1
 70
    0
  9
$DIMSD2
 70
    0
  9
$DIMTOLJ
 70
    0
  9
$DIMTZIN
 70
    8
  9
$DIMALTZ
 70
    0
  9
$DIMALTTZ
 70
    0
  9
$DIMUPT
 70
    0
  9
$DIMDEC
 70
    2
  9
$DIMTDEC
 70
    2
  9
$DIMALTU
 70
    2
  9
$DIMALTTD
 70
    3
  9
$DIMTXSTY
  7
Standard
  9
$DIMAUNIT
 70
    0
  9
$DIMADEC
 70
    0
  9
$DIMALTRND
 40
0
  9
$DIMAZIN
 70
    0
  9
$DIMDSEP
 70
   44
  9
$DIMATFIT
 70
    3
  9
$DIMFRAC
 70
    0
  9
$DIMLDRBLK
  1

  9
$DIMLUNIT
 70
    2
  9
$DIMLWD
 70
   -2
  9
$DIMLWE
 70
   -2
  9
$DIMTMOVE
 70
    0
  9
$DIMFXL
 40
1
  9
$DIMFXLON
 70
    0
  9
$DIMJOGANG
 40
0.7854
  9
$DIMTFILL
 70
    0
  9
$DIMTFILLCLR
 70
    0
  9
$DIMARCSYM
 70
    0
  9
$DIMLTYPE
  6

  9
$DIMLTEX1
  6

  9
$DIMLTEX2
  6

  9
$LUNITS
 70
    2
  9
$LUPREC
 70
    4
  9
$SKETCHINC
 40
1
  9
$FILLETRAD
 40
10
  9
$AUNITS
 70
    0
  9
$AUPREC
 70
    2
  9
$MENU
  1
.
  9
$ELEVATION
 40
0
  9
$PELEVATION
 40
0
  9
$THICKNESS
 40
0
  9
$LIMCHECK
 70
    0
  9
$CHAMFERA
 40
0
  9
$CHAMFERB
 40
0
  9
$CHAMFERC
 40
0
  9
$CHAMFERD
 40
0
  9
$SKPOLY
 70
    0
  9
$USRTIMER
 70
    1
  9
$ANGBASE
 50
0
  9
$ANGDIR
 70
    0
  9
$PDMODE
 70
    0
  9
$PDSIZE
 40
0
  9
$PLINEWID
 40
0
  9
$SPLFRAME
 70
    0
  9
$SPLINETYPE
 70
    6
  9
$SPLINESEGS
 70
    8
  9
$HANDSEED
  5
20000
  9
$SURFTAB1
 70
    6
  9
$SURFTAB2
 70
    6
  9
$SURFTYPE
 70
    6
  9
$SURFU
 70
    6
  9
$SURFV
 70
    6
  9
$UCSBASE
  2

  9
$UCSNAME
  2

  9
$UCSORG
 10
0
 20
0
 30
0
  9
$UCSXDIR
 10
1
 20
0
 30
0
  9
$UCSYDIR
 10
0
 20
1
 30
0
  9
$UCSORTHOREF
  2

  9
$UCSORTHOVIEW
 70
    0
  9
$UCSORGTOP
 10
0
 20
0
 30
0
  9
$UCSORGBOTTOM
 10
0
 20
0
 30
0
  9
$UCSORGLEFT
 10
0
 20
0
 30
0
  9
$UCSORGRIGHT
 10
0
 20
0
 30
0
  9
$UCSORGFRONT
 10
0
 20
0
 30
0
  9
$UCSORGBACK
 10
0
 20
0
 30
0
  9
$PUCSBASE
  2

  9
$PUCSNAME
  2

  9
$PUCSORG
 10
0
 20
0
 30
0
  9
$PUCSXDIR
 10
1
 20
0
 30
0
  9
$PUCSYDIR
 10
0
 20
1
 30
0
  9
$PUCSORTHOREF
  2

  9
$PUCSORTHOVIEW
 70
    0
  9
$PUCSORGTOP
 10
0
 20
0
 30
0
  9
$PUCSORGBOTTOM
 10
0
 20
0
 30
0
  9
$PUCSORGLEFT
 10
0
 20
0
 30
0
  9
$PUCSORGRIGHT
 10
0
 20
0
 30
0
  9
$PUCSORGFRONT
 10
0
 20
0
 30
0
  9
$PUCSORGBACK
 10
0
 20
0
 30
0
  9
$USERI1
 70
    0
  9
$USERI2
 70
    0
  9
$USERI3
 70
    0
  9
$USERI4
 70
    0
  9
$USERI5
 70
    0
  9
$USERR1
 40
0
  9
$USERR2
 40
0
  9
$USERR3
 40
0
  9
$USERR4
 40
0
  9
$USERR5
 40
0
  9
$WORLDVIEW
 70
    1
  9
$SHADEDGE
 70
    3
  9
$SHADEDIF
 70
   70
  9
$TILEMODE
 70
    1
  9
$MAXACTVP
 70
   64
  9
$PINSBASE
 10
0
 20
0
 30
0
  9
$PLIMCHECK
 70
    0
  9
$PEXTMIN
 10
1e+20
 20
1e+20
 30
1e+20
  9
$PEXTMAX
 10
-1e+20
 20
-1e+20
 30
-1e+20
  9
$GRIDMODE
 70
    0
  9
$SNAPSTYLE
 70
    0
  9
$PLIMMIN
 10
0
 20
0
  9
$PLIMMAX
 10
420
 20
297
  9
$UNITMODE
 70
    0
  9
$VISRETAIN
 70
    1
  9
$PLINEGEN
 70
    0
  9
$PSLTSCALE
 70
    1
  9
$TREEDEPTH
 70
 3020
  9
$CMLSTYLE
  2
Standard
  9
$CMLJUST
 70
    0
  9
$CMLSCALE
 40
20
  9
$PROXYGRAPHICS
 70
    1
  9
$MEASUREMENT
 70
    1
  9
$CELWEIGHT
370
   -1
  9
$ENDCAPS
280
    0
  9
$JOINSTYLE
280
    0
  9
$LWDISPLAY
290
    0
  9
$INSUNITS
 70
    6
  9
$HYPERLINKBASE
  1

  9
$STYLESHEET
  1

  9
$XEDIT
290
    1
  9
$CEPSNTYPE
380
    0
  9
$PSTYLEMODE
290
    1
  9
$EXTNAMES
290
    1
  9
$PSVPSCALE
 40
0
  9
$OLESTARTUP
290
    0
  9
$SORTENTS
280
  127
  9
$INDEXCTL
280
    0
  9
$HIDETEXT
280
    1
  9
$XCLIPFRAME
290
    0
  9
$HALOGAP
280
    0
  9
$OBSCOLOR
 70
  257
  9
$OBSLTYPE
280
    0
  9
$INTERSECTIONDISPLAY
280
    0
  9
$INTERSECTIONCOLOR
 70
  257
  9
$DIMASSOC
280
    1
  9
$PROJECTNAME
  1

  9
$CAMERADISPLAY
290
    0
  9
$LENSLENGTH
 40
50
  9
$CAMERAHEIGHT
 40
0
  9
$STEPSPERSEC
 40
2
  9
$STEPSIZE
 40
50
  9
$3DDWFPREC
 40
2
  9
$PSOLWIDTH
 40
5
  9
$PSOLHEIGHT
 40
80
  9
$LOFTANG1
 40
1.570796326794897
  9
$LOFTANG2
 40
1.570796326794897
  9
$LOFTMAG1
 40
0
  9
$LOFTMAG2
 40
0
  9
$LOFTPARAM
 70
    7
  9
$LOFTNORMALS
280
    1
  9
$LATITUDE
 40
1
  9
$LONGITUDE
 40
1
  9
$NORTHDIRECTION
 40
0
  9
$TIMEZONE
 70
-8000
  9
$LIGHTGLYPHDISPLAY
280
    1
  9
$TILEMODELIGHTSYNCH
280
    1
  9
$SOLIDHIST
280
    1
  9
$SHOWHIST
280
    1
  9
$DWFFRAME
280
    2
  9
$DGNFRAME
280
    0
  9
$REALWORLDSCALE
290
    1
  9
$INTERFERECOLOR
 62
    1
  9
$CSHADOW
280
    0
  9
$SHADOWPLANELOCATION
 40
0
  0
ENDSEC
  0
SECTION
  2
CLASSES
  0
ENDSEC
  0
SECTION
  2
TABLES
  0
TABLE
  2
VPORT
  5
8
330
0
100
AcDbSymbolTable
 70
    1
  0
VPORT
  5
31
330
2
100
AcDbSymbolTableRecord
100
AcDbViewportTableRecord
  2
*ACTIVE
 70
    0
 10
0
 20
0
 11
1
 21
1
 12
47.82070569551835
 22
24.17166817942867
 13
0
 23
0
 14
10
 24
10
 15
10
 25
10
 16
0
 26
0
 36
1
 17
0
 27
0
 37
0
 40
96.55601505187994
 41
1.967523680649526
 42
50
 43
0
 44
0
 50
0
 51
0
 71
    0
 72
  100
 73
    1
 74
    3
 75
    0
 76
    0
 77
    0
 78
    0
281
    0
 65
    1
110
0
120
0
130
0
111
1
121
0
131
0
112
0
122
1
132
0
 79
    0
146
0
348
10020
 60
    7
 61
    5
292
1
282
    1
141
0
142
0
 63
  250
421
3358443
  0
ENDTAB
  0
TABLE
  2
LTYPE
  5
5
330
0
100
AcDbSymbolTable
 70
    4
  0
LTYPE
  5
14
330
5
100
AcDbSymbolTableRecord
100
AcDbLinetypeTableRecord
  2
ByBlock
 70
    0
  3

 72
   65
 73
    0
 40
0
  0
LTYPE
  5
15
330
5
100
AcDbSymbolTableRecord
100
AcDbLinetypeTableRecord
  2
ByLayer
 70
    0
  3

 72
   65
 73
    0
 40
0
  0
LTYPE
  5
16
330
5
100
AcDbSymbolTableRecord
100
AcDbLinetypeTableRecord
  2
Continuous
 70
    0
  3
Solid line
 72
   65
 73
    0
 40
0
  0
LTYPE
  5
32
330
5
100
AcDbSymbolTableRecord
100
AcDbLinetypeTableRecord
  2
DOT
 70
    0
  3
Dot . . . . . . . . . . . . . . . . . . . . . .
 72
   65
 73
    2
 40
6.35
 49
0
 74
    0
 49
-6.35
 74
    0
  0
LTYPE
  5
33
330
5
100
AcDbSymbolTableRecord
100
AcDbLinetypeTableRecord
  2
DOTTINY
 70
    0
  3
Dot (.15x) .....................................
 72
   65
 73
    2
 40
0.9525
 49
0
 74
    0
 49
-0.9525
 74
    0
  0
LTYPE
  5
34
330
5
100
AcDbSymbolTableRecord
100
AcDbLinetypeTableRecord
  2
DOT2
 70
    0
  3
Dot (.5x) .....................................
 72
   65
 73
    2
 40
3.175
 49
0
 74
    0
 49
-3.175
 74
    0
  0
LTYPE
  5
35
330
5
100
AcDbSymbolTableRecord
100
AcDbLinetypeTableRecord
  2
DOTX2
 70
    0
  3
Dot (2x) .  .  .  .  .  .  .  .  .  .  .  .  .
 72
   65
 73
    2
 40
12.7
 49
0
 74
    0
 49
-12.7
 74
    0
  0
LTYPE
  5
36
330
5
100
AcDbSymbolTableRecord
100
AcDbLinetypeTableRecord
  2
DASHED
 70
    0
  3
Dashed _ _ _ _ _ _ _ _ _ _ _ _ _ _ _ _ _
 72
   65
 73
    2
 40
19.05
 49
12.7
 74
    0
 49
-6.35
 74
    0
  0
LTYPE
  5
37
330
5
100
AcDbSymbolTableRecord
100
AcDbLinetypeTableRecord
  2
DASHEDTINY
 70
    0
  3
Dashed (.15x) _ _ _ _ _ _ _ _ _ _ _ _ _ _ _ _ _
 72
   65
 73
    2
 40
2.8575
 49
1.905
 74
    0
 49
-0.9525
 74
    0
  0
LTYPE
  5
38
330
5
100
AcDbSymbolTableRecord
100
AcDbLinetypeTableRecord
  2
DASHED2
 70
    0
  3
Dashed (.5x) _ _ _ _ _ _ _ _ _ _ _ _ _ _ _ _ _
 72
   65
 73
    2
 40
9.524999999999999
 49
6.35
 74
    0
 49
-3.175
 74
    0
  0
LTYPE
  5
39
330
5
100
AcDbSymbolTableRecord
100
AcDbLinetypeTableRecord
  2
DASHEDX2
 70
    0
  3
Dashed (2x) ____  ____  ____  ____  ____  ___
 72
   65
 73
    2
 40
38.09999999999999
 49
25.4
 74
    0
 49
-12.7
 74
    0
  0
LTYPE
  5
3A
330
5
100
AcDbSymbolTableRecord
100
AcDbLinetypeTableRecord
  2
DASHDOT
 70
    0
  3
Dash dot __ . __ . __ . __ . __ . __ . __ . __
 72
   65
 73
    4
 40
25.4
 49
12.7
 74
    0
 49
-6.35
 74
    0
 49
0
 74
    0
 49
-6.35
 74
    0
  0
LTYPE
  5
3B
330
5
100
AcDbSymbolTableRecord
100
AcDbLinetypeTableRecord
  2
DASHDOTTINY
 70
    0
  3
Dash dot (.15x) _._._._._._._._._._._._._._._.
 72
   65
 73
    4
 40
3.81
 49
1.905
 74
    0
 49
-0.9525
 74
    0
 49
0
 74
    0
 49
-0.9525
 74
    0
  0
LTYPE
  5
3C
330
5
100
AcDbSymbolTableRecord
100
AcDbLinetypeTableRecord
  2
DASHDOT2
 70
    0
  3
Dash dot (.5x) _._._._._._._._._._._._._._._.
 72
   65
 73
    4
 40
12.7
 49
6.35
 74
    0
 49
-3.175
 74
    0
 49
0
 74
    0
 49
-3.175
 74
    0
  0
LTYPE
  5
3D
330
5
100
AcDbSymbolTableRecord
100
AcDbLinetypeTableRecord
  2
DASHDOTX2
 70
    0
  3
Dash dot (2x) ____  .  ____  .  ____  .  ___
 72
   65
 73
    4
 40
50.8
 49
25.4
 74
    0
 49
-12.7
 74
    0
 49
0
 74
    0
 49
-12.7
 74
    0
  0
LTYPE
  5
3E
330
5
100
AcDbSymbolTableRecord
100
AcDbLinetypeTableRecord
  2
DIVIDE
 70
    0
  3
Divide ____ . . ____ . . ____ . . ____ . . ____
 72
   65
 73
    6
 40
31.75
 49
12.7
 74
    0
 49
-6.35
 74
    0
 49
0
 74
    0
 49
-6.35
 74
    0
 49
0
 74
    0
 49
-6.35
 74
    0
  0
LTYPE
  5
3F
330
5
100
AcDbSymbolTableRecord
100
AcDbLinetypeTableRecord
  2
DIVIDETINY
 70
    0
  3
Divide (.15x) __..__..__..__..__..__..__..__.._
 72
   65
 73
    6
 40
4.7625
 49
1.905
 74
    0
 49
-0.9525
 74
    0
 49
0
 74
    0
 49
-0.9525
 74
    0
 49
0
 74
    0
 49
-0.9525
 74
    0
  0
LTYPE
  5
40
330
5
100
AcDbSymbolTableRecord
100
AcDbLinetypeTableRecord
  2
DIVIDE2
 70
    0
  3
Divide (.5x) __..__..__..__..__..__..__..__.._
 72
   65
 73
    6
 40
15.875
 49
6.35
 74
    0
 49
-3.175
 74
    0
 49
0
 74
    0
 49
-3.175
 74
    0
 49
0
 74
    0
 49
-3.175
 74
    0
  0
LTYPE
  5
41
330
5
100
AcDbSymbolTableRecord
100
AcDbLinetypeTableRecord
  2
DIVIDEX2
 70
    0
  3
Divide (2x) ________  .  .  ________  .  .  _
 72
   65
 73
    6
 40
63.5
 49
25.4
 74
    0
 49
-12.7
 74
    0
 49
0
 74
    0
 49
-12.7
 74
    0
 49
0
 74
    0
 49
-12.7
 74
    0
  0
LTYPE
  5
42
330
5
100
AcDbSymbolTableRecord
100
AcDbLinetypeTableRecord
  2
BORDER
 70
    0
  3
Border __ __ . __ __ . __ __ . __ __ . __ __ .
 72
   65
 73
    6
 40
44.45
 49
12.7
 74
    0
 49
-6.35
 74
    0
 49
12.7
 74
    0
 49
-6.35
 74
    0
 49
0
 74
    0
 49
-6.35
 74
    0
  0
LTYPE
  5
43
330
5
100
AcDbSymbolTableRecord
100
AcDbLinetypeTableRecord
  2
BORDERTINY
 70
    0
  3
Border (.15x) __.__.__.__.__.__.__.__.__.__.__.
 72
   65
 73
    6
 40
6.6675
 49
1.905
 74
    0
 49
-0.9525
 74
    0
 49
1.905
 74
    0
 49
-0.9525
 74
    0
 49
0
 74
    0
 49
-0.9525
 74
    0
  0
LTYPE
  5
44
330
5
100
AcDbSymbolTableRecord
100
AcDbLinetypeTableRecord
  2
BORDER2
 70
    0
  3
Border (.5x) __.__.__.__.__.__.__.__.__.__.__.
 72
   65
 73
    6
 40
22.225
 49
6.35
 74
    0
 49
-3.175
 74
    0
 49
6.35
 74
    0
 49
-3.175
 74
    0
 49
0
 74
    0
 49
-3.175
 74
    0
  0
LTYPE
  5
45
330
5
100
AcDbSymbolTableRecord
100
AcDbLinetypeTableRecord
  2
BORDERX2
 70
    0
  3
Border (2x) ____  ____  .  ____  ____  .  ___
 72
   65
 73
    6
 40
88.89999999999999
 49
25.4
 74
    0
 49
-12.7
 74
    0
 49
25.4
 74
    0
 49
-12.7
 74
    0
 49
0
 74
    0
 49
-12.7
 74
    0
  0
LTYPE
  5
46
330
5
100
AcDbSymbolTableRecord
100
AcDbLinetypeTableRecord
  2
CENTER
 70
    0
  3
Center ____ _ ____ _ ____ _ ____ _ ____ _ ____
 72
   65
 73
    4
 40
50.8
 49
31.75
 74
    0
 49
-6.35
 74
    0
 49
6.35
 74
    0
 49
-6.35
 74
    0
  0
LTYPE
  5
47
330
5
100
AcDbSymbolTableRecord
100
AcDbLinetypeTableRecord
  2
CENTERTINY
 70
    0
  3
Center (.15x) ___ _ ___ _ ___ _ ___ _ ___ _ ___
 72
   65
 73
    4
 40
7.619999999999999
 49
4.7625
 74
    0
 49
-0.9525
 74
    0
 49
0.9525
 74
    0
 49
-0.9525
 74
    0
  0
LTYPE
  5
48
330
5
100
AcDbSymbolTableRecord
100
AcDbLinetypeTableRecord
  2
CENTER2
 70
    0
  3
Center (.5x) ___ _ ___ _ ___ _ ___ _ ___ _ ___
 72
   65
 73
    4
 40
28.575
 49
19.05
 74
    0
 49
-3.175
 74
    0
 49
3.175
 74
    0
 49
-3.175
 74
    0
  0
LTYPE
  5
49
330
5
100
AcDbSymbolTableRecord
100
AcDbLinetypeTableRecord
  2
CENTERX2
 70
    0
  3
Center (2x) ________  __  ________  __  _____
 72
   65
 73
    4
 40
101.6
 49
63.5
 74
    0
 49
-12.7
 74
    0
 49
12.7
 74
    0
 49
-12.7
 74
    0
  0
ENDTAB
  0
TABLE
  2
LAYER
  5
2
330
0
100
AcDbSymbolTable
 70
    1
  0
LAYER
  5
10
330
2
100
AcDbSymbolTableRecord
100
AcDbLayerTableRecord
  2
0
 70
    0
 62
    7
  6
CONTINUOUS
370
   -3
390
F
  0
LAYER
  5
4A
330
2
100
AcDbSymbolTableRecord
100
AcDbLayerTableRecord
  2
Defpoints
 70
    0
 62
    7
  6
CONTINUOUS
290
0
370
   -3
390
F
  0
ENDTAB
  0
TABLE
  2
STYLE
  5
3
330
0
100
AcDbSymbolTable
 70
    3
  0
STYLE
  5
4B
330
2
100
AcDbSymbolTableRecord
100
AcDbTextStyleTableRecord
  2
Standard
 70
    0
 40
0
 41
1
 50
0
 71
    0
 42
1
  3
txt
  4

  0
ENDTAB
  0
TABLE
  2
VIEW
  5
6
330
0
100
AcDbSymbolTable
 70
    0
  0
ENDTAB
  0
TABLE
  2
UCS
  5
7
330
0
100
AcDbSymbolTable
 70
    0
  0
ENDTAB
  0
TABLE
  2
APPID
  5
9
330
0
100
AcDbSymbolTable
 70
    1
  0
APPID
  5
12
330
9
100
AcDbSymbolTableRecord
100
AcDbRegAppTableRecord
  2
ACAD
 70
    0
  0
APPID
  5
4C
330
9
100
AcDbSymbolTableRecord
100
AcDbRegAppTableRecord
  2
LibreCad
 70
    0
  0
ENDTAB
  0
TABLE
  2
DIMSTYLE
  5
A
330
0
100
AcDbSymbolTable
 70
    1
100
AcDbDimStyleTable
 71
    1
  0
DIMSTYLE
105
4D
330
A
100
AcDbSymbolTableRecord
100
AcDbDimStyleTableRecord
  2
Standard
 70
    0
 40
1
 41
2.5
 42
0.625
 43
0.38
 44
1.25
 45
0
 46
0
 47
0
 48
0
 49
1
140
2.5
141
0.09
142
0
143
25.4
144
1
145
0
146
1
147
0.625
148
0
 71
    0
 72
    0
 73
    0
 74
    1
 75
    0
 76
    0
 77
    0
 78
    8
 79
    0
170
    0
171
    2
172
    0
173
    0
174
    0
175
    0
176
    0
177
    0
178
    0
179
    0
271
    2
272
    4
273
    2
274
    2
275
    0
276
    0
277
    2
278
   44
279
    0
280
    0
281
    0
282
    0
283
    1
284
    0
285
    0
286
    0
288
    0
289
    3
340
Standard
341

371
   -2
372
   -2
  0
ENDTAB
  0
TABLE
  2
BLOCK_RECORD
  5
1
330
0
100
AcDbSymbolTable
 70
    2
  0
BLOCK_RECORD
  5
1F
330
1
100
AcDbSymbolTableRecord
100
AcDbBlockTableRecord
  2
*Model_Space
 70
    0
280
    1
281
    0
  0
BLOCK_RECORD
  5
1E
330
1
100
AcDbSymbolTableRecord
100
AcDbBlockTableRecord
  2
*Paper_Space
 70
    0
280
    1
281
    0
  0
ENDTAB
  0
ENDSEC
  0
SECTION
  2
BLOCKS
  0
BLOCK
  5
20
330
1F
100
AcDbEntity
  8
0
100
AcDbBlockBegin
  2
*Model_Space
 70
    0
 10
0
 20
0
 30
0
  3
*Model_Space
  1

  0
ENDBLK
  5
21
330
1F
100
AcDbEntity
  8
0
100
AcDbBlockEnd
  0
BLOCK
  5
1C
330
1B
100
AcDbEntity
  8
0
100
AcDbBlockBegin
  2
*Paper_Space
 70
    0
 10
0
 20
0
 30
0
  3
*Paper_Space
  1

  0
ENDBLK
  5
1D
330
1F
100
AcDbEntity
  8
0
100
AcDbBlockEnd
  0
ENDSEC
  0
SECTION
  2
ENTITIES
  0
SPLINE
  5
4E
100
AcDbEntity
  8
0
  6
ByLayer
 62
  256
370
   -1
100
AcDbSpline
210
0
220
0
230
0
 70
    8
 71
    3
 72
 1519
 73
 1515
 74
    0
 42
1e-07
 43
1e-07
 40
0
 40
0
 40
0
 40
0
 40
0.0006613756613756613
 40
0.001322751322751323
 40
0.001984126984126984
 40
0.002645502645502645
 40
0.003306878306878307
 40
0.003968253968253968
 40
0.004629629629629629
 40
0.005291005291005291
 40
0.005952380952380952
 40
0.006613756613756613
 40
0.007275132275132275
 40
0.007936507936507936
 40
0.008597883597883597
 40
0.009259259259259259
 40
0.00992063492063492
 40
0.01058201058201058
 40
0.01124338624338624
 40
0.0119047619047619
 40
0.01256613756613757
 40
0.01322751322751323
 40
0.01388888888888889
 40
0.01455026455026455
 40
0.01521164021164021
 40
0.01587301587301587
 40
0.01653439153439153
 40
0.01719576719576719
 40
0.01785714285714286
 40
0.01851851851851852
 40
0.01917989417989418
 40
0.01984126984126984
 40
0.0205026455026455
 40
0.02116402116402116
 40
0.02182539682539682
 40
0.02248677248677249
 40
0.02314814814814815
 40
0.02380952380952381
 40
0.02447089947089947
 40
0.02513227513227513
 40
0.02579365079365079
 40
0.02645502645502645
 40
0.02711640211640211
 40
0.02777777777777778
 40
0.02843915343915344
 40
0.0291005291005291
 40
0.02976190476190476
 40
0.03042328042328042
 40
0.03108465608465608
 40
0.03174603174603174
 40
0.03240740740740741
 40
0.03306878306878307
 40
0.03373015873015873
 40
0.03439153439153439
 40
0.03505291005291005
 40
0.03571428571428571
 40
0.03637566137566137
 40
0.03703703703703703
 40
0.0376984126984127
 40
0.03835978835978836
 40
0.03902116402116402
 40
0.03968253968253968
 40
0.04034391534391534
 40
0.041005291005291
 40
0.04166666666666666
 40
0.04232804232804233
 40
0.04298941798941799
 40
0.04365079365079365
 40
0.04431216931216931
 40
0.04497354497354497
 40
0.04563492063492063
 40
0.04629629629629629
 40
0.04695767195767196
 40
0.04761904761904762
 40
0.04828042328042328
 40
0.04894179894179894
 40
0.0496031746031746
 40
0.05026455026455026
 40
0.05092592592592592
 40
0.05158730158730158
 40
0.05224867724867725
 40
0.05291005291005291
 40
0.05357142857142857
 40
0.05423280423280423
 40
0.05489417989417989
 40
0.05555555555555555
 40
0.05621693121693121
 40
0.05687830687830688
 40
0.05753968253968254
 40
0.0582010582010582
 40
0.05886243386243386
 40
0.05952380952380952
 40
0.06018518518518518
 40
0.06084656084656084
 40
0.0615079365079365
 40
0.06216931216931217
 40
0.06283068783068782
 40
0.06349206349206349
 40
0.06415343915343916
 40
0.06481481481481481
 40
0.06547619047619047
 40
0.06613756613756613
 40
0.0667989417989418
 40
0.06746031746031746
 40
0.06812169312169311
 40
0.06878306878306878
 40
0.06944444444444445
 40
0.0701058201058201
 40
0.07076719576719576
 40
0.07142857142857142
 40
0.07208994708994709
 40
0.07275132275132275
 40
0.0734126984126984
 40
0.07407407407407407
 40
0.07473544973544974
 40
0.07539682539682539
 40
0.07605820105820105
 40
0.07671957671957672
 40
0.07738095238095238
 40
0.07804232804232804
 40
0.07870370370370369
 40
0.07936507936507936
 40
0.08002645502645503
 40
0.08068783068783068
 40
0.08134920634920634
 40
0.08201058201058201
 40
0.08267195767195767
 40
0.08333333333333333
 40
0.08399470899470898
 40
0.08465608465608465
 40
0.08531746031746032
 40
0.08597883597883597
 40
0.08664021164021163
 40
0.0873015873015873
 40
0.08796296296296297
 40
0.08862433862433862
 40
0.08928571428571427
 40
0.08994708994708994
 40
0.09060846560846561
 40
0.09126984126984126
 40
0.09193121693121692
 40
0.09259259259259259
 40
0.09325396825396826
 40
0.09391534391534391
 40
0.09457671957671956
 40
0.09523809523809523
 40
0.0958994708994709
 40
0.09656084656084656
 40
0.09722222222222221
 40
0.09788359788359788
 40
0.09854497354497355
 40
0.0992063492063492
 40
0.09986772486772486
 40
0.1005291005291005
 40
0.1011904761904762
 40
0.1018518518518518
 40
0.1025132275132275
 40
0.1031746031746032
 40
0.1038359788359788
 40
0.1044973544973545
 40
0.1051587301587301
 40
0.1058201058201058
 40
0.1064814814814815
 40
0.1071428571428571
 40
0.1078042328042328
 40
0.1084656084656085
 40
0.1091269841269841
 40
0.1097883597883598
 40
0.1104497354497354
 40
0.1111111111111111
 40
0.1117724867724868
 40
0.1124338624338624
 40
0.1130952380952381
 40
0.1137566137566138
 40
0.1144179894179894
 40
0.1150793650793651
 40
0.1157407407407407
 40
0.1164021164021164
 40
0.1170634920634921
 40
0.1177248677248677
 40
0.1183862433862434
 40
0.119047619047619
 40
0.1197089947089947
 40
0.1203703703703704
 40
0.121031746031746
 40
0.1216931216931217
 40
0.1223544973544974
 40
0.123015873015873
 40
0.1236772486772487
 40
0.1243386243386243
 40
0.125
 40
0.1256613756613756
 40
0.1263227513227513
 40
0.126984126984127
 40
0.1276455026455026
 40
0.1283068783068783
 40
0.128968253968254
 40
0.1296296296296296
 40
0.1302910052910053
 40
0.1309523809523809
 40
0.1316137566137566
 40
0.1322751322751323
 40
0.1329365079365079
 40
0.1335978835978836
 40
0.1342592592592592
 40
0.1349206349206349
 40
0.1355820105820106
 40
0.1362433862433862
 40
0.1369047619047619
 40
0.1375661375661376
 40
0.1382275132275132
 40
0.1388888888888889
 40
0.1395502645502645
 40
0.1402116402116402
 40
0.1408730158730159
 40
0.1415343915343915
 40
0.1421957671957672
 40
0.1428571428571428
 40
0.1435185185185185
 40
0.1441798941798942
 40
0.1448412698412698
 40
0.1455026455026455
 40
0.1461640211640212
 40
0.1468253968253968
 40
0.1474867724867725
 40
0.1481481481481481
 40
0.1488095238095238
 40
0.1494708994708995
 40
0.1501322751322751
 40
0.1507936507936508
 40
0.1514550264550265
 40
0.1521164021164021
 40
0.1527777777777778
 40
0.1534391534391534
 40
0.1541005291005291
 40
0.1547619047619048
 40
0.1554232804232804
 40
0.1560846560846561
 40
0.1567460317460317
 40
0.1574074074074074
 40
0.1580687830687831
 40
0.1587301587301587
 40
0.1593915343915344
 40
0.1600529100529101
 40
0.1607142857142857
 40
0.1613756613756614
 40
0.162037037037037
 40
0.1626984126984127
 40
0.1633597883597883
 40
0.164021164021164
 40
0.1646825396825397
 40
0.1653439153439153
 40
0.166005291005291
 40
0.1666666666666667
 40
0.1673280423280423
 40
0.167989417989418
 40
0.1686507936507936
 40
0.1693121693121693
 40
0.169973544973545
 40
0.1706349206349206
 40
0.1712962962962963
 40
0.1719576719576719
 40
0.1726190476190476
 40
0.1732804232804233
 40
0.1739417989417989
 40
0.1746031746031746
 40
0.1752645502645503
 40
0.1759259259259259
 40
0.1765873015873016
 40
0.1772486772486772
 40
0.1779100529100529
 40
0.1785714285714285
 40
0.1792328042328042
 40
0.1798941798941799
 40
0.1805555555555556
 40
0.1812169312169312
 40
0.1818783068783069
 40
0.1825396825396825
 40
0.1832010582010582
 40
0.1838624338624338
 40
0.1845238095238095
 40
0.1851851851851852
 40
0.1858465608465608
 40
0.1865079365079365
 40
0.1871693121693122
 40
0.1878306878306878
 40
0.1884920634920635
 40
0.1891534391534391
 40
0.1898148148148148
 40
0.1904761904761905
 40
0.1911375661375661
 40
0.1917989417989418
 40
0.1924603174603174
 40
0.1931216931216931
 40
0.1937830687830688
 40
0.1944444444444444
 40
0.1951058201058201
 40
0.1957671957671958
 40
0.1964285714285714
 40
0.1970899470899471
 40
0.1977513227513227
 40
0.1984126984126984
 40
0.1990740740740741
 40
0.1997354497354497
 40
0.2003968253968254
 40
0.201058201058201
 40
0.2017195767195767
 40
0.2023809523809524
 40
0.203042328042328
 40
0.2037037037037037
 40
0.2043650793650794
 40
0.205026455026455
 40
0.2056878306878307
 40
0.2063492063492063
 40
0.207010582010582
 40
0.2076719576719577
 40
0.2083333333333333
 40
0.208994708994709
 40
0.2096560846560847
 40
0.2103174603174603
 40
0.210978835978836
 40
0.2116402116402116
 40
0.2123015873015873
 40
0.212962962962963
 40
0.2136243386243386
 40
0.2142857142857143
 40
0.2149470899470899
 40
0.2156084656084656
 40
0.2162698412698413
 40
0.2169312169312169
 40
0.2175925925925926
 40
0.2182539682539683
 40
0.2189153439153439
 40
0.2195767195767196
 40
0.2202380952380952
 40
0.2208994708994709
 40
0.2215608465608465
 40
0.2222222222222222
 40
0.2228835978835979
 40
0.2235449735449735
 40
0.2242063492063492
 40
0.2248677248677249
 40
0.2255291005291005
 40
0.2261904761904762
 40
0.2268518518518518
 40
0.2275132275132275
 40
0.2281746031746032
 40
0.2288359788359788
 40
0.2294973544973545
 40
0.2301587301587301
 40
0.2308201058201058
 40
0.2314814814814815
 40
0.2321428571428571
 40
0.2328042328042328
 40
0.2334656084656085
 40
0.2341269841269841
 40
0.2347883597883598
 40
0.2354497354497354
 40
0.2361111111111111
 40
0.2367724867724867
 40
0.2374338624338624
 40
0.2380952380952381
 40
0.2387566137566138
 40
0.2394179894179894
 40
0.2400793650793651
 40
0.2407407407407407
 40
0.2414021164021164
 40
0.242063492063492
 40
0.2427248677248677
 40
0.2433862433862434
 40
0.244047619047619
 40
0.2447089947089947
 40
0.2453703703703703
 40
0.246031746031746
 40
0.2466931216931217
 40
0.2473544973544973
 40
0.248015873015873
 40
0.2486772486772487
 40
0.2493386243386243
 40
0.25
 40
0.2506613756613756
 40
0.2513227513227513
 40
0.251984126984127
 40
0.2526455026455026
 40
0.2533068783068783
 40
0.253968253968254
 40
0.2546296296296296
 40
0.2552910052910053
 40
0.2559523809523809
 40
0.2566137566137566
 40
0.2572751322751323
 40
0.2579365079365079
 40
0.2585978835978836
 40
0.2592592592592592
 40
0.2599206349206349
 40
0.2605820105820106
 40
0.2612433862433862
 40
0.2619047619047619
 40
0.2625661375661376
 40
0.2632275132275132
 40
0.2638888888888889
 40
0.2645502645502645
 40
0.2652116402116402
 40
0.2658730158730159
 40
0.2665343915343915
 40
0.2671957671957672
 40
0.2678571428571428
 40
0.2685185185185185
 40
0.2691798941798942
 40
0.2698412698412698
 40
0.2705026455026455
 40
0.2711640211640212
 40
0.2718253968253968
 40
0.2724867724867724
 40
0.2731481481481481
 40
0.2738095238095238
 40
0.2744708994708995
 40
0.2751322751322751
 40
0.2757936507936508
 40
0.2764550264550265
 40
0.2771164021164021
 40
0.2777777777777778
 40
0.2784391534391534
 40
0.2791005291005291
 40
0.2797619047619048
 40
0.2804232804232804
 40
0.281084656084656
 40
0.2817460317460317
 40
0.2824074074074074
 40
0.283068783068783
 40
0.2837301587301587
 40
0.2843915343915344
 40
0.2850529100529101
 40
0.2857142857142857
 40
0.2863756613756613
 40
0.287037037037037
 40
0.2876984126984127
 40
0.2883597883597884
 40
0.289021164021164
 40
0.2896825396825397
 40
0.2903439153439153
 40
0.291005291005291
 40
0.2916666666666666
 40
0.2923280423280423
 40
0.292989417989418
 40
0.2936507936507936
 40
0.2943121693121693
 40
0.2949735449735449
 40
0.2956349206349206
 40
0.2962962962962963
 40
0.2969576719576719
 40
0.2976190476190476
 40
0.2982804232804233
 40
0.298941798941799
 40
0.2996031746031746
 40
0.3002645502645502
 40
0.3009259259259259
 40
0.3015873015873016
 40
0.3022486772486772
 40
0.3029100529100529
 40
0.3035714285714285
 40
0.3042328042328042
 40
0.3048941798941799
 40
0.3055555555555555
 40
0.3062169312169312
 40
0.3068783068783069
 40
0.3075396825396825
 40
0.3082010582010582
 40
0.3088624338624338
 40
0.3095238095238095
 40
0.3101851851851852
 40
0.3108465608465608
 40
0.3115079365079365
 40
0.3121693121693122
 40
0.3128306878306878
 40
0.3134920634920635
 40
0.3141534391534391
 40
0.3148148148148148
 40
0.3154761904761905
 40
0.3161375661375661
 40
0.3167989417989418
 40
0.3174603174603174
 40
0.3181216931216931
 40
0.3187830687830688
 40
0.3194444444444444
 40
0.3201058201058201
 40
0.3207671957671958
 40
0.3214285714285714
 40
0.3220899470899471
 40
0.3227513227513227
 40
0.3234126984126984
 40
0.3240740740740741
 40
0.3247354497354497
 40
0.3253968253968254
 40
0.326058201058201
 40
0.3267195767195767
 40
0.3273809523809524
 40
0.328042328042328
 40
0.3287037037037037
 40
0.3293650793650794
 40
0.330026455026455
 40
0.3306878306878307
 40
0.3313492063492063
 40
0.332010582010582
 40
0.3326719576719577
 40
0.3333333333333333
 40
0.333994708994709
 40
0.3346560846560847
 40
0.3353174603174603
 40
0.3359788359788359
 40
0.3366402116402116
 40
0.3373015873015873
 40
0.337962962962963
 40
0.3386243386243386
 40
0.3392857142857142
 40
0.3399470899470899
 40
0.3406084656084656
 40
0.3412698412698413
 40
0.3419312169312169
 40
0.3425925925925926
 40
0.3432539682539683
 40
0.3439153439153439
 40
0.3445767195767195
 40
0.3452380952380952
 40
0.3458994708994709
 40
0.3465608465608465
 40
0.3472222222222222
 40
0.3478835978835979
 40
0.3485449735449735
 40
0.3492063492063492
 40
0.3498677248677248
 40
0.3505291005291005
 40
0.3511904761904762
 40
0.3518518518518519
 40
0.3525132275132275
 40
0.3531746031746031
 40
0.3538359788359788
 40
0.3544973544973545
 40
0.3551587301587301
 40
0.3558201058201058
 40
0.3564814814814815
 40
0.3571428571428571
 40
0.3578042328042328
 40
0.3584656084656084
 40
0.3591269841269841
 40
0.3597883597883598
 40
0.3604497354497354
 40
0.3611111111111111
 40
0.3617724867724867
 40
0.3624338624338624
 40
0.3630952380952381
 40
0.3637566137566137
 40
0.3644179894179894
 40
0.3650793650793651
 40
0.3657407407407407
 40
0.3664021164021164
 40
0.367063492063492
 40
0.3677248677248677
 40
0.3683862433862434
 40
0.369047619047619
 40
0.3697089947089947
 40
0.3703703703703703
 40
0.371031746031746
 40
0.3716931216931217
 40
0.3723544973544973
 40
0.373015873015873
 40
0.3736772486772487
 40
0.3743386243386243
 40
0.375
 40
0.3756613756613756
 40
0.3763227513227513
 40
0.376984126984127
 40
0.3776455026455026
 40
0.3783068783068783
 40
0.378968253968254
 40
0.3796296296296296
 40
0.3802910052910053
 40
0.3809523809523809
 40
0.3816137566137566
 40
0.3822751322751323
 40
0.3829365079365079
 40
0.3835978835978836
 40
0.3842592592592592
 40
0.3849206349206349
 40
0.3855820105820106
 40
0.3862433862433862
 40
0.3869047619047619
 40
0.3875661375661376
 40
0.3882275132275132
 40
0.3888888888888888
 40
0.3895502645502645
 40
0.3902116402116402
 40
0.3908730158730159
 40
0.3915343915343915
 40
0.3921957671957672
 40
0.3928571428571428
 40
0.3935185185185185
 40
0.3941798941798942
 40
0.3948412698412698
 40
0.3955026455026455
 40
0.3961640211640212
 40
0.3968253968253968
 40
0.3974867724867724
 40
0.3981481481481481
 40
0.3988095238095238
 40
0.3994708994708994
 40
0.4001322751322751
 40
0.4007936507936508
 40
0.4014550264550265
 40
0.4021164021164021
 40
0.4027777777777777
 40
0.4034391534391534
 40
0.4041005291005291
 40
0.4047619047619048
 40
0.4054232804232804
 40
0.406084656084656
 40
0.4067460317460317
 40
0.4074074074074074
 40
0.408068783068783
 40
0.4087301587301587
 40
0.4093915343915344
 40
0.41005291005291
 40
0.4107142857142857
 40
0.4113756613756613
 40
0.412037037037037
 40
0.4126984126984127
 40
0.4133597883597883
 40
0.414021164021164
 40
0.4146825396825397
 40
0.4153439153439153
 40
0.416005291005291
 40
0.4166666666666666
 40
0.4173280423280423
 40
0.417989417989418
 40
0.4186507936507936
 40
0.4193121693121693
 40
0.4199735449735449
 40
0.4206349206349206
 40
0.4212962962962963
 40
0.4219576719576719
 40
0.4226190476190476
 40
0.4232804232804233
 40
0.4239417989417989
 40
0.4246031746031746
 40
0.4252645502645502
 40
0.4259259259259259
 40
0.4265873015873016
 40
0.4272486772486772
 40
0.4279100529100529
 40
0.4285714285714285
 40
0.4292328042328042
 40
0.4298941798941799
 40
0.4305555555555555
 40
0.4312169312169312
 40
0.4318783068783069
 40
0.4325396825396825
 40
0.4332010582010582
 40
0.4338624338624338
 40
0.4345238095238095
 40
0.4351851851851852
 40
0.4358465608465608
 40
0.4365079365079365
 40
0.4371693121693122
 40
0.4378306878306878
 40
0.4384920634920635
 40
0.4391534391534391
 40
0.4398148148148148
 40
0.4404761904761905
 40
0.4411375661375661
 40
0.4417989417989417
 40
0.4424603174603174
 40
0.4431216931216931
 40
0.4437830687830688
 40
0.4444444444444444
 40
0.4451058201058201
 40
0.4457671957671958
 40
0.4464285714285714
 40
0.4470899470899471
 40
0.4477513227513227
 40
0.4484126984126984
 40
0.4490740740740741
 40
0.4497354497354497
 40
0.4503968253968254
 40
0.451058201058201
 40
0.4517195767195767
 40
0.4523809523809523
 40
0.453042328042328
 40
0.4537037037037037
 40
0.4543650793650794
 40
0.455026455026455
 40
0.4556878306878306
 40
0.4563492063492063
 40
0.457010582010582
 40
0.4576719576719577
 40
0.4583333333333333
 40
0.458994708994709
 40
0.4596560846560847
 40
0.4603174603174603
 40
0.4609788359788359
 40
0.4616402116402116
 40
0.4623015873015873
 40
0.4629629629629629
 40
0.4636243386243386
 40
0.4642857142857142
 40
0.4649470899470899
 40
0.4656084656084656
 40
0.4662698412698412
 40
0.4669312169312169
 40
0.4675925925925926
 40
0.4682539682539683
 40
0.4689153439153439
 40
0.4695767195767195
 40
0.4702380952380952
 40
0.4708994708994709
 40
0.4715608465608465
 40
0.4722222222222222
 40
0.4728835978835979
 40
0.4735449735449735
 40
0.4742063492063492
 40
0.4748677248677248
 40
0.4755291005291005
 40
0.4761904761904762
 40
0.4768518518518518
 40
0.4775132275132275
 40
0.4781746031746031
 40
0.4788359788359788
 40
0.4794973544973545
 40
0.4801587301587301
 40
0.4808201058201058
 40
0.4814814814814815
 40
0.4821428571428571
 40
0.4828042328042328
 40
0.4834656084656084
 40
0.4841269841269841
 40
0.4847883597883598
 40
0.4854497354497354
 40
0.4861111111111111
 40
0.4867724867724867
 40
0.4874338624338624
 40
0.4880952380952381
 40
0.4887566137566137
 40
0.4894179894179894
 40
0.4900793650793651
 40
0.4907407407407407
 40
0.4914021164021164
 40
0.492063492063492
 40
0.4927248677248677
 40
0.4933862433862434
 40
0.494047619047619
 40
0.4947089947089947
 40
0.4953703703703703
 40
0.496031746031746
 40
0.4966931216931217
 40
0.4973544973544973
 40
0.498015873015873
 40
0.4986772486772487
 40
0.4993386243386243
 40
0.5
 40
0.5006613756613756
 40
0.5013227513227513
 40
0.501984126984127
 40
0.5026455026455026
 40
0.5033068783068783
 40
0.503968253968254
 40
0.5046296296296297
 40
0.5052910052910052
 40
0.5059523809523809
 40
0.5066137566137566
 40
0.5072751322751322
 40
0.5079365079365079
 40
0.5085978835978836
 40
0.5092592592592592
 40
0.5099206349206349
 40
0.5105820105820106
 40
0.5112433862433862
 40
0.5119047619047619
 40
0.5125661375661376
 40
0.5132275132275133
 40
0.5138888888888888
 40
0.5145502645502645
 40
0.5152116402116402
 40
0.5158730158730158
 40
0.5165343915343915
 40
0.5171957671957672
 40
0.5178571428571428
 40
0.5185185185185185
 40
0.5191798941798942
 40
0.5198412698412698
 40
0.5205026455026455
 40
0.5211640211640212
 40
0.5218253968253967
 40
0.5224867724867724
 40
0.5231481481481481
 40
0.5238095238095237
 40
0.5244708994708994
 40
0.5251322751322751
 40
0.5257936507936508
 40
0.5264550264550264
 40
0.5271164021164021
 40
0.5277777777777778
 40
0.5284391534391534
 40
0.5291005291005291
 40
0.5297619047619048
 40
0.5304232804232804
 40
0.531084656084656
 40
0.5317460317460317
 40
0.5324074074074073
 40
0.533068783068783
 40
0.5337301587301587
 40
0.5343915343915344
 40
0.53505291005291
 40
0.5357142857142857
 40
0.5363756613756614
 40
0.537037037037037
 40
0.5376984126984127
 40
0.5383597883597884
 40
0.539021164021164
 40
0.5396825396825397
 40
0.5403439153439153
 40
0.5410052910052909
 40
0.5416666666666666
 40
0.5423280423280423
 40
0.5429894179894179
 40
0.5436507936507936
 40
0.5443121693121693
 40
0.5449735449735449
 40
0.5456349206349206
 40
0.5462962962962963
 40
0.546957671957672
 40
0.5476190476190476
 40
0.5482804232804233
 40
0.548941798941799
 40
0.5496031746031745
 40
0.5502645502645502
 40
0.5509259259259259
 40
0.5515873015873015
 40
0.5522486772486772
 40
0.5529100529100529
 40
0.5535714285714285
 40
0.5542328042328042
 40
0.5548941798941799
 40
0.5555555555555556
 40
0.5562169312169312
 40
0.5568783068783069
 40
0.5575396825396826
 40
0.5582010582010581
 40
0.5588624338624338
 40
0.5595238095238095
 40
0.5601851851851851
 40
0.5608465608465608
 40
0.5615079365079365
 40
0.5621693121693121
 40
0.5628306878306878
 40
0.5634920634920635
 40
0.5641534391534391
 40
0.5648148148148148
 40
0.5654761904761905
 40
0.5661375661375661
 40
0.5667989417989417
 40
0.5674603174603174
 40
0.5681216931216931
 40
0.5687830687830687
 40
0.5694444444444444
 40
0.5701058201058201
 40
0.5707671957671957
 40
0.5714285714285714
 40
0.5720899470899471
 40
0.5727513227513227
 40
0.5734126984126984
 40
0.5740740740740741
 40
0.5747354497354497
 40
0.5753968253968254
 40
0.576058201058201
 40
0.5767195767195767
 40
0.5773809523809523
 40
0.578042328042328
 40
0.5787037037037037
 40
0.5793650793650793
 40
0.580026455026455
 40
0.5806878306878307
 40
0.5813492063492063
 40
0.582010582010582
 40
0.5826719576719577
 40
0.5833333333333333
 40
0.583994708994709
 40
0.5846560846560847
 40
0.5853174603174602
 40
0.5859788359788359
 40
0.5866402116402116
 40
0.5873015873015872
 40
0.5879629629629629
 40
0.5886243386243386
 40
0.5892857142857143
 40
0.5899470899470899
 40
0.5906084656084656
 40
0.5912698412698413
 40
0.5919312169312169
 40
0.5925925925925926
 40
0.5932539682539683
 40
0.5939153439153438
 40
0.5945767195767195
 40
0.5952380952380952
 40
0.5958994708994708
 40
0.5965608465608465
 40
0.5972222222222222
 40
0.5978835978835979
 40
0.5985449735449735
 40
0.5992063492063492
 40
0.5998677248677249
 40
0.6005291005291005
 40
0.6011904761904762
 40
0.6018518518518519
 40
0.6025132275132274
 40
0.6031746031746031
 40
0.6038359788359788
 40
0.6044973544973544
 40
0.6051587301587301
 40
0.6058201058201058
 40
0.6064814814814814
 40
0.6071428571428571
 40
0.6078042328042328
 40
0.6084656084656084
 40
0.6091269841269841
 40
0.6097883597883598
 40
0.6104497354497355
 40
0.611111111111111
 40
0.6117724867724867
 40
0.6124338624338624
 40
0.613095238095238
 40
0.6137566137566137
 40
0.6144179894179894
 40
0.615079365079365
 40
0.6157407407407407
 40
0.6164021164021164
 40
0.617063492063492
 40
0.6177248677248677
 40
0.6183862433862434
 40
0.6190476190476191
 40
0.6197089947089947
 40
0.6203703703703703
 40
0.621031746031746
 40
0.6216931216931216
 40
0.6223544973544973
 40
0.623015873015873
 40
0.6236772486772486
 40
0.6243386243386243
 40
0.625
 40
0.6256613756613756
 40
0.6263227513227513
 40
0.626984126984127
 40
0.6276455026455026
 40
0.6283068783068783
 40
0.628968253968254
 40
0.6296296296296295
 40
0.6302910052910052
 40
0.6309523809523809
 40
0.6316137566137566
 40
0.6322751322751322
 40
0.6329365079365079
 40
0.6335978835978836
 40
0.6342592592592592
 40
0.6349206349206349
 40
0.6355820105820106
 40
0.6362433862433862
 40
0.6369047619047619
 40
0.6375661375661376
 40
0.6382275132275131
 40
0.6388888888888888
 40
0.6395502645502645
 40
0.6402116402116402
 40
0.6408730158730158
 40
0.6415343915343915
 40
0.6421957671957672
 40
0.6428571428571428
 40
0.6435185185185185
 40
0.6441798941798942
 40
0.6448412698412698
 40
0.6455026455026455
 40
0.6461640211640212
 40
0.6468253968253967
 40
0.6474867724867724
 40
0.6481481481481481
 40
0.6488095238095237
 40
0.6494708994708994
 40
0.6501322751322751
 40
0.6507936507936507
 40
0.6514550264550264
 40
0.6521164021164021
 40
0.6527777777777778
 40
0.6534391534391534
 40
0.6541005291005291
 40
0.6547619047619048
 40
0.6554232804232804
 40
0.656084656084656
 40
0.6567460317460317
 40
0.6574074074074073
 40
0.658068783068783
 40
0.6587301587301587
 40
0.6593915343915343
 40
0.66005291005291
 40
0.6607142857142857
 40
0.6613756613756614
 40
0.662037037037037
 40
0.6626984126984127
 40
0.6633597883597884
 40
0.664021164021164
 40
0.6646825396825397
 40
0.6653439153439153
 40
0.6660052910052909
 40
0.6666666666666666
 40
0.6673280423280423
 40
0.6679894179894179
 40
0.6686507936507936
 40
0.6693121693121693
 40
0.6699735449735449
 40
0.6706349206349206
 40
0.6712962962962963
 40
0.6719576719576719
 40
0.6726190476190476
 40
0.6732804232804233
 40
0.673941798941799
 40
0.6746031746031745
 40
0.6752645502645502
 40
0.6759259259259259
 40
0.6765873015873015
 40
0.6772486772486772
 40
0.6779100529100529
 40
0.6785714285714285
 40
0.6792328042328042
 40
0.6798941798941799
 40
0.6805555555555555
 40
0.6812169312169312
 40
0.6818783068783069
 40
0.6825396825396826
 40
0.6832010582010581
 40
0.6838624338624338
 40
0.6845238095238095
 40
0.6851851851851851
 40
0.6858465608465608
 40
0.6865079365079365
 40
0.6871693121693121
 40
0.6878306878306878
 40
0.6884920634920635
 40
0.6891534391534391
 40
0.6898148148148148
 40
0.6904761904761905
 40
0.6911375661375661
 40
0.6917989417989417
 40
0.6924603174603174
 40
0.693121693121693
 40
0.6937830687830687
 40
0.6944444444444444
 40
0.6951058201058201
 40
0.6957671957671957
 40
0.6964285714285714
 40
0.6970899470899471
 40
0.6977513227513227
 40
0.6984126984126984
 40
0.6990740740740741
 40
0.6997354497354497
 40
0.7003968253968254
 40
0.701058201058201
 40
0.7017195767195766
 40
0.7023809523809523
 40
0.703042328042328
 40
0.7037037037037037
 40
0.7043650793650793
 40
0.705026455026455
 40
0.7056878306878307
 40
0.7063492063492063
 40
0.707010582010582
 40
0.7076719576719577
 40
0.7083333333333333
 40
0.708994708994709
 40
0.7096560846560847
 40
0.7103174603174602
 40
0.7109788359788359
 40
0.7116402116402116
 40
0.7123015873015872
 40
0.7129629629629629
 40
0.7136243386243386
 40
0.7142857142857142
 40
0.7149470899470899
 40
0.7156084656084656
 40
0.7162698412698413
 40
0.7169312169312169
 40
0.7175925925925926
 40
0.7182539682539683
 40
0.7189153439153438
 40
0.7195767195767195
 40
0.7202380952380952
 40
0.7208994708994708
 40
0.7215608465608465
 40
0.7222222222222222
 40
0.7228835978835978
 40
0.7235449735449735
 40
0.7242063492063492
 40
0.7248677248677249
 40
0.7255291005291005
 40
0.7261904761904762
 40
0.7268518518518519
 40
0.7275132275132274
 40
0.7281746031746031
 40
0.7288359788359788
 40
0.7294973544973544
 40
0.7301587301587301
 40
0.7308201058201058
 40
0.7314814814814814
 40
0.7321428571428571
 40
0.7328042328042328
 40
0.7334656084656084
 40
0.7341269841269841
 40
0.7347883597883598
 40
0.7354497354497354
 40
0.736111111111111
 40
0.7367724867724867
 40
0.7374338624338624
 40
0.738095238095238
 40
0.7387566137566137
 40
0.7394179894179894
 40
0.740079365079365
 40
0.7407407407407407
 40
0.7414021164021164
 40
0.742063492063492
 40
0.7427248677248677
 40
0.7433862433862434
 40
0.744047619047619
 40
0.7447089947089947
 40
0.7453703703703703
 40
0.746031746031746
 40
0.7466931216931216
 40
0.7473544973544973
 40
0.748015873015873
 40
0.7486772486772486
 40
0.7493386243386243
 40
0.75
 40
0.7506613756613756
 40
0.7513227513227513
 40
0.751984126984127
 40
0.7526455026455026
 40
0.7533068783068783
 40
0.753968253968254
 40
0.7546296296296295
 40
0.7552910052910052
 40
0.7559523809523809
 40
0.7566137566137565
 40
0.7572751322751322
 40
0.7579365079365079
 40
0.7585978835978836
 40
0.7592592592592592
 40
0.7599206349206349
 40
0.7605820105820106
 40
0.7612433862433862
 40
0.7619047619047619
 40
0.7625661375661376
 40
0.7632275132275131
 40
0.7638888888888888
 40
0.7645502645502645
 40
0.7652116402116401
 40
0.7658730158730158
 40
0.7665343915343915
 40
0.7671957671957672
 40
0.7678571428571428
 40
0.7685185185185185
 40
0.7691798941798942
 40
0.7698412698412698
 40
0.7705026455026455
 40
0.7711640211640212
 40
0.7718253968253967
 40
0.7724867724867724
 40
0.7731481481481481
 40
0.7738095238095237
 40
0.7744708994708994
 40
0.7751322751322751
 40
0.7757936507936507
 40
0.7764550264550264
 40
0.7771164021164021
 40
0.7777777777777777
 40
0.7784391534391534
 40
0.7791005291005291
 40
0.7797619047619048
 40
0.7804232804232804
 40
0.781084656084656
 40
0.7817460317460317
 40
0.7824074074074073
 40
0.783068783068783
 40
0.7837301587301587
 40
0.7843915343915343
 40
0.78505291005291
 40
0.7857142857142857
 40
0.7863756613756613
 40
0.787037037037037
 40
0.7876984126984127
 40
0.7883597883597884
 40
0.789021164021164
 40
0.7896825396825397
 40
0.7903439153439153
 40
0.7910052910052909
 40
0.7916666666666666
 40
0.7923280423280423
 40
0.7929894179894179
 40
0.7936507936507936
 40
0.7943121693121693
 40
0.7949735449735449
 40
0.7956349206349206
 40
0.7962962962962963
 40
0.7969576719576719
 40
0.7976190476190476
 40
0.7982804232804233
 40
0.7989417989417988
 40
0.7996031746031745
 40
0.8002645502645502
 40
0.8009259259259259
 40
0.8015873015873015
 40
0.8022486772486772
 40
0.8029100529100529
 40
0.8035714285714285
 40
0.8042328042328042
 40
0.8048941798941799
 40
0.8055555555555555
 40
0.8062169312169312
 40
0.8068783068783069
 40
0.8075396825396824
 40
0.8082010582010581
 40
0.8088624338624338
 40
0.8095238095238095
 40
0.8101851851851851
 40
0.8108465608465608
 40
0.8115079365079365
 40
0.8121693121693121
 40
0.8128306878306878
 40
0.8134920634920635
 40
0.8141534391534391
 40
0.8148148148148148
 40
0.8154761904761905
 40
0.8161375661375661
 40
0.8167989417989417
 40
0.8174603174603174
 40
0.818121693121693
 40
0.8187830687830687
 40
0.8194444444444444
 40
0.82010582010582
 40
0.8207671957671957
 40
0.8214285714285714
 40
0.8220899470899471
 40
0.8227513227513227
 40
0.8234126984126984
 40
0.8240740740740741
 40
0.8247354497354497
 40
0.8253968253968254
 40
0.826058201058201
 40
0.8267195767195766
 40
0.8273809523809523
 40
0.828042328042328
 40
0.8287037037037036
 40
0.8293650793650793
 40
0.830026455026455
 40
0.8306878306878307
 40
0.8313492063492063
 40
0.832010582010582
 40
0.8326719576719577
 40
0.8333333333333333
 40
0.833994708994709
 40
0.8346560846560847
 40
0.8353174603174602
 40
0.8359788359788359
 40
0.8366402116402116
 40
0.8373015873015872
 40
0.8379629629629629
 40
0.8386243386243386
 40
0.8392857142857142
 40
0.8399470899470899
 40
0.8406084656084656
 40
0.8412698412698412
 40
0.8419312169312169
 40
0.8425925925925926
 40
0.8432539682539683
 40
0.8439153439153438
 40
0.8445767195767195
 40
0.8452380952380952
 40
0.8458994708994708
 40
0.8465608465608465
 40
0.8472222222222222
 40
0.8478835978835978
 40
0.8485449735449735
 40
0.8492063492063492
 40
0.8498677248677248
 40
0.8505291005291005
 40
0.8511904761904762
 40
0.8518518518518519
 40
0.8525132275132274
 40
0.8531746031746031
 40
0.8538359788359788
 40
0.8544973544973544
 40
0.8551587301587301
 40
0.8558201058201058
 40
0.8564814814814814
 40
0.8571428571428571
 40
0.8578042328042328
 40
0.8584656084656084
 40
0.8591269841269841
 40
0.8597883597883598
 40
0.8604497354497354
 40
0.861111111111111
 40
0.8617724867724867
 40
0.8624338624338623
 40
0.863095238095238
 40
0.8637566137566137
 40
0.8644179894179894
 40
0.865079365079365
 40
0.8657407407407407
 40
0.8664021164021164
 40
0.867063492063492
 40
0.8677248677248677
 40
0.8683862433862434
 40
0.869047619047619
 40
0.8697089947089947
 40
0.8703703703703703
 40
0.8710317460317459
 40
0.8716931216931216
 40
0.8723544973544973
 40
0.873015873015873
 40
0.8736772486772486
 40
0.8743386243386243
 40
0.875
 40
0.8756613756613756
 40
0.8763227513227513
 40
0.876984126984127
 40
0.8776455026455026
 40
0.8783068783068783
 40
0.878968253968254
 40
0.8796296296296295
 40
0.8802910052910052
 40
0.8809523809523809
 40
0.8816137566137565
 40
0.8822751322751322
 40
0.8829365079365079
 40
0.8835978835978835
 40
0.8842592592592592
 40
0.8849206349206349
 40
0.8855820105820106
 40
0.8862433862433862
 40
0.8869047619047619
 40
0.8875661375661376
 40
0.8882275132275131
 40
0.8888888888888888
 40
0.8895502645502645
 40
0.8902116402116401
 40
0.8908730158730158
 40
0.8915343915343915
 40
0.8921957671957671
 40
0.8928571428571428
 40
0.8935185185185185
 40
0.8941798941798942
 40
0.8948412698412698
 40
0.8955026455026455
 40
0.8961640211640212
 40
0.8968253968253967
 40
0.8974867724867724
 40
0.8981481481481481
 40
0.8988095238095237
 40
0.8994708994708994
 40
0.9001322751322751
 40
0.9007936507936507
 40
0.9014550264550264
 40
0.9021164021164021
 40
0.9027777777777777
 40
0.9034391534391534
 40
0.9041005291005291
 40
0.9047619047619047
 40
0.9054232804232804
 40
0.906084656084656
 40
0.9067460317460317
 40
0.9074074074074073
 40
0.908068783068783
 40
0.9087301587301587
 40
0.9093915343915343
 40
0.91005291005291
 40
0.9107142857142857
 40
0.9113756613756613
 40
0.912037037037037
 40
0.9126984126984127
 40
0.9133597883597883
 40
0.914021164021164
 40
0.9146825396825397
 40
0.9153439153439153
 40
0.9160052910052909
 40
0.9166666666666666
 40
0.9173280423280423
 40
0.9179894179894179
 40
0.9186507936507936
 40
0.9193121693121693
 40
0.9199735449735449
 40
0.9206349206349206
 40
0.9212962962962963
 40
0.9219576719576719
 40
0.9226190476190476
 40
0.9232804232804233
 40
0.9239417989417988
 40
0.9246031746031745
 40
0.9252645502645502
 40
0.9259259259259258
 40
0.9265873015873015
 40
0.9272486772486772
 40
0.9279100529100529
 40
0.9285714285714285
 40
0.9292328042328042
 40
0.9298941798941799
 40
0.9305555555555555
 40
0.9312169312169312
 40
0.9318783068783069
 40
0.9325396825396824
 40
0.9332010582010581
 40
0.9338624338624338
 40
0.9345238095238094
 40
0.9351851851851851
 40
0.9358465608465608
 40
0.9365079365079365
 40
0.9371693121693121
 40
0.9378306878306878
 40
0.9384920634920635
 40
0.9391534391534391
 40
0.9398148148148148
 40
0.9404761904761905
 40
0.9411375661375661
 40
0.9417989417989417
 40
0.9424603174603174
 40
0.943121693121693
 40
0.9437830687830687
 40
0.9444444444444444
 40
0.94510582010582
 40
0.9457671957671957
 40
0.9464285714285714
 40
0.947089947089947
 40
0.9477513227513227
 40
0.9484126984126984
 40
0.9490740740740741
 40
0.9497354497354497
 40
0.9503968253968254
 40
0.951058201058201
 40
0.9517195767195766
 40
0.9523809523809523
 40
0.953042328042328
 40
0.9537037037037036
 40
0.9543650793650793
 40
0.955026455026455
 40
0.9556878306878306
 40
0.9563492063492063
 40
0.957010582010582
 40
0.9576719576719577
 40
0.9583333333333333
 40
0.958994708994709
 40
0.9596560846560847
 40
0.9603174603174602
 40
0.9609788359788359
 40
0.9616402116402116
 40
0.9623015873015872
 40
0.9629629629629629
 40
0.9636243386243386
 40
0.9642857142857142
 40
0.9649470899470899
 40
0.9656084656084656
 40
0.9662698412698412
 40
0.9669312169312169
 40
0.9675925925925926
 40
0.9682539682539681
 40
0.9689153439153438
 40
0.9695767195767195
 40
0.9702380952380952
 40
0.9708994708994708
 40
0.9715608465608465
 40
0.9722222222222222
 40
0.9728835978835978
 40
0.9735449735449735
 40
0.9742063492063492
 40
0.9748677248677248
 40
0.9755291005291005
 40
0.9761904761904762
 40
0.9768518518518517
 40
0.9775132275132274
 40
0.9781746031746031
 40
0.9788359788359788
 40
0.9794973544973544
 40
0.9801587301587301
 40
0.9808201058201058
 40
0.9814814814814814
 40
0.9821428571428571
 40
0.9828042328042328
 40
0.9834656084656084
 40
0.9841269841269841
 40
0.9847883597883598
 40
0.9854497354497354
 40
0.986111111111111
 40
0.9867724867724867
 40
0.9874338624338623
 40
0.988095238095238
 40
0.9887566137566137
 40
0.9894179894179893
 40
0.990079365079365
 40
0.9907407407407407
 40
0.9914021164021164
 40
0.992063492063492
 40
0.9927248677248677
 40
0.9933862433862434
 40
0.994047619047619
 40
0.9947089947089947
 40
0.9953703703703703
 40
0.9960317460317459
 40
0.9966931216931216
 40
0.9973544973544973
 40
0.9980158730158729
 40
0.9986772486772486
 40
0.9993386243386243
 40
1
 40
1
 40
1
 40
1
 10
35.6940758819778
 20
16.33725516354464
 30
0
 10
35.62282523957748
 20
16.49280228710599
 30
0
 10
35.54831016216188
 20
16.64672459830181
 30
0
 10
35.47060746250201
 20
16.79888563445786
 30
0
 10
35.38980232000398
 20
16.94915413098169
 30
0
 10
35.30598796385991
 20
17.09740464729592
 30
0
 10
35.21926532379769
 20
17.24351821389143
 30
0
 10
35.12974263850494
 20
17.38738300625233
 30
0
 10
35.03753501095058
 20
17.52889504972391
 30
0
 10
34.94276389931794
 20
17.6679589577022
 30
0
 10
34.84555653209446
 20
17.80448870391202
 30
0
 10
34.74604523601145
 20
17.93840842809747
 30
0
 10
34.64436666595859
 20
18.06965327326172
 30
0
 10
34.54066092666633
 20
18.19817025173528
 30
0
 10
34.43507057680294
 20
18.32391913689198
 30
0
 10
34.3277395071222
 20
18.4468733773237
 30
0
 10
34.21881168537795
 20
18.56702103077355
 30
0
 10
34.10842976186624
 20
18.68436571614644
 30
0
 10
33.99673353065715
 20
18.79892758349355
 30
0
 10
33.88385824286856
 20
18.91074430401947
 30
0
 10
33.7699327697868
 20
19.01987208490252
 30
0
 10
33.65507761539591
 20
19.12638671705023
 30
0
 10
33.53940278016513
 20
19.23038466782661
 30
0
 10
33.42300548110125
 20
19.3319842352496
 30
0
 10
33.30596773759952
 20
19.4313267850925
 30
0
 10
33.18835383921848
 20
19.52857809758206
 30
0
 10
33.07020772113894
 20
19.62392985569322
 30
0
 10
32.95155028706174
 20
19.71760131191718
 30
0
 10
32.83237673942616
 20
19.80984117401418
 30
0
 10
32.7126540053915
 20
19.90092975133632
 30
0
 10
32.59231838693982
 20
19.99118139972126
 30
0
 10
32.47127361825078
 20
20.08094729147495
 30
0
 10
32.34938958713523
 20
20.17061851270721
 30
0
 10
32.22650207369145
 20
20.26062944615316
 30
0
 10
32.10241398119187
 20
20.35146132363901
 30
0
 10
31.9768986809643
 20
20.44364571524283
 30
0
 10
31.8497062572145
 20
20.53776754554734
 30
0
 10
31.72057359917593
 20
20.63446697338809
 30
0
 10
31.58923940563746
 20
20.73443912582718
 30
0
 10
31.45546516901314
 20
20.83843023901943
 30
0
 10
31.31906298156932
 20
20.94722825921992
 30
0
 10
31.17993040484102
 20
21.06164548666402
 30
0
 10
31.03809149720199
 20
21.18249058638703
 30
0
 10
30.89374128253867
 20
21.31052754390826
 30
0
 10
30.74728850889655
 20
21.44642031247077
 30
0
 10
30.59938886463434
 20
21.59066437859953
 30
0
 10
30.45095873872129
 20
21.74351040935634
 30
0
 10
30.30315941825033
 20
21.90489006989857
 30
0
 10
30.15734464013976
 20
22.07435862532049
 30
0
 10
30.01497121893975
 20
22.25107084698423
 30
0
 10
29.87748195197716
 20
22.43380379582939
 30
0
 10
29.74617911027173
 20
22.62103144572021
 30
0
 10
29.62211160704754
 20
22.81104369530756
 30
0
 10
29.50599667757358
 20
23.0020904538393
 30
0
 10
29.39818800159999
 20
23.19252501833121
 30
0
 10
29.29869021944321
 20
23.38092247782193
 30
0
 10
29.20720946395358
 20
23.56615726602678
 30
0
 10
29.12322415682359
 20
23.7474353056271
 30
0
 10
29.04606044351905
 20
23.92428611369337
 30
0
 10
28.97496055688918
 20
24.096526120569
 30
0
 10
28.90913763783226
 20
24.26420593202487
 30
0
 10
28.84781516575064
 20
24.42755255842654
 30
0
 10
28.79025225243881
 20
24.58691443912088
 30
0
 10
28.73575758315949
 20
24.74271377376593
 30
0
 10
28.68369514805226
 20
24.89540799620916
 30
0
 10
28.63348458850994
 20
25.04546042474554
 30
0
 10
28.58459838299883
 20
25.19331911254341
 30
0
 10
28.53655746341053
 20
25.33940249528388
 30
0
 10
28.48892630866956
 20
25.48409037383026
 30
0
 10
28.44130814635009
 20
25.62771890712214
 30
0
 10
28.39334060066179
 20
25.7705785092144
 30
0
 10
28.34469193348911
 20
25.91291377640657
 30
0
 10
28.29505790789657
 20
26.05492478114489
 30
0
 10
28.2441592374864
 20
26.19676924514049
 30
0
 10
28.19173955229252
 20
26.33856524288753
 30
0
 10
28.13756379970671
 20
26.48039419206194
 30
0
 10
28.08141699861969
 20
26.62230396480863
 30
0
 10
28.02310327097155
 20
26.76431200958444
 30
0
 10
27.96244508383123
 20
26.90640841229313
 30
0
 10
27.89928264497186
 20
27.04855885228082
 30
0
 10
27.83347340458533
 20
27.19070742677759
 30
0
 10
27.76489162474216
 20
27.33277932917531
 30
0
 10
27.69342798622685
 20
27.4746833740531
 30
0
 10
27.61898920941869
 20
27.61631436650771
 30
0
 10
27.54149767197911
 20
27.75755531612452
 30
0
 10
27.46089101132728
 20
27.8982794975505
 30
0
 10
27.37712170431437
 20
28.03835236059517
 30
0
 10
27.29015662021902
 20
28.17763329342775
 30
0
 10
27.19997654624271
 20
28.31597724297292
 30
0
 10
27.10657568712917
 20
28.45323619716913
 30
0
 10
27.00996114240408
 20
28.58926053440916
 30
0
 10
26.9101523660536
 20
28.72390024625546
 30
0
 10
26.80718061425966
 20
28.85700604039972
 30
0
 10
26.70108838710708
 20
28.98843033177885
 30
0
 10
26.59192887000433
 20
29.11802813071449
 30
0
 10
26.47976537995083
 20
29.24565783784275
 30
0
 10
26.36467082078717
 20
29.37118195637861
 30
0
 10
26.2467271502391
 20
29.49446773284655
 30
0
 10
26.12602485998037
 20
29.61538773774572
 30
0
 10
26.00266246817295
 20
29.73382039765703
 30
0
 10
25.8767460220808
 20
29.84965049000866
 30
0
 10
25.87674602208081
 20
29.84965049000867
 30
0
 10
25.74838860648444
 20
29.96276961108061
 30
0
 10
25.61770985183527
 20
30.07307662685685
 30
0
 10
25.48483543446138
 20
30.18047811504982
 30
0
 10
25.349896559742
 20
30.28488880507303
 30
0
 10
25.21302941806144
 20
30.38623202098547
 30
0
 10
25.07437460257293
 20
30.48444013055117
 30
0
 10
24.9340764773661
 20
30.57945500163207
 30
0
 10
24.79228248453739
 20
30.67122846524981
 30
0
 10
24.64914237888555
 20
30.75972278289939
 30
0
 10
24.50480737945577
 20
30.84491111415575
 30
0
 10
24.35942922787819
 20
30.9267779793572
 30
0
 10
24.2131591443237
 20
31.00531971123996
 30
0
 10
24.0661466728592
 20
31.080544888887
 30
0
 10
23.91853840895145
 20
31.15247474728089
 30
0
 10
23.77047660277555
 20
31.2211435561455
 30
0
 10
23.62209763277257
 20
31.28659896264721
 30
0
 10
23.47353034453123
 20
31.34890229392272
 30
0
 10
23.32489425052511
 20
31.40812881733051
 30
0
 10
23.17629758653929
 20
31.46436795881412
 30
0
 10
23.02783522083297
 20
31.51772348286034
 30
0
 10
22.87958641233413
 20
31.56831364129446
 30
0
 10
22.73161241465994
 20
31.61627130266024
 30
0
 10
22.58395392382669
 20
31.66174407929363
 30
0
 10
22.43662836964025
 20
31.70489447554819
 30
0
 10
22.2896270546419
 20
31.74590008811624
 30
0
 10
22.14291215112672
 20
31.78495389815682
 30
0
 10
21.99641357755341
 20
31.82226470508844
 30
0
 10
21.85002579257266
 20
31.85805776341201
 30
0
 10
21.70360457055618
 20
31.89257569652666
 30
0
 10
21.5569638604309
 20
31.92607977446199
 30
0
 10
21.40987288434902
 20
31.95885165424635
 30
0
 10
21.26205370985973
 20
31.99119568942386
 30
0
 10
21.11317963524224
 20
32.02344191411753
 30
0
 10
20.96287486905884
 20
32.05594978901491
 30
0
 10
20.81071616668638
 20
32.08911274936091
 30
0
 10
20.65623730842499
 20
32.12336350043994
 30
0
 10
20.49893755457324
 20
32.15917983965844
 30
0
 10
20.33829546094888
 20
32.19709051640901
 30
0
 10
20.1737896184416
 20
32.23768024156638
 30
0
 10
20.00492787818013
 20
32.28159241089195
 30
0
 10
19.83128626569924
 20
32.32952743209862
 30
0
 10
19.65255784571512
 20
32.38223384287829
 30
0
 10
19.46861004050788
 20
32.44048890209277
 30
0
 10
19.27954620588457
 20
32.50506541401919
 30
0
 10
19.08576381044105
 20
32.5766827206037
 30
0
 10
18.88799806167839
 20
32.6559425465751
 30
0
 10
18.68733764242982
 20
32.74325480296212
 30
0
 10
18.48520014289053
 20
32.83876381862153
 30
0
 10
18.28326021483424
 20
32.94228997863026
 30
0
 10
18.08333333333334
 20
33.05330291110607
 30
0
 10
17.88722987291021
 20
33.17093820314735
 30
0
 10
17.69660362435825
 20
33.29406023087813
 30
0
 10
17.51282164073712
 20
33.42136193270692
 30
0
 10
17.33687679901993
 20
33.55148282511671
 30
0
 10
17.16935290184784
 20
33.68312307455793
 30
0
 10
17.01043929727327
 20
33.81513489852596
 30
0
 10
16.85998248014555
 20
33.94658072628344
 30
0
 10
16.71755821636323
 20
34.07675666895606
 30
0
 10
16.58254891569367
 20
34.20518681565072
 30
0
 10
16.4542151633573
 20
34.33159735260993
 30
0
 10
16.33175523905535
 20
34.45587982474083
 30
0
 10
16.21435058468279
 20
34.57805120084442
 30
0
 10
16.10119792872996
 20
34.69821599646494
 30
0
 10
15.9915301921703
 20
34.81653340970036
 30
0
 10
15.88462874250647
 20
34.93319064976281
 30
0
 10
15.77982942519591
 20
35.04838247125124
 30
0
 10
15.67652439662003
 20
35.16229627962725
 30
0
 10
15.57416130955043
 20
35.27510189786406
 30
0
 10
15.47224096618115
 20
35.38694504054948
 30
0
 10
15.3703141977172
 20
35.49794362261165
 30
0
 10
15.26797846003218
 20
35.60818616384147
 30
0
 10
15.16487444206052
 20
35.71773169520358
 30
0
 10
15.0606828517828
 20
35.82661070663885
 30
0
 10
14.95512145835767
 20
35.93482678950571
 30
0
 10
14.84794241499037
 20
36.04235871804336
 30
0
 10
14.73892985530951
 20
36.14916278493762
 30
0
 10
14.62789773887648
 20
36.25517525936242
 30
0
 10
14.51468791371472
 20
36.36031487519178
 30
0
 10
14.39916836182877
 20
36.4644852855943
 30
0
 10
14.28123159519393
 20
36.567577440618
 30
0
 10
14.1607931730845
 20
36.6694718588025
 30
0
 10
14.03779031587976
 20
36.77004077399003
 30
0
 10
13.91218059502772
 20
36.86915014561473
 30
0
 10
13.78394068328207
 20
36.96666152576535
 30
0
 10
13.65306515343506
 20
37.06243377992443
 30
0
 10
13.51956531742274
 20
37.15632466097067
 30
0
 10
13.38346810080913
 20
37.24819223812635
 30
0
 10
13.24481495023035
 20
37.33789618426422
 30
0
 10
13.1036607733854
 20
37.42529892649471
 30
0
 10
12.96007291260397
 20
37.5102666663154
 30
0
 10
12.81413015391506
 20
37.59267027684861
 30
0
 10
12.66592177391404
 20
37.6723860858187
 30
0
 10
12.51554662661344
 20
37.74929655390353
 30
0
 10
12.36311227191667
 20
37.82329085889552
 30
0
 10
12.20873414643086
 20
37.89426539668277
 30
0
 10
12.0525347761092
 20
37.96212421036527
 30
0
 10
11.89464302876274
 20
38.02677935881874
 30
0
 10
11.73519340289642
 20
38.0881512356811
 30
0
 10
11.57432534769397
 20
38.14616884905406
 30
0
 10
11.41218260739372
 20
38.20077007118866
 30
0
 10
11.41218260739372
 20
38.20077007118866
 30
0
 10
11.24891258184843
 20
38.2519018660829
 30
0
 10
11.08466569382376
 20
38.29952050130407
 30
0
 10
10.91959475262598
 20
38.34359174851351
 30
0
 10
10.75385430300541
 20
38.38409107518975
 30
0
 10
10.58759994798388
 20
38.42100382799492
 30
0
 10
10.4209876343065
 20
38.45432540619426
 30
0
 10
10.25417288960231
 20
38.48406142160226
 30
0
 10
10.08731000101731
 20
38.5102278397709
 30
0
 10
9.92055112600052
 20
38.53285109562451
 30
0
 10
9.754045327008161
 20
38.5519681755415
 30
0
 10
9.587937523062809
 20
38.56762665702848
 30
0
 10
9.422367352275241
 20
38.57988469665799
 30
0
 10
9.257467940521094
 20
38.58881095686406
 30
0
 10
9.093364572377615
 20
38.59448446251658
 30
0
 10
8.930173261093652
 20
38.59699437892485
 30
0
 10
8.767999214726078
 20
38.59643970405059
 30
0
 10
8.606935195583485
 20
38.59292886924317
 30
0
 10
8.447059769750517
 20
38.58657924475838
 30
0
 10
8.288435442728924
 20
38.5775165487206
 30
0
 10
8.131106676166928
 20
38.56587416110268
 30
0
 10
7.97509777934772
 20
38.55179234783278
 30
0
 10
7.820410667729558
 20
38.53541740445615
 30
0
 10
7.667022479627288
 20
38.51690073411283
 30
0
 10
7.514883041485611
 20
38.49639788125759
 30
0
 10
7.363912172698182
 20
38.47406755096682
 30
0
 10
7.213996823428188
 20
38.45007065438806
 30
0
 10
7.064988044627359
 20
38.42456943455083
 30
0
 10
6.916697800215891
 20
38.39772674414709
 30
0
 10
6.768895649699291
 20
38.36970556883315
 30
0
 10
6.621305358870082
 20
38.34066891686886
 30
0
 10
6.473601541439495
 20
38.31078022894599
 30
0
 10
6.325406501740693
 20
38.28020450055023
 30
0
 10
6.176287545929373
 20
38.24911035129432
 30
0
 10
6.025755165611208
 20
38.21767331670871
 30
0
 10
5.873262683052462
 20
38.18608066867704
 30
0
 10
5.71820818826925
 20
38.1545380745107
 30
0
 10
5.559939895068688
 20
38.12327835467484
 30
0
 10
5.397766378733699
 20
38.09257245531904
 30
0
 10
5.230973485001617
 20
38.06274246021575
 30
0
 10
5.058849920874478
 20
38.03417596566047
 30
0
 10
4.880723484923453
 20
38.00734037998708
 30
0
 10
4.696009320106214
 20
37.98279468457692
 30
0
 10
4.504270170988748
 20
37.96119501651585
 30
0
 10
4.30528612998163
 20
37.94328940623491
 30
0
 10
4.099127719986793
 20
37.9298966703439
 30
0
 10
3.88622184298099
 20
37.92186554756653
 30
0
 10
3.66739633438557
 20
37.92001331746206
 30
0
 10
3.443887523449431
 20
37.92504841687928
 30
0
 10
3.217298336664466
 20
37.93748790166185
 30
0
 10
2.989503014715441
 20
37.95758567322243
 30
0
 10
2.762507005425791
 20
37.98528839673715
 30
0
 10
2.5382830217058
 20
38.02023128548819
 30
0
 10
2.318611558512485
 20
38.06177630986818
 30
0
 10
2.104953012593322
 20
38.109084445787
 30
0
 10
1.898369404133783
 20
38.16120569013621
 30
0
 10
1.699500556390007
 20
38.21716850621358
 30
0
 10
1.508587579803212
 20
38.27605394436111
 30
0
 10
1.325529214634896
 20
38.33704641854065
 30
0
 10
1.149954834532396
 20
38.39945996593958
 30
0
 10
0.9813003205710764
 20
38.46274369815822
 30
0
 10
0.8188773774740845
 20
38.5264724475161
 30
0
 10
0.6619313133696103
 20
38.59032877820852
 30
0
 10
0.5096857929171268
 20
38.65408144997883
 30
0
 10
0.3613753028563256
 20
38.71756389837807
 30
0
 10
0.2162671948870276
 20
38.78065485336204
 30
0
 10
0.0736755198119301
 20
38.84326209612085
 30
0
 10
-0.06703123981403891
 20
38.90530959778971
 30
0
 10
-0.2064267515184763
 20
38.96672783951696
 30
0
 10
-0.3450263226517691
 20
39.02744689616253
 30
0
 10
-0.4832882496483499
 20
39.08739179496561
 30
0
 10
-0.6216162791089612
 20
39.1464796733324
 30
0
 10
-0.7603626680818554
 20
39.20461831375588
 30
0
 10
-0.8998315057172164
 20
39.2617057024189
 30
0
 10
-1.040282083455246
 20
39.31763032656566
 30
0
 10
-1.181932187314796
 20
39.37227198712548
 30
0
 10
-1.324961243672647
 20
39.42550295471679
 30
0
 10
-1.469513287264196
 20
39.47718933886944
 30
0
 10
-1.615699743197943
 20
39.52719257307916
 30
0
 10
-1.76360202812721
 20
39.57537094357943
 30
0
 10
-1.913273982637321
 20
39.62158110896365
 30
0
 10
-2.064744149681548
 20
39.66567957234911
 30
0
 10
-2.218017914119153
 20
39.70752407877053
 30
0
 10
-2.373079517151275
 20
39.74697491883103
 30
0
 10
-2.52989395743915
 20
39.78389612602432
 30
0
 10
-2.688408788403924
 20
39.81815656010882
 30
0
 10
-2.84855581896119
 20
39.84963087285184
 30
0
 10
-3.010252722936155
 20
39.87820035564967
 30
0
 10
-3.173404560758014
 20
39.90375367115824
 30
0
 10
-3.337905215812441
 20
39.92618747326237
 30
0
 10
-3.503638747066342
 20
39.94540692154104
 30
0
 10
-3.670480659268026
 20
39.96132609788666
 30
0
 10
-3.8382990921431
 20
39.97386833411628
 30
0
 10
-4.006955930508107
 20
39.98296646026526
 30
0
 10
-4.176307838049194
 20
39.98856298376333
 30
0
 10
-4.346207218589576
 20
39.99061020984271
 30
0
 10
-4.516503109913891
 20
39.9890703133082
 30
0
 10
-4.687042016541033
 20
39.98391537120601
 30
0
 10
-4.857668689148277
 20
39.97512736497605
 30
0
 10
-5.028226859560865
 20
39.96269815938501
 30
0
 10
-5.198559941250743
 20
39.94662946395897
 30
0
 10
-5.198559941250751
 20
39.94662946395898
 30
0
 10
-5.368511706066569
 20
39.92693278082054
 30
0
 10
-5.537926948391147
 20
39.90362934085516
 30
0
 10
-5.706652148057295
 20
39.87675002806384
 30
0
 10
-5.874536143134938
 20
39.84633528988597
 30
0
 10
-6.041430823140818
 20
39.81243502928202
 30
0
 10
-6.207191852346895
 20
39.77510847252727
 30
0
 10
-6.37167943172472
 20
39.73442400505512
 30
0
 10
-6.534759106727896
 20
39.69045896635886
 30
0
 10
-6.696302626662423
 20
39.64329939395359
 30
0
 10
-6.856188859913892
 20
39.59303970574034
 30
0
 10
-7.014304767882839
 20
39.53978230981094
 30
0
 10
-7.170546439216525
 20
39.48363713077445
 30
0
 10
-7.3248201849039
 20
39.42472104205738
 30
0
 10
-7.477043694098807
 20
39.36315719429904
 30
0
 10
-7.627147250223312
 20
39.2990742309021
 30
0
 10
-7.775075007033573
 20
39.23260538297668
 30
0
 10
-7.920786324946986
 20
39.16388743731948
 30
0
 10
-8.064257169057631
 20
39.09305957270004
 30
0
 10
-8.2054815719162
 20
39.02026206161781
 30
0
 10
-8.344473166308326
 20
38.94563483692266
 30
0
 10
-8.481266795891528
 20
38.86931592539238
 30
0
 10
-8.615920214566588
 20
38.79143975374483
 30
0
 10
-8.748515888727059
 20
38.71213533694583
 30
0
 10
-8.879162919825866
 20
38.63152436450202
 30
0
 10
-9.007999107661741
 20
38.5497192083244
 30
0
 10
-9.13519317685957
 20
38.46682088654975
 30
0
 10
-9.260947189331002
 20
38.38291703252482
 30
0
 10
-9.385499162739869
 20
38.29807993842277
 30
0
 10
-9.509125907191891
 20
38.21236477045642
 30
0
 10
-9.632146076624947
 20
38.12580808950683
 30
0
 10
-9.754923403523442
 20
38.03842685954879
 30
0
 10
-9.877870039758159
 20
37.95021818879116
 30
0
 10
-10.00144985460035
 20
37.86116012647349
 30
0
 10
-10.12618143295253
 20
37.77121393128124
 30
0
 10
-10.25264036011244
 20
37.68032833072676
 30
0
 10
-10.3814601606436
 20
37.58844639240191
 30
0
 10
-10.51333096747629
 20
37.49551570305694
 30
0
 10
-10.64899463224744
 20
37.40150255654773
 30
0
 10
-10.78923457061217
 20
37.30641071833413
 30
0
 10
-10.93485823067392
 20
37.21030496632508
 30
0
 10
-11.08666981109127
 20
37.11333889032819
 30
0
 10
-11.24543096356921
 20
37.01578526245524
 30
0
 10
-11.41180801581902
 20
36.91806564595321
 30
0
 10
-11.58630611480655
 20
36.82077395614985
 30
0
 10
-11.76919387737425
 20
36.72468690348807
 30
0
 10
-11.96042652229971
 20
36.63075348605057
 30
0
 10
-12.1595802018385
 20
36.54005703686668
 30
0
 10
-12.36581362024682
 20
36.45374760561003
 30
0
 10
-12.57787273686721
 20
36.37294951523837
 30
0
 10
-12.79414861864383
 20
36.29865703859836
 30
0
 10
-13.01278750459982
 20
36.23163714101949
 30
0
 10
-13.23183885969172
 20
36.17235894787956
 30
0
 10
-13.4494166108185
 20
36.12096378267075
 30
0
 10
-13.66384535732326
 20
36.0772791556173
 30
0
 10
-13.87376849441442
 20
36.04086915821988
 30
0
 10
-14.07820635488575
 20
36.01110648710061
 30
0
 10
-14.27656490288981
 20
35.98724970842505
 30
0
 10
-14.46860491507348
 20
35.96851256122665
 30
0
 10
-14.65438596924603
 20
35.9541176399753
 30
0
 10
-14.83419934719023
 20
35.9433322352381
 30
0
 10
-15.00850090665468
 20
35.93548798210148
 30
0
 10
-15.17785098019717
 20
35.92998792768944
 30
0
 10
-15.34286473155594
 20
35.92630505948561
 30
0
 10
-15.50417374402788
 20
35.92397585100051
 30
0
 10
-15.66239800016897
 20
35.92259152162595
 30
0
 10
-15.81812663698342
 20
35.92178882461317
 30
0
 10
-15.97190565063937
 20
35.9212414428525
 30
0
 10
-16.12423083663648
 20
35.92065253610833
 30
0
 10
-16.27554451054726
 20
35.91974863020474
 30
0
 10
-16.42623485282859
 20
35.91827482816335
 30
0
 10
-16.57663700110036
 20
35.91599121270097
 30
0
 10
-16.72703524994969
 20
35.91267026308363
 30
0
 10
-16.87766590588094
 20
35.90809510085192
 30
0
 10
-17.02872048708752
 20
35.90205839070433
 30
0
 10
-17.1803490616312
 20
35.89436174377164
 30
0
 10
-17.33266359144359
 20
35.88481549417531
 30
0
 10
-17.48574120064258
 20
35.87323874267977
 30
0
 10
-17.63962732105512
 20
35.85945958180985
 30
0
 10
-17.79433869031336
 20
35.84331543446163
 30
0
 10
-17.94986619203691
 20
35.82465345280526
 30
0
 10
-18.10617753607074
 20
35.80333093645035
 30
0
 10
-18.2632197814215
 20
35.77921573879999
 30
0
 10
-18.420921706779
 20
35.75218663865022
 30
0
 10
-18.57919603426887
 20
35.72213366074384
 30
0
 10
-18.73794151201557
 20
35.68895833445426
 30
0
 10
-18.89704486064432
 20
35.65257388428564
 30
0
 10
-19.05638258831313
 20
35.61290534960427
 30
0
 10
-19.21582267843074
 20
35.56988963408752
 30
0
 10
-19.37522615399421
 20
35.52347548787679
 30
0
 10
-19.53444852252492
 20
35.47362342740286
 30
0
 10
-19.69334110590852
 20
35.42030559934955
 30
0
 10
-19.85175226003093
 20
35.36350559625195
 30
0
 10
-20.00952848990777
 20
35.30321823180005
 30
0
 10
-20.16651546696554
 20
35.23944928404855
 30
0
 10
-20.32255895617764
 20
35.17221521443249
 30
0
 10
-20.47750566180503
 20
35.10154286978129
 30
0
 10
-20.6312040014597
 20
35.02746917344409
 30
0
 10
-20.78350481901942
 20
34.95004081023551
 30
0
 10
-20.93426204750547
 20
34.86931390824294
 30
0
 10
-21.08333333333333
 20
34.78535371867494
 30
0
 10
-21.08333333333334
 20
34.78535371867495
 30
0
 10
-21.23058063331972
 20
34.6982342929572
 30
0
 10
-21.37587079545712
 20
34.60803815428043
 30
0
 10
-21.51907613374905
 20
34.51485595886086
 30
0
 10
-21.66007500635662
 20
34.41878614036903
 30
0
 10
-21.79875240498327
 20
34.3199345293886
 30
0
 10
-21.93500056187664
 20
34.21841393844379
 30
0
 10
-22.06871957913092
 20
34.11434370212419
 30
0
 10
-22.19981808321189
 20
34.00784916116346
 30
0
 10
-22.32821390589067
 20
33.89906107899943
 30
0
 10
-22.45383479115123
 20
33.78811497934295
 30
0
 10
-22.57661912621802
 20
33.6751503935816
 30
0
 10
-22.69651669371321
 20
33.56031000739747
 30
0
 10
-22.81348944117148
 20
33.44373869673232
 30
0
 10
-22.92751226377085
 20
33.32558244413053
 30
0
 10
-23.03857379623397
 20
33.20598712747515
 30
0
 10
-23.14667721045294
 20
33.08509717415541
 30
0
 10
-23.25184101652418
 20
32.9630540747355
 30
0
 10
-23.35409986657407
 20
32.83999475122506
 30
0
 10
-23.45350536303195
 20
32.71604977610912
 30
0
 10
-23.55012687588481
 20
32.59134143945359
 30
0
 10
-23.64405237694596
 20
32.46598166280204
 30
0
 10
-23.73538930330109
 20
32.34006976044427
 30
0
 10
-23.82426546686354
 20
32.21369005131213
 30
0
 10
-23.91083003235148
 20
32.086909328743
 30
0
 10
-23.99525459191895
 20
31.95977420135814
 30
0
 10
-24.07773437095847
 20
31.83230832733004
 30
0
 10
-24.15848960590485
 20
31.70450957772091
 30
0
 10
-24.23776714058957
 20
31.5763471842116
 30
0
 10
-24.31584229174754
 20
31.44775895483205
 30
0
 10
-24.39302103488632
 20
31.31864868137613
 30
0
 10
-24.46964255603498
 20
31.18888391787622
 30
0
 10
-24.5460821984655
 20
31.05829438528133
 30
0
 10
-24.62275479966497
 20
30.92667135794373
 30
0
 10
-24.70011835300326
 20
30.79376851642909
 30
0
 10
-24.77867782741509
 20
30.65930490935745
 30
0
 10
-24.85898881989121
 20
30.52297084873164
 30
0
 10
-24.94166047984599
 20
30.38443775031412
 30
0
 10
-25.02735681294867
 20
30.24337308376557
 30
0
 10
-25.11679503656295
 20
30.09946164515102
 30
0
 10
-25.2107391387852
 20
29.95243419330389
 30
0
 10
-25.30998626224982
 20
29.80210394243252
 30
0
 10
-25.41534315682524
 20
29.64841029060291
 30
0
 10
-25.52759000838533
 20
29.49146733510797
 30
0
 10
-25.64742985877286
 20
29.33161218281644
 30
0
 10
-25.7754240182823
 20
29.16944513771258
 30
0
 10
-25.91191756952577
 20
29.00585136684821
 30
0
 10
-26.05696393956129
 20
28.84199293860016
 30
0
 10
-26.2102623338272
 20
28.67926266143048
 30
0
 10
-26.37112443252276
 20
28.51919771975746
 30
0
 10
-26.53848480936309
 20
28.36336083905388
 30
0
 10
-26.71096192233172
 20
28.21320666952946
 30
0
 10
-26.88696467948104
 20
28.06995713261792
 30
0
 10
-27.06482754873964
 20
27.93450846879535
 30
0
 10
-27.24294981753533
 20
27.80738454764955
 30
0
 10
-27.41991486576322
 20
27.68873892782996
 30
0
 10
-27.59457257562695
 20
27.57839700573593
 30
0
 10
-27.76607870006755
 20
27.47592306400233
 30
0
 10
-27.93389489653128
 20
27.38069611839823
 30
0
 10
-28.09775939273955
 20
27.29198174115471
 30
0
 10
-28.25764026806682
 20
27.20899209392306
 30
0
 10
-28.41368212078736
 20
27.13093118092205
 30
0
 10
-28.56615403755526
 20
27.05702575077983
 30
0
 10
-28.71540364310751
 20
26.98654414397212
 30
0
 10
-28.86181938428781
 20
26.91880601990995
 30
0
 10
-29.00580137729166
 20
26.85318576930193
 30
0
 10
-29.14774007979
 20
26.78911192612338
 30
0
 10
-29.28800155897633
 20
26.72606430821239
 30
0
 10
-29.42691801077635
 20
26.66357008032291
 30
0
 10
-29.56478227860387
 20
26.60119950541261
 30
0
 10
-29.70184530701071
 20
26.53856183628879
 30
0
 10
-29.83831567629684
 20
26.47530158485668
 30
0
 10
-29.97436056147136
 20
26.41109526755724
 30
0
 10
-30.11010762685142
 20
26.34564864154471
 30
0
 10
-30.24564750214815
 20
26.27869439912909
 30
0
 10
-30.38103658933501
 20
26.20999026488037
 30
0
 10
-30.51630002666332
 20
26.13931743137657
 30
0
 10
-30.65143469217282
 20
26.06647926973789
 30
0
 10
-30.78641216883331
 20
25.9913002558825
 30
0
 10
-30.9211816211671
 20
25.91362506042726
 30
0
 10
-31.0556725521331
 20
25.83331775789747
 30
0
 10
-31.18979742172909
 20
25.75026111858896
 30
0
 10
-31.32345411708786
 20
25.66435595362026
 30
0
 10
-31.45652826919942
 20
25.57552049022776
 30
0
 10
-31.58889541479115
 20
25.48368976012445
 30
0
 10
-31.72042300405998
 20
25.38881498876463
 30
0
 10
-31.85097225637377
 20
25.29086297766089
 30
0
 10
-31.98039986708466
 20
25.18981547552405
 30
0
 10
-32.10855956944894
 20
25.08566853698034
 30
0
 10
-32.23530355646141
 20
24.97843186999386
 30
0
 10
-32.36048376826016
 20
24.86812817491503
 30
0
 10
-32.48395305166485
 20
24.75479247931046
 30
0
 10
-32.60556619936669
 20
24.63847147343305
 30
0
 10
-32.7251808772576
 20
24.51922285138751
 30
0
 10
-32.84265844931684
 20
24.39711466277539
 30
0
 10
-32.9578647103053
 20
24.27222467890285
 30
0
 10
-33.07067053718617
 20
24.14463977656325
 30
0
 10
-33.18095247063648
 20
24.01445534102614
 30
0
 10
-33.28859323818311
 20
23.8817746882523
 30
0
 10
-33.39348223035096
 20
23.7467085045936
 30
0
 10
-33.49551594072705
 20
23.60937430041433
 30
0
 10
-33.49551594072705
 20
23.60937430041434
 30
0
 10
-33.59459838001661
 20
23.46989587227903
 30
0
 10
-33.69064147301361
 20
23.32840276667425
 30
0
 10
-33.78356544596097
 20
23.18502973674814
 30
0
 10
-33.87329921009009
 20
23.03991618232651
 30
0
 10
-33.95978074527034
 20
22.8932055625468
 30
0
 10
-34.04295748574849
 20
22.7450447698719
 30
0
 10
-34.12278670799684
 20
22.59558345401293
 30
0
 10
-34.19923591880748
 20
22.44497328439238
 30
0
 10
-34.27228324004991
 20
22.29336714018446
 30
0
 10
-34.34191778502812
 20
22.14091821762902
 30
0
 10
-34.40814002019902
 20
21.9877790451649
 30
0
 10
-34.47096210520058
 20
21.83410039789652
 30
0
 10
-34.53040820373017
 20
21.68003010391439
 30
0
 10
-34.58651475784175
 20
21.52571173595986
 30
0
 10
-34.63933071871827
 20
21.37128318278512
 30
0
 10
-34.6889177279388
 20
21.21687509525078
 30
0
 10
-34.73535024471497
 20
21.06260920268459
 30
0
 10
-34.77871561653799
 20
20.90859649527699
 30
0
 10
-34.81911409318702
 20
20.75493526832964
 30
0
 10
-34.85665878714947
 20
20.60170902406114
 30
0
 10
-34.89147558726871
 20
20.4489842265292
 30
0
 10
-34.92370303696718
 20
20.29680790525256
 30
0
 10
-34.95349219383706
 20
20.14520510361987
 30
0
 10
-34.98100649392687
 20
19.9941761696243
 30
0
 10
-35.00642165190368
 20
19.84369388954343
 30
0
 10
-35.02992563768368
 20
19.69370047087244
 30
0
 10
-35.05171878134451
 20
19.54410439050173
 30
0
 10
-35.07201407134431
 20
19.39477713974171
 30
0
 10
-35.09103772628254
 20
19.24554992199609
 30
0
 10
-35.10903013729147
 20
19.09621039524436
 30
0
 10
-35.12624729559901
 20
18.94649960468759
 30
0
 10
-35.14296283561675
 20
18.79610932680974
 30
0
 10
-35.15947083387741
 20
18.64468015163655
 30
0
 10
-35.17608950100379
 20
18.49180077248183
 30
0
 10
-35.19316587585134
 20
18.33700913811922
 30
0
 10
-35.21108156007082
 20
18.17979635283073
 30
0
 10
-35.23025939209305
 20
18.01961447659074
 30
0
 10
-35.25117071900707
 20
17.85588965238134
 30
0
 10
-35.27434254648723
 20
17.68804220849668
 30
0
 10
-35.30036330214039
 20
17.51551543893832
 30
0
 10
-35.32988523937342
 20
17.33781447927558
 30
0
 10
-35.36362071183689
 20
17.15455583215363
 30
0
 10
-35.40232886234188
 20
16.96552640045285
 30
0
 10
-35.44678906528655
 20
16.77074819374283
 30
0
 10
-35.49775826876812
 20
16.57054131153669
 30
0
 10
-35.55591175131462
 20
16.36557403643067
 30
0
 10
-35.62177097676282
 20
16.15688623996962
 30
0
 10
-35.69562766184556
 20
15.94587266016771
 30
0
 10
-35.77747822436554
 20
15.73421754975293
 30
0
 10
-35.8669849666926
 20
15.52378187739305
 30
0
 10
-35.9634774469362
 20
15.31645645594165
 30
0
 10
-36.06599913049698
 20
15.11400472157172
 30
0
 10
-36.17339301195915
 20
14.91792286362276
 30
0
 10
-36.28440984458098
 20
14.72934052923531
 30
0
 10
-36.39781793943
 20
14.54897419252197
 30
0
 10
-36.51249559393521
 20
14.37713214020813
 30
0
 10
-36.62749432781234
 20
14.21375971088876
 30
0
 10
-36.74206976362526
 20
14.05850857088355
 30
0
 10
-36.85568404181264
 20
13.91081425941808
 30
0
 10
-36.96798755870674
 20
13.76997003363561
 30
0
 10
-37.07878865075226
 20
13.63518990178923
 30
0
 10
-37.18801863117251
 20
13.50565801619817
 30
0
 10
-37.29569747822817
 20
13.38056458090892
 30
0
 10
-37.40190333632151
 20
13.25913007830156
 30
0
 10
-37.5067472715624
 20
13.1406202439315
 30
0
 10
-37.61035354861004
 20
13.02435420416531
 30
0
 10
-37.7128450093399
 20
12.90970785601044
 30
0
 10
-37.81433281041025
 20
12.79611412671999
 30
0
 10
-37.91490968778959
 20
12.68306132182386
 30
0
 10
-38.01464595953188
 20
12.57009040765447
 30
0
 10
-38.11358758318841
 20
12.45679179242659
 30
0
 10
-38.21175570811246
 20
12.3428019630022
 30
0
 10
-38.30914728211376
 20
12.22780018941034
 30
0
 10
-38.40573637572071
 20
12.11150541150055
 30
0
 10
-38.5014759724049
 20
11.99367335890489
 30
0
 10
-38.59630004010531
 20
11.87409391644895
 30
0
 10
-38.69012575059883
 20
11.75258872452839
 30
0
 10
-38.78285575156079
 20
11.62900899216301
 30
0
 10
-38.87438042431958
 20
11.50323349555197
 30
0
 10
-38.96458008075226
 20
11.3751667343251
 30
0
 10
-39.05332706747108
 20
11.2447372195453
 30
0
 10
-39.14048775597736
 20
11.11189587070527
 30
0
 10
-39.22592440500217
 20
10.97661450273546
 30
0
 10
-39.30949688670519
 20
10.83888438792607
 30
0
 10
-39.39106427242094
 20
10.69871488137437
 30
0
 10
-39.47048627669198
 20
10.55613210192143
 30
0
 10
-39.54762456074012
 20
10.41117766343632
 30
0
 10
-39.62234389851795
 20
10.26390745368508
 30
0
 10
-39.69451321019199
 20
10.11439045985937
 30
0
 10
-39.76400646941224
 20
9.96270764113236
 30
0
 10
-39.83070349205412
 20
9.808950849369049
 30
0
 10
-39.89449061527698
 20
9.65322179937119
 30
0
 10
-39.95526127670939
 20
9.495631089823414
 30
0
 10
-40.01291650431083
 20
9.336297275479771
 30
0
 10
-40.06736532793472
 20
9.175345990152188
 30
0
 10
-40.11852512379259
 20
9.012909118811161
 30
0
 10
-40.16632190286508
 20
8.849124015666971
 30
0
 10
-40.21069055380413
 20
8.684132763558365
 30
0
 10
-40.25157505002138
 20
8.51808146842588
 30
0
 10
-40.28892862947451
 20
8.351119581180008
 30
0
 10
-40.28892862947453
 20
8.351119581179999
 30
0
 10
-40.32271395417841
 20
8.183399237973456
 30
0
 10
-40.3529032547317
 20
8.01507460882425
 30
0
 10
-40.37947846322412
 20
7.846301243768918
 30
0
 10
-40.4024313358512
 20
7.677235405292236
 30
0
 10
-40.4217635644923
 20
7.508033375697292
 30
0
 10
-40.43748687448959
 20
7.338850728344342
 30
0
 10
-40.44962310397954
 20
7.169841552271452
 30
0
 10
-40.45820425845143
 20
7.001157620568893
 30
0
 10
-40.46327253280062
 20
6.832947493949219
 30
0
 10
-40.46488029205975
 20
6.665355552159641
 30
0
 10
-40.46309000126359
 20
6.498520947137509
 30
0
 10
-40.45797409455405
 20
6.332576473024263
 30
0
 10
-40.44961477366833
 20
6.167647349239347
 30
0
 10
-40.43810372637419
 20
6.003849913689779
 30
0
 10
-40.42354175621061
 20
5.841290223778929
 30
0
 10
-40.40603831605464
 20
5.680062563118127
 30
0
 10
-40.38571093955895
 20
5.520247851692011
 30
0
 10
-40.36268456640487
 20
5.361911956659521
 30
0
 10
-40.3370907596238
 20
5.205103899988379
 30
0
 10
-40.3090668160269
 20
5.049853957757657
 30
0
 10
-40.27875477416291
 20
4.89617164429983
 30
0
 10
-40.24630032837467
 20
4.744043572531545
 30
0
 10
-40.21185166270318
 20
4.593431180068793
 30
0
 10
-40.17555822494977
 20
4.444268309389429
 30
0
 10
-40.13756946963226
 20
4.296458629927113
 30
0
 10
-40.09803360948439
 20
4.149872891348892
 30
0
 10
-40.05709642933621
 20
4.004346001550417
 30
0
 10
-40.01490023463318
 20
3.859673931791573
 30
0
 10
-39.97158303058838
 20
3.715610467314814
 30
0
 10
-39.92727805814809
 20
3.571863848149659
 30
0
 10
-39.88211385053017
 20
3.428093386303127
 30
0
 10
-39.83621501941016
 20
3.283906208440197
 30
0
 10
-39.78970403186227
 20
3.13885436550972
 30
0
 10
-39.74270429425475
 20
2.992432682236325
 30
0
 10
-39.69534490919285
 20
2.844077900401897
 30
0
 10
-39.64776750059529
 20
2.693169909260408
 30
0
 10
-39.6001354833032
 20
2.539036156806502
 30
0
 10
-39.55264604563168
 20
2.380960684435406
 30
0
 10
-39.50554485749694
 20
2.218199583174446
 30
0
 10
-39.45914304153744
 20
2.050004941717987
 30
0
 10
-39.41383518139291
 20
1.875659383552105
 30
0
 10
-39.37011606207835
 20
1.694522826077758
 30
0
 10
-39.32859252065343
 20
1.506091824190669
 30
0
 10
-39.28998550315784
 20
1.310069484506769
 30
0
 10
-39.2551167122889
 20
1.10644035395423
 30
0
 10
-39.22487486069833
 20
0.8955402785416089
 30
0
 10
-39.20015928316694
 20
0.6781071297448014
 30
0
 10
-39.18180376724879
 20
0.4552964122566037
 30
0
 10
-39.17049008774445
 20
0.2286482245170989
 30
0
 10
-39.16666666666666
 20
-1.77635683940025e-15
 30
0
 10
-39.17049008774445
 20
-0.2286482245171015
 30
0
 10
-39.18180376724878
 20
-0.4552964122566108
 30
0
 10
-39.20015928316694
 20
-0.6781071297448049
 30
0
 10
-39.22487486069833
 20
-0.8955402785416107
 30
0
 10
-39.25511671228889
 20
-1.10644035395423
 30
0
 10
-39.28998550315784
 20
-1.310069484506776
 30
0
 10
-39.32859252065344
 20
-1.506091824190675
 30
0
 10
-39.37011606207835
 20
-1.694522826077765
 30
0
 10
-39.4138351813929
 20
-1.875659383552109
 30
0
 10
-39.45914304153744
 20
-2.05000494171799
 30
0
 10
-39.50554485749694
 20
-2.21819958317445
 30
0
 10
-39.55264604563168
 20
-2.380960684435412
 30
0
 10
-39.6001354833032
 20
-2.539036156806505
 30
0
 10
-39.6477675005953
 20
-2.693169909260412
 30
0
 10
-39.69534490919285
 20
-2.844077900401905
 30
0
 10
-39.74270429425476
 20
-2.992432682236331
 30
0
 10
-39.78970403186226
 20
-3.138854365509721
 30
0
 10
-39.83621501941017
 20
-3.283906208440198
 30
0
 10
-39.88211385053017
 20
-3.428093386303134
 30
0
 10
-39.9272780581481
 20
-3.571863848149665
 30
0
 10
-39.97158303058836
 20
-3.715610467314815
 30
0
 10
-40.01490023463318
 20
-3.859673931791579
 30
0
 10
-40.05709642933621
 20
-4.004346001550418
 30
0
 10
-40.09803360948439
 20
-4.149872891348893
 30
0
 10
-40.13756946963227
 20
-4.296458629927119
 30
0
 10
-40.17555822494976
 20
-4.444268309389432
 30
0
 10
-40.21185166270317
 20
-4.593431180068795
 30
0
 10
-40.24630032837465
 20
-4.744043572531552
 30
0
 10
-40.27875477416291
 20
-4.896171644299836
 30
0
 10
-40.3090668160269
 20
-5.049853957757663
 30
0
 10
-40.33709075962381
 20
-5.205103899988383
 30
0
 10
-40.36268456640487
 20
-5.361911956659525
 30
0
 10
-40.38571093955894
 20
-5.520247851692016
 30
0
 10
-40.40603831605464
 20
-5.680062563118131
 30
0
 10
-40.42354175621061
 20
-5.841290223778933
 30
0
 10
-40.43810372637419
 20
-6.00384991368978
 30
0
 10
-40.44961477366834
 20
-6.167647349239354
 30
0
 10
-40.45797409455405
 20
-6.33257647302427
 30
0
 10
-40.4630900012636
 20
-6.498520947137516
 30
0
 10
-40.46488029205975
 20
-6.665355552159646
 30
0
 10
-40.46327253280061
 20
-6.832947493949225
 30
0
 10
-40.45820425845142
 20
-7.001157620568897
 30
0
 10
-40.44962310397955
 20
-7.169841552271456
 30
0
 10
-40.4374868744896
 20
-7.338850728344342
 30
0
 10
-40.4217635644923
 20
-7.508033375697298
 30
0
 10
-40.4024313358512
 20
-7.677235405292242
 30
0
 10
-40.37947846322413
 20
-7.846301243768923
 30
0
 10
-40.3529032547317
 20
-8.015074608824257
 30
0
 10
-40.3227139541784
 20
-8.183399237973461
 30
0
 10
-40.28892862947452
 20
-8.351119581179997
 30
0
 10
-40.28892862947452
 20
-8.351119581180006
 30
0
 10
-40.25157505002139
 20
-8.518081468425885
 30
0
 10
-40.21069055380413
 20
-8.68413276355837
 30
0
 10
-40.16632190286507
 20
-8.849124015666971
 30
0
 10
-40.11852512379258
 20
-9.012909118811166
 30
0
 10
-40.06736532793471
 20
-9.175345990152191
 30
0
 10
-40.01291650431083
 20
-9.336297275479767
 30
0
 10
-39.95526127670939
 20
-9.495631089823414
 30
0
 10
-39.89449061527698
 20
-9.653221799371192
 30
0
 10
-39.83070349205412
 20
-9.808950849369054
 30
0
 10
-39.76400646941223
 20
-9.962707641132358
 30
0
 10
-39.69451321019198
 20
-10.11439045985937
 30
0
 10
-39.62234389851794
 20
-10.26390745368509
 30
0
 10
-39.54762456074012
 20
-10.41117766343632
 30
0
 10
-39.47048627669197
 20
-10.55613210192143
 30
0
 10
-39.39106427242093
 20
-10.69871488137437
 30
0
 10
-39.30949688670519
 20
-10.83888438792607
 30
0
 10
-39.22592440500217
 20
-10.97661450273547
 30
0
 10
-39.14048775597736
 20
-11.11189587070528
 30
0
 10
-39.05332706747107
 20
-11.2447372195453
 30
0
 10
-38.96458008075226
 20
-11.3751667343251
 30
0
 10
-38.87438042431958
 20
-11.50323349555197
 30
0
 10
-38.7828557515608
 20
-11.62900899216302
 30
0
 10
-38.69012575059885
 20
-11.75258872452839
 30
0
 10
-38.59630004010531
 20
-11.87409391644895
 30
0
 10
-38.5014759724049
 20
-11.99367335890489
 30
0
 10
-38.40573637572071
 20
-12.11150541150055
 30
0
 10
-38.30914728211375
 20
-12.22780018941034
 30
0
 10
-38.21175570811247
 20
-12.34280196300221
 30
0
 10
-38.1135875831884
 20
-12.45679179242659
 30
0
 10
-38.01464595953188
 20
-12.57009040765447
 30
0
 10
-37.91490968778959
 20
-12.68306132182386
 30
0
 10
-37.81433281041024
 20
-12.79611412671999
 30
0
 10
-37.71284500933989
 20
-12.90970785601044
 30
0
 10
-37.61035354861003
 20
-13.02435420416531
 30
0
 10
-37.5067472715624
 20
-13.1406202439315
 30
0
 10
-37.4019033363215
 20
-13.25913007830156
 30
0
 10
-37.29569747822816
 20
-13.38056458090892
 30
0
 10
-37.1880186311725
 20
-13.50565801619817
 30
0
 10
-37.07878865075225
 20
-13.63518990178923
 30
0
 10
-36.96798755870674
 20
-13.76997003363561
 30
0
 10
-36.85568404181264
 20
-13.91081425941808
 30
0
 10
-36.74206976362526
 20
-14.05850857088355
 30
0
 10
-36.62749432781233
 20
-14.21375971088876
 30
0
 10
-36.51249559393521
 20
-14.37713214020814
 30
0
 10
-36.39781793943001
 20
-14.54897419252197
 30
0
 10
-36.28440984458098
 20
-14.72934052923531
 30
0
 10
-36.17339301195915
 20
-14.91792286362277
 30
0
 10
-36.06599913049698
 20
-15.11400472157172
 30
0
 10
-35.9634774469362
 20
-15.31645645594165
 30
0
 10
-35.86698496669259
 20
-15.52378187739305
 30
0
 10
-35.77747822436554
 20
-15.73421754975293
 30
0
 10
-35.69562766184556
 20
-15.94587266016772
 30
0
 10
-35.62177097676281
 20
-16.15688623996962
 30
0
 10
-35.55591175131461
 20
-16.36557403643067
 30
0
 10
-35.49775826876811
 20
-16.57054131153669
 30
0
 10
-35.44678906528655
 20
-16.77074819374283
 30
0
 10
-35.40232886234188
 20
-16.96552640045286
 30
0
 10
-35.36362071183688
 20
-17.15455583215364
 30
0
 10
-35.32988523937342
 20
-17.33781447927558
 30
0
 10
-35.30036330214038
 20
-17.51551543893832
 30
0
 10
-35.27434254648722
 20
-17.68804220849669
 30
0
 10
-35.25117071900708
 20
-17.85588965238135
 30
0
 10
-35.23025939209305
 20
-18.01961447659074
 30
0
 10
-35.21108156007083
 20
-18.17979635283073
 30
0
 10
-35.19316587585133
 20
-18.33700913811923
 30
0
 10
-35.17608950100379
 20
-18.49180077248184
 30
0
 10
-35.15947083387741
 20
-18.64468015163655
 30
0
 10
-35.14296283561676
 20
-18.79610932680974
 30
0
 10
-35.126247295599
 20
-18.94649960468759
 30
0
 10
-35.10903013729147
 20
-19.09621039524436
 30
0
 10
-35.09103772628253
 20
-19.24554992199609
 30
0
 10
-35.0720140713443
 20
-19.39477713974171
 30
0
 10
-35.05171878134451
 20
-19.54410439050173
 30
0
 10
-35.02992563768368
 20
-19.69370047087244
 30
0
 10
-35.00642165190368
 20
-19.84369388954343
 30
0
 10
-34.98100649392686
 20
-19.9941761696243
 30
0
 10
-34.95349219383704
 20
-20.14520510361987
 30
0
 10
-34.92370303696717
 20
-20.29680790525256
 30
0
 10
-34.89147558726871
 20
-20.44898422652921
 30
0
 10
-34.85665878714947
 20
-20.60170902406114
 30
0
 10
-34.81911409318702
 20
-20.75493526832964
 30
0
 10
-34.77871561653798
 20
-20.90859649527699
 30
0
 10
-34.73535024471496
 20
-21.0626092026846
 30
0
 10
-34.6889177279388
 20
-21.21687509525078
 30
0
 10
-34.63933071871827
 20
-21.37128318278512
 30
0
 10
-34.58651475784175
 20
-21.52571173595987
 30
0
 10
-34.53040820373017
 20
-21.68003010391439
 30
0
 10
-34.47096210520058
 20
-21.83410039789653
 30
0
 10
-34.40814002019901
 20
-21.98777904516491
 30
0
 10
-34.34191778502812
 20
-22.14091821762903
 30
0
 10
-34.2722832400499
 20
-22.29336714018446
 30
0
 10
-34.19923591880747
 20
-22.44497328439238
 30
0
 10
-34.12278670799683
 20
-22.59558345401294
 30
0
 10
-34.04295748574849
 20
-22.7450447698719
 30
0
 10
-33.95978074527034
 20
-22.8932055625468
 30
0
 10
-33.87329921009009
 20
-23.03991618232652
 30
0
 10
-33.78356544596099
 20
-23.18502973674815
 30
0
 10
-33.69064147301361
 20
-23.32840276667426
 30
0
 10
-33.59459838001661
 20
-23.46989587227903
 30
0
 10
-33.49551594072704
 20
-23.60937430041434
 30
0
 10
-33.49551594072705
 20
-23.60937430041434
 30
0
 10
-33.39348223035095
 20
-23.74670850459362
 30
0
 10
-33.28859323818309
 20
-23.88177468825232
 30
0
 10
-33.18095247063646
 20
-24.01445534102614
 30
0
 10
-33.07067053718615
 20
-24.14463977656326
 30
0
 10
-32.95786471030528
 20
-24.27222467890286
 30
0
 10
-32.84265844931683
 20
-24.3971146627754
 30
0
 10
-32.72518087725759
 20
-24.51922285138753
 30
0
 10
-32.60556619936668
 20
-24.63847147343306
 30
0
 10
-32.48395305166483
 20
-24.75479247931048
 30
0
 10
-32.36048376826014
 20
-24.86812817491504
 30
0
 10
-32.23530355646139
 20
-24.97843186999388
 30
0
 10
-32.10855956944893
 20
-25.08566853698035
 30
0
 10
-31.98039986708465
 20
-25.18981547552406
 30
0
 10
-31.85097225637375
 20
-25.2908629776609
 30
0
 10
-31.72042300405996
 20
-25.38881498876464
 30
0
 10
-31.58889541479113
 20
-25.48368976012446
 30
0
 10
-31.45652826919941
 20
-25.57552049022778
 30
0
 10
-31.32345411708785
 20
-25.66435595362028
 30
0
 10
-31.18979742172907
 20
-25.75026111858897
 30
0
 10
-31.05567255213309
 20
-25.83331775789748
 30
0
 10
-30.92118162116708
 20
-25.91362506042727
 30
0
 10
-30.7864121688333
 20
-25.99130025588252
 30
0
 10
-30.65143469217281
 20
-26.06647926973791
 30
0
 10
-30.51630002666331
 20
-26.13931743137659
 30
0
 10
-30.381036589335
 20
-26.20999026488039
 30
0
 10
-30.24564750214814
 20
-26.2786943991291
 30
0
 10
-30.11010762685141
 20
-26.34564864154472
 30
0
 10
-29.97436056147135
 20
-26.41109526755726
 30
0
 10
-29.83831567629682
 20
-26.47530158485669
 30
0
 10
-29.70184530701069
 20
-26.5385618362888
 30
0
 10
-29.56478227860385
 20
-26.60119950541262
 30
0
 10
-29.42691801077633
 20
-26.66357008032292
 30
0
 10
-29.28800155897632
 20
-26.7260643082124
 30
0
 10
-29.14774007978998
 20
-26.78911192612339
 30
0
 10
-29.00580137729165
 20
-26.85318576930196
 30
0
 10
-28.86181938428779
 20
-26.91880601990995
 30
0
 10
-28.7154036431075
 20
-26.98654414397213
 30
0
 10
-28.56615403755523
 20
-27.05702575077984
 30
0
 10
-28.41368212078734
 20
-27.13093118092206
 30
0
 10
-28.25764026806681
 20
-27.20899209392308
 30
0
 10
-28.09775939273954
 20
-27.29198174115472
 30
0
 10
-27.93389489653126
 20
-27.38069611839824
 30
0
 10
-27.76607870006752
 20
-27.47592306400234
 30
0
 10
-27.59457257562693
 20
-27.57839700573595
 30
0
 10
-27.41991486576321
 20
-27.68873892782998
 30
0
 10
-27.24294981753532
 20
-27.80738454764957
 30
0
 10
-27.06482754873963
 20
-27.93450846879536
 30
0
 10
-26.88696467948103
 20
-28.06995713261794
 30
0
 10
-26.7109619223317
 20
-28.21320666952946
 30
0
 10
-26.53848480936308
 20
-28.36336083905389
 30
0
 10
-26.37112443252275
 20
-28.51919771975747
 30
0
 10
-26.21026233382718
 20
-28.67926266143049
 30
0
 10
-26.05696393956127
 20
-28.84199293860017
 30
0
 10
-25.91191756952575
 20
-29.00585136684822
 30
0
 10
-25.77542401828228
 20
-29.16944513771258
 30
0
 10
-25.64742985877284
 20
-29.33161218281645
 30
0
 10
-25.52759000838531
 20
-29.49146733510799
 30
0
 10
-25.41534315682522
 20
-29.64841029060292
 30
0
 10
-25.3099862622498
 20
-29.80210394243253
 30
0
 10
-25.21073913878518
 20
-29.9524341933039
 30
0
 10
-25.11679503656293
 20
-30.09946164515103
 30
0
 10
-25.02735681294866
 20
-30.24337308376558
 30
0
 10
-24.94166047984597
 20
-30.38443775031413
 30
0
 10
-24.8589888198912
 20
-30.52297084873166
 30
0
 10
-24.77867782741507
 20
-30.65930490935746
 30
0
 10
-24.70011835300325
 20
-30.79376851642911
 30
0
 10
-24.62275479966496
 20
-30.92667135794373
 30
0
 10
-24.54608219846549
 20
-31.05829438528134
 30
0
 10
-24.46964255603496
 20
-31.18888391787623
 30
0
 10
-24.3930210348863
 20
-31.31864868137614
 30
0
 10
-24.31584229174753
 20
-31.44775895483206
 30
0
 10
-24.23776714058955
 20
-31.57634718421161
 30
0
 10
-24.15848960590484
 20
-31.70450957772092
 30
0
 10
-24.07773437095845
 20
-31.83230832733004
 30
0
 10
-23.99525459191894
 20
-31.95977420135815
 30
0
 10
-23.91083003235145
 20
-32.086909328743
 30
0
 10
-23.82426546686352
 20
-32.21369005131213
 30
0
 10
-23.73538930330107
 20
-32.34006976044427
 30
0
 10
-23.64405237694595
 20
-32.46598166280206
 30
0
 10
-23.55012687588479
 20
-32.5913414394536
 30
0
 10
-23.45350536303193
 20
-32.71604977610914
 30
0
 10
-23.35409986657405
 20
-32.83999475122506
 30
0
 10
-23.25184101652416
 20
-32.9630540747355
 30
0
 10
-23.14667721045292
 20
-33.08509717415542
 30
0
 10
-23.03857379623395
 20
-33.20598712747517
 30
0
 10
-22.92751226377084
 20
-33.32558244413054
 30
0
 10
-22.81348944117146
 20
-33.44373869673232
 30
0
 10
-22.69651669371319
 20
-33.56031000739748
 30
0
 10
-22.576619126218
 20
-33.67515039358161
 30
0
 10
-22.45383479115122
 20
-33.78811497934297
 30
0
 10
-22.32821390589064
 20
-33.89906107899945
 30
0
 10
-22.19981808321187
 20
-34.00784916116347
 30
0
 10
-22.0687195791309
 20
-34.1143437021242
 30
0
 10
-21.93500056187662
 20
-34.2184139384438
 30
0
 10
-21.79875240498325
 20
-34.31993452938861
 30
0
 10
-21.6600750063566
 20
-34.41878614036904
 30
0
 10
-21.51907613374903
 20
-34.51485595886087
 30
0
 10
-21.3758707954571
 20
-34.60803815428044
 30
0
 10
-21.23058063331969
 20
-34.69823429295721
 30
0
 10
-21.08333333333332
 20
-34.78535371867495
 30
0
 10
-21.08333333333332
 20
-34.78535371867495
 30
0
 10
-20.93426204750545
 20
-34.86931390824296
 30
0
 10
-20.7835048190194
 20
-34.95004081023552
 30
0
 10
-20.63120400145968
 20
-35.02746917344409
 30
0
 10
-20.47750566180501
 20
-35.1015428697813
 30
0
 10
-20.32255895617762
 20
-35.1722152144325
 30
0
 10
-20.16651546696552
 20
-35.23944928404856
 30
0
 10
-20.00952848990775
 20
-35.30321823180006
 30
0
 10
-19.85175226003091
 20
-35.36350559625196
 30
0
 10
-19.69334110590849
 20
-35.42030559934956
 30
0
 10
-19.53444852252489
 20
-35.47362342740286
 30
0
 10
-19.37522615399418
 20
-35.5234754878768
 30
0
 10
-19.21582267843072
 20
-35.56988963408753
 30
0
 10
-19.05638258831311
 20
-35.61290534960428
 30
0
 10
-18.89704486064431
 20
-35.65257388428565
 30
0
 10
-18.73794151201555
 20
-35.68895833445426
 30
0
 10
-18.57919603426885
 20
-35.72213366074384
 30
0
 10
-18.42092170677899
 20
-35.75218663865024
 30
0
 10
-18.26321978142148
 20
-35.77921573880001
 30
0
 10
-18.10617753607071
 20
-35.80333093645037
 30
0
 10
-17.94986619203689
 20
-35.82465345280527
 30
0
 10
-17.79433869031333
 20
-35.84331543446162
 30
0
 10
-17.63962732105511
 20
-35.85945958180987
 30
0
 10
-17.48574120064257
 20
-35.87323874267978
 30
0
 10
-17.33266359144358
 20
-35.88481549417533
 30
0
 10
-17.18034906163118
 20
-35.89436174377165
 30
0
 10
-17.0287204870875
 20
-35.90205839070435
 30
0
 10
-16.87766590588092
 20
-35.90809510085193
 30
0
 10
-16.72703524994967
 20
-35.91267026308365
 30
0
 10
-16.57663700110034
 20
-35.91599121270098
 30
0
 10
-16.42623485282856
 20
-35.91827482816336
 30
0
 10
-16.27554451054724
 20
-35.91974863020474
 30
0
 10
-16.12423083663646
 20
-35.92065253610833
 30
0
 10
-15.97190565063935
 20
-35.92124144285251
 30
0
 10
-15.8181266369834
 20
-35.92178882461318
 30
0
 10
-15.66239800016895
 20
-35.92259152162596
 30
0
 10
-15.50417374402786
 20
-35.92397585100051
 30
0
 10
-15.34286473155592
 20
-35.92630505948561
 30
0
 10
-15.17785098019715
 20
-35.92998792768944
 30
0
 10
-15.00850090665465
 20
-35.93548798210148
 30
0
 10
-14.83419934719022
 20
-35.94333223523812
 30
0
 10
-14.65438596924602
 20
-35.95411763997532
 30
0
 10
-14.46860491507346
 20
-35.96851256122666
 30
0
 10
-14.27656490288979
 20
-35.98724970842505
 30
0
 10
-14.07820635488573
 20
-36.01110648710061
 30
0
 10
-13.87376849441441
 20
-36.0408691582199
 30
0
 10
-13.66384535732324
 20
-36.07727915561731
 30
0
 10
-13.44941661081848
 20
-36.12096378267076
 30
0
 10
-13.2318388596917
 20
-36.17235894787957
 30
0
 10
-13.0127875045998
 20
-36.23163714101949
 30
0
 10
-12.79414861864381
 20
-36.29865703859836
 30
0
 10
-12.57787273686719
 20
-36.37294951523837
 30
0
 10
-12.36581362024679
 20
-36.45374760561003
 30
0
 10
-12.15958020183848
 20
-36.54005703686668
 30
0
 10
-11.96042652229969
 20
-36.63075348605057
 30
0
 10
-11.76919387737423
 20
-36.72468690348807
 30
0
 10
-11.58630611480653
 20
-36.82077395614986
 30
0
 10
-11.411808015819
 20
-36.91806564595322
 30
0
 10
-11.24543096356919
 20
-37.01578526245525
 30
0
 10
-11.08666981109125
 20
-37.11333889032819
 30
0
 10
-10.93485823067389
 20
-37.21030496632507
 30
0
 10
-10.78923457061215
 20
-37.30641071833414
 30
0
 10
-10.64899463224742
 20
-37.40150255654774
 30
0
 10
-10.51333096747627
 20
-37.49551570305695
 30
0
 10
-10.38146016064358
 20
-37.58844639240192
 30
0
 10
-10.25264036011241
 20
-37.68032833072677
 30
0
 10
-10.12618143295251
 20
-37.77121393128125
 30
0
 10
-10.00144985460033
 20
-37.86116012647349
 30
0
 10
-9.877870039758141
 20
-37.95021818879117
 30
0
 10
-9.754923403523419
 20
-38.03842685954879
 30
0
 10
-9.632146076624927
 20
-38.12580808950684
 30
0
 10
-9.509125907191871
 20
-38.21236477045642
 30
0
 10
-9.385499162739842
 20
-38.29807993842277
 30
0
 10
-9.260947189330981
 20
-38.38291703252482
 30
0
 10
-9.135193176859552
 20
-38.46682088654975
 30
0
 10
-9.007999107661719
 20
-38.54971920832441
 30
0
 10
-8.879162919825843
 20
-38.63152436450202
 30
0
 10
-8.748515888727036
 20
-38.71213533694582
 30
0
 10
-8.615920214566561
 20
-38.79143975374483
 30
0
 10
-8.481266795891507
 20
-38.86931592539239
 30
0
 10
-8.344473166308305
 20
-38.94563483692267
 30
0
 10
-8.205481571916179
 20
-39.02026206161781
 30
0
 10
-8.064257169057608
 20
-39.09305957270004
 30
0
 10
-7.920786324946961
 20
-39.16388743731947
 30
0
 10
-7.775075007033553
 20
-39.23260538297669
 30
0
 10
-7.627147250223294
 20
-39.29907423090211
 30
0
 10
-7.477043694098789
 20
-39.36315719429905
 30
0
 10
-7.324820184903878
 20
-39.42472104205739
 30
0
 10
-7.170546439216501
 20
-39.48363713077445
 30
0
 10
-7.014304767882814
 20
-39.53978230981095
 30
0
 10
-6.856188859913875
 20
-39.59303970574035
 30
0
 10
-6.696302626662398
 20
-39.64329939395359
 30
0
 10
-6.534759106727874
 20
-39.69045896635887
 30
0
 10
-6.371679431724701
 20
-39.73442400505511
 30
0
 10
-6.207191852346877
 20
-39.77510847252728
 30
0
 10
-6.041430823140795
 20
-39.81243502928204
 30
0
 10
-5.874536143134915
 20
-39.84633528988597
 30
0
 10
-5.706652148057277
 20
-39.87675002806385
 30
0
 10
-5.537926948391121
 20
-39.90362934085517
 30
0
 10
-5.368511706066544
 20
-39.92693278082052
 30
0
 10
-5.198559941250732
 20
-39.94662946395897
 30
0
 10
-5.198559941250743
 20
-39.94662946395898
 30
0
 10
-5.028226859560859
 20
-39.96269815938501
 30
0
 10
-4.857668689148268
 20
-39.97512736497605
 30
0
 10
-4.687042016541029
 20
-39.983915371206
 30
0
 10
-4.516503109913885
 20
-39.98907031330819
 30
0
 10
-4.346207218589569
 20
-39.99061020984271
 30
0
 10
-4.176307838049193
 20
-39.98856298376333
 30
0
 10
-4.006955930508104
 20
-39.98296646026526
 30
0
 10
-3.838299092143094
 20
-39.97386833411628
 30
0
 10
-3.67048065926802
 20
-39.96132609788666
 30
0
 10
-3.503638747066339
 20
-39.94540692154104
 30
0
 10
-3.337905215812433
 20
-39.92618747326237
 30
0
 10
-3.173404560758007
 20
-39.90375367115824
 30
0
 10
-3.01025272293615
 20
-39.87820035564968
 30
0
 10
-2.848555818961188
 20
-39.84963087285185
 30
0
 10
-2.68840878840392
 20
-39.81815656010882
 30
0
 10
-2.529893957439147
 20
-39.78389612602433
 30
0
 10
-2.373079517151269
 20
-39.74697491883104
 30
0
 10
-2.218017914119149
 20
-39.70752407877053
 30
0
 10
-2.064744149681544
 20
-39.66567957234911
 30
0
 10
-1.913273982637315
 20
-39.62158110896366
 30
0
 10
-1.763602028127204
 20
-39.57537094357943
 30
0
 10
-1.615699743197936
 20
-39.52719257307918
 30
0
 10
-1.46951328726419
 20
-39.47718933886946
 30
0
 10
-1.324961243672642
 20
-39.4255029547168
 30
0
 10
-1.181932187314791
 20
-39.37227198712548
 30
0
 10
-1.040282083455244
 20
-39.31763032656566
 30
0
 10
-0.8998315057172146
 20
-39.26170570241891
 30
0
 10
-0.7603626680818465
 20
-39.20461831375589
 30
0
 10
-0.6216162791089577
 20
-39.14647967333241
 30
0
 10
-0.4832882496483455
 20
-39.08739179496561
 30
0
 10
-0.3450263226517603
 20
-39.02744689616254
 30
0
 10
-0.2064267515184737
 20
-38.96672783951696
 30
0
 10
-0.06703123981403802
 20
-38.90530959778971
 30
0
 10
0.07367551981193454
 20
-38.84326209612085
 30
0
 10
0.2162671948870374
 20
-38.78065485336205
 30
0
 10
0.3613753028563282
 20
-38.71756389837806
 30
0
 10
0.5096857929171286
 20
-38.65408144997883
 30
0
 10
0.6619313133696174
 20
-38.59032877820851
 30
0
 10
0.8188773774740916
 20
-38.52647244751611
 30
0
 10
0.9813003205710817
 20
-38.46274369815823
 30
0
 10
1.1499548345324
 20
-38.3994599659396
 30
0
 10
1.325529214634905
 20
-38.33704641854066
 30
0
 10
1.508587579803219
 20
-38.2760539443611
 30
0
 10
1.699500556390013
 20
-38.21716850621359
 30
0
 10
1.898369404133786
 20
-38.16120569013621
 30
0
 10
2.104953012593327
 20
-38.109084445787
 30
0
 10
2.318611558512491
 20
-38.06177630986819
 30
0
 10
2.538283021705809
 20
-38.02023128548819
 30
0
 10
2.762507005425795
 20
-37.98528839673716
 30
0
 10
2.989503014715445
 20
-37.95758567322244
 30
0
 10
3.21729833666447
 20
-37.93748790166185
 30
0
 10
3.44388752344944
 20
-37.92504841687928
 30
0
 10
3.667396334385575
 20
-37.92001331746206
 30
0
 10
3.886221842980994
 20
-37.92186554756652
 30
0
 10
4.099127719986793
 20
-37.92989667034389
 30
0
 10
4.305286129981637
 20
-37.9432894062349
 30
0
 10
4.504270170988754
 20
-37.96119501651586
 30
0
 10
4.696009320106222
 20
-37.98279468457692
 30
0
 10
4.880723484923458
 20
-38.00734037998708
 30
0
 10
5.058849920874483
 20
-38.03417596566047
 30
0
 10
5.230973485001625
 20
-38.06274246021576
 30
0
 10
5.397766378733708
 20
-38.09257245531905
 30
0
 10
5.559939895068691
 20
-38.12327835467485
 30
0
 10
5.718208188269257
 20
-38.15453807451072
 30
0
 10
5.873262683052473
 20
-38.18608066867704
 30
0
 10
6.025755165611213
 20
-38.21767331670872
 30
0
 10
6.176287545929375
 20
-38.24911035129432
 30
0
 10
6.325406501740697
 20
-38.28020450055024
 30
0
 10
6.473601541439502
 20
-38.31078022894599
 30
0
 10
6.621305358870088
 20
-38.34066891686887
 30
0
 10
6.768895649699294
 20
-38.36970556883316
 30
0
 10
6.9166978002159
 20
-38.39772674414709
 30
0
 10
7.064988044627361
 20
-38.42456943455083
 30
0
 10
7.213996823428189
 20
-38.45007065438807
 30
0
 10
7.363912172698189
 20
-38.47406755096682
 30
0
 10
7.514883041485614
 20
-38.49639788125757
 30
0
 10
7.66702247962729
 20
-38.51690073411282
 30
0
 10
7.820410667729563
 20
-38.53541740445614
 30
0
 10
7.975097779347728
 20
-38.55179234783279
 30
0
 10
8.131106676166933
 20
-38.56587416110268
 30
0
 10
8.288435442728929
 20
-38.5775165487206
 30
0
 10
8.447059769750522
 20
-38.58657924475837
 30
0
 10
8.606935195583491
 20
-38.59292886924317
 30
0
 10
8.767999214726082
 20
-38.59643970405059
 30
0
 10
8.930173261093657
 20
-38.59699437892486
 30
0
 10
9.093364572377618
 20
-38.5944844625166
 30
0
 10
9.257467940521103
 20
-38.58881095686407
 30
0
 10
9.422367352275252
 20
-38.57988469665799
 30
0
 10
9.587937523062818
 20
-38.56762665702849
 30
0
 10
9.754045327008168
 20
-38.55196817554151
 30
0
 10
9.920551126000529
 20
-38.53285109562451
 30
0
 10
10.08731000101732
 20
-38.5102278397709
 30
0
 10
10.25417288960231
 20
-38.48406142160226
 30
0
 10
10.4209876343065
 20
-38.45432540619426
 30
0
 10
10.58759994798389
 20
-38.42100382799494
 30
0
 10
10.75385430300542
 20
-38.38409107518976
 30
0
 10
10.91959475262599
 20
-38.34359174851352
 30
0
 10
11.08466569382377
 20
-38.29952050130407
 30
0
 10
11.24891258184844
 20
-38.2519018660829
 30
0
 10
11.41218260739372
 20
-38.20077007118866
 30
0
 10
11.41218260739371
 20
-38.20077007118867
 30
0
 10
11.57432534769397
 20
-38.14616884905407
 30
0
 10
11.73519340289642
 20
-38.0881512356811
 30
0
 10
11.89464302876273
 20
-38.02677935881874
 30
0
 10
12.05253477610919
 20
-37.96212421036527
 30
0
 10
12.20873414643085
 20
-37.89426539668276
 30
0
 10
12.36311227191666
 20
-37.82329085889552
 30
0
 10
12.51554662661343
 20
-37.74929655390353
 30
0
 10
12.66592177391403
 20
-37.6723860858187
 30
0
 10
12.81413015391506
 20
-37.59267027684861
 30
0
 10
12.96007291260396
 20
-37.5102666663154
 30
0
 10
13.1036607733854
 20
-37.42529892649471
 30
0
 10
13.24481495023034
 20
-37.33789618426422
 30
0
 10
13.38346810080913
 20
-37.24819223812635
 30
0
 10
13.51956531742272
 20
-37.15632466097067
 30
0
 10
13.65306515343505
 20
-37.06243377992443
 30
0
 10
13.78394068328206
 20
-36.96666152576535
 30
0
 10
13.91218059502771
 20
-36.86915014561473
 30
0
 10
14.03779031587976
 20
-36.77004077399003
 30
0
 10
14.1607931730845
 20
-36.6694718588025
 30
0
 10
14.28123159519392
 20
-36.56757744061801
 30
0
 10
14.39916836182876
 20
-36.46448528559429
 30
0
 10
14.51468791371472
 20
-36.36031487519179
 30
0
 10
14.62789773887647
 20
-36.25517525936242
 30
0
 10
14.73892985530951
 20
-36.14916278493762
 30
0
 10
14.84794241499036
 20
-36.04235871804336
 30
0
 10
14.95512145835766
 20
-35.93482678950572
 30
0
 10
15.06068285178279
 20
-35.82661070663886
 30
0
 10
15.16487444206052
 20
-35.71773169520358
 30
0
 10
15.26797846003218
 20
-35.60818616384148
 30
0
 10
15.37031419771719
 20
-35.49794362261165
 30
0
 10
15.47224096618115
 20
-35.38694504054948
 30
0
 10
15.57416130955042
 20
-35.27510189786407
 30
0
 10
15.67652439662002
 20
-35.16229627962725
 30
0
 10
15.7798294251959
 20
-35.04838247125124
 30
0
 10
15.88462874250647
 20
-34.93319064976281
 30
0
 10
15.99153019217029
 20
-34.81653340970036
 30
0
 10
16.10119792872995
 20
-34.69821599646494
 30
0
 10
16.21435058468278
 20
-34.57805120084441
 30
0
 10
16.33175523905534
 20
-34.45587982474083
 30
0
 10
16.4542151633573
 20
-34.33159735260994
 30
0
 10
16.58254891569366
 20
-34.20518681565073
 30
0
 10
16.71755821636323
 20
-34.07675666895606
 30
0
 10
16.85998248014554
 20
-33.94658072628344
 30
0
 10
17.01043929727327
 20
-33.81513489852596
 30
0
 10
17.16935290184783
 20
-33.68312307455793
 30
0
 10
17.33687679901993
 20
-33.55148282511671
 30
0
 10
17.51282164073711
 20
-33.42136193270693
 30
0
 10
17.69660362435825
 20
-33.29406023087813
 30
0
 10
17.8872298729102
 20
-33.17093820314736
 30
0
 10
18.08333333333333
 20
-33.05330291110608
 30
0
 10
18.28326021483424
 20
-32.94228997863026
 30
0
 10
18.48520014289052
 20
-32.83876381862152
 30
0
 10
18.68733764242981
 20
-32.74325480296212
 30
0
 10
18.88799806167838
 20
-32.6559425465751
 30
0
 10
19.08576381044104
 20
-32.5766827206037
 30
0
 10
19.27954620588456
 20
-32.50506541401919
 30
0
 10
19.46861004050788
 20
-32.44048890209277
 30
0
 10
19.65255784571511
 20
-32.3822338428783
 30
0
 10
19.83128626569923
 20
-32.32952743209862
 30
0
 10
20.00492787818013
 20
-32.28159241089195
 30
0
 10
20.17378961844159
 20
-32.23768024156639
 30
0
 10
20.33829546094888
 20
-32.19709051640901
 30
0
 10
20.49893755457323
 20
-32.15917983965844
 30
0
 10
20.65623730842499
 20
-32.12336350043995
 30
0
 10
20.81071616668638
 20
-32.08911274936091
 30
0
 10
20.96287486905884
 20
-32.05594978901492
 30
0
 10
21.11317963524223
 20
-32.02344191411753
 30
0
 10
21.26205370985972
 20
-31.99119568942387
 30
0
 10
21.40987288434901
 20
-31.95885165424635
 30
0
 10
21.55696386043089
 20
-31.926079774462
 30
0
 10
21.70360457055618
 20
-31.89257569652667
 30
0
 10
21.85002579257266
 20
-31.858057763412
 30
0
 10
21.9964135775534
 20
-31.82226470508844
 30
0
 10
22.1429121511267
 20
-31.78495389815682
 30
0
 10
22.28962705464189
 20
-31.74590008811625
 30
0
 10
22.43662836964024
 20
-31.70489447554819
 30
0
 10
22.58395392382668
 20
-31.66174407929363
 30
0
 10
22.73161241465993
 20
-31.61627130266024
 30
0
 10
22.87958641233413
 20
-31.56831364129447
 30
0
 10
23.02783522083297
 20
-31.51772348286035
 30
0
 10
23.17629758653929
 20
-31.46436795881412
 30
0
 10
23.3248942505251
 20
-31.40812881733051
 30
0
 10
23.47353034453122
 20
-31.34890229392272
 30
0
 10
23.62209763277256
 20
-31.28659896264722
 30
0
 10
23.77047660277554
 20
-31.22114355614551
 30
0
 10
23.91853840895144
 20
-31.15247474728089
 30
0
 10
24.06614667285919
 20
-31.08054488888701
 30
0
 10
24.2131591443237
 20
-31.00531971123996
 30
0
 10
24.35942922787819
 20
-30.9267779793572
 30
0
 10
24.50480737945578
 20
-30.84491111415576
 30
0
 10
24.64914237888554
 20
-30.7597227828994
 30
0
 10
24.79228248453738
 20
-30.67122846524981
 30
0
 10
24.9340764773661
 20
-30.57945500163208
 30
0
 10
25.07437460257292
 20
-30.48444013055119
 30
0
 10
25.21302941806144
 20
-30.38623202098547
 30
0
 10
25.34989655974199
 20
-30.28488880507303
 30
0
 10
25.48483543446138
 20
-30.18047811504983
 30
0
 10
25.61770985183527
 20
-30.07307662685685
 30
0
 10
25.74838860648443
 20
-29.96276961108061
 30
0
 10
25.87674602208079
 20
-29.84965049000867
 30
0
 10
25.87674602208081
 20
-29.84965049000866
 30
0
 10
26.00266246817297
 20
-29.73382039765702
 30
0
 10
26.12602485998038
 20
-29.6153877377457
 30
0
 10
26.2467271502391
 20
-29.49446773284654
 30
0
 10
26.36467082078718
 20
-29.37118195637859
 30
0
 10
26.47976537995084
 20
-29.24565783784274
 30
0
 10
26.59192887000434
 20
-29.11802813071449
 30
0
 10
26.70108838710709
 20
-28.98843033177884
 30
0
 10
26.80718061425967
 20
-28.85700604039971
 30
0
 10
26.91015236605362
 20
-28.72390024625545
 30
0
 10
27.00996114240409
 20
-28.58926053440914
 30
0
 10
27.10657568712918
 20
-28.45323619716912
 30
0
 10
27.19997654624271
 20
-28.3159772429729
 30
0
 10
27.29015662021903
 20
-28.17763329342774
 30
0
 10
27.37712170431437
 20
-28.03835236059516
 30
0
 10
27.46089101132729
 20
-27.89827949755048
 30
0
 10
27.54149767197912
 20
-27.75755531612452
 30
0
 10
27.61898920941871
 20
-27.6163143665077
 30
0
 10
27.69342798622686
 20
-27.47468337405309
 30
0
 10
27.76489162474216
 20
-27.33277932917529
 30
0
 10
27.83347340458534
 20
-27.19070742677758
 30
0
 10
27.89928264497187
 20
-27.04855885228081
 30
0
 10
27.96244508383125
 20
-26.90640841229312
 30
0
 10
28.02310327097157
 20
-26.76431200958443
 30
0
 10
28.08141699861971
 20
-26.62230396480863
 30
0
 10
28.13756379970673
 20
-26.48039419206192
 30
0
 10
28.19173955229254
 20
-26.33856524288752
 30
0
 10
28.24415923748641
 20
-26.19676924514048
 30
0
 10
28.29505790789659
 20
-26.05492478114488
 30
0
 10
28.34469193348912
 20
-25.91291377640657
 30
0
 10
28.3933406006618
 20
-25.77057850921439
 30
0
 10
28.4413081463501
 20
-25.62771890712212
 30
0
 10
28.48892630866956
 20
-25.48409037383024
 30
0
 10
28.53655746341053
 20
-25.33940249528387
 30
0
 10
28.58459838299883
 20
-25.1933191125434
 30
0
 10
28.63348458850996
 20
-25.04546042474553
 30
0
 10
28.68369514805226
 20
-24.89540799620914
 30
0
 10
28.73575758315949
 20
-24.74271377376592
 30
0
 10
28.79025225243882
 20
-24.58691443912087
 30
0
 10
28.84781516575065
 20
-24.42755255842652
 30
0
 10
28.90913763783228
 20
-24.26420593202486
 30
0
 10
28.97496055688919
 20
-24.096526120569
 30
0
 10
29.04606044351905
 20
-23.92428611369336
 30
0
 10
29.12322415682359
 20
-23.74743530562709
 30
0
 10
29.20720946395359
 20
-23.56615726602677
 30
0
 10
29.29869021944323
 20
-23.38092247782193
 30
0
 10
29.3981880016
 20
-23.19252501833121
 30
0
 10
29.5059966775736
 20
-23.00209045383929
 30
0
 10
29.62211160704756
 20
-22.81104369530755
 30
0
 10
29.74617911027174
 20
-22.6210314457202
 30
0
 10
29.87748195197717
 20
-22.43380379582938
 30
0
 10
30.01497121893976
 20
-22.25107084698422
 30
0
 10
30.15734464013977
 20
-22.07435862532048
 30
0
 10
30.30315941825034
 20
-21.90489006989856
 30
0
 10
30.4509587387213
 20
-21.74351040935633
 30
0
 10
30.59938886463434
 20
-21.59066437859951
 30
0
 10
30.74728850889656
 20
-21.44642031247075
 30
0
 10
30.89374128253868
 20
-21.31052754390825
 30
0
 10
31.038091497202
 20
-21.18249058638701
 30
0
 10
31.17993040484103
 20
-21.06164548666401
 30
0
 10
31.31906298156932
 20
-20.94722825921991
 30
0
 10
31.45546516901315
 20
-20.83843023901942
 30
0
 10
31.58923940563748
 20
-20.73443912582717
 30
0
 10
31.72057359917594
 20
-20.63446697338809
 30
0
 10
31.84970625721451
 20
-20.53776754554733
 30
0
 10
31.97689868096431
 20
-20.44364571524282
 30
0
 10
32.10241398119188
 20
-20.35146132363901
 30
0
 10
32.22650207369146
 20
-20.26062944615315
 30
0
 10
32.34938958713525
 20
-20.17061851270721
 30
0
 10
32.47127361825079
 20
-20.08094729147493
 30
0
 10
32.59231838693983
 20
-19.99118139972125
 30
0
 10
32.71265400539151
 20
-19.90092975133631
 30
0
 10
32.83237673942617
 20
-19.80984117401416
 30
0
 10
32.95155028706174
 20
-19.71760131191716
 30
0
 10
33.07020772113894
 20
-19.62392985569321
 30
0
 10
33.18835383921849
 20
-19.52857809758205
 30
0
 10
33.30596773759952
 20
-19.43132678509249
 30
0
 10
33.42300548110126
 20
-19.33198423524958
 30
0
 10
33.53940278016513
 20
-19.23038466782659
 30
0
 10
33.65507761539593
 20
-19.12638671705022
 30
0
 10
33.7699327697868
 20
-19.01987208490251
 30
0
 10
33.88385824286858
 20
-18.91074430401946
 30
0
 10
33.99673353065715
 20
-18.79892758349353
 30
0
 10
34.10842976186624
 20
-18.68436571614642
 30
0
 10
34.21881168537796
 20
-18.56702103077354
 30
0
 10
34.3277395071222
 20
-18.44687337732369
 30
0
 10
34.43507057680296
 20
-18.32391913689197
 30
0
 10
34.54066092666634
 20
-18.19817025173527
 30
0
 10
34.64436666595861
 20
-18.06965327326171
 30
0
 10
34.74604523601147
 20
-17.93840842809746
 30
0
 10
34.84555653209448
 20
-17.80448870391202
 30
0
 10
34.94276389931794
 20
-17.66795895770219
 30
0
 10
35.03753501095059
 20
-17.52889504972389
 30
0
 10
35.12974263850495
 20
-17.38738300625232
 30
0
 10
35.2192653237977
 20
-17.24351821389142
 30
0
 10
35.30598796385993
 20
-17.0974046472959
 30
0
 10
35.38980232000399
 20
-16.94915413098168
 30
0
 10
35.47060746250203
 20
-16.79888563445785
 30
0
 10
35.5483101621619
 20
-16.64672459830179
 30
0
 10
35.62282523957748
 20
-16.49280228710597
 30
0
 10
35.6940758819778
 20
-16.33725516354463
 30
0
 10
35.6940758819778
 20
-16.33725516354464
 30
0
 10
35.76199393641753
 20
-16.18022427622692
 30
0
 10
35.82652018657424
 20
-16.02185465260286
 30
0
 10
35.88760461869377
 20
-15.86229468703771
 30
0
 10
35.94520668032109
 20
-15.70169551332271
 30
0
 10
35.99929553344611
 20
-15.54021035037917
 30
0
 10
36.04985030166373
 20
-15.37799380975188
 30
0
 10
36.09686030898231
 20
-15.21520115366759
 30
0
 10
36.14032530609457
 20
-15.05198749292581
 30
0
 10
36.18025567832726
 20
-14.88850691464311
 30
0
 10
36.21667262817404
 20
-14.72491153082531
 30
0
 10
36.24960832434424
 20
-14.56135043981706
 30
0
 10
36.27910600866547
 20
-14.3979685937941
 30
0
 10
36.30522005198856
 20
-14.23490556653332
 30
0
 10
36.32801595047257
 20
-14.07229421663815
 30
0
 10
36.34757025428328
 20
-13.91025924213747
 30
0
 10
36.36397042182472
 20
-13.74891562285224
 30
0
 10
36.37731459414641
 20
-13.58836694709171
 30
0
 10
36.38771128614548
 20
-13.42870361907977
 30
0
 10
36.39527899364528
 20
-13.27000094302885
 30
0
 10
36.40014571844141
 20
-13.11231707902519
 30
0
 10
36.40244841705861
 20
-12.95569086496512
 30
0
 10
36.40233238339989
 20
-12.80013949786232
 30
0
 10
36.39995058089988
 20
-12.64565606720793
 30
0
 10
36.39546294648918
 20
-12.49220693312544
 30
0
 10
36.38903569699674
 20
-12.33972894344402
 30
0
 10
36.38084067900772
 20
-12.18812648742066
 30
0
 10
36.37105481618241
 20
-12.03726839098011
 30
0
 10
36.35985972421123
 20
-11.88698467086552
 30
0
 10
36.34744158348872
 20
-11.73706318559972
 30
0
 10
36.33399138363565
 20
-11.58724625321804
 30
0
 10
36.31970568212731
 20
-11.43722735413618
 30
0
 10
36.3047880505345
 20
-11.28664810846825
 30
0
 10
36.28945141357667
 20
-11.1350958182611
 30
0
 10
36.27392151274252
 20
-10.98210200515786
 30
0
 10
36.25844173740409
 20
-10.82714256142481
 30
0
 10
36.2432795449314
 20
-10.66964037249196
 30
0
 10
36.22873461058379
 20
-10.50897155908482
 30
0
 10
36.21514866980268
 20
-10.3444768057679
 30
0
 10
36.20291669139952
 20
-10.17547953741208
 30
0
 10
36.19249849874073
 20
-10.001312872402
 30
0
 10
36.18442920383082
 20
-9.821357149173469
 30
0
 10
36.17932586010048
 20
-9.635089144057
 30
0
 10
36.17788671588656
 20
-9.442142581950881
 30
0
 10
36.1808786904335
 20
-9.242376950413909
 30
0
 10
36.18910874313747
 20
-9.035947975658097
 30
0
 10
36.20337633983504
 20
-8.823368938401009
 30
0
 10
36.22440775057814
 20
-8.605548568071328
 30
0
 10
36.25277829972785
 20
-8.383790472992093
 30
0
 10
36.28883465919892
 20
-8.159742845708916
 30
0
 10
36.33263342800691
 20
-7.935296199544479
 30
0
 10
36.38391193712258
 20
-7.712439421262022
 30
0
 10
36.44210119351891
 20
-7.493096286449071
 30
0
 10
36.50638055037977
 20
-7.278970844070593
 30
0
 10
36.57576292684902
 20
-7.071427788769087
 30
0
 10
36.64919251269671
 20
-6.871424020507309
 30
0
 10
36.7256362136586
 20
-6.679494304284164
 30
0
 10
36.80415491127513
 20
-6.49578237331707
 30
0
 10
36.88394807189871
 20
-6.320102270623739
 30
0
 10
36.96437223149584
 20
-6.152013697542783
 30
0
 10
37.04493848597543
 20
-5.990898041934212
 30
0
 10
37.12529594321762
 20
-5.836026336950448
 30
0
 10
37.20520779314585
 20
-5.686614843923865
 30
0
 10
37.28452521140193
 20
-5.541867309171487
 30
0
 10
37.36316256391908
 20
-5.401005002268864
 30
0
 10
37.44107582758406
 20
-5.263286612268496
 30
0
 10
37.51824498998668
 20
-5.128020308184079
 30
0
 10
37.59466045030433
 20
-4.994570084908771
 30
0
 10
37.67031303510198
 20
-4.862358150826996
 30
0
 10
37.74518706658223
 20
-4.730864712328508
 30
0
 10
37.8192558877149
 20
-4.599626146787219
 30
0
 10
37.8924792928479
 20
-4.468232257868921
 30
0
 10
37.96480239053925
 20
-4.336323078872031
 30
0
 10
38.03615551178578
 20
-4.203585523131009
 30
0
 10
38.10645485804598
 20
-4.069750063374297
 30
0
 10
38.17560365355015
 20
-3.934587542413494
 30
0
 10
38.24349362379505
 20
-3.797906165432321
 30
0
 10
38.31000666750611
 20
-3.659548691367636
 30
0
 10
38.3750166243562
 20
-3.519389821365587
 30
0
 10
38.43839106725931
 20
-3.377333771659568
 30
0
 10
38.49999306792171
 20
-3.233312013351656
 30
0
 10
38.55968289910268
 20
-3.087281160341229
 30
0
 10
38.61731964799556
 20
-2.939220987574934
 30
0
 10
38.67276272330317
 20
-2.789132563914729
 30
0
 10
38.7258732447218
 20
-2.637036486588418
 30
0
 10
38.77651530824954
 20
-2.482971206979085
 30
0
 10
38.82455712441517
 20
-2.326991440155107
 30
0
 10
38.8698720294846
 20
-2.169166652871949
 30
0
 10
38.91233937214393
 20
-2.009579626690041
 30
0
 10
38.95184528021221
 20
-1.848325094295186
 30
0
 10
38.98828331367615
 20
-1.685508448059901
 30
0
 10
39.02155501179917
 20
-1.521244520350109
 30
0
 10
39.05157034324282
 20
-1.355656435088479
 30
0
 10
39.07824806903869
 20
-1.188874529675859
 30
0
 10
39.10151602884217
 20
-1.02103534560476
 30
0
 10
39.1213113611609
 20
-0.8522806850438833
 30
0
 10
39.13758066816165
 20
-0.682756729412251
 30
0
 10
39.15028013520874
 20
-0.5126132145832187
 30
0
 10
39.15937561447652
 20
-0.3420026559550777
 30
0
 10
39.16484268082517
 20
-0.1710796152857359
 30
0
 10
39.16666666666666
 20
0
 30
0
 10
39.16666666666666
 20
2.583717057147129e-14
 30
0
 10
39.16484268082517
 20
0.1710796152857672
 30
0
 10
39.15937561447652
 20
0.3420026559551113
 30
0
 10
39.15028013520873
 20
0.5126132145832484
 30
0
 10
39.13758066816164
 20
0.6827567294122838
 30
0
 10
39.12131136116089
 20
0.8522806850439164
 30
0
 10
39.10151602884216
 20
1.021035345604787
 30
0
 10
39.07824806903868
 20
1.188874529675889
 30
0
 10
39.05157034324282
 20
1.355656435088511
 30
0
 10
39.02155501179917
 20
1.521244520350141
 30
0
 10
38.98828331367613
 20
1.68550844805993
 30
0
 10
38.95184528021221
 20
1.84832509429522
 30
0
 10
38.91233937214393
 20
2.009579626690075
 30
0
 10
38.8698720294846
 20
2.169166652871982
 30
0
 10
38.82455712441516
 20
2.326991440155134
 30
0
 10
38.77651530824953
 20
2.482971206979114
 30
0
 10
38.7258732447218
 20
2.637036486588447
 30
0
 10
38.67276272330318
 20
2.789132563914761
 30
0
 10
38.61731964799556
 20
2.939220987574966
 30
0
 10
38.55968289910267
 20
3.087281160341257
 30
0
 10
38.49999306792171
 20
3.233312013351686
 30
0
 10
38.4383910672593
 20
3.377333771659599
 30
0
 10
38.37501662435621
 20
3.519389821365622
 30
0
 10
38.31000666750612
 20
3.659548691367667
 30
0
 10
38.24349362379506
 20
3.797906165432352
 30
0
 10
38.17560365355014
 20
3.934587542413525
 30
0
 10
38.10645485804598
 20
4.069750063374324
 30
0
 10
38.03615551178578
 20
4.203585523131038
 30
0
 10
37.96480239053925
 20
4.336323078872065
 30
0
 10
37.8924792928479
 20
4.46823225786895
 30
0
 10
37.8192558877149
 20
4.599626146787248
 30
0
 10
37.74518706658223
 20
4.730864712328541
 30
0
 10
37.67031303510197
 20
4.862358150827023
 30
0
 10
37.59466045030433
 20
4.994570084908799
 30
0
 10
37.51824498998667
 20
5.128020308184105
 30
0
 10
37.44107582758405
 20
5.263286612268532
 30
0
 10
37.36316256391908
 20
5.40100500226889
 30
0
 10
37.28452521140191
 20
5.541867309171515
 30
0
 10
37.20520779314582
 20
5.686614843923895
 30
0
 10
37.1252959432176
 20
5.836026336950479
 30
0
 10
37.04493848597542
 20
5.990898041934242
 30
0
 10
36.96437223149584
 20
6.152013697542811
 30
0
 10
36.8839480718987
 20
6.32010227062377
 30
0
 10
36.80415491127512
 20
6.495782373317098
 30
0
 10
36.72563621365859
 20
6.679494304284193
 30
0
 10
36.64919251269671
 20
6.871424020507336
 30
0
 10
36.57576292684902
 20
7.071427788769117
 30
0
 10
36.50638055037977
 20
7.278970844070622
 30
0
 10
36.4421011935189
 20
7.493096286449104
 30
0
 10
36.38391193712257
 20
7.712439421262051
 30
0
 10
36.33263342800691
 20
7.935296199544505
 30
0
 10
36.28883465919891
 20
8.159742845708944
 30
0
 10
36.25277829972784
 20
8.383790472992123
 30
0
 10
36.22440775057812
 20
8.605548568071354
 30
0
 10
36.20337633983502
 20
8.823368938401034
 30
0
 10
36.18910874313745
 20
9.03594797565812
 30
0
 10
36.18087869043348
 20
9.242376950413938
 30
0
 10
36.17788671588655
 20
9.442142581950911
 30
0
 10
36.17932586010047
 20
9.63508914405703
 30
0
 10
36.1844292038308
 20
9.821357149173494
 30
0
 10
36.19249849874072
 20
10.00131287240203
 30
0
 10
36.20291669139951
 20
10.17547953741211
 30
0
 10
36.21514866980268
 20
10.34447680576793
 30
0
 10
36.22873461058379
 20
10.50897155908484
 30
0
 10
36.24327954493139
 20
10.66964037249199
 30
0
 10
36.25844173740408
 20
10.82714256142485
 30
0
 10
36.27392151274251
 20
10.98210200515789
 30
0
 10
36.28945141357666
 20
11.13509581826113
 30
0
 10
36.30478805053449
 20
11.28664810846828
 30
0
 10
36.31970568212729
 20
11.43722735413621
 30
0
 10
36.33399138363564
 20
11.58724625321807
 30
0
 10
36.34744158348871
 20
11.73706318559975
 30
0
 10
36.35985972421121
 20
11.88698467086555
 30
0
 10
36.37105481618241
 20
12.03726839098013
 30
0
 10
36.3808406790077
 20
12.18812648742068
 30
0
 10
36.38903569699674
 20
12.33972894344405
 30
0
 10
36.39546294648916
 20
12.49220693312547
 30
0
 10
36.39995058089986
 20
12.64565606720795
 30
0
 10
36.40233238339987
 20
12.80013949786235
 30
0
 10
36.40244841705861
 20
12.95569086496515
 30
0
 10
36.40014571844141
 20
13.11231707902522
 30
0
 10
36.39527899364527
 20
13.27000094302888
 30
0
 10
36.38771128614547
 20
13.4287036190798
 30
0
 10
36.37731459414638
 20
13.58836694709173
 30
0
 10
36.3639704218247
 20
13.74891562285226
 30
0
 10
36.34757025428328
 20
13.91025924213751
 30
0
 10
36.32801595047256
 20
14.07229421663818
 30
0
 10
36.30522005198854
 20
14.23490556653335
 30
0
 10
36.27910600866545
 20
14.39796859379413
 30
0
 10
36.24960832434423
 20
14.56135043981709
 30
0
 10
36.21667262817404
 20
14.72491153082534
 30
0
 10
36.18025567832725
 20
14.88850691464314
 30
0
 10
36.14032530609457
 20
15.05198749292584
 30
0
 10
36.0968603089823
 20
15.21520115366762
 30
0
 10
36.04985030166372
 20
15.3779938097519
 30
0
 10
35.9992955334461
 20
15.5402103503792
 30
0
 10
35.94520668032109
 20
15.70169551332274
 30
0
 10
35.88760461869376
 20
15.86229468703774
 30
0
 10
35.82652018657424
 20
16.02185465260289
 30
0
 10
35.76199393641751
 20
16.18022427622695
 30
0
 10
35.69407588197779
 20
16.33725516354466
 30
0
  0
SPLINE
  5
4F
100
AcDbEntity
  8
0
  6
ByLayer
 62
  256
370
   -1
100
AcDbSpline
210
0
220
0
230
0
 70
    8
 71
    3
 72
  365
 73
  361
 74
    0
 42
1e-07
 43
1e-07
 40
0
 40
0
 40
0
 40
0
 40
0.002793296089385475
 40
0.00558659217877095
 40
0.008379888268156424
 40
0.0111731843575419
 40
0.01396648044692738
 40
0.01675977653631285
 40
0.01955307262569832
 40
0.0223463687150838
 40
0.02513966480446927
 40
0.02793296089385475
 40
0.03072625698324023
 40
0.0335195530726257
 40
0.03631284916201118
 40
0.03910614525139665
 40
0.04189944134078213
 40
0.0446927374301676
 40
0.04748603351955307
 40
0.05027932960893855
 40
0.05307262569832402
 40
0.0558659217877095
 40
0.05865921787709497
 40
0.06145251396648045
 40
0.06424581005586592
 40
0.0670391061452514
 40
0.06983240223463687
 40
0.07262569832402235
 40
0.07541899441340782
 40
0.0782122905027933
 40
0.08100558659217877
 40
0.08379888268156425
 40
0.08659217877094973
 40
0.0893854748603352
 40
0.09217877094972067
 40
0.09497206703910614
 40
0.09776536312849163
 40
0.1005586592178771
 40
0.1033519553072626
 40
0.106145251396648
 40
0.1089385474860335
 40
0.111731843575419
 40
0.1145251396648045
 40
0.1173184357541899
 40
0.1201117318435754
 40
0.1229050279329609
 40
0.1256983240223464
 40
0.1284916201117318
 40
0.1312849162011173
 40
0.1340782122905028
 40
0.1368715083798883
 40
0.1396648044692737
 40
0.1424581005586592
 40
0.1452513966480447
 40
0.1480446927374302
 40
0.1508379888268156
 40
0.1536312849162011
 40
0.1564245810055866
 40
0.1592178770949721
 40
0.1620111731843575
 40
0.164804469273743
 40
0.1675977653631285
 40
0.170391061452514
 40
0.1731843575418995
 40
0.1759776536312849
 40
0.1787709497206704
 40
0.1815642458100559
 40
0.1843575418994413
 40
0.1871508379888268
 40
0.1899441340782123
 40
0.1927374301675978
 40
0.1955307262569833
 40
0.1983240223463687
 40
0.2011173184357542
 40
0.2039106145251397
 40
0.2067039106145251
 40
0.2094972067039106
 40
0.2122905027932961
 40
0.2150837988826816
 40
0.2178770949720671
 40
0.2206703910614525
 40
0.223463687150838
 40
0.2262569832402235
 40
0.2290502793296089
 40
0.2318435754189944
 40
0.2346368715083799
 40
0.2374301675977654
 40
0.2402234636871508
 40
0.2430167597765363
 40
0.2458100558659218
 40
0.2486033519553073
 40
0.2513966480446927
 40
0.2541899441340782
 40
0.2569832402234637
 40
0.2597765363128492
 40
0.2625698324022346
 40
0.2653631284916201
 40
0.2681564245810056
 40
0.2709497206703911
 40
0.2737430167597765
 40
0.276536312849162
 40
0.2793296089385475
 40
0.282122905027933
 40
0.2849162011173185
 40
0.2877094972067039
 40
0.2905027932960894
 40
0.2932960893854749
 40
0.2960893854748604
 40
0.2988826815642458
 40
0.3016759776536313
 40
0.3044692737430167
 40
0.3072625698324022
 40
0.3100558659217877
 40
0.3128491620111732
 40
0.3156424581005587
 40
0.3184357541899441
 40
0.3212290502793296
 40
0.3240223463687151
 40
0.3268156424581006
 40
0.329608938547486
 40
0.3324022346368715
 40
0.335195530726257
 40
0.3379888268156425
 40
0.340782122905028
 40
0.3435754189944134
 40
0.3463687150837989
 40
0.3491620111731844
 40
0.3519553072625698
 40
0.3547486033519553
 40
0.3575418994413408
 40
0.3603351955307263
 40
0.3631284916201117
 40
0.3659217877094972
 40
0.3687150837988827
 40
0.3715083798882682
 40
0.3743016759776536
 40
0.3770949720670391
 40
0.3798882681564246
 40
0.3826815642458101
 40
0.3854748603351956
 40
0.388268156424581
 40
0.3910614525139665
 40
0.393854748603352
 40
0.3966480446927375
 40
0.3994413407821229
 40
0.4022346368715084
 40
0.4050279329608938
 40
0.4078212290502793
 40
0.4106145251396648
 40
0.4134078212290503
 40
0.4162011173184358
 40
0.4189944134078212
 40
0.4217877094972067
 40
0.4245810055865922
 40
0.4273743016759777
 40
0.4301675977653631
 40
0.4329608938547486
 40
0.4357541899441341
 40
0.4385474860335196
 40
0.4413407821229051
 40
0.4441340782122905
 40
0.446927374301676
 40
0.4497206703910615
 40
0.4525139664804469
 40
0.4553072625698324
 40
0.4581005586592179
 40
0.4608938547486034
 40
0.4636871508379888
 40
0.4664804469273743
 40
0.4692737430167598
 40
0.4720670391061453
 40
0.4748603351955307
 40
0.4776536312849162
 40
0.4804469273743017
 40
0.4832402234636872
 40
0.4860335195530727
 40
0.4888268156424581
 40
0.4916201117318436
 40
0.4944134078212291
 40
0.4972067039106146
 40
0.5
 40
0.5027932960893855
 40
0.505586592178771
 40
0.5083798882681564
 40
0.5111731843575419
 40
0.5139664804469274
 40
0.5167597765363129
 40
0.5195530726256984
 40
0.5223463687150838
 40
0.5251396648044693
 40
0.5279329608938548
 40
0.5307262569832403
 40
0.5335195530726257
 40
0.5363128491620112
 40
0.5391061452513967
 40
0.5418994413407822
 40
0.5446927374301677
 40
0.5474860335195531
 40
0.5502793296089385
 40
0.553072625698324
 40
0.5558659217877095
 40
0.5586592178770949
 40
0.5614525139664804
 40
0.5642458100558659
 40
0.5670391061452514
 40
0.5698324022346369
 40
0.5726256983240223
 40
0.5754189944134078
 40
0.5782122905027933
 40
0.5810055865921788
 40
0.5837988826815642
 40
0.5865921787709497
 40
0.5893854748603352
 40
0.5921787709497207
 40
0.5949720670391062
 40
0.5977653631284916
 40
0.6005586592178771
 40
0.6033519553072626
 40
0.6061452513966481
 40
0.6089385474860335
 40
0.611731843575419
 40
0.6145251396648045
 40
0.61731843575419
 40
0.6201117318435755
 40
0.6229050279329609
 40
0.6256983240223464
 40
0.6284916201117319
 40
0.6312849162011174
 40
0.6340782122905028
 40
0.6368715083798883
 40
0.6396648044692738
 40
0.6424581005586593
 40
0.6452513966480448
 40
0.6480446927374302
 40
0.6508379888268156
 40
0.6536312849162011
 40
0.6564245810055866
 40
0.659217877094972
 40
0.6620111731843575
 40
0.664804469273743
 40
0.6675977653631285
 40
0.670391061452514
 40
0.6731843575418994
 40
0.6759776536312849
 40
0.6787709497206704
 40
0.6815642458100559
 40
0.6843575418994413
 40
0.6871508379888268
 40
0.6899441340782123
 40
0.6927374301675978
 40
0.6955307262569833
 40
0.6983240223463687
 40
0.7011173184357542
 40
0.7039106145251397
 40
0.7067039106145252
 40
0.7094972067039106
 40
0.7122905027932961
 40
0.7150837988826816
 40
0.7178770949720671
 40
0.7206703910614526
 40
0.723463687150838
 40
0.7262569832402235
 40
0.729050279329609
 40
0.7318435754189945
 40
0.7346368715083799
 40
0.7374301675977654
 40
0.7402234636871509
 40
0.7430167597765364
 40
0.7458100558659219
 40
0.7486033519553073
 40
0.7513966480446927
 40
0.7541899441340782
 40
0.7569832402234637
 40
0.7597765363128491
 40
0.7625698324022346
 40
0.7653631284916201
 40
0.7681564245810056
 40
0.7709497206703911
 40
0.7737430167597765
 40
0.776536312849162
 40
0.7793296089385475
 40
0.782122905027933
 40
0.7849162011173184
 40
0.7877094972067039
 40
0.7905027932960894
 40
0.7932960893854749
 40
0.7960893854748604
 40
0.7988826815642458
 40
0.8016759776536313
 40
0.8044692737430168
 40
0.8072625698324023
 40
0.8100558659217877
 40
0.8128491620111732
 40
0.8156424581005587
 40
0.8184357541899442
 40
0.8212290502793297
 40
0.8240223463687151
 40
0.8268156424581006
 40
0.8296089385474861
 40
0.8324022346368716
 40
0.835195530726257
 40
0.8379888268156425
 40
0.840782122905028
 40
0.8435754189944135
 40
0.846368715083799
 40
0.8491620111731844
 40
0.8519553072625698
 40
0.8547486033519553
 40
0.8575418994413408
 40
0.8603351955307262
 40
0.8631284916201117
 40
0.8659217877094972
 40
0.8687150837988827
 40
0.8715083798882682
 40
0.8743016759776536
 40
0.8770949720670391
 40
0.8798882681564246
 40
0.8826815642458101
 40
0.8854748603351955
 40
0.888268156424581
 40
0.8910614525139665
 40
0.893854748603352
 40
0.8966480446927375
 40
0.8994413407821229
 40
0.9022346368715084
 40
0.9050279329608939
 40
0.9078212290502794
 40
0.9106145251396648
 40
0.9134078212290503
 40
0.9162011173184358
 40
0.9189944134078213
 40
0.9217877094972068
 40
0.9245810055865922
 40
0.9273743016759777
 40
0.9301675977653632
 40
0.9329608938547487
 40
0.9357541899441341
 40
0.9385474860335196
 40
0.9413407821229051
 40
0.9441340782122906
 40
0.9469273743016761
 40
0.9497206703910615
 40
0.9525139664804469
 40
0.9553072625698324
 40
0.9581005586592179
 40
0.9608938547486033
 40
0.9636871508379888
 40
0.9664804469273743
 40
0.9692737430167598
 40
0.9720670391061453
 40
0.9748603351955307
 40
0.9776536312849162
 40
0.9804469273743017
 40
0.9832402234636872
 40
0.9860335195530726
 40
0.9888268156424581
 40
0.9916201117318436
 40
0.9944134078212291
 40
0.9972067039106146
 40
1
 40
1
 40
1
 40
1
 10
47.13596183461117
 20
9.806501416904315
 30
0
 10
46.80191056955154
 20
11.09468709985441
 30
0
 10
46.3636899501117
 20
12.32797453093253
 30
0
 10
45.84037561119028
 20
13.48011464447412
 30
0
 10
45.25751252523087
 20
14.53066937095043
 30
0
 10
44.64536444020681
 20
15.46578342043082
 30
0
 10
44.03731276269829
 20
16.2778898603476
 30
0
 10
43.46871468357011
 20
16.96417736640251
 30
0
 10
42.97621688566364
 20
17.52351461104455
 30
0
 10
42.59639070996953
 20
17.95159884440341
 30
0
 10
42.35908391907849
 20
18.23630538674747
 30
0
 10
42.26603414758981
 20
18.36534773143629
 30
0
 10
42.26180317019081
 20
18.37093837892364
 30
0
 10
42.260479585912
 20
18.37782348122757
 30
0
 10
42.22684488520681
 20
18.53331911976884
 30
0
 10
42.17405592836625
 20
18.90017829478318
 30
0
 10
42.11008066473033
 20
19.4688884144712
 30
0
 10
42.02395743582137
 20
20.20915527421084
 30
0
 10
41.89441280436841
 20
21.09092196955437
 30
0
 10
41.69776609347616
 20
22.08619770188711
 30
0
 10
41.41244794568717
 20
23.16682581464213
 30
0
 10
41.02174516695769
 20
24.30293582207491
 30
0
 10
40.51570384427311
 20
25.46276637792694
 30
0
 10
39.89241950034584
 20
26.61365813025323
 30
0
 10
39.15863490135168
 20
27.72387106646165
 30
0
 10
38.32951156519529
 20
28.76481635555537
 30
0
 10
37.4275539191964
 20
29.71324010250694
 30
0
 10
36.48086487982061
 20
30.55292135231435
 30
0
 10
35.52109385240044
 20
31.27557907573582
 30
0
 10
34.58152360054342
 20
31.88086521084843
 30
0
 10
33.69572730535158
 20
32.3754444620303
 30
0
 10
32.89714883654209
 20
32.77112962185969
 30
0
 10
32.21972675713266
 20
33.08179271995005
 30
0
 10
31.69862073560351
 20
33.31837790316931
 30
0
 10
31.36602961142249
 20
33.48194890418274
 30
0
 10
31.22853816525097
 20
33.56198820032248
 30
0
 10
31.22239905387509
 20
33.56537461739564
 30
0
 10
31.21838947607104
 20
33.57112612110441
 30
0
 10
31.12441687398945
 20
33.69949799012133
 30
0
 10
30.92697669292718
 20
34.0131693199534
 30
0
 10
30.63721713646595
 20
34.50669078253859
 30
0
 10
30.25744599438789
 20
35.14792873667982
 30
0
 10
29.78045425912198
 20
35.90077214738576
 30
0
 10
29.19599343932219
 20
36.73001834870004
 30
0
 10
28.49581129043124
 20
37.60117190686798
 30
0
 10
27.67678897104656
 20
38.48014690687969
 30
0
 10
26.7427516325046
 20
39.33387929396704
 30
0
 10
25.70524320340527
 20
40.13175864481236
 30
0
 10
24.58333333333334
 20
40.84753154516602
 30
0
 10
23.40250088325063
 20
41.46124754322798
 30
0
 10
22.19276288171388
 20
41.96081652404583
 30
0
 10
20.98639027719172
 20
42.3428503937627
 30
0
 10
19.81566443819782
 20
42.61265702861043
 30
0
 10
18.71113225178169
 20
42.7834557777424
 30
0
 10
17.70075356555188
 20
42.87499059454857
 30
0
 10
16.81027617917587
 20
42.9116558493311
 30
0
 10
16.06506224997977
 20
42.91992832892431
 30
0
 10
15.49278034783753
 20
42.92410673451645
 30
0
 10
15.12241291723298
 20
42.93825928212814
 30
0
 10
14.96425331649224
 20
42.95545600828207
 30
0
 10
14.95726757926846
 20
42.95605265266444
 30
0
 10
14.95126530036736
 20
42.95967607053602
 30
0
 10
14.81320351352356
 20
43.03872750765376
 30
0
 10
14.50525130923297
 20
43.24497436976101
 30
0
 10
14.03980951964152
 20
43.57797283086068
 30
0
 10
13.43205634497217
 20
44.00930601166854
 30
0
 10
12.69009371025467
 20
44.50305267265814
 30
0
 10
11.81887736695056
 20
45.02288514128151
 30
0
 10
10.82489907145603
 20
45.53393378047351
 30
0
 10
9.71917361102194
 20
46.00379101032491
 30
0
 10
8.518643797919358
 20
46.40380714300493
 30
0
 10
7.24630591650743
 20
46.7107135041018
 30
0
 10
5.930259184124324
 20
46.90828273153689
 30
0
 10
4.601894278260644
 20
46.98865236706738
 30
0
 10
3.29355061177645
 20
46.95298656652639
 30
0
 10
2.036087224980875
 20
46.81131592940989
 30
0
 10
0.8568357076856206
 20
46.5816194574024
 30
0
 10
-0.2216747638983652
 20
46.28839816517089
 30
0
 10
-1.18193218731479
 20
45.96106134620785
 30
0
 10
-2.010336861419826
 20
45.63236694029825
 30
0
 10
-2.694488381988562
 20
45.33681841451953
 30
0
 10
-3.218993424845637
 20
45.10786755819804
 30
0
 10
-3.56309726843974
 20
44.97015454835407
 30
0
 10
-3.714577791946745
 20
44.92153523434281
 30
0
 10
-3.721202257589017
 20
44.91923894080035
 30
0
 10
-3.728159389036168
 20
44.92010775096704
 30
0
 10
-3.886438223444931
 20
44.93617004454817
 30
0
 10
-4.251654717184044
 20
44.99933048277835
 30
0
 10
-4.812299626079444
 20
45.1142274832723
 30
0
 10
-5.542948788175485
 20
45.26107446524617
 30
0
 10
-6.421590242282997
 20
45.41035109328678
 30
0
 10
-7.428920888582125
 20
45.53088607286448
 30
0
 10
-8.544827453379913
 20
45.59346484063312
 30
0
 10
-9.746066077553916
 20
45.57296171676401
 30
0
 10
-11.00550585406073
 20
45.45009517166384
 30
0
 10
-12.29267440926236
 20
45.21296164502184
 30
0
 10
-13.57530156801836
 20
44.85816568525474
 30
0
 10
-14.82151256962285
 20
44.39129231813533
 30
0
 10
-16.00223739519029
 20
43.82655867716264
 30
0
 10
-17.0933647209861
 20
43.18567967340759
 30
0
 10
-18.07723861607864
 20
42.4961967012819
 30
0
 10
-18.94324311433358
 20
41.78965599294553
 30
0
 10
-19.68734204276312
 20
41.10004704797365
 30
0
 10
-20.3104353106242
 20
40.46282723024861
 30
0
 10
-20.81522840933781
 20
39.91456072417917
 30
0
 10
-21.201264906021
 20
39.49206828895527
 30
0
 10
-21.45960648196194
 20
39.22630155214107
 30
0
 10
-21.57821556956351
 20
39.12027291904977
 30
0
 10
-21.58333333333333
 20
39.11548073759715
 30
0
 10
-21.59004236609577
 20
39.11344471488824
 30
0
 10
-21.74117039968215
 20
39.06374054845123
 30
0
 10
-22.10050193321462
 20
38.97289354923976
 30
0
 10
-22.65940936336685
 20
38.84982235393613
 30
0
 10
-23.38661863502393
 20
38.68679195982978
 30
0
 10
-24.25001381889924
 20
38.46578726979754
 30
0
 10
-25.21928214813664
 20
38.16618316733472
 30
0
 10
-26.26416659949126
 20
37.76947162622254
 30
0
 10
-27.35321331637517
 20
37.26215332501491
 30
0
 10
-28.45379447727704
 20
36.63764884398987
 30
0
 10
-29.53323056951476
 20
35.89747797065587
 30
0
 10
-30.5606602665928
 20
35.05166426835044
 30
0
 10
-31.5092361602892
 20
34.11827454516743
 30
0
 10
-32.35818409605097
 20
33.12212064073132
 30
0
 10
-33.09430953363636
 20
32.09284707228989
 30
0
 10
-33.71268507185095
 20
31.0627954696827
 30
0
 10
-34.21644355162468
 20
30.06510265243366
 30
0
 10
-34.6157225204153
 20
29.13246123293919
 30
0
 10
-34.92576589539463
 20
28.29689709884367
 30
0
 10
-35.1639172595842
 20
27.59071287222775
 30
0
 10
-35.34473599278549
 20
27.04773163837495
 30
0
 10
-35.47264569563356
 20
26.69986465780069
 30
0
 10
-35.53787475855364
 20
26.55476001953076
 30
0
 10
-35.54060091260179
 20
26.54830056187671
 30
0
 10
-35.54590179396524
 20
26.54371175311524
 30
0
 10
-35.66374761676708
 20
26.43683542858522
 30
0
 10
-35.95506250352062
 20
26.20768926341485
 30
0
 10
-36.41559228274177
 20
25.86793000004832
 30
0
 10
-37.01362057440154
 20
25.42321166608741
 30
0
 10
-37.7124806170536
 20
24.87013937665349
 30
0
 10
-38.4760913295778
 20
24.20220046328378
 30
0
 10
-39.2692836533728
 20
23.41479364276028
 30
0
 10
-40.05783239193857
 20
22.50838010733498
 30
0
 10
-40.80925445604956
 20
21.49022018859945
 30
0
 10
-41.49431377860648
 20
20.37499423681415
 30
0
 10
-42.08889408547601
 20
19.18441166507525
 30
0
 10
-42.57581748170271
 20
17.94589714854643
 30
0
 10
-42.94619771711574
 20
16.690567040498
 30
0
 10
-43.20003849084254
 20
15.45086965801059
 30
0
 10
-43.34599292385647
 20
14.25835470473769
 30
0
 10
-43.40040096749399
 20
13.14201993043307
 30
0
 10
-43.38582101560625
 20
12.12760821062785
 30
0
 10
-43.32920518151425
 20
11.23817638980886
 30
0
 10
-43.25953627677418
 20
10.49618011091063
 30
0
 10
-43.20387204483646
 20
9.926596466591707
 30
0
 10
-43.17923312494604
 20
9.556778603471013
 30
0
 10
-43.17980346561833
 20
9.397687870213543
 30
0
 10
-43.17966663314356
 20
9.390678035268792
 30
0
 10
-43.18264279256329
 20
9.384329887177648
 30
0
 10
-43.24682979122242
 20
9.238761292006812
 30
0
 10
-43.41975704076472
 20
8.910937414563042
 30
0
 10
-43.70227938644572
 20
8.413237546385718
 30
0
 10
-44.06772217356377
 20
7.763727112651276
 30
0
 10
-44.48120782467387
 20
6.974218447162814
 30
0
 10
-44.90712569110389
 20
6.053437429042358
 30
0
 10
-45.31147572862906
 20
5.011485121742449
 30
0
 10
-45.66317924823827
 20
3.86270348688303
 30
0
 10
-45.93551451421848
 20
2.6269372300788
 30
0
 10
-46.10774408665589
 20
1.329488898415644
 30
0
 10
-46.16666666666667
 20
-1.77635683940025e-15
 30
0
 10
-46.10774408665591
 20
-1.329488898415621
 30
0
 10
-45.93551451421848
 20
-2.626937230078806
 30
0
 10
-45.66317924823827
 20
-3.862703486882996
 30
0
 10
-45.31147572862906
 20
-5.011485121742457
 30
0
 10
-44.90712569110388
 20
-6.05343742904236
 30
0
 10
-44.48120782467387
 20
-6.974218447162794
 30
0
 10
-44.06772217356376
 20
-7.763727112651276
 30
0
 10
-43.70227938644573
 20
-8.413237546385707
 30
0
 10
-43.41975704076471
 20
-8.910937414563048
 30
0
 10
-43.24682979122243
 20
-9.238761292006803
 30
0
 10
-43.18264279256329
 20
-9.384329887177655
 30
0
 10
-43.17966663314355
 20
-9.390678035268804
 30
0
 10
-43.17980346561833
 20
-9.39768787021354
 30
0
 10
-43.17923312494606
 20
-9.556778603471017
 30
0
 10
-43.20387204483645
 20
-9.926596466591697
 30
0
 10
-43.25953627677417
 20
-10.49618011091063
 30
0
 10
-43.32920518151425
 20
-11.23817638980884
 30
0
 10
-43.38582101560625
 20
-12.12760821062785
 30
0
 10
-43.40040096749399
 20
-13.14201993043305
 30
0
 10
-43.34599292385647
 20
-14.25835470473769
 30
0
 10
-43.20003849084253
 20
-15.45086965801056
 30
0
 10
-42.94619771711575
 20
-16.69056704049801
 30
0
 10
-42.57581748170271
 20
-17.94589714854643
 30
0
 10
-42.08889408547601
 20
-19.18441166507526
 30
0
 10
-41.49431377860647
 20
-20.37499423681416
 30
0
 10
-40.80925445604957
 20
-21.49022018859943
 30
0
 10
-40.05783239193856
 20
-22.50838010733499
 30
0
 10
-39.26928365337281
 20
-23.41479364276027
 30
0
 10
-38.4760913295778
 20
-24.20220046328378
 30
0
 10
-37.71248061705362
 20
-24.87013937665348
 30
0
 10
-37.01362057440153
 20
-25.42321166608741
 30
0
 10
-36.41559228274176
 20
-25.86793000004833
 30
0
 10
-35.95506250352062
 20
-26.20768926341486
 30
0
 10
-35.66374761676708
 20
-26.43683542858523
 30
0
 10
-35.54590179396524
 20
-26.54371175311524
 30
0
 10
-35.54060091260179
 20
-26.5483005618767
 30
0
 10
-35.53787475855364
 20
-26.55476001953075
 30
0
 10
-35.47264569563356
 20
-26.6998646578007
 30
0
 10
-35.34473599278549
 20
-27.04773163837493
 30
0
 10
-35.16391725958419
 20
-27.59071287222775
 30
0
 10
-34.92576589539463
 20
-28.29689709884367
 30
0
 10
-34.6157225204153
 20
-29.13246123293918
 30
0
 10
-34.21644355162468
 20
-30.06510265243367
 30
0
 10
-33.71268507185096
 20
-31.06279546968268
 30
0
 10
-33.09430953363637
 20
-32.0928470722899
 30
0
 10
-32.35818409605098
 20
-33.12212064073129
 30
0
 10
-31.50923616028919
 20
-34.11827454516743
 30
0
 10
-30.56066026659282
 20
-35.05166426835042
 30
0
 10
-29.53323056951476
 20
-35.89747797065587
 30
0
 10
-28.45379447727702
 20
-36.63764884398988
 30
0
 10
-27.35321331637515
 20
-37.26215332501491
 30
0
 10
-26.26416659949127
 20
-37.76947162622254
 30
0
 10
-25.21928214813666
 20
-38.16618316733472
 30
0
 10
-24.25001381889924
 20
-38.46578726979754
 30
0
 10
-23.38661863502394
 20
-38.68679195982978
 30
0
 10
-22.65940936336685
 20
-38.84982235393612
 30
0
 10
-22.10050193321462
 20
-38.97289354923976
 30
0
 10
-21.74117039968215
 20
-39.06374054845123
 30
0
 10
-21.59004236609578
 20
-39.11344471488823
 30
0
 10
-21.58333333333333
 20
-39.11548073759715
 30
0
 10
-21.57821556956352
 20
-39.12027291904978
 30
0
 10
-21.45960648196194
 20
-39.22630155214107
 30
0
 10
-21.201264906021
 20
-39.49206828895525
 30
0
 10
-20.81522840933781
 20
-39.91456072417917
 30
0
 10
-20.3104353106242
 20
-40.46282723024861
 30
0
 10
-19.68734204276312
 20
-41.10004704797364
 30
0
 10
-18.94324311433359
 20
-41.78965599294551
 30
0
 10
-18.07723861607863
 20
-42.4961967012819
 30
0
 10
-17.0933647209861
 20
-43.18567967340759
 30
0
 10
-16.0022373951903
 20
-43.82655867716264
 30
0
 10
-14.82151256962288
 20
-44.39129231813532
 30
0
 10
-13.57530156801839
 20
-44.85816568525473
 30
0
 10
-12.29267440926234
 20
-45.21296164502184
 30
0
 10
-11.00550585406073
 20
-45.45009517166385
 30
0
 10
-9.746066077553927
 20
-45.57296171676401
 30
0
 10
-8.544827453379936
 20
-45.59346484063312
 30
0
 10
-7.428920888582113
 20
-45.53088607286448
 30
0
 10
-6.421590242282994
 20
-45.41035109328677
 30
0
 10
-5.542948788175497
 20
-45.26107446524617
 30
0
 10
-4.812299626079458
 20
-45.11422748327231
 30
0
 10
-4.251654717184058
 20
-44.99933048277835
 30
0
 10
-3.886438223444927
 20
-44.93617004454816
 30
0
 10
-3.728159389036175
 20
-44.92010775096705
 30
0
 10
-3.721202257589024
 20
-44.91923894080035
 30
0
 10
-3.714577791946756
 20
-44.92153523434281
 30
0
 10
-3.563097268439732
 20
-44.97015454835407
 30
0
 10
-3.218993424845632
 20
-45.10786755819804
 30
0
 10
-2.694488381988565
 20
-45.33681841451953
 30
0
 10
-2.010336861419841
 20
-45.63236694029824
 30
0
 10
-1.181932187314823
 20
-45.96106134620784
 30
0
 10
-0.2216747638983474
 20
-46.28839816517089
 30
0
 10
0.8568357076856259
 20
-46.5816194574024
 30
0
 10
2.036087224980857
 20
-46.81131592940989
 30
0
 10
3.293550611776428
 20
-46.95298656652638
 30
0
 10
4.60189427826067
 20
-46.98865236706739
 30
0
 10
5.930259184124333
 20
-46.90828273153689
 30
0
 10
7.246305916507415
 20
-46.7107135041018
 30
0
 10
8.518643797919328
 20
-46.40380714300494
 30
0
 10
9.719173611021896
 20
-46.00379101032493
 30
0
 10
10.82489907145604
 20
-45.5339337804735
 30
0
 10
11.81887736695057
 20
-45.02288514128148
 30
0
 10
12.69009371025466
 20
-44.50305267265816
 30
0
 10
13.43205634497216
 20
-44.00930601166854
 30
0
 10
14.03980951964153
 20
-43.57797283086067
 30
0
 10
14.50525130923297
 20
-43.244974369761
 30
0
 10
14.81320351352355
 20
-43.03872750765377
 30
0
 10
14.95126530036735
 20
-42.95967607053603
 30
0
 10
14.95726757926846
 20
-42.95605265266445
 30
0
 10
14.96425331649224
 20
-42.95545600828206
 30
0
 10
15.12241291723299
 20
-42.93825928212814
 30
0
 10
15.49278034783753
 20
-42.92410673451644
 30
0
 10
16.06506224997976
 20
-42.91992832892431
 30
0
 10
16.81027617917588
 20
-42.91165584933109
 30
0
 10
17.70075356555189
 20
-42.87499059454856
 30
0
 10
18.71113225178169
 20
-42.7834557777424
 30
0
 10
19.8156644381978
 20
-42.61265702861044
 30
0
 10
20.98639027719169
 20
-42.3428503937627
 30
0
 10
22.19276288171389
 20
-41.96081652404583
 30
0
 10
23.40250088325063
 20
-41.46124754322799
 30
0
 10
24.58333333333332
 20
-40.84753154516603
 30
0
 10
25.70524320340524
 20
-40.13175864481238
 30
0
 10
26.74275163250462
 20
-39.33387929396702
 30
0
 10
27.67678897104656
 20
-38.48014690687968
 30
0
 10
28.49581129043124
 20
-37.60117190686798
 30
0
 10
29.19599343932219
 20
-36.73001834870006
 30
0
 10
29.78045425912197
 20
-35.90077214738577
 30
0
 10
30.2574459943879
 20
-35.1479287366798
 30
0
 10
30.63721713646595
 20
-34.50669078253859
 30
0
 10
30.92697669292718
 20
-34.01316931995341
 30
0
 10
31.12441687398945
 20
-33.69949799012134
 30
0
 10
31.21838947607105
 20
-33.57112612110441
 30
0
 10
31.2223990538751
 20
-33.56537461739564
 30
0
 10
31.22853816525098
 20
-33.56198820032249
 30
0
 10
31.3660296114225
 20
-33.48194890418274
 30
0
 10
31.69862073560348
 20
-33.31837790316931
 30
0
 10
32.21972675713266
 20
-33.08179271995005
 30
0
 10
32.89714883654208
 20
-32.77112962185969
 30
0
 10
33.69572730535157
 20
-32.37544446203031
 30
0
 10
34.5815236005434
 20
-31.88086521084845
 30
0
 10
35.52109385240046
 20
-31.27557907573581
 30
0
 10
36.48086487982061
 20
-30.55292135231434
 30
0
 10
37.42755391919639
 20
-29.71324010250694
 30
0
 10
38.32951156519527
 20
-28.76481635555538
 30
0
 10
39.15863490135166
 20
-27.72387106646169
 30
0
 10
39.89241950034584
 20
-26.61365813025322
 30
0
 10
40.51570384427311
 20
-25.46276637792695
 30
0
 10
41.02174516695769
 20
-24.30293582207493
 30
0
 10
41.41244794568716
 20
-23.16682581464216
 30
0
 10
41.69776609347617
 20
-22.08619770188709
 30
0
 10
41.8944128043684
 20
-21.09092196955436
 30
0
 10
42.02395743582137
 20
-20.20915527421084
 30
0
 10
42.11008066473033
 20
-19.46888841447122
 30
0
 10
42.17405592836624
 20
-18.9001782947832
 30
0
 10
42.22684488520681
 20
-18.53331911976885
 30
0
 10
42.26047958591199
 20
-18.37782348122757
 30
0
 10
42.26180317019081
 20
-18.37093837892364
 30
0
 10
42.26603414758981
 20
-18.36534773143628
 30
0
 10
42.35908391907849
 20
-18.23630538674747
 30
0
 10
42.59639070996954
 20
-17.9515988444034
 30
0
 10
42.97621688566363
 20
-17.52351461104456
 30
0
 10
43.46871468357011
 20
-16.96417736640252
 30
0
 10
44.03731276269828
 20
-16.27788986034763
 30
0
 10
44.64536444020681
 20
-15.46578342043081
 30
0
 10
45.25751252523087
 20
-14.53066937095043
 30
0
 10
45.84037561119027
 20
-13.48011464447413
 30
0
 10
46.36368995011169
 20
-12.32797453093257
 30
0
 10
46.80191056955155
 20
-11.0946870998544
 30
0
 10
47.13596183461117
 20
-9.806501416904316
 30
0
 10
47.35474313913762
 20
-8.493814347479473
 30
0
 10
47.45603187246731
 20
-7.188909833172781
 30
0
 10
47.44657803736128
 20
-5.923526348392716
 30
0
 10
47.34140521556991
 20
-4.726725075059342
 30
0
 10
47.16252526247023
 20
-3.623472825610804
 30
0
 10
46.93735586166237
 20
-2.634259778176114
 30
0
 10
46.69705394564814
 20
-1.776035270418843
 30
0
 10
46.47463777270465
 20
-1.064738370243038
 30
0
 10
46.3017668392356
 20
-0.5191747397155186
 30
0
 10
46.2007768816441
 20
-0.1625610036898486
 30
0
 10
46.16825793565928
 20
-0.006828204161546836
 30
0
 10
46.16666666666666
 20
1.598721155460225e-14
 30
0
 10
46.16825793565928
 20
0.00682820416153973
 30
0
 10
46.2007768816441
 20
0.1625610036898433
 30
0
 10
46.3017668392356
 20
0.5191747397155098
 30
0
 10
46.47463777270465
 20
1.064738370243029
 30
0
 10
46.69705394564814
 20
1.776035270418833
 30
0
 10
46.93735586166235
 20
2.634259778176099
 30
0
 10
47.16252526247022
 20
3.623472825610794
 30
0
 10
47.3414052155699
 20
4.726725075059328
 30
0
 10
47.44657803736128
 20
5.923526348392642
 30
0
 10
47.45603187246731
 20
7.188909833172767
 30
0
 10
47.35474313913762
 20
8.493814347479447
 30
0
 10
47.13596183461117
 20
9.80650141690429
 30
0
  0
CIRCLE
  5
50
100
AcDbEntity
  8
0
  6
ByLayer
 62
  256
370
   -1
100
AcDbCircle
 10
-1
 20
0
 40
40
  0
CIRCLE
  5
51
100
AcDbEntity
  8
0
  6
ByLayer
 62
  256
370
   -1
100
AcDbCircle
 10
1
 20
0
 40
40
  0
CIRCLE
  5
52
100
AcDbEntity
  8
0
  6
ByLayer
 62
  256
370
   -1
100
AcDbCircle
 10
0
 20
0
 40
42.66666666666666
  0
CIRCLE
  5
53
100
AcDbEntity
  8
0
  6
ByLayer
 62
  256
370
   -1
100
AcDbCircle
 10
42.66666666666666
 20
0
 40
3.5
  0
CIRCLE
  5
54
100
AcDbEntity
  8
0
  6
ByLayer
 62
  256
370
   -1
100
AcDbCircle
 10
39.4188600538149
 20
16.32782644757716
 40
3.5
  0
CIRCLE
  5
55
100
AcDbEntity
  8
0
  6
ByLayer
 62
  256
370
   -1
100
AcDbCircle
 10
30.16988933062603
 20
30.16988933062602
 40
3.5
  0
CIRCLE
  5
56
100
AcDbEntity
  8
0
  6
ByLayer
 62
  256
370
   -1
100
AcDbCircle
 10
16.32782644757717
 20
39.4188600538149
 40
3.5
  0
CIRCLE
  5
57
100
AcDbEntity
  8
0
  6
ByLayer
 62
  256
370
   -1
100
AcDbCircle
 10
2.61257983818102e-15
 20
42.66666666666666
 40
3.5
  0
CIRCLE
  5
58
100
AcDbEntity
  8
0
  6
ByLayer
 62
  256
370
   -1
100
AcDbCircle
 10
-16.32782644757716
 20
39.4188600538149
 40
3.5
  0
CIRCLE
  5
59
100
AcDbEntity
  8
0
  6
ByLayer
 62
  256
370
   -1
100
AcDbCircle
 10
-30.16988933062602
 20
30.16988933062603
 40
3.5
  0
CIRCLE
  5
5A
100
AcDbEntity
  8
0
  6
ByLayer
 62
  256
370
   -1
100
AcDbCircle
 10
-39.4188600538149
 20
16.32782644757717
 40
3.5
  0
CIRCLE
  5
5B
100
AcDbEntity
  8
0
  6
ByLayer
 62
  256
370
   -1
100
AcDbCircle
 10
-42.66666666666666
 20
5.22515967636204e-15
 40
3.5
  0
CIRCLE
  5
5C
100
AcDbEntity
  8
0
  6
ByLayer
 62
  256
370
   -1
100
AcDbCircle
 10
-39.4188600538149
 20
-16.32782644757716
 40
3.5
  0
CIRCLE
  5
5D
100
AcDbEntity
  8
0
  6
ByLayer
 62
  256
370
   -1
100
AcDbCircle
 10
-30.16988933062603
 20
-30.16988933062602
 40
3.5
  0
CIRCLE
  5
5E
100
AcDbEntity
  8
0
  6
ByLayer
 62
  256
370
   -1
100
AcDbCircle
 10
-16.32782644757719
 20
-39.41886005381489
 40
3.5
  0
CIRCLE
  5
5F
100
AcDbEntity
  8
0
  6
ByLayer
 62
  256
370
   -1
100
AcDbCircle
 10
-7.837739514543059e-15
 20
-42.66666666666666
 40
3.5
  0
CIRCLE
  5
60
100
AcDbEntity
  8
0
  6
ByLayer
 62
  256
370
   -1
100
AcDbCircle
 10
16.32782644757717
 20
-39.4188600538149
 40
3.5
  0
CIRCLE
  5
61
100
AcDbEntity
  8
0
  6
ByLayer
 62
  256
370
   -1
100
AcDbCircle
 10
30.16988933062602
 20
-30.16988933062603
 40
3.5
  0
CIRCLE
  5
62
100
AcDbEntity
  8
0
  6
ByLayer
 62
  256
370
   -1
100
AcDbCircle
 10
39.41886005381489
 20
-16.32782644757719
 40
3.5
  0
ENDSEC
  0
SECTION
  2
OBJECTS
  0
DICTIONARY
  5
C
330
0
100
AcDbDictionary
281
    1
  3
ACAD_GROUP
350
D
  0
DICTIONARY
  5
D
330
C
100
AcDbDictionary
281
    1
  0
ENDSEC
  0
EOF
