<?xml version="1.0" encoding="utf-8" standalone="no"?>
<!DOCTYPE svg PUBLIC "-//W3C//DTD SVG 1.1//EN"
  "http://www.w3.org/Graphics/SVG/1.1/DTD/svg11.dtd">
<!-- Created with matplotlib (https://matplotlib.org/) -->
<svg height="720pt" version="1.1" viewBox="0 0 720 720" width="720pt" xmlns="http://www.w3.org/2000/svg" xmlns:xlink="http://www.w3.org/1999/xlink">
 <defs>
  <style type="text/css">
*{stroke-linecap:butt;stroke-linejoin:round;}
  </style>
 </defs>
 <g id="figure_1">
  <g id="patch_1">
   <path d="M 0 720 
L 720 720 
L 720 0 
L 0 0 
z
" style="fill:#ffffff;"/>
  </g>
  <g id="axes_1">
   <g id="patch_2">
    <path d="M 90 640.8 
L 648 640.8 
L 648 86.4 
L 90 86.4 
z
" style="fill:#ffffff;"/>
   </g>
   <g id="matplotlib.axis_1">
    <g id="xtick_1">
     <g id="line2d_1">
      <path clip-path="url(#p04dc300b6c)" d="M 154.899726 640.8 
L 154.899726 86.4 
" style="fill:none;stroke:#b0b0b0;stroke-linecap:square;stroke-width:0.8;"/>
     </g>
     <g id="line2d_2">
      <defs>
       <path d="M 0 0 
L 0 3.5 
" id="m4d785f9494" style="stroke:#000000;stroke-width:0.8;"/>
      </defs>
      <g>
       <use style="stroke:#000000;stroke-width:0.8;" x="154.899726" xlink:href="#m4d785f9494" y="640.8"/>
      </g>
     </g>
     <g id="text_1">
      <!-- −30 -->
      <defs>
       <path d="M 10.59375 35.5 
L 73.1875 35.5 
L 73.1875 27.203125 
L 10.59375 27.203125 
z
" id="DejaVuSans-8722"/>
       <path d="M 40.578125 39.3125 
Q 47.65625 37.796875 51.625 33 
Q 55.609375 28.21875 55.609375 21.1875 
Q 55.609375 10.40625 48.1875 4.484375 
Q 40.765625 -1.421875 27.09375 -1.421875 
Q 22.515625 -1.421875 17.65625 -0.515625 
Q 12.796875 0.390625 7.625 2.203125 
L 7.625 11.71875 
Q 11.71875 9.328125 16.59375 8.109375 
Q 21.484375 6.890625 26.8125 6.890625 
Q 36.078125 6.890625 40.9375 10.546875 
Q 45.796875 14.203125 45.796875 21.1875 
Q 45.796875 27.640625 41.28125 31.265625 
Q 36.765625 34.90625 28.71875 34.90625 
L 20.21875 34.90625 
L 20.21875 43.015625 
L 29.109375 43.015625 
Q 36.375 43.015625 40.234375 45.921875 
Q 44.09375 48.828125 44.09375 54.296875 
Q 44.09375 59.90625 40.109375 62.90625 
Q 36.140625 65.921875 28.71875 65.921875 
Q 24.65625 65.921875 20.015625 65.03125 
Q 15.375 64.15625 9.8125 62.3125 
L 9.8125 71.09375 
Q 15.4375 72.65625 20.34375 73.4375 
Q 25.25 74.21875 29.59375 74.21875 
Q 40.828125 74.21875 47.359375 69.109375 
Q 53.90625 64.015625 53.90625 55.328125 
Q 53.90625 49.265625 50.4375 45.09375 
Q 46.96875 40.921875 40.578125 39.3125 
z
" id="DejaVuSans-51"/>
       <path d="M 31.78125 66.40625 
Q 24.171875 66.40625 20.328125 58.90625 
Q 16.5 51.421875 16.5 36.375 
Q 16.5 21.390625 20.328125 13.890625 
Q 24.171875 6.390625 31.78125 6.390625 
Q 39.453125 6.390625 43.28125 13.890625 
Q 47.125 21.390625 47.125 36.375 
Q 47.125 51.421875 43.28125 58.90625 
Q 39.453125 66.40625 31.78125 66.40625 
z
M 31.78125 74.21875 
Q 44.046875 74.21875 50.515625 64.515625 
Q 56.984375 54.828125 56.984375 36.375 
Q 56.984375 17.96875 50.515625 8.265625 
Q 44.046875 -1.421875 31.78125 -1.421875 
Q 19.53125 -1.421875 13.0625 8.265625 
Q 6.59375 17.96875 6.59375 36.375 
Q 6.59375 54.828125 13.0625 64.515625 
Q 19.53125 74.21875 31.78125 74.21875 
z
" id="DejaVuSans-48"/>
      </defs>
      <g transform="translate(144.347382 655.398438)scale(0.1 -0.1)">
       <use xlink:href="#DejaVuSans-8722"/>
       <use x="83.789062" xlink:href="#DejaVuSans-51"/>
       <use x="147.412109" xlink:href="#DejaVuSans-48"/>
      </g>
     </g>
    </g>
    <g id="xtick_2">
     <g id="line2d_3">
      <path clip-path="url(#p04dc300b6c)" d="M 224.711164 640.8 
L 224.711164 86.4 
" style="fill:none;stroke:#b0b0b0;stroke-linecap:square;stroke-width:0.8;"/>
     </g>
     <g id="line2d_4">
      <g>
       <use style="stroke:#000000;stroke-width:0.8;" x="224.711164" xlink:href="#m4d785f9494" y="640.8"/>
      </g>
     </g>
     <g id="text_2">
      <!-- −20 -->
      <defs>
       <path d="M 19.1875 8.296875 
L 53.609375 8.296875 
L 53.609375 0 
L 7.328125 0 
L 7.328125 8.296875 
Q 12.9375 14.109375 22.625 23.890625 
Q 32.328125 33.6875 34.8125 36.53125 
Q 39.546875 41.84375 41.421875 45.53125 
Q 43.3125 49.21875 43.3125 52.78125 
Q 43.3125 58.59375 39.234375 62.25 
Q 35.15625 65.921875 28.609375 65.921875 
Q 23.96875 65.921875 18.8125 64.3125 
Q 13.671875 62.703125 7.8125 59.421875 
L 7.8125 69.390625 
Q 13.765625 71.78125 18.9375 73 
Q 24.125 74.21875 28.421875 74.21875 
Q 39.75 74.21875 46.484375 68.546875 
Q 53.21875 62.890625 53.21875 53.421875 
Q 53.21875 48.921875 51.53125 44.890625 
Q 49.859375 40.875 45.40625 35.40625 
Q 44.1875 33.984375 37.640625 27.21875 
Q 31.109375 20.453125 19.1875 8.296875 
z
" id="DejaVuSans-50"/>
      </defs>
      <g transform="translate(214.158821 655.398438)scale(0.1 -0.1)">
       <use xlink:href="#DejaVuSans-8722"/>
       <use x="83.789062" xlink:href="#DejaVuSans-50"/>
       <use x="147.412109" xlink:href="#DejaVuSans-48"/>
      </g>
     </g>
    </g>
    <g id="xtick_3">
     <g id="line2d_5">
      <path clip-path="url(#p04dc300b6c)" d="M 294.522603 640.8 
L 294.522603 86.4 
" style="fill:none;stroke:#b0b0b0;stroke-linecap:square;stroke-width:0.8;"/>
     </g>
     <g id="line2d_6">
      <g>
       <use style="stroke:#000000;stroke-width:0.8;" x="294.522603" xlink:href="#m4d785f9494" y="640.8"/>
      </g>
     </g>
     <g id="text_3">
      <!-- −10 -->
      <defs>
       <path d="M 12.40625 8.296875 
L 28.515625 8.296875 
L 28.515625 63.921875 
L 10.984375 60.40625 
L 10.984375 69.390625 
L 28.421875 72.90625 
L 38.28125 72.90625 
L 38.28125 8.296875 
L 54.390625 8.296875 
L 54.390625 0 
L 12.40625 0 
z
" id="DejaVuSans-49"/>
      </defs>
      <g transform="translate(283.970259 655.398438)scale(0.1 -0.1)">
       <use xlink:href="#DejaVuSans-8722"/>
       <use x="83.789062" xlink:href="#DejaVuSans-49"/>
       <use x="147.412109" xlink:href="#DejaVuSans-48"/>
      </g>
     </g>
    </g>
    <g id="xtick_4">
     <g id="line2d_7">
      <path clip-path="url(#p04dc300b6c)" d="M 364.334041 640.8 
L 364.334041 86.4 
" style="fill:none;stroke:#b0b0b0;stroke-linecap:square;stroke-width:0.8;"/>
     </g>
     <g id="line2d_8">
      <g>
       <use style="stroke:#000000;stroke-width:0.8;" x="364.334041" xlink:href="#m4d785f9494" y="640.8"/>
      </g>
     </g>
     <g id="text_4">
      <!-- 0 -->
      <g transform="translate(361.152791 655.398438)scale(0.1 -0.1)">
       <use xlink:href="#DejaVuSans-48"/>
      </g>
     </g>
    </g>
    <g id="xtick_5">
     <g id="line2d_9">
      <path clip-path="url(#p04dc300b6c)" d="M 434.14548 640.8 
L 434.14548 86.4 
" style="fill:none;stroke:#b0b0b0;stroke-linecap:square;stroke-width:0.8;"/>
     </g>
     <g id="line2d_10">
      <g>
       <use style="stroke:#000000;stroke-width:0.8;" x="434.14548" xlink:href="#m4d785f9494" y="640.8"/>
      </g>
     </g>
     <g id="text_5">
      <!-- 10 -->
      <g transform="translate(427.78298 655.398438)scale(0.1 -0.1)">
       <use xlink:href="#DejaVuSans-49"/>
       <use x="63.623047" xlink:href="#DejaVuSans-48"/>
      </g>
     </g>
    </g>
    <g id="xtick_6">
     <g id="line2d_11">
      <path clip-path="url(#p04dc300b6c)" d="M 503.956918 640.8 
L 503.956918 86.4 
" style="fill:none;stroke:#b0b0b0;stroke-linecap:square;stroke-width:0.8;"/>
     </g>
     <g id="line2d_12">
      <g>
       <use style="stroke:#000000;stroke-width:0.8;" x="503.956918" xlink:href="#m4d785f9494" y="640.8"/>
      </g>
     </g>
     <g id="text_6">
      <!-- 20 -->
      <g transform="translate(497.594418 655.398438)scale(0.1 -0.1)">
       <use xlink:href="#DejaVuSans-50"/>
       <use x="63.623047" xlink:href="#DejaVuSans-48"/>
      </g>
     </g>
    </g>
    <g id="xtick_7">
     <g id="line2d_13">
      <path clip-path="url(#p04dc300b6c)" d="M 573.768357 640.8 
L 573.768357 86.4 
" style="fill:none;stroke:#b0b0b0;stroke-linecap:square;stroke-width:0.8;"/>
     </g>
     <g id="line2d_14">
      <g>
       <use style="stroke:#000000;stroke-width:0.8;" x="573.768357" xlink:href="#m4d785f9494" y="640.8"/>
      </g>
     </g>
     <g id="text_7">
      <!-- 30 -->
      <g transform="translate(567.405857 655.398438)scale(0.1 -0.1)">
       <use xlink:href="#DejaVuSans-51"/>
       <use x="63.623047" xlink:href="#DejaVuSans-48"/>
      </g>
     </g>
    </g>
    <g id="xtick_8">
     <g id="line2d_15">
      <path clip-path="url(#p04dc300b6c)" d="M 643.579795 640.8 
L 643.579795 86.4 
" style="fill:none;stroke:#b0b0b0;stroke-linecap:square;stroke-width:0.8;"/>
     </g>
     <g id="line2d_16">
      <g>
       <use style="stroke:#000000;stroke-width:0.8;" x="643.579795" xlink:href="#m4d785f9494" y="640.8"/>
      </g>
     </g>
     <g id="text_8">
      <!-- 40 -->
      <defs>
       <path d="M 37.796875 64.3125 
L 12.890625 25.390625 
L 37.796875 25.390625 
z
M 35.203125 72.90625 
L 47.609375 72.90625 
L 47.609375 25.390625 
L 58.015625 25.390625 
L 58.015625 17.1875 
L 47.609375 17.1875 
L 47.609375 0 
L 37.796875 0 
L 37.796875 17.1875 
L 4.890625 17.1875 
L 4.890625 26.703125 
z
" id="DejaVuSans-52"/>
      </defs>
      <g transform="translate(637.217295 655.398438)scale(0.1 -0.1)">
       <use xlink:href="#DejaVuSans-52"/>
       <use x="63.623047" xlink:href="#DejaVuSans-48"/>
      </g>
     </g>
    </g>
   </g>
   <g id="matplotlib.axis_2">
    <g id="ytick_1">
     <g id="line2d_17">
      <path clip-path="url(#p04dc300b6c)" d="M 90 573.034315 
L 648 573.034315 
" style="fill:none;stroke:#b0b0b0;stroke-linecap:square;stroke-width:0.8;"/>
     </g>
     <g id="line2d_18">
      <defs>
       <path d="M 0 0 
L -3.5 0 
" id="m43d11bf09e" style="stroke:#000000;stroke-width:0.8;"/>
      </defs>
      <g>
       <use style="stroke:#000000;stroke-width:0.8;" x="90" xlink:href="#m43d11bf09e" y="573.034315"/>
      </g>
     </g>
     <g id="text_9">
      <!-- −30 -->
      <g transform="translate(61.895313 576.833534)scale(0.1 -0.1)">
       <use xlink:href="#DejaVuSans-8722"/>
       <use x="83.789062" xlink:href="#DejaVuSans-51"/>
       <use x="147.412109" xlink:href="#DejaVuSans-48"/>
      </g>
     </g>
    </g>
    <g id="ytick_2">
     <g id="line2d_19">
      <path clip-path="url(#p04dc300b6c)" d="M 90 503.222877 
L 648 503.222877 
" style="fill:none;stroke:#b0b0b0;stroke-linecap:square;stroke-width:0.8;"/>
     </g>
     <g id="line2d_20">
      <g>
       <use style="stroke:#000000;stroke-width:0.8;" x="90" xlink:href="#m43d11bf09e" y="503.222877"/>
      </g>
     </g>
     <g id="text_10">
      <!-- −20 -->
      <g transform="translate(61.895313 507.022096)scale(0.1 -0.1)">
       <use xlink:href="#DejaVuSans-8722"/>
       <use x="83.789062" xlink:href="#DejaVuSans-50"/>
       <use x="147.412109" xlink:href="#DejaVuSans-48"/>
      </g>
     </g>
    </g>
    <g id="ytick_3">
     <g id="line2d_21">
      <path clip-path="url(#p04dc300b6c)" d="M 90 433.411438 
L 648 433.411438 
" style="fill:none;stroke:#b0b0b0;stroke-linecap:square;stroke-width:0.8;"/>
     </g>
     <g id="line2d_22">
      <g>
       <use style="stroke:#000000;stroke-width:0.8;" x="90" xlink:href="#m43d11bf09e" y="433.411438"/>
      </g>
     </g>
     <g id="text_11">
      <!-- −10 -->
      <g transform="translate(61.895313 437.210657)scale(0.1 -0.1)">
       <use xlink:href="#DejaVuSans-8722"/>
       <use x="83.789062" xlink:href="#DejaVuSans-49"/>
       <use x="147.412109" xlink:href="#DejaVuSans-48"/>
      </g>
     </g>
    </g>
    <g id="ytick_4">
     <g id="line2d_23">
      <path clip-path="url(#p04dc300b6c)" d="M 90 363.6 
L 648 363.6 
" style="fill:none;stroke:#b0b0b0;stroke-linecap:square;stroke-width:0.8;"/>
     </g>
     <g id="line2d_24">
      <g>
       <use style="stroke:#000000;stroke-width:0.8;" x="90" xlink:href="#m43d11bf09e" y="363.6"/>
      </g>
     </g>
     <g id="text_12">
      <!-- 0 -->
      <g transform="translate(76.6375 367.399219)scale(0.1 -0.1)">
       <use xlink:href="#DejaVuSans-48"/>
      </g>
     </g>
    </g>
    <g id="ytick_5">
     <g id="line2d_25">
      <path clip-path="url(#p04dc300b6c)" d="M 90 293.788562 
L 648 293.788562 
" style="fill:none;stroke:#b0b0b0;stroke-linecap:square;stroke-width:0.8;"/>
     </g>
     <g id="line2d_26">
      <g>
       <use style="stroke:#000000;stroke-width:0.8;" x="90" xlink:href="#m43d11bf09e" y="293.788562"/>
      </g>
     </g>
     <g id="text_13">
      <!-- 10 -->
      <g transform="translate(70.275 297.58778)scale(0.1 -0.1)">
       <use xlink:href="#DejaVuSans-49"/>
       <use x="63.623047" xlink:href="#DejaVuSans-48"/>
      </g>
     </g>
    </g>
    <g id="ytick_6">
     <g id="line2d_27">
      <path clip-path="url(#p04dc300b6c)" d="M 90 223.977123 
L 648 223.977123 
" style="fill:none;stroke:#b0b0b0;stroke-linecap:square;stroke-width:0.8;"/>
     </g>
     <g id="line2d_28">
      <g>
       <use style="stroke:#000000;stroke-width:0.8;" x="90" xlink:href="#m43d11bf09e" y="223.977123"/>
      </g>
     </g>
     <g id="text_14">
      <!-- 20 -->
      <g transform="translate(70.275 227.776342)scale(0.1 -0.1)">
       <use xlink:href="#DejaVuSans-50"/>
       <use x="63.623047" xlink:href="#DejaVuSans-48"/>
      </g>
     </g>
    </g>
    <g id="ytick_7">
     <g id="line2d_29">
      <path clip-path="url(#p04dc300b6c)" d="M 90 154.165685 
L 648 154.165685 
" style="fill:none;stroke:#b0b0b0;stroke-linecap:square;stroke-width:0.8;"/>
     </g>
     <g id="line2d_30">
      <g>
       <use style="stroke:#000000;stroke-width:0.8;" x="90" xlink:href="#m43d11bf09e" y="154.165685"/>
      </g>
     </g>
     <g id="text_15">
      <!-- 30 -->
      <g transform="translate(70.275 157.964903)scale(0.1 -0.1)">
       <use xlink:href="#DejaVuSans-51"/>
       <use x="63.623047" xlink:href="#DejaVuSans-48"/>
      </g>
     </g>
    </g>
   </g>
   <g id="line2d_31">
    <path clip-path="url(#p04dc300b6c)" d="M 559.806069 363.6 
L 559.694532 356.765768 
L 559.360042 349.938816 
L 558.802953 343.126414 
L 558.023859 336.335819 
L 557.023591 329.574264 
L 555.803213 322.84895 
L 554.364025 316.167041 
L 552.707561 309.535654 
L 550.835585 302.961853 
L 548.75009 296.452638 
L 546.453298 290.014943 
L 543.947655 283.655626 
L 541.23583 277.381459 
L 538.320711 271.199125 
L 535.205404 265.115209 
L 531.893227 259.136192 
L 528.387707 253.268442 
L 524.692578 247.518208 
L 520.811777 241.891615 
L 516.749436 236.394657 
L 512.509882 231.033188 
L 508.097632 225.812918 
L 503.517384 220.739409 
L 498.774017 215.818064 
L 493.872584 211.054125 
L 488.818305 206.452665 
L 483.616563 202.018587 
L 478.2729 197.756612 
L 472.793006 193.671281 
L 467.182719 189.766945 
L 461.448013 186.047763 
L 455.594998 182.517695 
L 449.629907 179.180502 
L 443.559094 176.039738 
L 437.389026 173.098748 
L 431.126273 170.360666 
L 424.777507 167.828408 
L 418.349489 165.50467 
L 411.849067 163.391927 
L 405.283165 161.492431 
L 398.658775 159.808204 
L 391.982953 158.34104 
L 385.26281 157.092502 
L 378.505504 156.06392 
L 371.718232 155.256389 
L 364.908224 154.670769 
L 358.082732 154.307685 
L 351.249027 154.167522 
L 344.414388 154.25043 
L 337.586094 154.556322 
L 330.771419 155.08487 
L 323.97762 155.835513 
L 317.211934 156.80745 
L 310.481568 157.999646 
L 303.793689 159.410832 
L 297.155422 161.039504 
L 290.573837 162.883928 
L 284.055943 164.942139 
L 277.608684 167.211945 
L 271.238927 169.690928 
L 264.953456 172.376448 
L 258.758965 175.265644 
L 252.662054 178.35544 
L 246.669215 181.642543 
L 240.786832 185.123454 
L 235.021171 188.794464 
L 229.378372 192.651663 
L 223.864445 196.690942 
L 218.485265 200.908001 
L 213.246559 205.298346 
L 208.153909 209.857302 
L 203.212738 214.580013 
L 198.428309 219.461448 
L 193.805719 224.496408 
L 189.349891 229.67953 
L 185.06557 235.005295 
L 180.957321 240.468028 
L 177.029519 246.061912 
L 173.286348 251.780988 
L 169.731794 257.619165 
L 166.369643 263.570225 
L 163.203478 269.627828 
L 160.236669 275.785524 
L 157.472378 282.036752 
L 154.913548 288.374856 
L 152.562905 294.793083 
L 150.422952 301.284598 
L 148.495969 307.842487 
L 146.784009 314.459764 
L 145.288895 321.129382 
L 144.012218 327.844236 
L 142.95534 334.597174 
L 142.119386 341.381004 
L 141.505246 348.188499 
L 141.113574 355.01241 
L 140.944787 361.845468 
L 140.999066 368.680394 
L 141.276353 375.509909 
L 141.776352 382.326739 
L 142.49853 389.123623 
L 143.442118 395.89332 
L 144.606112 402.628622 
L 145.989271 409.322353 
L 147.590123 415.967384 
L 149.406962 422.556637 
L 151.437853 429.083095 
L 153.680633 435.539805 
L 156.132913 441.91989 
L 158.792081 448.216555 
L 161.655304 454.423094 
L 164.719534 460.532894 
L 167.981506 466.539449 
L 171.437746 472.436361 
L 175.084573 478.217349 
L 178.918101 483.876256 
L 182.934249 489.407053 
L 187.128738 494.803851 
L 191.497101 500.060901 
L 196.034685 505.172603 
L 200.736657 510.133513 
L 205.598008 514.938347 
L 210.613561 519.581987 
L 215.777974 524.059487 
L 221.085745 528.366078 
L 226.531222 532.497174 
L 232.108604 536.448373 
L 237.811951 540.215467 
L 243.635188 543.794445 
L 249.572112 547.181493 
L 255.6164 550.373005 
L 261.761614 553.365581 
L 268.001209 556.156033 
L 274.328538 558.741389 
L 280.736863 561.118897 
L 287.219357 563.286022 
L 293.769117 565.240457 
L 300.379165 566.980121 
L 307.042461 568.50316 
L 313.751909 569.807952 
L 320.50036 570.893107 
L 327.280629 571.75747 
L 334.085493 572.40012 
L 340.907703 572.820372 
L 347.739994 573.017779 
L 354.575087 572.992131 
L 361.405704 572.743454 
L 368.224568 572.272014 
L 375.024417 571.578313 
L 381.798008 570.663089 
L 388.538126 569.527318 
L 395.237592 568.17221 
L 401.889271 566.599207 
L 408.486077 564.809985 
L 415.020984 562.806449 
L 421.487032 560.590735 
L 427.877333 558.165201 
L 434.185082 555.532432 
L 440.403559 552.695231 
L 446.526141 549.656621 
L 452.546307 546.419838 
L 458.457645 542.988329 
L 464.253858 539.36575 
L 469.928773 535.555958 
L 475.476345 531.563013 
L 480.890665 527.391167 
L 486.165966 523.044863 
L 491.296631 518.52873 
L 496.277193 513.84758 
L 501.102347 509.006398 
L 505.766956 504.01034 
L 510.266049 498.864728 
L 514.594836 493.575043 
L 518.748705 488.146918 
L 522.723232 482.586135 
L 526.514183 476.898618 
L 530.117522 471.090424 
L 533.529409 465.16774 
L 536.746211 459.136873 
L 539.764501 453.004248 
L 542.581065 446.776397 
L 545.192903 440.459952 
L 547.597232 434.061643 
L 549.791492 427.588283 
L 551.773346 421.046767 
L 553.540682 414.444064 
L 555.091619 407.787206 
L 556.424504 401.083283 
L 557.537918 394.339436 
L 558.430674 387.562847 
L 559.101822 380.760735 
L 559.550648 373.940345 
L 559.776672 367.108941 
L 559.806066 363.636553 
L 559.806066 363.636553 
" style="fill:none;stroke:#aaaaaa;stroke-dasharray:3.7,1.6;stroke-dashoffset:0;"/>
   </g>
   <g id="line2d_32">
    <path clip-path="url(#p04dc300b6c)" d="M 566.787213 363.6 
L 566.67701 360.320516 
L 566.347861 357.066287 
L 565.795768 353.821341 
L 565.031484 350.654133 
L 564.052838 347.5516 
L 562.884054 344.580243 
L 561.526945 341.728987 
L 559.980257 338.993541 
L 558.263859 336.407223 
L 556.383183 333.973637 
L 554.34857 331.702412 
L 552.155602 329.585281 
L 549.743746 327.568095 
L 546.919557 325.505709 
L 540.396368 320.868522 
L 538.261747 318.974601 
L 536.326261 316.962662 
L 534.597332 314.851071 
L 533.061838 312.631512 
L 531.713849 310.2933 
L 530.593325 307.916863 
L 529.670161 305.453874 
L 528.951583 302.919425 
L 528.442787 300.32976 
L 528.141442 297.628249 
L 528.064973 294.905434 
L 528.213042 292.151809 
L 528.583368 289.403384 
L 529.186721 286.612274 
L 530.041499 283.736371 
L 531.833005 278.721321 
L 532.960813 275.156957 
L 533.704884 272.065002 
L 534.206266 269.025085 
L 534.48159 265.993818 
L 534.537862 262.931308 
L 534.374197 259.850423 
L 533.989574 256.755955 
L 533.37963 253.646131 
L 532.546549 250.554221 
L 531.497492 247.510987 
L 530.225918 244.505861 
L 528.737951 241.565952 
L 527.065831 238.752553 
L 525.203375 236.050277 
L 523.164554 233.480193 
L 520.965702 231.061646 
L 518.594303 228.784128 
L 516.099894 226.696152 
L 513.47324 224.788416 
L 510.739015 223.079788 
L 507.926199 221.585895 
L 505.067626 220.317901 
L 502.130522 219.259274 
L 499.157888 218.425824 
L 496.16517 217.817702 
L 493.115086 217.425954 
L 489.961198 217.246463 
L 486.302929 217.272066 
L 479.626253 217.368011 
L 476.734315 217.134165 
L 473.983767 216.691517 
L 471.327303 216.044358 
L 468.778907 215.20202 
L 466.270594 214.137713 
L 463.889123 212.883244 
L 461.681961 211.476239 
L 459.578602 209.878072 
L 457.596386 208.094708 
L 455.762983 206.147611 
L 454.068184 204.020563 
L 452.547122 201.753971 
L 451.176559 199.30532 
L 450.001629 196.749312 
L 448.98237 193.992745 
L 447.853343 190.218244 
L 446.426728 185.616819 
L 445.245815 182.590172 
L 443.921728 179.807243 
L 442.409296 177.147278 
L 440.70982 174.606729 
L 438.813419 172.170118 
L 436.72127 169.844135 
L 434.458207 167.658538 
L 432.020371 165.611221 
L 429.430865 163.723986 
L 426.678191 161.992619 
L 423.782718 160.436362 
L 420.805822 159.087484 
L 417.733663 157.937348 
L 414.589661 156.995581 
L 411.398148 156.269032 
L 408.142557 155.756578 
L 404.891106 155.470096 
L 401.671459 155.407129 
L 398.471517 155.564755 
L 395.322742 155.9404 
L 392.220515 156.53443 
L 389.202912 157.339285 
L 386.275258 158.35171 
L 383.450491 159.56581 
L 380.746964 160.969046 
L 378.086529 162.60147 
L 375.309883 164.572886 
L 367.905382 170.014924 
L 365.433611 171.408374 
L 362.900749 172.581834 
L 360.352979 173.522114 
L 357.745019 174.250268 
L 355.127436 174.753896 
L 352.481589 175.039433 
L 349.841894 175.104724 
L 347.22587 174.954039 
L 344.553853 174.576399 
L 341.887071 173.96815 
L 339.316043 173.153897 
L 336.771222 172.115439 
L 334.271392 170.85408 
L 331.837617 169.376216 
L 329.294924 167.562925 
L 322.10736 162.243092 
L 319.4022 160.639116 
L 316.66354 159.273847 
L 313.847211 158.116846 
L 310.908956 157.151448 
L 307.891666 156.394895 
L 304.799769 155.848571 
L 301.630243 155.515293 
L 298.415562 155.40207 
L 295.187117 155.510505 
L 291.932578 155.843258 
L 288.721087 156.393458 
L 285.536879 157.162338 
L 282.404992 158.14532 
L 279.349583 159.335014 
L 276.356259 160.740489 
L 273.488329 162.334078 
L 270.767528 164.099093 
L 268.182243 166.041086 
L 265.757567 168.141467 
L 263.516601 170.376577 
L 261.455741 172.746722 
L 259.598932 175.219953 
L 257.946462 177.787528 
L 256.487311 180.462792 
L 255.208569 183.274848 
L 254.086254 186.287777 
L 252.931515 190.073317 
L 251.392246 195.06371 
L 250.301756 197.76955 
L 249.045998 200.29147 
L 247.613907 202.66933 
L 246.036684 204.864865 
L 244.299694 206.908631 
L 242.414262 208.789091 
L 240.342311 210.535958 
L 238.185405 212.065307 
L 235.877064 213.428939 
L 233.445577 214.603609 
L 230.949102 215.565077 
L 228.340733 216.333526 
L 225.622449 216.901591 
L 222.816498 217.258354 
L 219.914048 217.400857 
L 216.277263 217.33633 
L 210.754761 217.24712 
L 207.508984 217.437118 
L 204.451166 217.838958 
L 201.452556 218.458171 
L 198.510199 219.292306 
L 195.606305 220.345918 
L 192.747582 221.619891 
L 189.969978 223.099726 
L 187.270267 224.788416 
L 184.676287 226.670675 
L 182.180455 228.756128 
L 179.807334 231.031312 
L 177.606521 233.447772 
L 175.565513 236.016009 
L 173.700672 238.716699 
L 172.026 241.528797 
L 170.535313 244.467701 
L 169.260918 247.472159 
L 168.208984 250.515083 
L 167.372981 253.607058 
L 166.760127 256.717344 
L 166.36931 259.850423 
L 166.205024 262.967739 
L 166.265755 266.063218 
L 166.549812 269.122749 
L 167.056966 272.155065 
L 167.79027 275.184168 
L 168.817356 278.453143 
L 171.653298 286.995852 
L 172.225062 289.78653 
L 172.563912 292.528148 
L 172.681294 295.291612 
L 172.575298 297.985228 
L 172.254212 300.622422 
L 171.717507 303.223533 
L 170.972594 305.75543 
L 170.027888 308.202488 
L 168.847595 310.636786 
L 167.493343 312.925552 
L 165.920086 315.147663 
L 164.135576 317.276071 
L 162.182005 319.259158 
L 160.030082 321.125788 
L 157.54613 322.976028 
L 149.935117 328.423518 
L 147.59335 330.507757 
L 145.472668 332.690961 
L 143.506887 335.03306 
L 141.709351 337.518471 
L 140.066642 340.169846 
L 138.602811 342.955438 
L 137.319352 345.878926 
L 136.232604 348.911426 
L 135.353435 352.023505 
L 134.680451 355.227767 
L 134.227988 358.456246 
L 133.992306 361.724389 
L 133.976554 365.006966 
L 134.180941 368.278717 
L 134.609628 371.556077 
L 135.25539 374.770309 
L 136.108803 377.895621 
L 137.171447 380.944716 
L 138.433046 383.888044 
L 139.87787 386.696468 
L 141.504843 389.373564 
L 143.290575 391.887015 
L 145.248899 394.259302 
L 147.367054 396.473916 
L 149.644531 398.533805 
L 152.200661 400.540476 
L 155.581689 402.886684 
L 159.473168 405.635405 
L 161.70314 407.499571 
L 163.706395 409.460711 
L 165.519612 411.543165 
L 167.117477 413.707326 
L 168.524983 415.977854 
L 169.734589 418.341759 
L 170.762419 420.845371 
L 171.558863 423.367159 
L 172.151844 425.986505 
L 172.526785 428.66925 
L 172.677406 431.351718 
L 172.607827 434.083789 
L 172.311288 436.85964 
L 171.793291 439.614226 
L 171.040572 442.410242 
L 169.881068 445.791576 
L 168.029991 451.18455 
L 167.209035 454.33308 
L 166.648105 457.368029 
L 166.312585 460.413476 
L 166.199124 463.471416 
L 166.306494 466.560178 
L 166.637544 469.673652 
L 167.189511 472.773173 
L 167.964209 475.862752 
L 168.955645 478.911212 
L 170.170613 481.928757 
L 171.603859 484.887883 
L 173.224551 487.726488 
L 175.038817 490.459721 
L 177.033303 493.066071 
L 179.192291 495.52574 
L 181.528503 497.849362 
L 183.99361 499.987336 
L 186.563721 501.92546 
L 189.246866 503.673219 
L 192.016001 505.214299 
L 194.875012 506.551165 
L 197.788586 507.667703 
L 200.750454 508.563535 
L 203.746666 509.235995 
L 206.785469 509.688097 
L 209.89072 509.924501 
L 213.314759 509.956188 
L 222.253298 509.896716 
L 225.071753 510.210516 
L 227.832761 510.742897 
L 230.497245 511.485217 
L 233.026271 512.418398 
L 235.435171 513.538706 
L 237.743123 514.852931 
L 239.920909 516.343785 
L 241.956269 517.998436 
L 243.906693 519.873201 
L 245.664953 521.868439 
L 247.292143 524.051365 
L 248.764935 526.406249 
L 250.047277 528.877013 
L 251.157566 531.500434 
L 252.149666 534.434568 
L 254.978604 543.356438 
L 256.237188 546.227656 
L 257.658211 548.919192 
L 259.278219 551.51251 
L 261.086517 553.990102 
L 263.100499 556.371731 
L 265.297406 558.624712 
L 267.681197 560.748762 
L 270.229453 562.719414 
L 272.917538 564.517239 
L 275.757009 566.147457 
L 278.687656 567.575429 
L 281.723015 568.809488 
L 284.840064 569.838841 
L 288.014843 570.655484 
L 291.264269 571.260538 
L 294.520736 571.639635 
L 297.756804 571.793766 
L 300.985041 571.725353 
L 304.174168 571.435039 
L 307.291613 570.928781 
L 310.340444 570.208706 
L 313.2827 569.287073 
L 316.144034 568.157673 
L 318.904804 566.827541 
L 321.567653 565.298073 
L 324.265999 563.487143 
L 327.54217 560.996614 
L 331.358892 558.144998 
L 333.820919 556.600228 
L 336.305113 555.301045 
L 338.84596 554.220086 
L 341.397967 553.369189 
L 343.992311 552.732203 
L 346.614307 552.312287 
L 349.313 552.108421 
L 351.957478 552.130233 
L 354.631865 552.375696 
L 357.29917 552.84812 
L 359.896893 553.533799 
L 362.473747 554.444229 
L 365.022102 555.58404 
L 367.481798 556.927898 
L 369.908365 558.507793 
L 372.765899 560.655436 
L 377.322908 564.082436 
L 380.063648 565.836161 
L 382.776719 567.307487 
L 385.56943 568.567681 
L 388.442643 569.620545 
L 391.413408 570.47291 
L 394.476799 571.120178 
L 397.595185 571.553031 
L 400.772945 571.770982 
L 403.978573 571.770097 
L 407.223874 571.547065 
L 410.481067 571.098388 
L 413.681562 570.434195 
L 416.84166 569.553342 
L 419.936777 568.461879 
L 422.943225 567.168639 
L 425.87505 565.664808 
L 428.670145 563.981022 
L 431.307618 562.135615 
L 433.798973 560.123879 
L 436.120337 557.966495 
L 438.275254 555.660529 
L 440.237489 553.234584 
L 442.004744 550.694507 
L 443.570172 548.052743 
L 444.939188 545.302377 
L 446.123596 542.42216 
L 447.21182 539.175497 
L 449.917418 530.656064 
L 451.086811 528.072523 
L 452.446333 525.611163 
L 453.975692 523.306478 
L 455.644712 521.1896 
L 457.45458 519.244794 
L 459.417678 517.45592 
L 461.508538 515.84542 
L 463.711165 514.420993 
L 466.096886 513.145364 
L 468.537803 512.089723 
L 471.116718 511.216734 
L 473.811464 510.543725 
L 476.557566 510.087653 
L 479.395685 509.842387 
L 482.492789 509.805542 
L 491.852181 509.872071 
L 494.971795 509.562342 
L 497.970718 509.042599 
L 500.93772 508.303258 
L 503.852845 507.349083 
L 506.740264 506.169636 
L 509.561858 504.776463 
L 512.318581 503.16571 
L 514.980237 501.35114 
L 517.520734 499.350178 
L 519.948608 497.153446 
L 522.21231 494.807503 
L 524.323948 492.30205 
L 526.266142 489.655648 
L 528.023876 486.888609 
L 529.603445 483.985193 
L 530.97029 481.005256 
L 532.116878 477.975202 
L 533.049393 474.883826 
L 533.758782 471.761074 
L 534.240646 468.639765 
L 534.497955 465.517639 
L 534.530636 462.434587 
L 534.340715 459.364293 
L 533.928808 456.327612 
L 533.297063 453.32246 
L 532.408602 450.196572 
L 531.05236 446.311132 
L 529.519744 441.800016 
L 528.811389 438.981129 
L 528.343451 436.217051 
L 528.100562 433.466527 
L 528.079925 430.776483 
L 528.275811 428.112276 
L 528.686688 425.488848 
L 529.326743 422.85924 
L 530.164676 420.350933 
L 531.224556 417.883292 
L 532.498101 415.492521 
L 533.952961 413.233826 
L 535.615123 411.064431 
L 537.486632 408.993022 
L 539.524806 407.068986 
L 541.777225 405.249399 
L 544.702782 403.195381 
L 549.370245 399.920409 
L 551.885072 397.855741 
L 554.122772 395.730122 
L 556.184282 393.463518 
L 558.073487 391.056282 
L 559.802151 388.494311 
L 561.36438 385.780871 
L 562.739682 382.948868 
L 563.928947 379.99399 
L 564.918699 376.944983 
L 565.709437 373.789598 
L 566.289247 370.553174 
L 566.64657 367.304075 
L 566.785352 364.026445 
L 566.787194 363.642645 
L 566.787194 363.642645 
" style="fill:none;stroke:#000000;stroke-linecap:square;stroke-width:1.5;"/>
   </g>
   <g id="line2d_33">
    <path clip-path="url(#p04dc300b6c)" d="M 594.711788 363.6 
L 594.600623 356.444038 
L 594.267233 349.294982 
L 593.711942 342.159731 
L 592.935284 335.045172 
L 591.938009 327.95817 
L 590.72108 320.905565 
L 589.285672 313.894163 
L 587.633169 306.930731 
L 585.765166 300.021989 
L 583.683466 293.174604 
L 581.390078 286.395185 
L 578.887215 279.690274 
L 576.177293 273.066342 
L 573.262927 266.529782 
L 570.146929 260.086901 
L 566.832307 253.743918 
L 563.32226 247.506954 
L 559.620174 241.382029 
L 555.729624 235.375052 
L 551.654363 229.491822 
L 547.398324 223.738015 
L 542.965615 218.119186 
L 538.360514 212.640756 
L 533.587464 207.308013 
L 528.651073 202.126103 
L 523.556104 197.100027 
L 518.307474 192.234635 
L 512.910249 187.534623 
L 507.369636 183.004527 
L 501.690985 178.648719 
L 495.879773 174.471402 
L 489.941611 170.476608 
L 483.882229 166.668191 
L 477.707473 163.049829 
L 471.423304 159.625011 
L 465.035787 156.397044 
L 458.551085 153.369044 
L 451.975456 150.543931 
L 445.315247 147.924432 
L 438.576886 145.513076 
L 431.766875 143.31219 
L 424.891786 141.323897 
L 417.958255 139.550117 
L 410.972972 137.992561 
L 403.94268 136.652733 
L 396.874162 135.531925 
L 389.774241 134.631219 
L 382.649768 133.951485 
L 375.507619 133.493378 
L 368.354687 133.257341 
L 361.197875 133.243601 
L 354.044089 133.452171 
L 346.900234 133.882851 
L 339.773204 134.535224 
L 332.669876 135.408661 
L 325.597107 136.50232 
L 318.561722 137.815144 
L 311.57051 139.345867 
L 304.63022 141.093011 
L 297.747547 143.054891 
L 290.929135 145.229613 
L 284.181565 147.615077 
L 277.511347 150.208983 
L 270.924919 153.008827 
L 264.428638 156.011906 
L 258.028773 159.215323 
L 251.7315 162.615985 
L 245.542897 166.210612 
L 239.468936 169.995734 
L 233.515479 173.967698 
L 227.688271 178.122671 
L 221.992936 182.456643 
L 216.43497 186.965431 
L 211.019738 191.644684 
L 205.752465 196.489887 
L 200.638235 201.496363 
L 195.681983 206.65928 
L 190.888492 211.973657 
L 186.262389 217.434364 
L 181.808138 223.036132 
L 177.530038 228.773554 
L 173.432217 234.641093 
L 169.51863 240.633086 
L 165.793054 246.743752 
L 162.259084 252.967193 
L 158.920132 259.297402 
L 155.779418 265.72827 
L 152.839975 272.253592 
L 150.104639 278.86707 
L 147.576049 285.562321 
L 145.256647 292.332884 
L 143.148671 299.172225 
L 141.254154 306.073744 
L 139.574925 313.030779 
L 138.112605 320.036618 
L 136.868606 327.084498 
L 135.844126 334.167619 
L 135.040156 341.279143 
L 134.457471 348.412209 
L 134.096634 355.559933 
L 133.957993 362.715415 
L 134.04168 369.871751 
L 134.347617 377.022035 
L 134.875507 384.159365 
L 135.624841 391.276854 
L 136.594897 398.367633 
L 137.784736 405.424859 
L 139.193213 412.44172 
L 140.818966 419.411446 
L 142.660428 426.32731 
L 144.71582 433.182637 
L 146.983161 439.970812 
L 149.46026 446.685284 
L 152.144728 453.319572 
L 155.033974 459.867275 
L 158.12521 466.322073 
L 161.415452 472.677736 
L 164.901525 478.928132 
L 168.580066 485.067227 
L 172.447522 491.089098 
L 176.500164 496.987933 
L 180.734078 502.758039 
L 185.14518 508.393847 
L 189.729211 513.889919 
L 194.481749 519.24095 
L 199.398207 524.441776 
L 204.47384 529.487379 
L 209.70375 534.372888 
L 215.082888 539.093589 
L 220.606065 543.644926 
L 226.26795 548.022506 
L 232.063079 552.222106 
L 237.985858 556.239671 
L 244.030573 560.071326 
L 250.191389 563.713371 
L 256.462362 567.162293 
L 262.837438 570.414762 
L 269.310465 573.46764 
L 275.875198 576.317981 
L 282.525299 578.963033 
L 289.254352 581.400245 
L 296.055862 583.627263 
L 302.923266 585.64194 
L 309.849935 587.44233 
L 316.829186 589.026695 
L 323.854282 590.393508 
L 330.918444 591.541449 
L 338.014854 592.46941 
L 345.136664 593.176495 
L 352.277002 593.662022 
L 359.428975 593.925523 
L 366.585682 593.966743 
L 373.740215 593.785643 
L 380.885672 593.382397 
L 388.015154 592.757394 
L 395.121783 591.911238 
L 402.198699 590.844745 
L 409.239073 589.558944 
L 416.236111 588.055077 
L 423.183059 586.334594 
L 430.073214 584.399156 
L 436.899926 582.250632 
L 443.656606 579.891093 
L 450.336735 577.322818 
L 456.933864 574.548285 
L 463.441629 571.570172 
L 469.853747 568.391353 
L 476.164031 565.014895 
L 482.366391 561.444057 
L 488.454841 557.682285 
L 494.423506 553.73321 
L 500.266625 549.600643 
L 505.978559 545.288571 
L 511.553796 540.801157 
L 516.986955 536.142732 
L 522.272793 531.317789 
L 527.406209 526.330988 
L 532.382249 521.187139 
L 537.19611 515.891207 
L 541.843146 510.448303 
L 546.318874 504.863679 
L 550.618972 499.142727 
L 554.739293 493.290965 
L 558.675859 487.314043 
L 562.42487 481.217727 
L 565.98271 475.007902 
L 569.345944 468.69056 
L 572.511327 462.271799 
L 575.475804 455.757811 
L 578.236514 449.154885 
L 580.790793 442.469393 
L 583.136175 435.707785 
L 585.270397 428.876588 
L 587.1914 421.982395 
L 588.897329 415.031859 
L 590.386539 408.031687 
L 591.657591 400.988635 
L 592.70926 393.909501 
L 593.54053 386.801115 
L 594.1506 379.670339 
L 594.53888 372.524054 
L 594.704995 365.369157 
L 594.711785 363.640209 
L 594.711785 363.640209 
" style="fill:none;stroke:#aaaaff;stroke-dasharray:3.7,1.6;stroke-dashoffset:0;"/>
   </g>
   <g id="line2d_34">
    <path clip-path="url(#p04dc300b6c)" d="M 622.636364 363.6 
L 622.525378 361.11281 
L 622.193305 358.645391 
L 621.642783 356.217355 
L 620.878188 353.848004 
L 619.905598 351.55617 
L 618.732745 349.360072 
L 617.368951 347.277166 
L 615.825056 345.32401 
L 614.113334 343.516127 
L 612.24739 341.867891 
L 610.242057 340.392401 
L 608.113275 339.101386 
L 605.877965 338.00511 
L 603.553896 337.112285 
L 601.159542 336.43001 
L 598.713935 335.963706 
L 596.236516 335.717082 
L 593.746976 335.692097 
L 591.265106 335.88895 
L 588.810633 336.306076 
L 586.403068 336.94016 
L 584.061548 337.786161 
L 581.804687 338.837354 
L 579.650423 340.085384 
L 577.615881 341.520329 
L 575.717233 343.130785 
L 573.969571 344.903949 
L 572.386788 346.825726 
L 570.981464 348.880841 
L 569.764772 351.052958 
L 568.746381 353.32481 
L 567.934387 355.678339 
L 567.335246 358.094836 
L 566.953718 360.555094 
L 566.792837 363.039555 
L 566.853883 365.528472 
L 567.136368 368.002059 
L 567.638049 370.440654 
L 568.354937 372.824874 
L 569.281334 375.135766 
L 570.409875 377.354961 
L 571.731591 379.464818 
L 573.235975 381.448567 
L 574.911068 383.290439 
L 576.743556 384.975794 
L 578.718873 386.491233 
L 580.821315 387.824712 
L 583.034173 388.96563 
L 585.339854 389.904919 
L 587.720033 390.635112 
L 590.155788 391.150404 
L 592.627759 391.446701 
L 595.116296 391.521645 
L 597.601617 391.374643 
L 600.063967 391.006862 
L 602.483774 390.421226 
L 604.841801 389.62239 
L 607.119305 388.616703 
L 609.298183 387.412161 
L 611.361115 386.018337 
L 613.291702 384.446312 
L 615.074599 382.70858 
L 616.695633 380.818956 
L 618.14192 378.79246 
L 619.401962 376.6452 
L 620.465743 374.394245 
L 621.324808 372.057487 
L 621.972328 369.6535 
L 622.403156 367.201395 
L 622.613867 364.720663 
L 622.636363 363.604874 
L 622.636363 363.604874 
" style="fill:none;stroke:#0000ff;stroke-linecap:square;stroke-width:1.5;"/>
   </g>
   <g id="line2d_35">
    <path clip-path="url(#p04dc300b6c)" d="M 581.631782 223.951221 
L 580.193739 221.918867 
L 578.580394 220.022674 
L 576.80457 218.277716 
L 574.880384 216.697861 
L 572.823131 215.29567 
L 570.649163 214.082287 
L 568.375763 213.067358 
L 566.021 212.258951 
L 563.603592 211.66349 
L 561.142756 211.285711 
L 558.658053 211.128614 
L 556.169232 211.193451 
L 553.696078 211.479704 
L 551.25825 211.985098 
L 548.875125 212.705617 
L 546.565647 213.635533 
L 544.348174 214.767453 
L 542.240332 216.092381 
L 540.258876 217.599785 
L 538.419558 219.277682 
L 536.736997 221.112735 
L 535.224568 223.090357 
L 533.894293 225.194829 
L 532.756747 227.409421 
L 531.820971 229.716531 
L 531.094405 232.097819 
L 530.582823 234.534357 
L 530.290292 237.006776 
L 530.219138 239.495424 
L 530.369926 241.980518 
L 530.741457 244.442306 
L 531.330778 246.861217 
L 532.133205 249.218024 
L 533.14236 251.493994 
L 534.35022 253.671035 
L 535.747184 255.731841 
L 537.322148 257.660032 
L 539.062593 259.44028 
L 540.954684 261.058434 
L 542.983381 262.501632 
L 545.132558 263.758402 
L 547.385131 264.818753 
L 549.723195 265.674258 
L 552.128165 266.318116 
L 554.580923 266.745208 
L 557.061973 266.95214 
L 559.551594 266.937268 
L 562.029995 266.700708 
L 564.477475 266.244343 
L 566.874581 265.571798 
L 569.202257 264.688421 
L 571.442001 263.601233 
L 573.57601 262.318876 
L 575.587319 260.851544 
L 577.459943 259.2109 
L 579.178994 257.409985 
L 580.73081 255.463115 
L 582.103053 253.385766 
L 583.284817 251.19445 
L 584.266708 248.906586 
L 585.04092 246.54036 
L 585.6013 244.114581 
L 585.943393 241.64853 
L 586.06448 239.161812 
L 585.963598 236.674192 
L 585.64155 234.205444 
L 585.100894 231.775192 
L 584.34593 229.402754 
L 583.382657 227.106989 
L 582.218734 224.906146 
L 581.634417 223.955322 
L 581.634417 223.955322 
" style="fill:none;stroke:#0000ff;stroke-linecap:square;stroke-width:1.5;"/>
   </g>
   <g id="line2d_36">
    <path clip-path="url(#p04dc300b6c)" d="M 471.636704 128.639943 
L 469.328171 127.707683 
L 466.945779 126.984744 
L 464.508465 126.476875 
L 462.035603 126.18811 
L 459.54685 126.120747 
L 457.061988 126.27532 
L 454.60077 126.6506 
L 452.182759 127.243605 
L 449.827176 128.049621 
L 447.552746 129.062241 
L 445.377548 130.273416 
L 443.318872 131.673518 
L 441.393082 133.251417 
L 439.615488 134.994572 
L 438.000217 136.889125 
L 436.560111 138.920018 
L 435.306616 141.071107 
L 434.249697 143.325292 
L 433.397755 145.664657 
L 432.757561 148.070604 
L 432.334205 150.52401 
L 432.131052 153.005373 
L 432.149717 155.494968 
L 432.390051 157.973005 
L 432.850144 160.419788 
L 433.526339 162.815867 
L 434.413261 165.142194 
L 435.503859 167.38028 
L 436.789465 169.512333 
L 438.25986 171.521405 
L 439.903354 173.391527 
L 441.706885 175.107834 
L 443.656116 176.656682 
L 445.735553 178.025759 
L 447.928666 179.204184 
L 450.218024 180.182589 
L 452.585426 180.953196 
L 455.012056 181.50988 
L 457.478625 181.848217 
L 459.965525 181.965516 
L 462.452989 181.860845 
L 464.921243 181.535036 
L 467.350669 180.99068 
L 469.721953 180.232103 
L 472.016249 179.265334 
L 474.215317 178.09806 
L 476.301678 176.739558 
L 478.258748 175.200627 
L 480.07097 173.4935 
L 481.723939 171.631746 
L 483.204515 169.630165 
L 484.500929 167.504667 
L 485.602877 165.272148 
L 486.501598 162.950353 
L 487.18995 160.557739 
L 487.662461 158.113324 
L 487.915373 155.636538 
L 487.946678 153.14707 
L 487.756127 150.664708 
L 487.345233 148.209184 
L 486.717263 145.800017 
L 485.877209 143.456357 
L 484.831749 141.196834 
L 483.589192 139.039409 
L 482.159416 137.001231 
L 480.553786 135.0985 
L 478.785064 133.346343 
L 476.867311 131.758686 
L 474.815771 130.34815 
L 472.64675 129.125947 
L 471.641137 128.641968 
L 471.641137 128.641968 
" style="fill:none;stroke:#0000ff;stroke-linecap:square;stroke-width:1.5;"/>
   </g>
   <g id="line2d_37">
    <path clip-path="url(#p04dc300b6c)" d="M 327.573788 107.926823 
L 325.127709 108.390642 
L 322.732663 109.070486 
L 320.407689 109.96095 
L 318.171267 111.054957 
L 316.041175 112.343808 
L 314.034345 113.817261 
L 312.166728 115.463602 
L 310.453171 117.269746 
L 308.907294 119.221333 
L 307.541385 121.302853 
L 306.366302 123.497759 
L 305.391386 125.788604 
L 304.624386 128.157178 
L 304.071398 130.584653 
L 303.736819 133.051734 
L 303.623308 135.53881 
L 303.731768 138.026111 
L 304.061336 140.493867 
L 304.609392 142.92246 
L 305.37158 145.292587 
L 306.341842 147.585407 
L 307.512465 149.782694 
L 308.874143 151.866984 
L 310.416054 153.821707 
L 312.125939 155.631327 
L 313.990209 157.281458 
L 315.994042 158.758983 
L 318.121512 160.052159 
L 320.355708 161.150704 
L 322.678869 162.045889 
L 325.072529 162.730595 
L 327.517661 163.199382 
L 329.994829 163.448522 
L 332.484341 163.476035 
L 334.96641 163.281702 
L 337.421306 162.867068 
L 339.829513 162.23543 
L 342.171891 161.391807 
L 344.429819 160.342906 
L 346.585349 159.097065 
L 348.621347 157.664186 
L 350.52163 156.055659 
L 352.271091 154.284271 
L 353.855825 152.364102 
L 355.263234 150.310415 
L 356.482132 148.139535 
L 357.502829 145.868718 
L 358.317212 143.516015 
L 358.918808 141.100127 
L 359.302833 138.640258 
L 359.466237 136.155961 
L 359.407719 133.666984 
L 359.127745 131.193111 
L 358.628541 128.754008 
L 357.914075 126.369061 
L 356.990025 124.05723 
L 355.863737 121.836891 
L 354.544165 119.725692 
L 353.041796 117.740416 
L 351.368574 115.896844 
L 349.537798 114.20963 
L 347.564022 112.692185 
L 345.462934 111.356572 
L 343.251237 110.213407 
L 340.94651 109.271778 
L 338.567074 108.539168 
L 336.131843 108.021403 
L 333.660175 107.722596 
L 331.171715 107.645124 
L 328.686246 107.789603 
L 327.578612 107.92613 
L 327.578612 107.92613 
" style="fill:none;stroke:#0000ff;stroke-linecap:square;stroke-width:1.5;"/>
   </g>
   <g id="line2d_38">
    <path clip-path="url(#p04dc300b6c)" d="M 195.181993 168.38813 
L 193.37498 170.10077 
L 191.727691 171.96755 
L 190.253219 173.973632 
L 188.963286 176.10307 
L 187.868144 178.338936 
L 186.9765 180.663458 
L 186.29544 183.058158 
L 185.830379 185.504001 
L 185.585012 187.981545 
L 185.561291 190.471097 
L 185.759404 192.952867 
L 186.177777 195.407128 
L 186.813083 197.814371 
L 187.660272 200.155461 
L 188.712611 202.411788 
L 189.961735 204.565418 
L 191.397713 206.599232 
L 193.009132 208.497062 
L 194.783183 210.243823 
L 196.705764 211.82563 
L 198.761593 213.22991 
L 200.934327 214.4455 
L 203.206695 215.462737 
L 205.560636 216.273535 
L 207.977438 216.87145 
L 210.437889 217.251728 
L 212.922432 217.411347 
L 215.411317 217.349039 
L 217.88476 217.065297 
L 220.323101 216.562378 
L 222.706956 215.84428 
L 225.017377 214.91671 
L 227.235998 213.787042 
L 229.345185 212.464255 
L 231.32817 210.958864 
L 233.169191 209.282836 
L 234.853615 207.449492 
L 236.368051 205.473407 
L 237.700462 203.370287 
L 238.840257 201.156851 
L 239.778375 198.850693 
L 240.507359 196.470144 
L 241.021415 194.034127 
L 241.316456 191.562006 
L 241.390137 189.073431 
L 241.241873 186.588185 
L 240.872842 184.126022 
L 240.285977 181.706513 
L 239.485944 179.348892 
L 238.479101 177.071899 
L 237.273452 174.893633 
L 235.878582 172.831409 
L 234.305576 170.90162 
L 232.56694 169.119606 
L 230.676493 167.499531 
L 228.649263 166.054274 
L 226.501363 164.795322 
L 224.249868 163.732684 
L 221.912674 162.874805 
L 219.508359 162.228506 
L 217.056036 161.798923 
L 214.575197 161.589471 
L 212.085563 161.601816 
L 209.606923 161.835858 
L 207.15898 162.289738 
L 204.761193 162.959848 
L 202.432621 163.840861 
L 200.191774 164.925774 
L 198.056464 166.205964 
L 196.043665 167.671253 
L 195.185676 168.384938 
L 195.185676 168.384938 
" style="fill:none;stroke:#0000ff;stroke-linecap:square;stroke-width:1.5;"/>
   </g>
   <g id="line2d_39">
    <path clip-path="url(#p04dc300b6c)" d="M 116.494778 290.827826 
L 115.900545 293.245536 
L 115.524015 295.706563 
L 115.36818 298.191346 
L 115.43428 300.680134 
L 115.721789 303.153142 
L 116.228421 305.590713 
L 116.95015 307.973472 
L 117.881238 310.282478 
L 119.014284 312.499376 
L 120.340282 314.606545 
L 121.848692 316.587235 
L 123.527523 318.425701 
L 125.36343 320.10733 
L 127.34182 321.618755 
L 129.446966 322.947961 
L 131.662136 324.084383 
L 133.969721 325.018987 
L 136.351377 325.744344 
L 138.788174 326.254689 
L 141.260742 326.545964 
L 143.749425 326.615855 
L 146.234443 326.463805 
L 148.696041 326.091024 
L 151.114653 325.500474 
L 153.471053 324.696851 
L 155.74651 323.686541 
L 157.922937 322.477576 
L 159.983034 321.079566 
L 161.910425 319.503623 
L 163.689789 317.762274 
L 165.306982 315.869362 
L 166.74915 313.839932 
L 168.004828 311.690118 
L 169.064036 309.437006 
L 169.918353 307.098508 
L 170.56099 304.693212 
L 170.986837 302.240237 
L 171.192509 299.759082 
L 171.176373 297.26947 
L 170.938555 294.791189 
L 170.480947 292.34394 
L 169.807185 289.947177 
L 168.922626 287.619949 
L 167.834301 285.380757 
L 166.550861 283.2474 
L 165.082508 281.236836 
L 163.440913 279.365046 
L 161.639126 277.646909 
L 159.691469 276.096082 
L 157.613423 274.724894 
L 155.421507 273.544242 
L 153.133145 272.563514 
L 150.766526 271.790503 
L 148.340462 271.231354 
L 145.874239 270.890514 
L 143.387459 270.770689 
L 140.89989 270.872834 
L 138.431306 271.196136 
L 136.001329 271.738025 
L 133.629275 272.494194 
L 131.334 273.458632 
L 129.133747 274.623673 
L 127.046007 275.980056 
L 125.087376 277.516999 
L 123.273421 279.222285 
L 121.618563 281.082359 
L 120.135955 283.082435 
L 118.837383 285.206616 
L 117.733169 287.438015 
L 116.83209 289.758896 
L 116.496151 290.82315 
L 116.496151 290.82315 
" style="fill:none;stroke:#0000ff;stroke-linecap:square;stroke-width:1.5;"/>
   </g>
   <g id="line2d_40">
    <path clip-path="url(#p04dc300b6c)" d="M 116.494778 436.372174 
L 117.30199 438.727347 
L 118.315764 441.001263 
L 119.528043 443.175846 
L 120.92919 445.23381 
L 122.508067 447.158798 
L 124.252124 448.935508 
L 126.147497 450.549816 
L 128.179121 451.988891 
L 130.330846 453.241293 
L 132.585568 454.297068 
L 134.925364 455.147823 
L 137.331637 455.786794 
L 139.785257 456.208905 
L 142.266723 456.410798 
L 144.756308 456.390869 
L 147.234223 456.149276 
L 149.680772 455.687941 
L 152.076507 455.01053 
L 154.402384 454.122427 
L 156.639916 453.030692 
L 158.771315 451.744004 
L 160.779641 450.27259 
L 162.648928 448.628146 
L 164.364319 446.823744 
L 165.912177 444.873727 
L 167.280199 442.793595 
L 168.45751 440.599884 
L 169.434752 438.31003 
L 170.204157 435.942236 
L 170.759609 433.515324 
L 171.096693 431.048584 
L 171.21273 428.561624 
L 171.106796 426.074214 
L 170.779734 423.606126 
L 170.234144 421.176977 
L 169.474363 418.806077 
L 168.50643 416.512273 
L 167.338039 414.313798 
L 165.978478 412.228127 
L 164.438553 410.271838 
L 162.730506 408.460484 
L 160.867914 406.808461 
L 158.865581 405.328901 
L 156.739425 404.033566 
L 154.506347 402.932752 
L 152.184096 402.035209 
L 149.791133 401.348072 
L 147.346478 400.876803 
L 144.869564 400.625148 
L 142.380081 400.595107 
L 139.897816 400.786919 
L 137.442501 401.199059 
L 135.033653 401.828252 
L 132.69042 402.669496 
L 130.431428 403.716103 
L 128.274634 404.959755 
L 126.237182 406.390566 
L 124.335267 407.997162 
L 122.584007 409.766773 
L 120.997325 411.685332 
L 119.58783 413.737589 
L 118.366729 415.90723 
L 117.343726 418.177009 
L 116.526954 420.528884 
L 115.922906 422.94416 
L 115.536383 425.403637 
L 115.370457 427.887767 
L 115.426447 430.376802 
L 115.703908 432.850958 
L 116.200635 435.290567 
L 116.493405 436.367497 
L 116.493405 436.367497 
" style="fill:none;stroke:#0000ff;stroke-linecap:square;stroke-width:1.5;"/>
   </g>
   <g id="line2d_41">
    <path clip-path="url(#p04dc300b6c)" d="M 195.181993 558.81187 
L 197.134365 560.356756 
L 199.216578 561.721608 
L 201.412081 562.895576 
L 203.70342 563.869329 
L 206.072383 564.635127 
L 208.500139 565.186882 
L 210.967389 565.520208 
L 213.454523 565.632456 
L 215.941768 565.522734 
L 218.409356 565.191913 
L 220.837671 564.642624 
L 223.20741 563.879232 
L 225.499737 562.907806 
L 227.696431 561.736068 
L 229.780029 560.373331 
L 231.733969 558.830429 
L 233.54272 557.119625 
L 235.191904 555.254518 
L 236.668412 553.249934 
L 237.960507 551.121808 
L 239.057918 548.887055 
L 239.951923 546.56344 
L 240.635414 544.169432 
L 241.102959 541.724063 
L 241.350841 539.246769 
L 241.37709 536.757242 
L 241.181497 534.275272 
L 240.765617 531.820588 
L 240.132756 529.412701 
L 239.287944 527.070752 
L 238.237897 524.813357 
L 236.990961 522.65846 
L 235.557049 520.623189 
L 233.947557 518.723724 
L 232.175281 516.975162 
L 230.254307 515.391403 
L 228.199906 513.985037 
L 226.028408 512.767241 
L 223.757073 511.747697 
L 221.403957 510.934509 
L 218.987764 510.33414 
L 216.5277 509.951364 
L 214.043321 509.789222 
L 211.554373 509.849003 
L 209.080643 510.130233 
L 206.641793 510.630675 
L 204.25721 511.346353 
L 201.945848 512.271576 
L 199.726081 513.398991 
L 197.615553 514.719635 
L 195.63104 516.223011 
L 193.788317 517.897169 
L 192.102033 519.728802 
L 190.58559 521.703348 
L 189.251044 523.805114 
L 188.109003 526.017391 
L 187.168544 528.322596 
L 186.437142 530.702403 
L 185.920613 533.137897 
L 185.623062 535.609717 
L 185.546854 538.098215 
L 185.692594 540.583611 
L 186.059125 543.046147 
L 186.643532 545.466251 
L 187.441171 547.824683 
L 188.445701 550.102698 
L 189.649137 552.282187 
L 191.041913 554.345826 
L 192.612958 556.277211 
L 194.349784 558.06099 
L 195.17831 558.808678 
L 195.17831 558.808678 
" style="fill:none;stroke:#0000ff;stroke-linecap:square;stroke-width:1.5;"/>
   </g>
   <g id="line2d_42">
    <path clip-path="url(#p04dc300b6c)" d="M 327.573788 619.273177 
L 330.051457 619.517286 
L 332.54102 619.539743 
L 335.02269 619.340369 
L 337.476738 618.920751 
L 339.883657 618.284223 
L 342.224317 617.435845 
L 344.48011 616.38236 
L 346.633105 615.132144 
L 348.666189 613.695133 
L 350.563201 612.08275 
L 352.309061 610.307812 
L 353.889892 608.384429 
L 355.293128 606.327888 
L 356.507614 604.154537 
L 357.523697 601.881652 
L 358.333301 599.527299 
L 358.929988 597.110195 
L 359.309017 594.649551 
L 359.467375 592.164927 
L 359.403802 589.676074 
L 359.118805 587.202775 
L 358.614648 584.76469 
L 357.89534 582.3812 
L 356.966597 580.07125 
L 355.835802 577.853203 
L 354.511945 575.744688 
L 353.005547 573.762468 
L 351.328584 571.922298 
L 349.494386 570.238805 
L 347.517532 568.725372 
L 345.413736 567.394029 
L 343.199721 566.255358 
L 340.893087 565.318411 
L 338.512168 564.590636 
L 336.07589 564.077817 
L 333.60362 563.784031 
L 331.115008 563.711613 
L 328.629838 563.861139 
L 326.167862 564.231421 
L 323.748652 564.819514 
L 321.391437 565.620744 
L 319.114955 566.628743 
L 316.937302 567.835497 
L 314.875787 569.231415 
L 312.946796 570.8054 
L 311.165665 572.544941 
L 309.54655 574.43621 
L 308.102323 576.464174 
L 306.844462 578.612712 
L 305.782967 580.864747 
L 304.926275 583.202376 
L 304.281196 585.607019 
L 303.852859 588.05956 
L 303.644667 590.540505 
L 303.658275 593.030132 
L 303.893576 595.508653 
L 304.348699 597.956365 
L 305.020026 600.353812 
L 305.902222 602.681936 
L 306.988272 604.922232 
L 308.269546 607.056891 
L 309.735857 609.068946 
L 311.37555 610.942402 
L 313.175591 612.662368 
L 315.121673 614.215171 
L 317.198325 615.588469 
L 319.38904 616.771346 
L 321.676406 617.754398 
L 324.042238 618.529812 
L 326.467733 619.091423 
L 327.568964 619.272483 
L 327.568964 619.272483 
" style="fill:none;stroke:#0000ff;stroke-linecap:square;stroke-width:1.5;"/>
   </g>
   <g id="line2d_43">
    <path clip-path="url(#p04dc300b6c)" d="M 471.636704 598.560057 
L 473.853026 597.425885 
L 475.959522 596.098817 
L 477.939445 594.589402 
L 479.777059 592.909638 
L 481.457756 591.072878 
L 482.968176 589.093721 
L 484.296313 586.987899 
L 485.43161 584.772153 
L 486.365042 582.464094 
L 487.08919 580.08207 
L 487.598298 577.645014 
L 487.888318 575.172299 
L 487.956945 572.68358 
L 487.803633 570.19864 
L 487.429602 567.737231 
L 486.837825 565.318919 
L 486.033005 562.962928 
L 485.02154 560.687984 
L 483.81147 558.512171 
L 482.412414 556.452784 
L 480.835493 554.526194 
L 479.093241 552.747714 
L 477.199508 551.131482 
L 475.169346 549.690345 
L 473.018894 548.435759 
L 470.765245 547.377695 
L 468.426314 546.524565 
L 466.020692 545.88315 
L 463.567501 545.458548 
L 461.086242 545.254135 
L 458.596638 545.271536 
L 456.118478 545.510612 
L 453.671462 545.969463 
L 451.275041 546.644441 
L 448.948263 547.530182 
L 446.709624 548.619644 
L 444.576919 549.904167 
L 442.5671 551.373541 
L 440.696144 553.016086 
L 438.978922 554.818745 
L 437.429084 556.767189 
L 436.058951 558.845931 
L 434.879413 561.038446 
L 433.899846 563.327306 
L 433.128037 565.694317 
L 432.570121 568.120664 
L 432.230532 570.58706 
L 432.11197 573.073901 
L 432.215378 575.561417 
L 432.539933 578.029837 
L 433.083056 580.459538 
L 433.840429 582.831208 
L 434.806033 585.125994 
L 435.97219 587.325654 
L 437.329633 589.412705 
L 438.86757 591.370556 
L 440.573777 593.183644 
L 442.434691 594.837558 
L 444.43552 596.31915 
L 446.560359 597.616644 
L 448.792319 598.719725 
L 451.113657 599.619625 
L 453.505922 600.309192 
L 455.950097 600.782943 
L 458.426753 601.037113 
L 460.916205 601.069682 
L 463.398664 600.880391 
L 465.854396 600.470744 
L 468.263881 599.843998 
L 470.607967 599.005134 
L 471.63227 598.562081 
L 471.63227 598.562081 
" style="fill:none;stroke:#0000ff;stroke-linecap:square;stroke-width:1.5;"/>
   </g>
   <g id="line2d_44">
    <path clip-path="url(#p04dc300b6c)" d="M 581.631782 503.248779 
L 582.883092 501.096418 
L 583.937722 498.84116 
L 584.787288 496.500932 
L 585.425038 494.094336 
L 585.845903 491.640501 
L 586.046536 489.158934 
L 586.025343 486.669359 
L 585.782492 484.191566 
L 585.319915 481.745252 
L 584.641287 479.349862 
L 583.752004 477.024436 
L 582.659133 474.787459 
L 581.371363 472.656713 
L 579.898929 470.649134 
L 578.253536 468.780682 
L 576.448264 467.066208 
L 574.497461 465.51934 
L 572.416635 464.152375 
L 570.222326 462.976178 
L 567.931976 462.000098 
L 565.563792 461.231895 
L 563.136598 460.677676 
L 560.669687 460.341844 
L 558.182669 460.22707 
L 555.695313 460.334267 
L 553.227391 460.662582 
L 550.79852 461.209405 
L 548.428006 461.97039 
L 546.134694 462.939487 
L 543.936812 464.108994 
L 541.851831 465.469614 
L 539.896325 467.010532 
L 538.085838 468.719499 
L 536.434761 470.58293 
L 534.956218 472.586013 
L 533.661963 474.712826 
L 532.562283 476.946464 
L 531.665919 479.26917 
L 530.979997 481.662482 
L 530.509969 484.107375 
L 530.259572 486.584417 
L 530.230795 489.073915 
L 530.423867 491.556082 
L 530.837254 494.011188 
L 531.46767 496.419716 
L 532.310103 498.762521 
L 533.357857 501.020982 
L 534.602604 503.177144 
L 536.034449 505.21387 
L 537.642011 507.114968 
L 539.412511 508.865329 
L 541.331875 510.451038 
L 543.384847 511.85949 
L 545.555108 513.07949 
L 547.825406 514.10134 
L 550.177695 514.916917 
L 552.593278 515.519739 
L 555.052951 515.905013 
L 557.537165 516.069678 
L 560.026171 516.012424 
L 562.500186 515.733707 
L 564.939543 515.235741 
L 567.324852 514.522485 
L 569.637152 513.59961 
L 571.858063 512.47445 
L 573.969931 511.155949 
L 575.955969 509.654589 
L 577.800391 507.982303 
L 579.488535 506.152384 
L 581.006981 504.179378 
L 581.629147 503.252879 
L 581.629147 503.252879 
" style="fill:none;stroke:#0000ff;stroke-linecap:square;stroke-width:1.5;"/>
   </g>
   <g id="patch_3">
    <path d="M 90 640.8 
L 90 86.4 
" style="fill:none;stroke:#000000;stroke-linecap:square;stroke-linejoin:miter;stroke-width:0.8;"/>
   </g>
   <g id="patch_4">
    <path d="M 648 640.8 
L 648 86.4 
" style="fill:none;stroke:#000000;stroke-linecap:square;stroke-linejoin:miter;stroke-width:0.8;"/>
   </g>
   <g id="patch_5">
    <path d="M 90 640.8 
L 648 640.8 
" style="fill:none;stroke:#000000;stroke-linecap:square;stroke-linejoin:miter;stroke-width:0.8;"/>
   </g>
   <g id="patch_6">
    <path d="M 90 86.4 
L 648 86.4 
" style="fill:none;stroke:#000000;stroke-linecap:square;stroke-linejoin:miter;stroke-width:0.8;"/>
   </g>
   <g id="text_16">
    <!-- Cycloidal Reducer Designer in Julia Lang -->
    <defs>
     <path d="M 64.40625 67.28125 
L 64.40625 56.890625 
Q 59.421875 61.53125 53.78125 63.8125 
Q 48.140625 66.109375 41.796875 66.109375 
Q 29.296875 66.109375 22.65625 58.46875 
Q 16.015625 50.828125 16.015625 36.375 
Q 16.015625 21.96875 22.65625 14.328125 
Q 29.296875 6.6875 41.796875 6.6875 
Q 48.140625 6.6875 53.78125 8.984375 
Q 59.421875 11.28125 64.40625 15.921875 
L 64.40625 5.609375 
Q 59.234375 2.09375 53.4375 0.328125 
Q 47.65625 -1.421875 41.21875 -1.421875 
Q 24.65625 -1.421875 15.125 8.703125 
Q 5.609375 18.84375 5.609375 36.375 
Q 5.609375 53.953125 15.125 64.078125 
Q 24.65625 74.21875 41.21875 74.21875 
Q 47.75 74.21875 53.53125 72.484375 
Q 59.328125 70.75 64.40625 67.28125 
z
" id="DejaVuSans-67"/>
     <path d="M 32.171875 -5.078125 
Q 28.375 -14.84375 24.75 -17.8125 
Q 21.140625 -20.796875 15.09375 -20.796875 
L 7.90625 -20.796875 
L 7.90625 -13.28125 
L 13.1875 -13.28125 
Q 16.890625 -13.28125 18.9375 -11.515625 
Q 21 -9.765625 23.484375 -3.21875 
L 25.09375 0.875 
L 2.984375 54.6875 
L 12.5 54.6875 
L 29.59375 11.921875 
L 46.6875 54.6875 
L 56.203125 54.6875 
z
" id="DejaVuSans-121"/>
     <path d="M 48.78125 52.59375 
L 48.78125 44.1875 
Q 44.96875 46.296875 41.140625 47.34375 
Q 37.3125 48.390625 33.40625 48.390625 
Q 24.65625 48.390625 19.8125 42.84375 
Q 14.984375 37.3125 14.984375 27.296875 
Q 14.984375 17.28125 19.8125 11.734375 
Q 24.65625 6.203125 33.40625 6.203125 
Q 37.3125 6.203125 41.140625 7.25 
Q 44.96875 8.296875 48.78125 10.40625 
L 48.78125 2.09375 
Q 45.015625 0.34375 40.984375 -0.53125 
Q 36.96875 -1.421875 32.421875 -1.421875 
Q 20.0625 -1.421875 12.78125 6.34375 
Q 5.515625 14.109375 5.515625 27.296875 
Q 5.515625 40.671875 12.859375 48.328125 
Q 20.21875 56 33.015625 56 
Q 37.15625 56 41.109375 55.140625 
Q 45.0625 54.296875 48.78125 52.59375 
z
" id="DejaVuSans-99"/>
     <path d="M 9.421875 75.984375 
L 18.40625 75.984375 
L 18.40625 0 
L 9.421875 0 
z
" id="DejaVuSans-108"/>
     <path d="M 30.609375 48.390625 
Q 23.390625 48.390625 19.1875 42.75 
Q 14.984375 37.109375 14.984375 27.296875 
Q 14.984375 17.484375 19.15625 11.84375 
Q 23.34375 6.203125 30.609375 6.203125 
Q 37.796875 6.203125 41.984375 11.859375 
Q 46.1875 17.53125 46.1875 27.296875 
Q 46.1875 37.015625 41.984375 42.703125 
Q 37.796875 48.390625 30.609375 48.390625 
z
M 30.609375 56 
Q 42.328125 56 49.015625 48.375 
Q 55.71875 40.765625 55.71875 27.296875 
Q 55.71875 13.875 49.015625 6.21875 
Q 42.328125 -1.421875 30.609375 -1.421875 
Q 18.84375 -1.421875 12.171875 6.21875 
Q 5.515625 13.875 5.515625 27.296875 
Q 5.515625 40.765625 12.171875 48.375 
Q 18.84375 56 30.609375 56 
z
" id="DejaVuSans-111"/>
     <path d="M 9.421875 54.6875 
L 18.40625 54.6875 
L 18.40625 0 
L 9.421875 0 
z
M 9.421875 75.984375 
L 18.40625 75.984375 
L 18.40625 64.59375 
L 9.421875 64.59375 
z
" id="DejaVuSans-105"/>
     <path d="M 45.40625 46.390625 
L 45.40625 75.984375 
L 54.390625 75.984375 
L 54.390625 0 
L 45.40625 0 
L 45.40625 8.203125 
Q 42.578125 3.328125 38.25 0.953125 
Q 33.9375 -1.421875 27.875 -1.421875 
Q 17.96875 -1.421875 11.734375 6.484375 
Q 5.515625 14.40625 5.515625 27.296875 
Q 5.515625 40.1875 11.734375 48.09375 
Q 17.96875 56 27.875 56 
Q 33.9375 56 38.25 53.625 
Q 42.578125 51.265625 45.40625 46.390625 
z
M 14.796875 27.296875 
Q 14.796875 17.390625 18.875 11.75 
Q 22.953125 6.109375 30.078125 6.109375 
Q 37.203125 6.109375 41.296875 11.75 
Q 45.40625 17.390625 45.40625 27.296875 
Q 45.40625 37.203125 41.296875 42.84375 
Q 37.203125 48.484375 30.078125 48.484375 
Q 22.953125 48.484375 18.875 42.84375 
Q 14.796875 37.203125 14.796875 27.296875 
z
" id="DejaVuSans-100"/>
     <path d="M 34.28125 27.484375 
Q 23.390625 27.484375 19.1875 25 
Q 14.984375 22.515625 14.984375 16.5 
Q 14.984375 11.71875 18.140625 8.90625 
Q 21.296875 6.109375 26.703125 6.109375 
Q 34.1875 6.109375 38.703125 11.40625 
Q 43.21875 16.703125 43.21875 25.484375 
L 43.21875 27.484375 
z
M 52.203125 31.203125 
L 52.203125 0 
L 43.21875 0 
L 43.21875 8.296875 
Q 40.140625 3.328125 35.546875 0.953125 
Q 30.953125 -1.421875 24.3125 -1.421875 
Q 15.921875 -1.421875 10.953125 3.296875 
Q 6 8.015625 6 15.921875 
Q 6 25.140625 12.171875 29.828125 
Q 18.359375 34.515625 30.609375 34.515625 
L 43.21875 34.515625 
L 43.21875 35.40625 
Q 43.21875 41.609375 39.140625 45 
Q 35.0625 48.390625 27.6875 48.390625 
Q 23 48.390625 18.546875 47.265625 
Q 14.109375 46.140625 10.015625 43.890625 
L 10.015625 52.203125 
Q 14.9375 54.109375 19.578125 55.046875 
Q 24.21875 56 28.609375 56 
Q 40.484375 56 46.34375 49.84375 
Q 52.203125 43.703125 52.203125 31.203125 
z
" id="DejaVuSans-97"/>
     <path id="DejaVuSans-32"/>
     <path d="M 44.390625 34.1875 
Q 47.5625 33.109375 50.5625 29.59375 
Q 53.5625 26.078125 56.59375 19.921875 
L 66.609375 0 
L 56 0 
L 46.6875 18.703125 
Q 43.0625 26.03125 39.671875 28.421875 
Q 36.28125 30.8125 30.421875 30.8125 
L 19.671875 30.8125 
L 19.671875 0 
L 9.8125 0 
L 9.8125 72.90625 
L 32.078125 72.90625 
Q 44.578125 72.90625 50.734375 67.671875 
Q 56.890625 62.453125 56.890625 51.90625 
Q 56.890625 45.015625 53.6875 40.46875 
Q 50.484375 35.9375 44.390625 34.1875 
z
M 19.671875 64.796875 
L 19.671875 38.921875 
L 32.078125 38.921875 
Q 39.203125 38.921875 42.84375 42.21875 
Q 46.484375 45.515625 46.484375 51.90625 
Q 46.484375 58.296875 42.84375 61.546875 
Q 39.203125 64.796875 32.078125 64.796875 
z
" id="DejaVuSans-82"/>
     <path d="M 56.203125 29.59375 
L 56.203125 25.203125 
L 14.890625 25.203125 
Q 15.484375 15.921875 20.484375 11.0625 
Q 25.484375 6.203125 34.421875 6.203125 
Q 39.59375 6.203125 44.453125 7.46875 
Q 49.3125 8.734375 54.109375 11.28125 
L 54.109375 2.78125 
Q 49.265625 0.734375 44.1875 -0.34375 
Q 39.109375 -1.421875 33.890625 -1.421875 
Q 20.796875 -1.421875 13.15625 6.1875 
Q 5.515625 13.8125 5.515625 26.8125 
Q 5.515625 40.234375 12.765625 48.109375 
Q 20.015625 56 32.328125 56 
Q 43.359375 56 49.78125 48.890625 
Q 56.203125 41.796875 56.203125 29.59375 
z
M 47.21875 32.234375 
Q 47.125 39.59375 43.09375 43.984375 
Q 39.0625 48.390625 32.421875 48.390625 
Q 24.90625 48.390625 20.390625 44.140625 
Q 15.875 39.890625 15.1875 32.171875 
z
" id="DejaVuSans-101"/>
     <path d="M 8.5 21.578125 
L 8.5 54.6875 
L 17.484375 54.6875 
L 17.484375 21.921875 
Q 17.484375 14.15625 20.5 10.265625 
Q 23.53125 6.390625 29.59375 6.390625 
Q 36.859375 6.390625 41.078125 11.03125 
Q 45.3125 15.671875 45.3125 23.6875 
L 45.3125 54.6875 
L 54.296875 54.6875 
L 54.296875 0 
L 45.3125 0 
L 45.3125 8.40625 
Q 42.046875 3.421875 37.71875 1 
Q 33.40625 -1.421875 27.6875 -1.421875 
Q 18.265625 -1.421875 13.375 4.4375 
Q 8.5 10.296875 8.5 21.578125 
z
M 31.109375 56 
z
" id="DejaVuSans-117"/>
     <path d="M 41.109375 46.296875 
Q 39.59375 47.171875 37.8125 47.578125 
Q 36.03125 48 33.890625 48 
Q 26.265625 48 22.1875 43.046875 
Q 18.109375 38.09375 18.109375 28.8125 
L 18.109375 0 
L 9.078125 0 
L 9.078125 54.6875 
L 18.109375 54.6875 
L 18.109375 46.1875 
Q 20.953125 51.171875 25.484375 53.578125 
Q 30.03125 56 36.53125 56 
Q 37.453125 56 38.578125 55.875 
Q 39.703125 55.765625 41.0625 55.515625 
z
" id="DejaVuSans-114"/>
     <path d="M 19.671875 64.796875 
L 19.671875 8.109375 
L 31.59375 8.109375 
Q 46.6875 8.109375 53.6875 14.9375 
Q 60.6875 21.78125 60.6875 36.53125 
Q 60.6875 51.171875 53.6875 57.984375 
Q 46.6875 64.796875 31.59375 64.796875 
z
M 9.8125 72.90625 
L 30.078125 72.90625 
Q 51.265625 72.90625 61.171875 64.09375 
Q 71.09375 55.28125 71.09375 36.53125 
Q 71.09375 17.671875 61.125 8.828125 
Q 51.171875 0 30.078125 0 
L 9.8125 0 
z
" id="DejaVuSans-68"/>
     <path d="M 44.28125 53.078125 
L 44.28125 44.578125 
Q 40.484375 46.53125 36.375 47.5 
Q 32.28125 48.484375 27.875 48.484375 
Q 21.1875 48.484375 17.84375 46.4375 
Q 14.5 44.390625 14.5 40.28125 
Q 14.5 37.15625 16.890625 35.375 
Q 19.28125 33.59375 26.515625 31.984375 
L 29.59375 31.296875 
Q 39.15625 29.25 43.1875 25.515625 
Q 47.21875 21.78125 47.21875 15.09375 
Q 47.21875 7.46875 41.1875 3.015625 
Q 35.15625 -1.421875 24.609375 -1.421875 
Q 20.21875 -1.421875 15.453125 -0.5625 
Q 10.6875 0.296875 5.421875 2 
L 5.421875 11.28125 
Q 10.40625 8.6875 15.234375 7.390625 
Q 20.0625 6.109375 24.8125 6.109375 
Q 31.15625 6.109375 34.5625 8.28125 
Q 37.984375 10.453125 37.984375 14.40625 
Q 37.984375 18.0625 35.515625 20.015625 
Q 33.0625 21.96875 24.703125 23.78125 
L 21.578125 24.515625 
Q 13.234375 26.265625 9.515625 29.90625 
Q 5.8125 33.546875 5.8125 39.890625 
Q 5.8125 47.609375 11.28125 51.796875 
Q 16.75 56 26.8125 56 
Q 31.78125 56 36.171875 55.265625 
Q 40.578125 54.546875 44.28125 53.078125 
z
" id="DejaVuSans-115"/>
     <path d="M 45.40625 27.984375 
Q 45.40625 37.75 41.375 43.109375 
Q 37.359375 48.484375 30.078125 48.484375 
Q 22.859375 48.484375 18.828125 43.109375 
Q 14.796875 37.75 14.796875 27.984375 
Q 14.796875 18.265625 18.828125 12.890625 
Q 22.859375 7.515625 30.078125 7.515625 
Q 37.359375 7.515625 41.375 12.890625 
Q 45.40625 18.265625 45.40625 27.984375 
z
M 54.390625 6.78125 
Q 54.390625 -7.171875 48.1875 -13.984375 
Q 42 -20.796875 29.203125 -20.796875 
Q 24.46875 -20.796875 20.265625 -20.09375 
Q 16.0625 -19.390625 12.109375 -17.921875 
L 12.109375 -9.1875 
Q 16.0625 -11.328125 19.921875 -12.34375 
Q 23.78125 -13.375 27.78125 -13.375 
Q 36.625 -13.375 41.015625 -8.765625 
Q 45.40625 -4.15625 45.40625 5.171875 
L 45.40625 9.625 
Q 42.625 4.78125 38.28125 2.390625 
Q 33.9375 0 27.875 0 
Q 17.828125 0 11.671875 7.65625 
Q 5.515625 15.328125 5.515625 27.984375 
Q 5.515625 40.671875 11.671875 48.328125 
Q 17.828125 56 27.875 56 
Q 33.9375 56 38.28125 53.609375 
Q 42.625 51.21875 45.40625 46.390625 
L 45.40625 54.6875 
L 54.390625 54.6875 
z
" id="DejaVuSans-103"/>
     <path d="M 54.890625 33.015625 
L 54.890625 0 
L 45.90625 0 
L 45.90625 32.71875 
Q 45.90625 40.484375 42.875 44.328125 
Q 39.84375 48.1875 33.796875 48.1875 
Q 26.515625 48.1875 22.3125 43.546875 
Q 18.109375 38.921875 18.109375 30.90625 
L 18.109375 0 
L 9.078125 0 
L 9.078125 54.6875 
L 18.109375 54.6875 
L 18.109375 46.1875 
Q 21.34375 51.125 25.703125 53.5625 
Q 30.078125 56 35.796875 56 
Q 45.21875 56 50.046875 50.171875 
Q 54.890625 44.34375 54.890625 33.015625 
z
" id="DejaVuSans-110"/>
     <path d="M 9.8125 72.90625 
L 19.671875 72.90625 
L 19.671875 5.078125 
Q 19.671875 -8.109375 14.671875 -14.0625 
Q 9.671875 -20.015625 -1.421875 -20.015625 
L -5.171875 -20.015625 
L -5.171875 -11.71875 
L -2.09375 -11.71875 
Q 4.4375 -11.71875 7.125 -8.046875 
Q 9.8125 -4.390625 9.8125 5.078125 
z
" id="DejaVuSans-74"/>
     <path d="M 9.8125 72.90625 
L 19.671875 72.90625 
L 19.671875 8.296875 
L 55.171875 8.296875 
L 55.171875 0 
L 9.8125 0 
z
" id="DejaVuSans-76"/>
    </defs>
    <g transform="translate(247.783125 80.4)scale(0.12 -0.12)">
     <use xlink:href="#DejaVuSans-67"/>
     <use x="69.824219" xlink:href="#DejaVuSans-121"/>
     <use x="129.003906" xlink:href="#DejaVuSans-99"/>
     <use x="183.984375" xlink:href="#DejaVuSans-108"/>
     <use x="211.767578" xlink:href="#DejaVuSans-111"/>
     <use x="272.949219" xlink:href="#DejaVuSans-105"/>
     <use x="300.732422" xlink:href="#DejaVuSans-100"/>
     <use x="364.208984" xlink:href="#DejaVuSans-97"/>
     <use x="425.488281" xlink:href="#DejaVuSans-108"/>
     <use x="453.271484" xlink:href="#DejaVuSans-32"/>
     <use x="485.058594" xlink:href="#DejaVuSans-82"/>
     <use x="554.478516" xlink:href="#DejaVuSans-101"/>
     <use x="616.001953" xlink:href="#DejaVuSans-100"/>
     <use x="679.478516" xlink:href="#DejaVuSans-117"/>
     <use x="742.857422" xlink:href="#DejaVuSans-99"/>
     <use x="797.837891" xlink:href="#DejaVuSans-101"/>
     <use x="859.361328" xlink:href="#DejaVuSans-114"/>
     <use x="900.474609" xlink:href="#DejaVuSans-32"/>
     <use x="932.261719" xlink:href="#DejaVuSans-68"/>
     <use x="1009.263672" xlink:href="#DejaVuSans-101"/>
     <use x="1070.787109" xlink:href="#DejaVuSans-115"/>
     <use x="1122.886719" xlink:href="#DejaVuSans-105"/>
     <use x="1150.669922" xlink:href="#DejaVuSans-103"/>
     <use x="1214.146484" xlink:href="#DejaVuSans-110"/>
     <use x="1277.525391" xlink:href="#DejaVuSans-101"/>
     <use x="1339.048828" xlink:href="#DejaVuSans-114"/>
     <use x="1380.162109" xlink:href="#DejaVuSans-32"/>
     <use x="1411.949219" xlink:href="#DejaVuSans-105"/>
     <use x="1439.732422" xlink:href="#DejaVuSans-110"/>
     <use x="1503.111328" xlink:href="#DejaVuSans-32"/>
     <use x="1534.898438" xlink:href="#DejaVuSans-74"/>
     <use x="1564.390625" xlink:href="#DejaVuSans-117"/>
     <use x="1627.769531" xlink:href="#DejaVuSans-108"/>
     <use x="1655.552734" xlink:href="#DejaVuSans-105"/>
     <use x="1683.335938" xlink:href="#DejaVuSans-97"/>
     <use x="1744.615234" xlink:href="#DejaVuSans-32"/>
     <use x="1776.402344" xlink:href="#DejaVuSans-76"/>
     <use x="1832.115234" xlink:href="#DejaVuSans-97"/>
     <use x="1893.394531" xlink:href="#DejaVuSans-110"/>
     <use x="1956.773438" xlink:href="#DejaVuSans-103"/>
    </g>
   </g>
   <g id="legend_1">
    <g id="patch_7">
     <path d="M 94.858 637.33 
L 320.178112 637.33 
Q 321.566112 637.33 321.566112 635.942 
L 321.566112 565.329669 
Q 321.566112 563.941669 320.178112 563.941669 
L 94.858 563.941669 
Q 93.47 563.941669 93.47 565.329669 
L 93.47 635.942 
Q 93.47 637.33 94.858 637.33 
z
" style="fill:#ffffff;opacity:0.8;stroke:#cccccc;stroke-linejoin:miter;"/>
    </g>
    <g id="line2d_45">
     <path d="M 96.246 569.561984 
L 110.126 569.561984 
" style="fill:none;stroke:#aaaaaa;stroke-dasharray:3.7,1.6;stroke-dashoffset:0;"/>
    </g>
    <g id="line2d_46"/>
    <g id="text_17">
     <!-- Number of Teeth (z) = 10.0 -->
     <defs>
      <path d="M 9.8125 72.90625 
L 23.09375 72.90625 
L 55.421875 11.921875 
L 55.421875 72.90625 
L 64.984375 72.90625 
L 64.984375 0 
L 51.703125 0 
L 19.390625 60.984375 
L 19.390625 0 
L 9.8125 0 
z
" id="DejaVuSans-78"/>
      <path d="M 52 44.1875 
Q 55.375 50.25 60.0625 53.125 
Q 64.75 56 71.09375 56 
Q 79.640625 56 84.28125 50.015625 
Q 88.921875 44.046875 88.921875 33.015625 
L 88.921875 0 
L 79.890625 0 
L 79.890625 32.71875 
Q 79.890625 40.578125 77.09375 44.375 
Q 74.3125 48.1875 68.609375 48.1875 
Q 61.625 48.1875 57.5625 43.546875 
Q 53.515625 38.921875 53.515625 30.90625 
L 53.515625 0 
L 44.484375 0 
L 44.484375 32.71875 
Q 44.484375 40.625 41.703125 44.40625 
Q 38.921875 48.1875 33.109375 48.1875 
Q 26.21875 48.1875 22.15625 43.53125 
Q 18.109375 38.875 18.109375 30.90625 
L 18.109375 0 
L 9.078125 0 
L 9.078125 54.6875 
L 18.109375 54.6875 
L 18.109375 46.1875 
Q 21.1875 51.21875 25.484375 53.609375 
Q 29.78125 56 35.6875 56 
Q 41.65625 56 45.828125 52.96875 
Q 50 49.953125 52 44.1875 
z
" id="DejaVuSans-109"/>
      <path d="M 48.6875 27.296875 
Q 48.6875 37.203125 44.609375 42.84375 
Q 40.53125 48.484375 33.40625 48.484375 
Q 26.265625 48.484375 22.1875 42.84375 
Q 18.109375 37.203125 18.109375 27.296875 
Q 18.109375 17.390625 22.1875 11.75 
Q 26.265625 6.109375 33.40625 6.109375 
Q 40.53125 6.109375 44.609375 11.75 
Q 48.6875 17.390625 48.6875 27.296875 
z
M 18.109375 46.390625 
Q 20.953125 51.265625 25.265625 53.625 
Q 29.59375 56 35.59375 56 
Q 45.5625 56 51.78125 48.09375 
Q 58.015625 40.1875 58.015625 27.296875 
Q 58.015625 14.40625 51.78125 6.484375 
Q 45.5625 -1.421875 35.59375 -1.421875 
Q 29.59375 -1.421875 25.265625 0.953125 
Q 20.953125 3.328125 18.109375 8.203125 
L 18.109375 0 
L 9.078125 0 
L 9.078125 75.984375 
L 18.109375 75.984375 
z
" id="DejaVuSans-98"/>
      <path d="M 37.109375 75.984375 
L 37.109375 68.5 
L 28.515625 68.5 
Q 23.6875 68.5 21.796875 66.546875 
Q 19.921875 64.59375 19.921875 59.515625 
L 19.921875 54.6875 
L 34.71875 54.6875 
L 34.71875 47.703125 
L 19.921875 47.703125 
L 19.921875 0 
L 10.890625 0 
L 10.890625 47.703125 
L 2.296875 47.703125 
L 2.296875 54.6875 
L 10.890625 54.6875 
L 10.890625 58.5 
Q 10.890625 67.625 15.140625 71.796875 
Q 19.390625 75.984375 28.609375 75.984375 
z
" id="DejaVuSans-102"/>
      <path d="M -0.296875 72.90625 
L 61.375 72.90625 
L 61.375 64.59375 
L 35.5 64.59375 
L 35.5 0 
L 25.59375 0 
L 25.59375 64.59375 
L -0.296875 64.59375 
z
" id="DejaVuSans-84"/>
      <path d="M 18.3125 70.21875 
L 18.3125 54.6875 
L 36.8125 54.6875 
L 36.8125 47.703125 
L 18.3125 47.703125 
L 18.3125 18.015625 
Q 18.3125 11.328125 20.140625 9.421875 
Q 21.96875 7.515625 27.59375 7.515625 
L 36.8125 7.515625 
L 36.8125 0 
L 27.59375 0 
Q 17.1875 0 13.234375 3.875 
Q 9.28125 7.765625 9.28125 18.015625 
L 9.28125 47.703125 
L 2.6875 47.703125 
L 2.6875 54.6875 
L 9.28125 54.6875 
L 9.28125 70.21875 
z
" id="DejaVuSans-116"/>
      <path d="M 54.890625 33.015625 
L 54.890625 0 
L 45.90625 0 
L 45.90625 32.71875 
Q 45.90625 40.484375 42.875 44.328125 
Q 39.84375 48.1875 33.796875 48.1875 
Q 26.515625 48.1875 22.3125 43.546875 
Q 18.109375 38.921875 18.109375 30.90625 
L 18.109375 0 
L 9.078125 0 
L 9.078125 75.984375 
L 18.109375 75.984375 
L 18.109375 46.1875 
Q 21.34375 51.125 25.703125 53.5625 
Q 30.078125 56 35.796875 56 
Q 45.21875 56 50.046875 50.171875 
Q 54.890625 44.34375 54.890625 33.015625 
z
" id="DejaVuSans-104"/>
      <path d="M 31 75.875 
Q 24.46875 64.65625 21.28125 53.65625 
Q 18.109375 42.671875 18.109375 31.390625 
Q 18.109375 20.125 21.3125 9.0625 
Q 24.515625 -2 31 -13.1875 
L 23.1875 -13.1875 
Q 15.875 -1.703125 12.234375 9.375 
Q 8.59375 20.453125 8.59375 31.390625 
Q 8.59375 42.28125 12.203125 53.3125 
Q 15.828125 64.359375 23.1875 75.875 
z
" id="DejaVuSans-40"/>
      <path d="M 5.515625 54.6875 
L 48.1875 54.6875 
L 48.1875 46.484375 
L 14.40625 7.171875 
L 48.1875 7.171875 
L 48.1875 0 
L 4.296875 0 
L 4.296875 8.203125 
L 38.09375 47.515625 
L 5.515625 47.515625 
z
" id="DejaVuSans-122"/>
      <path d="M 8.015625 75.875 
L 15.828125 75.875 
Q 23.140625 64.359375 26.78125 53.3125 
Q 30.421875 42.28125 30.421875 31.390625 
Q 30.421875 20.453125 26.78125 9.375 
Q 23.140625 -1.703125 15.828125 -13.1875 
L 8.015625 -13.1875 
Q 14.5 -2 17.703125 9.0625 
Q 20.90625 20.125 20.90625 31.390625 
Q 20.90625 42.671875 17.703125 53.65625 
Q 14.5 64.65625 8.015625 75.875 
z
" id="DejaVuSans-41"/>
      <path d="M 10.59375 45.40625 
L 73.1875 45.40625 
L 73.1875 37.203125 
L 10.59375 37.203125 
z
M 10.59375 25.484375 
L 73.1875 25.484375 
L 73.1875 17.1875 
L 10.59375 17.1875 
z
" id="DejaVuSans-61"/>
      <path d="M 10.6875 12.40625 
L 21 12.40625 
L 21 0 
L 10.6875 0 
z
" id="DejaVuSans-46"/>
     </defs>
     <g transform="translate(115.678 571.990984)scale(0.0694 -0.0694)">
      <use xlink:href="#DejaVuSans-78"/>
      <use x="74.804688" xlink:href="#DejaVuSans-117"/>
      <use x="138.183594" xlink:href="#DejaVuSans-109"/>
      <use x="235.595703" xlink:href="#DejaVuSans-98"/>
      <use x="299.072266" xlink:href="#DejaVuSans-101"/>
      <use x="360.595703" xlink:href="#DejaVuSans-114"/>
      <use x="401.708984" xlink:href="#DejaVuSans-32"/>
      <use x="433.496094" xlink:href="#DejaVuSans-111"/>
      <use x="494.677734" xlink:href="#DejaVuSans-102"/>
      <use x="529.882812" xlink:href="#DejaVuSans-32"/>
      <use x="561.669922" xlink:href="#DejaVuSans-84"/>
      <use x="622.488281" xlink:href="#DejaVuSans-101"/>
      <use x="684.011719" xlink:href="#DejaVuSans-101"/>
      <use x="745.535156" xlink:href="#DejaVuSans-116"/>
      <use x="784.744141" xlink:href="#DejaVuSans-104"/>
      <use x="848.123047" xlink:href="#DejaVuSans-32"/>
      <use x="879.910156" xlink:href="#DejaVuSans-40"/>
      <use x="918.923828" xlink:href="#DejaVuSans-122"/>
      <use x="971.414062" xlink:href="#DejaVuSans-41"/>
      <use x="1010.427734" xlink:href="#DejaVuSans-32"/>
      <use x="1042.214844" xlink:href="#DejaVuSans-61"/>
      <use x="1126.003906" xlink:href="#DejaVuSans-32"/>
      <use x="1157.791016" xlink:href="#DejaVuSans-49"/>
      <use x="1221.414062" xlink:href="#DejaVuSans-48"/>
      <use x="1285.037109" xlink:href="#DejaVuSans-46"/>
      <use x="1316.824219" xlink:href="#DejaVuSans-48"/>
     </g>
    </g>
    <g id="line2d_47">
     <path d="M 96.246 579.748603 
L 110.126 579.748603 
" style="fill:none;stroke:#000000;stroke-linecap:square;stroke-width:1.5;"/>
    </g>
    <g id="line2d_48"/>
    <g id="text_18">
     <!-- Radius of Rolling Circle (Ra) = 3.0 -->
     <g transform="translate(115.678 582.177603)scale(0.0694 -0.0694)">
      <use xlink:href="#DejaVuSans-82"/>
      <use x="69.451172" xlink:href="#DejaVuSans-97"/>
      <use x="130.730469" xlink:href="#DejaVuSans-100"/>
      <use x="194.207031" xlink:href="#DejaVuSans-105"/>
      <use x="221.990234" xlink:href="#DejaVuSans-117"/>
      <use x="285.369141" xlink:href="#DejaVuSans-115"/>
      <use x="337.46875" xlink:href="#DejaVuSans-32"/>
      <use x="369.255859" xlink:href="#DejaVuSans-111"/>
      <use x="430.4375" xlink:href="#DejaVuSans-102"/>
      <use x="465.642578" xlink:href="#DejaVuSans-32"/>
      <use x="497.429688" xlink:href="#DejaVuSans-82"/>
      <use x="566.849609" xlink:href="#DejaVuSans-111"/>
      <use x="628.03125" xlink:href="#DejaVuSans-108"/>
      <use x="655.814453" xlink:href="#DejaVuSans-108"/>
      <use x="683.597656" xlink:href="#DejaVuSans-105"/>
      <use x="711.380859" xlink:href="#DejaVuSans-110"/>
      <use x="774.759766" xlink:href="#DejaVuSans-103"/>
      <use x="838.236328" xlink:href="#DejaVuSans-32"/>
      <use x="870.023438" xlink:href="#DejaVuSans-67"/>
      <use x="939.847656" xlink:href="#DejaVuSans-105"/>
      <use x="967.630859" xlink:href="#DejaVuSans-114"/>
      <use x="1008.712891" xlink:href="#DejaVuSans-99"/>
      <use x="1063.693359" xlink:href="#DejaVuSans-108"/>
      <use x="1091.476562" xlink:href="#DejaVuSans-101"/>
      <use x="1153" xlink:href="#DejaVuSans-32"/>
      <use x="1184.787109" xlink:href="#DejaVuSans-40"/>
      <use x="1223.800781" xlink:href="#DejaVuSans-82"/>
      <use x="1293.251953" xlink:href="#DejaVuSans-97"/>
      <use x="1354.53125" xlink:href="#DejaVuSans-41"/>
      <use x="1393.544922" xlink:href="#DejaVuSans-32"/>
      <use x="1425.332031" xlink:href="#DejaVuSans-61"/>
      <use x="1509.121094" xlink:href="#DejaVuSans-32"/>
      <use x="1540.908203" xlink:href="#DejaVuSans-51"/>
      <use x="1604.53125" xlink:href="#DejaVuSans-46"/>
      <use x="1636.318359" xlink:href="#DejaVuSans-48"/>
     </g>
    </g>
    <g id="line2d_49">
     <path d="M 96.246 589.935222 
L 110.126 589.935222 
" style="fill:none;stroke:#aaaaff;stroke-dasharray:3.7,1.6;stroke-dashoffset:0;"/>
    </g>
    <g id="line2d_50"/>
    <g id="text_19">
     <!-- Radius of Base Circle (Rb) = 30.0 -->
     <defs>
      <path d="M 19.671875 34.8125 
L 19.671875 8.109375 
L 35.5 8.109375 
Q 43.453125 8.109375 47.28125 11.40625 
Q 51.125 14.703125 51.125 21.484375 
Q 51.125 28.328125 47.28125 31.5625 
Q 43.453125 34.8125 35.5 34.8125 
z
M 19.671875 64.796875 
L 19.671875 42.828125 
L 34.28125 42.828125 
Q 41.5 42.828125 45.03125 45.53125 
Q 48.578125 48.25 48.578125 53.8125 
Q 48.578125 59.328125 45.03125 62.0625 
Q 41.5 64.796875 34.28125 64.796875 
z
M 9.8125 72.90625 
L 35.015625 72.90625 
Q 46.296875 72.90625 52.390625 68.21875 
Q 58.5 63.53125 58.5 54.890625 
Q 58.5 48.1875 55.375 44.234375 
Q 52.25 40.28125 46.1875 39.3125 
Q 53.46875 37.75 57.5 32.78125 
Q 61.53125 27.828125 61.53125 20.40625 
Q 61.53125 10.640625 54.890625 5.3125 
Q 48.25 0 35.984375 0 
L 9.8125 0 
z
" id="DejaVuSans-66"/>
     </defs>
     <g transform="translate(115.678 592.364222)scale(0.0694 -0.0694)">
      <use xlink:href="#DejaVuSans-82"/>
      <use x="69.451172" xlink:href="#DejaVuSans-97"/>
      <use x="130.730469" xlink:href="#DejaVuSans-100"/>
      <use x="194.207031" xlink:href="#DejaVuSans-105"/>
      <use x="221.990234" xlink:href="#DejaVuSans-117"/>
      <use x="285.369141" xlink:href="#DejaVuSans-115"/>
      <use x="337.46875" xlink:href="#DejaVuSans-32"/>
      <use x="369.255859" xlink:href="#DejaVuSans-111"/>
      <use x="430.4375" xlink:href="#DejaVuSans-102"/>
      <use x="465.642578" xlink:href="#DejaVuSans-32"/>
      <use x="497.429688" xlink:href="#DejaVuSans-66"/>
      <use x="566.033203" xlink:href="#DejaVuSans-97"/>
      <use x="627.3125" xlink:href="#DejaVuSans-115"/>
      <use x="679.412109" xlink:href="#DejaVuSans-101"/>
      <use x="740.935547" xlink:href="#DejaVuSans-32"/>
      <use x="772.722656" xlink:href="#DejaVuSans-67"/>
      <use x="842.546875" xlink:href="#DejaVuSans-105"/>
      <use x="870.330078" xlink:href="#DejaVuSans-114"/>
      <use x="911.412109" xlink:href="#DejaVuSans-99"/>
      <use x="966.392578" xlink:href="#DejaVuSans-108"/>
      <use x="994.175781" xlink:href="#DejaVuSans-101"/>
      <use x="1055.699219" xlink:href="#DejaVuSans-32"/>
      <use x="1087.486328" xlink:href="#DejaVuSans-40"/>
      <use x="1126.5" xlink:href="#DejaVuSans-82"/>
      <use x="1195.982422" xlink:href="#DejaVuSans-98"/>
      <use x="1259.458984" xlink:href="#DejaVuSans-41"/>
      <use x="1298.472656" xlink:href="#DejaVuSans-32"/>
      <use x="1330.259766" xlink:href="#DejaVuSans-61"/>
      <use x="1414.048828" xlink:href="#DejaVuSans-32"/>
      <use x="1445.835938" xlink:href="#DejaVuSans-51"/>
      <use x="1509.458984" xlink:href="#DejaVuSans-48"/>
      <use x="1573.082031" xlink:href="#DejaVuSans-46"/>
      <use x="1604.869141" xlink:href="#DejaVuSans-48"/>
     </g>
    </g>
    <g id="line2d_51">
     <path d="M 96.246 600.121841 
L 110.126 600.121841 
" style="fill:none;stroke:#0000ff;stroke-linecap:square;stroke-width:1.5;"/>
    </g>
    <g id="line2d_52"/>
    <g id="text_20">
     <!-- Eccentricity (e) = 2.0 -->
     <defs>
      <path d="M 9.8125 72.90625 
L 55.90625 72.90625 
L 55.90625 64.59375 
L 19.671875 64.59375 
L 19.671875 43.015625 
L 54.390625 43.015625 
L 54.390625 34.71875 
L 19.671875 34.71875 
L 19.671875 8.296875 
L 56.78125 8.296875 
L 56.78125 0 
L 9.8125 0 
z
" id="DejaVuSans-69"/>
     </defs>
     <g transform="translate(115.678 602.550841)scale(0.0694 -0.0694)">
      <use xlink:href="#DejaVuSans-69"/>
      <use x="63.183594" xlink:href="#DejaVuSans-99"/>
      <use x="118.164062" xlink:href="#DejaVuSans-99"/>
      <use x="173.144531" xlink:href="#DejaVuSans-101"/>
      <use x="234.667969" xlink:href="#DejaVuSans-110"/>
      <use x="298.046875" xlink:href="#DejaVuSans-116"/>
      <use x="337.255859" xlink:href="#DejaVuSans-114"/>
      <use x="378.369141" xlink:href="#DejaVuSans-105"/>
      <use x="406.152344" xlink:href="#DejaVuSans-99"/>
      <use x="461.132812" xlink:href="#DejaVuSans-105"/>
      <use x="488.916016" xlink:href="#DejaVuSans-116"/>
      <use x="528.125" xlink:href="#DejaVuSans-121"/>
      <use x="587.304688" xlink:href="#DejaVuSans-32"/>
      <use x="619.091797" xlink:href="#DejaVuSans-40"/>
      <use x="658.105469" xlink:href="#DejaVuSans-101"/>
      <use x="719.628906" xlink:href="#DejaVuSans-41"/>
      <use x="758.642578" xlink:href="#DejaVuSans-32"/>
      <use x="790.429688" xlink:href="#DejaVuSans-61"/>
      <use x="874.21875" xlink:href="#DejaVuSans-32"/>
      <use x="906.005859" xlink:href="#DejaVuSans-50"/>
      <use x="969.628906" xlink:href="#DejaVuSans-46"/>
      <use x="1001.416016" xlink:href="#DejaVuSans-48"/>
     </g>
    </g>
    <g id="line2d_53">
     <path d="M 96.246 610.308459 
L 110.126 610.308459 
" style="fill:none;stroke:#0000ff;stroke-linecap:square;stroke-width:1.5;"/>
    </g>
    <g id="line2d_54"/>
    <g id="text_21">
     <!-- Radius of Ring Gear Roller – equidistant distance (q) = 4.0 -->
     <defs>
      <path d="M 59.515625 10.40625 
L 59.515625 29.984375 
L 43.40625 29.984375 
L 43.40625 38.09375 
L 69.28125 38.09375 
L 69.28125 6.78125 
Q 63.578125 2.734375 56.6875 0.65625 
Q 49.8125 -1.421875 42 -1.421875 
Q 24.90625 -1.421875 15.25 8.5625 
Q 5.609375 18.5625 5.609375 36.375 
Q 5.609375 54.25 15.25 64.234375 
Q 24.90625 74.21875 42 74.21875 
Q 49.125 74.21875 55.546875 72.453125 
Q 61.96875 70.703125 67.390625 67.28125 
L 67.390625 56.78125 
Q 61.921875 61.421875 55.765625 63.765625 
Q 49.609375 66.109375 42.828125 66.109375 
Q 29.4375 66.109375 22.71875 58.640625 
Q 16.015625 51.171875 16.015625 36.375 
Q 16.015625 21.625 22.71875 14.15625 
Q 29.4375 6.6875 42.828125 6.6875 
Q 48.046875 6.6875 52.140625 7.59375 
Q 56.25 8.5 59.515625 10.40625 
z
" id="DejaVuSans-71"/>
      <path d="M 4.890625 30.90625 
L 45.125 30.90625 
L 45.125 23.875 
L 4.890625 23.875 
z
" id="DejaVuSans-8211"/>
      <path d="M 14.796875 27.296875 
Q 14.796875 17.390625 18.875 11.75 
Q 22.953125 6.109375 30.078125 6.109375 
Q 37.203125 6.109375 41.296875 11.75 
Q 45.40625 17.390625 45.40625 27.296875 
Q 45.40625 37.203125 41.296875 42.84375 
Q 37.203125 48.484375 30.078125 48.484375 
Q 22.953125 48.484375 18.875 42.84375 
Q 14.796875 37.203125 14.796875 27.296875 
z
M 45.40625 8.203125 
Q 42.578125 3.328125 38.25 0.953125 
Q 33.9375 -1.421875 27.875 -1.421875 
Q 17.96875 -1.421875 11.734375 6.484375 
Q 5.515625 14.40625 5.515625 27.296875 
Q 5.515625 40.1875 11.734375 48.09375 
Q 17.96875 56 27.875 56 
Q 33.9375 56 38.25 53.625 
Q 42.578125 51.265625 45.40625 46.390625 
L 45.40625 54.6875 
L 54.390625 54.6875 
L 54.390625 -20.796875 
L 45.40625 -20.796875 
z
" id="DejaVuSans-113"/>
     </defs>
     <g transform="translate(115.678 612.737459)scale(0.0694 -0.0694)">
      <use xlink:href="#DejaVuSans-82"/>
      <use x="69.451172" xlink:href="#DejaVuSans-97"/>
      <use x="130.730469" xlink:href="#DejaVuSans-100"/>
      <use x="194.207031" xlink:href="#DejaVuSans-105"/>
      <use x="221.990234" xlink:href="#DejaVuSans-117"/>
      <use x="285.369141" xlink:href="#DejaVuSans-115"/>
      <use x="337.46875" xlink:href="#DejaVuSans-32"/>
      <use x="369.255859" xlink:href="#DejaVuSans-111"/>
      <use x="430.4375" xlink:href="#DejaVuSans-102"/>
      <use x="465.642578" xlink:href="#DejaVuSans-32"/>
      <use x="497.429688" xlink:href="#DejaVuSans-82"/>
      <use x="566.912109" xlink:href="#DejaVuSans-105"/>
      <use x="594.695312" xlink:href="#DejaVuSans-110"/>
      <use x="658.074219" xlink:href="#DejaVuSans-103"/>
      <use x="721.550781" xlink:href="#DejaVuSans-32"/>
      <use x="753.337891" xlink:href="#DejaVuSans-71"/>
      <use x="830.828125" xlink:href="#DejaVuSans-101"/>
      <use x="892.351562" xlink:href="#DejaVuSans-97"/>
      <use x="953.630859" xlink:href="#DejaVuSans-114"/>
      <use x="994.744141" xlink:href="#DejaVuSans-32"/>
      <use x="1026.53125" xlink:href="#DejaVuSans-82"/>
      <use x="1095.951172" xlink:href="#DejaVuSans-111"/>
      <use x="1157.132812" xlink:href="#DejaVuSans-108"/>
      <use x="1184.916016" xlink:href="#DejaVuSans-108"/>
      <use x="1212.699219" xlink:href="#DejaVuSans-101"/>
      <use x="1274.222656" xlink:href="#DejaVuSans-114"/>
      <use x="1315.335938" xlink:href="#DejaVuSans-32"/>
      <use x="1347.123047" xlink:href="#DejaVuSans-8211"/>
      <use x="1397.123047" xlink:href="#DejaVuSans-32"/>
      <use x="1428.910156" xlink:href="#DejaVuSans-101"/>
      <use x="1490.433594" xlink:href="#DejaVuSans-113"/>
      <use x="1553.910156" xlink:href="#DejaVuSans-117"/>
      <use x="1617.289062" xlink:href="#DejaVuSans-105"/>
      <use x="1645.072266" xlink:href="#DejaVuSans-100"/>
      <use x="1708.548828" xlink:href="#DejaVuSans-105"/>
      <use x="1736.332031" xlink:href="#DejaVuSans-115"/>
      <use x="1788.431641" xlink:href="#DejaVuSans-116"/>
      <use x="1827.640625" xlink:href="#DejaVuSans-97"/>
      <use x="1888.919922" xlink:href="#DejaVuSans-110"/>
      <use x="1952.298828" xlink:href="#DejaVuSans-116"/>
      <use x="1991.507812" xlink:href="#DejaVuSans-32"/>
      <use x="2023.294922" xlink:href="#DejaVuSans-100"/>
      <use x="2086.771484" xlink:href="#DejaVuSans-105"/>
      <use x="2114.554688" xlink:href="#DejaVuSans-115"/>
      <use x="2166.654297" xlink:href="#DejaVuSans-116"/>
      <use x="2205.863281" xlink:href="#DejaVuSans-97"/>
      <use x="2267.142578" xlink:href="#DejaVuSans-110"/>
      <use x="2330.521484" xlink:href="#DejaVuSans-99"/>
      <use x="2385.501953" xlink:href="#DejaVuSans-101"/>
      <use x="2447.025391" xlink:href="#DejaVuSans-32"/>
      <use x="2478.8125" xlink:href="#DejaVuSans-40"/>
      <use x="2517.826172" xlink:href="#DejaVuSans-113"/>
      <use x="2581.302734" xlink:href="#DejaVuSans-41"/>
      <use x="2620.316406" xlink:href="#DejaVuSans-32"/>
      <use x="2652.103516" xlink:href="#DejaVuSans-61"/>
      <use x="2735.892578" xlink:href="#DejaVuSans-32"/>
      <use x="2767.679688" xlink:href="#DejaVuSans-52"/>
      <use x="2831.302734" xlink:href="#DejaVuSans-46"/>
      <use x="2863.089844" xlink:href="#DejaVuSans-48"/>
     </g>
    </g>
    <g id="line2d_55">
     <path d="M 96.246 620.495078 
L 110.126 620.495078 
" style="fill:none;stroke:#0000ff;stroke-linecap:square;stroke-width:1.5;"/>
    </g>
    <g id="line2d_56"/>
    <g id="text_22">
     <!-- Number of Ring Gear Roller (z+1) = 11.0 -->
     <defs>
      <path d="M 46 62.703125 
L 46 35.5 
L 73.1875 35.5 
L 73.1875 27.203125 
L 46 27.203125 
L 46 0 
L 37.796875 0 
L 37.796875 27.203125 
L 10.59375 27.203125 
L 10.59375 35.5 
L 37.796875 35.5 
L 37.796875 62.703125 
z
" id="DejaVuSans-43"/>
     </defs>
     <g transform="translate(115.678 622.924078)scale(0.0694 -0.0694)">
      <use xlink:href="#DejaVuSans-78"/>
      <use x="74.804688" xlink:href="#DejaVuSans-117"/>
      <use x="138.183594" xlink:href="#DejaVuSans-109"/>
      <use x="235.595703" xlink:href="#DejaVuSans-98"/>
      <use x="299.072266" xlink:href="#DejaVuSans-101"/>
      <use x="360.595703" xlink:href="#DejaVuSans-114"/>
      <use x="401.708984" xlink:href="#DejaVuSans-32"/>
      <use x="433.496094" xlink:href="#DejaVuSans-111"/>
      <use x="494.677734" xlink:href="#DejaVuSans-102"/>
      <use x="529.882812" xlink:href="#DejaVuSans-32"/>
      <use x="561.669922" xlink:href="#DejaVuSans-82"/>
      <use x="631.152344" xlink:href="#DejaVuSans-105"/>
      <use x="658.935547" xlink:href="#DejaVuSans-110"/>
      <use x="722.314453" xlink:href="#DejaVuSans-103"/>
      <use x="785.791016" xlink:href="#DejaVuSans-32"/>
      <use x="817.578125" xlink:href="#DejaVuSans-71"/>
      <use x="895.068359" xlink:href="#DejaVuSans-101"/>
      <use x="956.591797" xlink:href="#DejaVuSans-97"/>
      <use x="1017.871094" xlink:href="#DejaVuSans-114"/>
      <use x="1058.984375" xlink:href="#DejaVuSans-32"/>
      <use x="1090.771484" xlink:href="#DejaVuSans-82"/>
      <use x="1160.191406" xlink:href="#DejaVuSans-111"/>
      <use x="1221.373047" xlink:href="#DejaVuSans-108"/>
      <use x="1249.15625" xlink:href="#DejaVuSans-108"/>
      <use x="1276.939453" xlink:href="#DejaVuSans-101"/>
      <use x="1338.462891" xlink:href="#DejaVuSans-114"/>
      <use x="1379.576172" xlink:href="#DejaVuSans-32"/>
      <use x="1411.363281" xlink:href="#DejaVuSans-40"/>
      <use x="1450.376953" xlink:href="#DejaVuSans-122"/>
      <use x="1502.867188" xlink:href="#DejaVuSans-43"/>
      <use x="1586.65625" xlink:href="#DejaVuSans-49"/>
      <use x="1650.279297" xlink:href="#DejaVuSans-41"/>
      <use x="1689.292969" xlink:href="#DejaVuSans-32"/>
      <use x="1721.080078" xlink:href="#DejaVuSans-61"/>
      <use x="1804.869141" xlink:href="#DejaVuSans-32"/>
      <use x="1836.65625" xlink:href="#DejaVuSans-49"/>
      <use x="1900.279297" xlink:href="#DejaVuSans-49"/>
      <use x="1963.902344" xlink:href="#DejaVuSans-46"/>
      <use x="1995.689453" xlink:href="#DejaVuSans-48"/>
     </g>
    </g>
    <g id="line2d_57">
     <path d="M 96.246 630.681697 
L 110.126 630.681697 
" style="fill:none;stroke:#0000ff;stroke-linecap:square;stroke-width:1.5;"/>
    </g>
    <g id="line2d_58"/>
    <g id="text_23">
     <!-- Reduction Ratio = -10.0 -->
     <defs>
      <path d="M 4.890625 31.390625 
L 31.203125 31.390625 
L 31.203125 23.390625 
L 4.890625 23.390625 
z
" id="DejaVuSans-45"/>
     </defs>
     <g transform="translate(115.678 633.110697)scale(0.0694 -0.0694)">
      <use xlink:href="#DejaVuSans-82"/>
      <use x="69.419922" xlink:href="#DejaVuSans-101"/>
      <use x="130.943359" xlink:href="#DejaVuSans-100"/>
      <use x="194.419922" xlink:href="#DejaVuSans-117"/>
      <use x="257.798828" xlink:href="#DejaVuSans-99"/>
      <use x="312.779297" xlink:href="#DejaVuSans-116"/>
      <use x="351.988281" xlink:href="#DejaVuSans-105"/>
      <use x="379.771484" xlink:href="#DejaVuSans-111"/>
      <use x="440.953125" xlink:href="#DejaVuSans-110"/>
      <use x="504.332031" xlink:href="#DejaVuSans-32"/>
      <use x="536.119141" xlink:href="#DejaVuSans-82"/>
      <use x="605.570312" xlink:href="#DejaVuSans-97"/>
      <use x="666.849609" xlink:href="#DejaVuSans-116"/>
      <use x="706.058594" xlink:href="#DejaVuSans-105"/>
      <use x="733.841797" xlink:href="#DejaVuSans-111"/>
      <use x="795.023438" xlink:href="#DejaVuSans-32"/>
      <use x="826.810547" xlink:href="#DejaVuSans-61"/>
      <use x="910.599609" xlink:href="#DejaVuSans-32"/>
      <use x="942.386719" xlink:href="#DejaVuSans-45"/>
      <use x="978.470703" xlink:href="#DejaVuSans-49"/>
      <use x="1042.09375" xlink:href="#DejaVuSans-48"/>
      <use x="1105.716797" xlink:href="#DejaVuSans-46"/>
      <use x="1137.503906" xlink:href="#DejaVuSans-48"/>
     </g>
    </g>
   </g>
  </g>
 </g>
 <defs>
  <clipPath id="p04dc300b6c">
   <rect height="554.4" width="558" x="90" y="86.4"/>
  </clipPath>
 </defs>
</svg>
