  0
SECTION
  2
HEADER
  9
$ACADVER
  1
AC1015
  9
$ACADMAINTVER
 70
6
  9
$DWGCODEPAGE
  3
ANSI_1252
  9
$INSBASE
 10
0.0
 20
0.0
 30
0.0
  9
$EXTMIN
 10
-100
 20
-100
 30
-100
  9
$EXTMAX
 10
100
 20
100
 30
100
  9
$LIMMIN
 10
0.0
 20
0.0
  9
$LIMMAX
 10
420.0
 20
297.0
  9
$ORTHOMODE
 70
0
  9
$REGENMODE
 70
1
  9
$FILLMODE
 70
1
  9
$QTEXTMODE
 70
0
  9
$MIRRTEXT
 70
1
  9
$LTSCALE
 40
1.0
  9
$ATTMODE
 70
1
  9
$TEXTSIZE
 40
2.5
  9
$TRACEWID
 40
1.0
  9
$TEXTSTYLE
  7
Standard
  9
$CLAYER
  8
0
  9
$CELTYPE
  6
ByLayer
  9
$CECOLOR
 62
256
  9
$CELTSCALE
 40
1.0
  9
$DISPSILH
 70
0
  9
$DIMSCALE
 40
1.0
  9
$DIMASZ
 40
2.5
  9
$DIMEXO
 40
0.625
  9
$DIMDLI
 40
3.75
  9
$DIMRND
 40
0.0
  9
$DIMDLE
 40
0.0
  9
$DIMEXE
 40
1.25
  9
$DIMTP
 40
0.0
  9
$DIMTM
 40
0.0
  9
$DIMTXT
 40
2.5
  9
$DIMCEN
 40
2.5
  9
$DIMTSZ
 40
0.0
  9
$DIMTOL
 70
0
  9
$DIMLIM
 70
0
  9
$DIMTIH
 70
0
  9
$DIMTOH
 70
0
  9
$DIMSE1
 70
0
  9
$DIMSE2
 70
0
  9
$DIMTAD
 70
1
  9
$DIMZIN
 70
8
  9
$DIMBLK
  1

  9
$DIMASO
 70
1
  9
$DIMSHO
 70
1
  9
$DIMPOST
  1

  9
$DIMAPOST
  1

  9
$DIMALT
 70
0
  9
$DIMALTD
 70
3
  9
$DIMALTF
 40
0.03937007874
  9
$DIMLFAC
 40
1.0
  9
$DIMTOFL
 70
1
  9
$DIMTVP
 40
0.0
  9
$DIMTIX
 70
0
  9
$DIMSOXD
 70
0
  9
$DIMSAH
 70
0
  9
$DIMBLK1
  1

  9
$DIMBLK2
  1

  9
$DIMSTYLE
  2
ISO-25
  9
$DIMCLRD
 70
0
  9
$DIMCLRE
 70
0
  9
$DIMCLRT
 70
0
  9
$DIMTFAC
 40
1.0
  9
$DIMGAP
 40
0.625
  9
$DIMJUST
 70
0
  9
$DIMSD1
 70
0
  9
$DIMSD2
 70
0
  9
$DIMTOLJ
 70
0
  9
$DIMTZIN
 70
8
  9
$DIMALTZ
 70
0
  9
$DIMALTTZ
 70
0
  9
$DIMUPT
 70
0
  9
$DIMDEC
 70
2
  9
$DIMTDEC
 70
2
  9
$DIMALTU
 70
2
  9
$DIMALTTD
 70
3
  9
$DIMTXSTY
  7
Standard
  9
$DIMAUNIT
 70
0
  9
$DIMADEC
 70
0
  9
$DIMALTRND
 40
0.0
  9
$DIMAZIN
 70
0
  9
$DIMDSEP
 70
44
  9
$DIMATFIT
 70
3
  9
$DIMFRAC
 70
0
  9
$DIMLDRBLK
  1

  9
$DIMLUNIT
 70
2
  9
$DIMLWD
 70
-2
  9
$DIMLWE
 70
-2
  9
$DIMTMOVE
 70
0
  9
$LUNITS
 70
2
  9
$LUPREC
 70
4
  9
$SKETCHINC
 40
1.0
  9
$FILLETRAD
 40
10.0
  9
$AUNITS
 70
0
  9
$AUPREC
 70
2
  9
$MENU
  1
.
  9
$ELEVATION
 40
0.0
  9
$PELEVATION
 40
0.0
  9
$THICKNESS
 40
0.0
  9
$LIMCHECK
 70
0
  9
$CHAMFERA
 40
0.0
  9
$CHAMFERB
 40
0.0
  9
$CHAMFERC
 40
0.0
  9
$CHAMFERD
 40
0.0
  9
$SKPOLY
 70
0
  9
$TDCREATE
 40
2458932.5826273146
  9
$TDUCREATE
 40
2458532.153996898
  9
$TDUPDATE
 40
2458932.5826273146
  9
$TDUUPDATE
 40
2458532.1544311
  9
$TDINDWG
 40
0.0
  9
$TDUSRTIMER
 40
0.0
  9
$USRTIMER
 70
1
  9
$ANGBASE
 50
0.0
  9
$ANGDIR
 70
0
  9
$PDMODE
 70
0
  9
$PDSIZE
 40
0.0
  9
$PLINEWID
 40
0.0
  9
$SPLFRAME
 70
0
  9
$SPLINETYPE
 70
6
  9
$SPLINESEGS
 70
8
  9
$HANDSEED
  5
48
  9
$SURFTAB1
 70
6
  9
$SURFTAB2
 70
6
  9
$SURFTYPE
 70
6
  9
$SURFU
 70
6
  9
$SURFV
 70
6
  9
$UCSBASE
  2

  9
$UCSNAME
  2

  9
$UCSORG
 10
0.0
 20
0.0
 30
0.0
  9
$UCSXDIR
 10
1.0
 20
0.0
 30
0.0
  9
$UCSYDIR
 10
0.0
 20
1.0
 30
0.0
  9
$UCSORTHOREF
  2

  9
$UCSORTHOVIEW
 70
0
  9
$UCSORGTOP
 10
0.0
 20
0.0
 30
0.0
  9
$UCSORGBOTTOM
 10
0.0
 20
0.0
 30
0.0
  9
$UCSORGLEFT
 10
0.0
 20
0.0
 30
0.0
  9
$UCSORGRIGHT
 10
0.0
 20
0.0
 30
0.0
  9
$UCSORGFRONT
 10
0.0
 20
0.0
 30
0.0
  9
$UCSORGBACK
 10
0.0
 20
0.0
 30
0.0
  9
$PUCSBASE
  2

  9
$PUCSNAME
  2

  9
$PUCSORG
 10
0.0
 20
0.0
 30
0.0
  9
$PUCSXDIR
 10
1.0
 20
0.0
 30
0.0
  9
$PUCSYDIR
 10
0.0
 20
1.0
 30
0.0
  9
$PUCSORTHOREF
  2

  9
$PUCSORTHOVIEW
 70
0
  9
$PUCSORGTOP
 10
0.0
 20
0.0
 30
0.0
  9
$PUCSORGBOTTOM
 10
0.0
 20
0.0
 30
0.0
  9
$PUCSORGLEFT
 10
0.0
 20
0.0
 30
0.0
  9
$PUCSORGRIGHT
 10
0.0
 20
0.0
 30
0.0
  9
$PUCSORGFRONT
 10
0.0
 20
0.0
 30
0.0
  9
$PUCSORGBACK
 10
0.0
 20
0.0
 30
0.0
  9
$USERI1
 70
0
  9
$USERI2
 70
0
  9
$USERI3
 70
0
  9
$USERI4
 70
0
  9
$USERI5
 70
0
  9
$USERR1
 40
0.0
  9
$USERR2
 40
0.0
  9
$USERR3
 40
0.0
  9
$USERR4
 40
0.0
  9
$USERR5
 40
0.0
  9
$WORLDVIEW
 70
1
  9
$SHADEDGE
 70
3
  9
$SHADEDIF
 70
70
  9
$TILEMODE
 70
1
  9
$MAXACTVP
 70
64
  9
$PINSBASE
 10
0.0
 20
0.0
 30
0.0
  9
$PLIMCHECK
 70
0
  9
$PEXTMIN
 10
1e+20
 20
1e+20
 30
1e+20
  9
$PEXTMAX
 10
-1e+20
 20
-1e+20
 30
-1e+20
  9
$PLIMMIN
 10
0.0
 20
0.0
  9
$PLIMMAX
 10
420.0
 20
297.0
  9
$UNITMODE
 70
0
  9
$VISRETAIN
 70
1
  9
$PLINEGEN
 70
0
  9
$PSLTSCALE
 70
1
  9
$TREEDEPTH
 70
3020
  9
$CMLSTYLE
  2
Standard
  9
$CMLJUST
 70
0
  9
$CMLSCALE
 40
20.0
  9
$PROXYGRAPHICS
 70
1
  9
$MEASUREMENT
 70
1
  9
$CELWEIGHT
370
-1
  9
$ENDCAPS
280
0
  9
$JOINSTYLE
280
0
  9
$LWDISPLAY
290
0
  9
$INSUNITS
 70
6
  9
$HYPERLINKBASE
  1

  9
$STYLESHEET
  1

  9
$XEDIT
290
1
  9
$CEPSNTYPE
380
0
  9
$PSTYLEMODE
290
1
  9
$FINGERPRINTGUID
  2
0205B00E-6CC3-11EA-AB4B-080027FD4E60
  9
$VERSIONGUID
  2
020636E6-6CC3-11EA-AB4B-080027FD4E60
  9
$EXTNAMES
290
1
  9
$PSVPSCALE
 40
0.0
  9
$OLESTARTUP
290
0
  0
ENDSEC
  0
SECTION
  2
CLASSES
  0
CLASS
  1
ACDBDICTIONARYWDFLT
  2
AcDbDictionaryWithDefault
  3
ObjectDBX Classes
 90
0
280
0
281
0
  0
CLASS
  1
SUN
  2
AcDbSun
  3
SCENEOE
 90
1153
280
0
281
0
  0
CLASS
  1
VISUALSTYLE
  2
AcDbVisualStyle
  3
ObjectDBX Classes
 90
4095
280
0
281
0
  0
CLASS
  1
MATERIAL
  2
AcDbMaterial
  3
ObjectDBX Classes
 90
1153
280
0
281
0
  0
CLASS
  1
SCALE
  2
AcDbScale
  3
ObjectDBX Classes
 90
1153
280
0
281
0
  0
CLASS
  1
TABLESTYLE
  2
AcDbTableStyle
  3
ObjectDBX Classes
 90
4095
280
0
281
0
  0
CLASS
  1
MLEADERSTYLE
  2
AcDbMLeaderStyle
  3
ACDB_MLEADERSTYLE_CLASS
 90
4095
280
0
281
0
  0
CLASS
  1
DICTIONARYVAR
  2
AcDbDictionaryVar
  3
ObjectDBX Classes
 90
0
280
0
281
0
  0
CLASS
  1
CELLSTYLEMAP
  2
AcDbCellStyleMap
  3
ObjectDBX Classes
 90
1152
280
0
281
0
  0
CLASS
  1
MENTALRAYRENDERSETTINGS
  2
AcDbMentalRayRenderSettings
  3
SCENEOE
 90
1024
280
0
281
0
  0
CLASS
  1
ACDBDETAILVIEWSTYLE
  2
AcDbDetailViewStyle
  3
ObjectDBX Classes
 90
1025
280
0
281
0
  0
CLASS
  1
ACDBSECTIONVIEWSTYLE
  2
AcDbSectionViewStyle
  3
ObjectDBX Classes
 90
1025
280
0
281
0
  0
CLASS
  1
RASTERVARIABLES
  2
AcDbRasterVariables
  3
ISM
 90
0
280
0
281
0
  0
CLASS
  1
ACDBPLACEHOLDER
  2
AcDbPlaceHolder
  3
ObjectDBX Classes
 90
0
280
0
281
0
  0
CLASS
  1
LAYOUT
  2
AcDbLayout
  3
ObjectDBX Classes
 90
0
280
0
281
0
  0
ENDSEC
  0
SECTION
  2
TABLES
  0
TABLE
  2
VPORT
  5
8
330
0
100
AcDbSymbolTable
 70
1
  0
VPORT
  5
23
330
8
100
AcDbSymbolTableRecord
100
AcDbViewportTableRecord
  2
*Active
 70
0
 10
0.0
 20
0.0
 11
1.0
 21
1.0
 12
70.0
 22
50.0
 13
0.0
 23
0.0
 14
0.5
 24
0.5
 15
0.5
 25
0.5
 16
0.0
 26
0.0
 36
1.0
 17
0.0
 27
0.0
 37
0.0
 40
1.0
 41
1.34
 42
50.0
 43
0.0
 44
0.0
 50
0.0
 51
0.0
 71
0
 72
1000
 73
1
 74
3
 75
0
 76
0
 77
0
 78
0
281
0
 65
0
146
0.0
  0
ENDTAB
  0
TABLE
  2
LTYPE
  5
2
330
0
100
AcDbSymbolTable
 70
3
  0
LTYPE
  5
24
330
2
100
AcDbSymbolTableRecord
100
AcDbLinetypeTableRecord
  2
ByBlock
 70
0
  3

 72
65
 73
0
 40
0.0
  0
LTYPE
  5
25
330
2
100
AcDbSymbolTableRecord
100
AcDbLinetypeTableRecord
  2
ByLayer
 70
0
  3

 72
65
 73
0
 40
0.0
  0
LTYPE
  5
26
330
2
100
AcDbSymbolTableRecord
100
AcDbLinetypeTableRecord
  2
Continuous
 70
0
  3

 72
65
 73
0
 40
0.0
  0
ENDTAB
  0
TABLE
  2
LAYER
  5
1
330
0
100
AcDbSymbolTable
 70
2
  0
LAYER
  5
27
330
1
100
AcDbSymbolTableRecord
100
AcDbLayerTableRecord
  2
0
 70
0
 62
7
  6
Continuous
370
-3
390
13
  0
LAYER
  5
28
330
1
100
AcDbSymbolTableRecord
100
AcDbLayerTableRecord
  2
Defpoints
 70
0
 62
7
  6
Continuous
290
0
370
-3
390
13
  0
ENDTAB
  0
TABLE
  2
STYLE
  5
5
330
0
100
AcDbSymbolTable
 70
1
  0
STYLE
  5
29
330
5
100
AcDbSymbolTableRecord
100
AcDbTextStyleTableRecord
  2
Standard
 70
0
 40
0.0
 41
1.0
 50
0.0
 71
0
 42
2.5
  3
txt
  4

  0
ENDTAB
  0
TABLE
  2
VIEW
  5
7
330
0
100
AcDbSymbolTable
 70
0
  0
ENDTAB
  0
TABLE
  2
UCS
  5
6
330
0
100
AcDbSymbolTable
 70
0
  0
ENDTAB
  0
TABLE
  2
APPID
  5
3
330
0
100
AcDbSymbolTable
 70
1
  0
APPID
  5
2A
330
3
100
AcDbSymbolTableRecord
100
AcDbRegAppTableRecord
  2
ACAD
 70
0
  0
ENDTAB
  0
TABLE
  2
DIMSTYLE
  5
4
330
0
100
AcDbSymbolTable
 70
1
100
AcDbDimStyleTable
  0
DIMSTYLE
105
2B
330
4
100
AcDbSymbolTableRecord
100
AcDbDimStyleTableRecord
  2
Standard
 70
0
  3

  4

 40
1.0
 41
2.5
 42
0.625
 43
3.75
 44
1.25
 45
0.0
 46
0.0
 47
0.0
 48
0.0
140
2.5
141
2.5
142
0.0
143
0.03937007874
144
1.0
145
0.0
146
1.0
147
0.625
148
0.0
 71
0
 72
0
 73
0
 74
0
 75
0
 76
0
 77
1
 78
8
 79
0
170
0
171
3
172
1
173
0
174
0
175
0
176
0
177
0
178
0
179
0
271
0
272
2
273
2
274
3
275
0
276
0
277
2
278
44
279
0
280
0
281
0
282
0
283
0
284
8
285
0
286
0
288
0
289
3
371
-2
372
-2
  0
ENDTAB
  0
TABLE
  2
BLOCK_RECORD
  5
9
330
0
100
AcDbSymbolTable
 70
2
  0
BLOCK_RECORD
  5
17
330
9
100
AcDbSymbolTableRecord
100
AcDbBlockTableRecord
  2
*Model_Space
340
1A
  0
BLOCK_RECORD
  5
1B
330
9
100
AcDbSymbolTableRecord
100
AcDbBlockTableRecord
  2
*Paper_Space
340
1E
  0
ENDTAB
  0
ENDSEC
  0
SECTION
  2
BLOCKS
  0
BLOCK
  5
18
330
17
100
AcDbEntity
  8
0
100
AcDbBlockBegin
  2
*Model_Space
 70
0
 10
0.0
 20
0.0
 30
0.0
  3
*Model_Space
  1

  0
ENDBLK
  5
19
330
17
100
AcDbEntity
  8
0
100
AcDbBlockEnd
  0
BLOCK
  5
1C
330
1B
100
AcDbEntity
  8
0
100
AcDbBlockBegin
  2
*Paper_Space
 70
0
 10
0.0
 20
0.0
 30
0.0
  3
*Paper_Space
  1

  0
ENDBLK
  5
1D
330
1B
100
AcDbEntity
  8
0
100
AcDbBlockEnd
  0
ENDSEC
  0
SECTION
  2
ENTITIES
  0
SPLINE
  5
2D
330
17
100
AcDbEntity
  8
0
100
AcDbSpline
 70
0
 71
3
 72
0
 73
0
 74
735
 11
29.601081518627602
 21
9.439183561492053
 31
0.0
 11
29.50656161403111
 21
9.706212731557713
 31
0.0
 11
29.390977108424952
 21
9.963424770273773
 31
0.0
 11
29.255897853475208
 21
10.207921617429749
 31
0.0
 11
29.103428050517415
 21
10.436907460695371
 31
0.0
 11
28.936281003366556
 21
10.647814501268906
 31
0.0
 11
28.7577789476973
 21
10.838513974394296
 31
0.0
 11
28.571736515639227
 21
11.007577897545186
 31
0.0
 11
28.38220371863927
 21
11.154553362512322
 31
0.0
 11
28.193048356041412
 21
11.280227469403782
 31
0.0
 11
28.007332364767123
 21
11.38689785479193
 31
0.0
 11
27.82635535396798
 21
11.47873594380447
 31
0.0
 11
27.64803754908497
 21
11.562500119322992
 31
0.0
 11
27.463837034689544
 21
11.649347747562542
 31
0.0
 11
27.252408246527697
 21
11.760118859349376
 31
0.0
 11
26.96815305325738
 21
11.941829757736969
 31
0.0
 11
26.545023824806965
 21
12.310686106063908
 31
0.0
 11
26.050517676784537
 21
13.026842738743827
 31
0.0
 11
25.79892341522551
 21
13.859979570551179
 31
0.0
 11
25.774356668402497
 21
14.42077349403882
 31
0.0
 11
25.80951958146496
 21
14.756308045223841
 31
0.0
 11
25.854738932160284
 21
14.99067438664848
 31
0.0
 11
25.901685864447604
 21
15.18883675841261
 31
0.0
 11
25.947375727758644
 21
15.38047734135164
 31
0.0
 11
25.988411139083084
 21
15.57923097791888
 31
0.0
 11
26.020804900141233
 21
15.79093748414473
 31
0.0
 11
26.0404853663891
 21
16.017181625705923
 31
0.0
 11
26.043747086774648
 21
16.257002036891162
 31
0.0
 11
26.027563148206937
 21
16.5078654992959
 31
0.0
 11
25.98976250774804
 21
16.766323202816896
 31
0.0
 11
25.92908322286284
 21
17.02850241541881
 31
0.0
 11
25.845118248793884
 21
17.290478445543044
 31
0.0
 11
25.738183454227006
 21
17.548528950479444
 31
0.0
 11
25.609152745187327
 21
17.799265638902593
 31
0.0
 11
25.459313129881263
 21
18.03965424037075
 31
0.0
 11
25.459313129881266
 21
18.039654240370755
 31
0.0
 11
25.290284249847858
 21
18.266959822672504
 31
0.0
 11
25.10402026018804
 21
18.47867552108124
 31
0.0
 11
24.902875486705835
 21
18.672494749971936
 31
0.0
 11
24.689684727126412
 21
18.84636613134335
 31
0.0
 11
24.467797612772856
 21
18.998635706829038
 31
0.0
 11
24.24101624613725
 21
19.128248532873908
 31
0.0
 11
24.013406691185303
 21
19.234964450767308
 31
0.0
 11
23.78897252575705
 21
19.319544435571366
 31
0.0
 11
23.57117771189419
 21
19.383880672615017
 31
0.0
 11
23.362270912983302
 21
19.431071242675714
 31
0.0
 11
23.162264451046724
 21
19.465485312688998
 31
0.0
 11
22.967178881748698
 21
19.492967985234735
 31
0.0
 11
22.765563091571686
 21
19.52166316228027
 31
0.0
 11
22.530877132869485
 21
19.565193295040334
 31
0.0
 11
22.20569037273029
 21
19.655045598984888
 31
0.0
 11
21.692637271406124
 21
19.88279516515744
 31
0.0
 11
21.009009770890742
 21
20.421376722122126
 31
0.0
 11
20.523021744285565
 21
21.143340911649442
 31
0.0
 11
20.334249518368686
 21
21.671979158839818
 31
0.0
 11
20.268949696707974
 21
22.002971301926408
 31
0.0
 11
20.243079386685068
 21
22.24025404198433
 31
0.0
 11
20.2295312140429
 21
22.44345046678662
 31
0.0
 11
20.216704151474612
 21
22.640044319957216
 31
0.0
 11
20.19733281179932
 21
22.842063289933932
 31
0.0
 11
20.1658858207771
 21
23.053912498781866
 31
0.0
 11
20.11800530772343
 21
23.27590616718755
 31
0.0
 11
20.05043381189774
 21
23.50603343934974
 31
0.0
 11
19.96102557669749
 21
23.740981442353878
 31
0.0
 11
19.848722567154496
 21
23.976814660913174
 31
0.0
 11
19.71346041310626
 21
24.20946045351852
 31
0.0
 11
19.55600697679668
 21
24.43504851309695
 31
0.0
 11
19.3777612735269
 21
24.650114974110398
 31
0.0
 11
19.180557100529896
 21
24.851679665833082
 31
0.0
 11
18.966518654761828
 21
25.03722247427381
 31
0.0
 11
18.966518654761828
 21
25.03722247427381
 31
0.0
 11
18.737999757053487
 21
25.20460737031002
 31
0.0
 11
18.497606656227344
 21
25.352014859508778
 31
0.0
 11
18.24826896004587
 21
25.477934781085576
 31
0.0
 11
17.993300178405683
 21
25.581242465305944
 31
0.0
 11
17.73638864069531
 21
25.661344755697854
 31
0.0
 11
17.481478482732566
 21
25.7183542662716
 31
0.0
 11
17.232525912692306
 21
25.75324000128759
 31
0.0
 11
16.993132339347166
 21
25.76790920310559
 31
0.0
 11
16.766050099207824
 21
25.765191013305174
 31
0.0
 11
16.552514778515956
 21
25.748708678796113
 31
0.0
 11
16.351250317298906
 21
25.722640888665804
 31
0.0
 11
16.156731192536903
 21
25.691400102177347
 31
0.0
 11
15.95561457431186
 21
25.659393135621663
 31
0.0
 11
15.718524322402367
 21
25.631814446030383
 31
0.0
 11
15.381300266091252
 21
25.621824384016083
 31
0.0
 11
14.82391031144244
 21
25.688230619617304
 31
0.0
 11
14.011904761904766
 21
26.00138176600422
 31
0.0
 11
13.334705139140636
 21
26.54802362672433
 31
0.0
 11
12.998500674815876
 21
26.997534369463843
 31
0.0
 11
12.838540294150087
 21
27.294574000003657
 31
0.0
 11
12.743879013984474
 21
27.513689525942564
 31
0.0
 11
12.67103955100725
 21
27.703865109726507
 31
0.0
 11
12.600835303359464
 21
27.88794400653655
 31
0.0
 11
12.522778441224313
 21
28.075278037894662
 31
0.0
 11
12.430284901276888
 21
28.268446217473603
 31
0.0
 11
12.319097802626686
 21
28.466464301082766
 31
0.0
 11
12.186697114526494
 21
28.66645061619339
 31
0.0
 11
12.032008896752824
 21
28.864606998677687
 31
0.0
 11
11.855182133357268
 21
29.05686091586925
 31
0.0
 11
11.657355746121365
 21
29.2393016888558
 31
0.0
 11
11.440404276360294
 21
29.408457288817985
 31
0.0
 11
11.206685577341506
 21
29.561430107043826
 31
0.0
 11
10.958830396574228
 21
29.695912894654395
 31
0.0
 11
10.69961137554289
 21
29.81012361729654
 31
0.0
 11
10.699611375542888
 21
29.810123617296544
 31
0.0
 11
10.431907367059672
 21
29.902714944497873
 31
0.0
 11
10.158745137023347
 21
29.97271642218423
 31
0.0
 11
9.883369266648787
 21
30.01954849882456
 31
0.0
 11
9.60927755810864
 21
30.0431131447926
 31
0.0
 11
9.34016931460473
 21
30.0439307100663
 31
0.0
 11
9.079780251504634
 21
30.023271359972323
 31
0.0
 11
8.831605194734502
 21
29.983227161461212
 31
0.0
 11
8.598523383025585
 21
29.926682157336877
 31
0.0
 11
8.382330970180133
 21
29.857151063784745
 31
0.0
 11
8.183140678035077
 21
29.778460352458602
 31
0.0
 11
7.998501448151231
 21
29.69422693973439
 31
0.0
 11
7.82183264579348
 21
29.607038575189165
 31
0.0
 11
7.639085293635441
 21
29.517173424470993
 31
0.0
 11
7.420657257854245
 21
29.42093640012564
 31
0.0
 11
7.1013597426578485
 21
29.311991633003124
 31
0.0
 11
6.549159478220465
 21
29.21115405258088
 31
0.0
 11
5.680926136164582
 21
29.27104993479237
 31
0.0
 11
4.872687075565692
 21
29.593797938482005
 31
0.0
 11
4.418923614897294
 21
29.924240174632846
 31
0.0
 11
4.178515857023155
 21
30.160934017915473
 31
0.0
 11
4.023474676871728
 21
30.342412953683045
 31
0.0
 11
3.8978160294956954
 21
30.50266976125764
 31
0.0
 11
3.776472552258187
 21
30.65787748390862
 31
0.0
 11
3.646665862410777
 21
30.813881125860103
 31
0.0
 11
3.5013442304636984
 21
30.971204435709872
 31
0.0
 11
3.3367300078685718
 21
31.127652158805788
 31
0.0
 11
3.151264509662428
 21
31.279727855141783
 31
0.0
 11
2.9450410363025936
 21
31.423485552927545
 31
0.0
 11
2.7194023529736393
 21
31.555077564516495
 31
0.0
 11
2.4765894752027835
 21
31.671102654576245
 31
0.0
 11
2.219417062154335
 21
31.76879557753842
 31
0.0
 11
1.9509922994519808
 21
31.846082446767124
 31
0.0
 11
1.6745091314201428
 21
31.901533944418397
 31
0.0
 11
1.3931422827081104
 21
31.9342644573497
 31
0.0
 11
1.3931422827081077
 21
31.9342644573497
 31
0.0
 11
1.1100398394034388
 21
31.94383506996397
 31
0.0
 11
0.8283801430483635
 21
31.93021059764907
 31
0.0
 11
0.5514344530306019
 21
31.893793593824252
 31
0.0
 11
0.28257406872593727
 21
31.835521379333954
 31
0.0
 11
0.02518056782588185
 21
31.756981575227048
 31
0.0
 11
-0.21755068945653666
 21
31.66048903838327
 31
0.0
 11
-0.44289679006421556
 21
31.549073009113833
 31
0.0
 11
-0.6489564983038898
 21
31.426338070807283
 31
0.0
 11
-0.8350494392293548
 21
31.29617221629772
 31
0.0
 11
-1.0021957712383118
 21
31.16226514318431
 31
0.0
 11
-1.1538037639378596
 21
31.027350616238984
 31
0.0
 11
-1.296924445503603
 21
30.89196174244668
 31
0.0
 11
-1.4450646273818526
 21
30.752223320574046
 31
0.0
 11
-1.625422157499945
 21
30.59587904341693
 31
0.0
 11
-1.8984221461423547
 21
30.397659791841267
 31
0.0
 11
-2.3963673035821027
 21
30.13853825693451
 31
0.0
 11
-3.2436820955352634
 21
29.939856862987337
 31
0.0
 11
-4.11114500653601
 21
30.010033433162388
 31
0.0
 11
-4.642148588759509
 21
30.19204591992068
 31
0.0
 11
-4.9416424395428145
 21
30.34736268925664
 31
0.0
 11
-5.143287430436583
 21
30.475079835002738
 31
0.0
 11
-5.310599939948176
 21
30.59117834573956
 31
0.0
 11
-5.472300746315776
 21
30.703724006956065
 31
0.0
 11
-5.642323369835221
 21
30.814535651302826
 31
0.0
 11
-5.827560629049982
 21
30.922035224941293
 31
0.0
 11
-6.030975279514838
 21
31.02301152076737
 31
0.0
 11
-6.253026164409383
 21
31.113664005336084
 31
0.0
 11
-6.492461032750554
 21
31.190249516104775
 31
0.0
 11
-6.746862648800077
 21
31.249487094379397
 31
0.0
 11
-7.013087027349185
 21
31.28878716309282
 31
0.0
 11
-7.28762948620311
 21
31.306336964131468
 31
0.0
 11
-7.566909594460256
 21
31.30107060686423
 31
0.0
 11
-7.847454006950628
 21
31.272563705644995
 31
0.0
 11
-8.125968004077214
 21
31.220905759156018
 31
0.0
 11
-8.125968004077208
 21
31.220905759156018
 31
0.0
 11
-8.399313987741102
 21
31.14660526625251
 31
0.0
 11
-8.664444450350558
 21
31.050565438091542
 31
0.0
 11
-8.918352120097303
 21
30.934135164404807
 31
0.0
 11
-9.158091755146655
 21
30.799203831437033
 31
0.0
 11
-9.380899971335108
 21
30.648285264210674
 31
0.0
 11
-9.58440568538173
 21
30.484533325966186
 31
0.0
 11
-9.766899839872892
 21
30.311645269080202
 31
0.0
 11
-9.927628135288092
 21
30.133625934473383
 31
0.0
 11
-10.067086429836921
 21
29.954391126403003
 31
0.0
 11
-10.187337116601187
 21
29.77716592258997
 31
0.0
 11
-10.292442836644364
 21
29.603558029205274
 31
0.0
 11
-10.38929849678622
 21
29.431998541746616
 31
0.0
 11
-10.489668603122315
 21
29.25480322073487
 31
0.0
 11
-10.615930069540326
 21
29.05224356589696
 31
0.0
 11
-10.818375284597156
 21
28.78236248024151
 31
0.0
 11
-11.217820722604415
 21
28.38798107636283
 31
0.0
 11
-11.968929326810095
 21
27.948376120008135
 31
0.0
 11
-12.818538201771998
 21
27.759745760443735
 31
0.0
 11
-13.379599906999204
 21
27.77715588961237
 31
0.0
 11
-13.71156850774246
 21
27.83729500844975
 31
0.0
 11
-13.941900267033194
 21
27.899902135297364
 31
0.0
 11
-14.136000187971383
 21
27.961526487027527
 31
0.0
 11
-14.323690497211016
 21
28.021409910911977
 31
0.0
 11
-14.518821798170801
 21
28.07718345676491
 31
0.0
 11
-14.72751554127169
 21
28.12530748532019
 31
0.0
 11
-14.95165633524198
 21
28.161840166865105
 31
0.0
 11
-15.190562411247788
 21
28.183014568590725
 31
0.0
 11
-15.441933835775572
 21
28.18562293362058
 31
0.0
 11
-15.702493684536556
 21
28.167242559791344
 31
0.0
 11
-15.968474359523386
 21
28.12632562358774
 31
0.0
 11
-16.23599256190388
 21
28.06217292586454
 31
0.0
 11
-16.501312752496602
 21
27.974821281055583
 31
0.0
 11
-16.760990807246863
 21
27.86488894423964
 31
0.0
 11
-17.01190476190476
 21
27.733432573573097
 31
0.0
 11
-17.01190476190477
 21
27.733432573573094
 31
0.0
 11
-17.25120629572026
 21
27.581862900008623
 31
0.0
 11
-17.476249519475374
 21
27.411941276197535
 31
0.0
 11
-17.68455835823865
 21
27.225843073411784
 31
0.0
 11
-17.873875325378492
 21
27.02624186303713
 31
0.0
 11
-18.042300769069247
 21
26.816354309684602
 31
0.0
 11
-18.188498564116912
 21
26.59989304836597
 31
0.0
 11
-18.311925366002612
 21
26.380894826424505
 31
0.0
 11
-18.41304083420119
 21
26.163408894622208
 31
0.0
 11
-18.493473000900078
 21
25.951030932247065
 31
0.0
 11
-18.556143241189197
 21
25.746234834833196
 31
0.0
 11
-18.60540758410131
 21
25.549359398202046
 31
0.0
 11
-18.64739217237161
 21
25.356873110414153
 31
0.0
 11
-18.691073878750636
 21
25.157965472144046
 31
0.0
 11
-18.752020396088007
 21
24.92718875387609
 31
0.0
 11
-18.86592269178526
 21
24.609625952954975
 31
0.0
 11
-19.131375930255654
 21
24.115027198553275
 31
0.0
 11
-19.719539051044364
 21
23.47355950933775
 31
0.0
 11
-20.47580241297992
 21
23.042882855271905
 31
0.0
 11
-21.017069446522655
 21
22.89414366047115
 31
0.0
 11
-21.352015930229616
 21
22.853761504185066
 31
0.0
 11
-21.590568470310053
 21
22.84569569416694
 31
0.0
 11
-21.79420917290601
 21
22.847370292805206
 31
0.0
 11
-21.99121187737638
 21
22.849270574351383
 31
0.0
 11
-22.19411358336662
 21
22.845050297403287
 31
0.0
 11
-22.407720455441712
 21
22.82952274974942
 31
0.0
 11
-22.632671499747506
 21
22.798365727936872
 31
0.0
 11
-22.86720491358941
 21
22.748180608303752
 31
0.0
 11
-23.108177440109188
 21
22.676580062915235
 31
0.0
 11
-23.35174363557116
 21
22.582214913857815
 31
0.0
 11
-23.593847056786164
 21
22.46471662207989
 31
0.0
 11
-23.830570836427427
 21
22.32456167431703
 31
0.0
 11
-24.058356246083086
 21
22.162886318944008
 31
0.0
 11
-24.274094408350297
 21
21.981296517087575
 31
0.0
 11
-24.475113514550397
 21
21.78172219766396
 31
0.0
 11
-24.475113514550394
 21
21.781722197663967
 31
0.0
 11
-24.659107607080486
 21
21.566350974087293
 31
0.0
 11
-24.824067513964703
 21
21.337645836590465
 31
0.0
 11
-24.968268367272106
 21
21.09841534670172
 31
0.0
 11
-25.090341023168236
 21
20.851879702397458
 31
0.0
 11
-25.189418354566484
 21
20.60167259311049
 31
0.0
 11
-25.265317914946753
 21
20.35173554171048
 31
0.0
 11
-25.318710351229846
 21
20.106086107790894
 31
0.0
 11
-25.351228439124437
 21
19.86845815825505
 31
0.0
 11
-25.365487726991432
 21
19.641807755537513
 31
0.0
 11
-25.3650089949319
 21
19.427637796510894
 31
0.0
 11
-25.354054607652206
 21
19.2249880631516
 31
0.0
 11
-25.337437609136803
 21
19.02867822641658
 31
0.0
 11
-25.320549604252967
 21
18.8257320874402
 31
0.0
 11
-25.310765806984886
 21
18.587243829907266
 31
0.0
 11
-25.326004464497874
 21
18.25021616218372
 31
0.0
 11
-25.43387881827096
 21
17.69934732709848
 31
0.0
 11
-25.806835581249274
 21
16.913014124243507
 31
0.0
 11
-26.40255611164341
 21
16.278558686383327
 31
0.0
 11
-26.875934522260145
 21
15.97688629780244
 31
0.0
 11
-27.18409742396502
 21
15.839570998193086
 31
0.0
 11
-27.409674304778434
 21
15.761548933925557
 31
0.0
 11
-27.60476141894401
 21
15.703124984034059
 31
0.0
 11
-27.79357196382079
 21
15.646873274887337
 31
0.0
 11
-27.98621536784478
 21
15.583034165265431
 31
0.0
 11
-28.185755460911885
 21
15.505234732152985
 31
0.0
 11
-28.391528868085214
 21
15.40915644510136
 31
0.0
 11
-28.600850296710433
 21
15.29207097222267
 31
0.0
 11
-28.810012458750403
 21
15.152623539087376
 31
0.0
 11
-29.014943075573925
 21
14.990658372410149
 31
0.0
 11
-29.211657291588786
 21
14.807018963915137
 31
0.0
 11
-29.39655270182449
 21
14.603315148281203
 31
0.0
 11
-29.566563597275376
 21
14.381681647169621
 31
0.0
 11
-29.719192584590772
 21
14.14456943106136
 31
0.0
 11
-29.852455412589375
 21
13.894610216978943
 31
0.0
 11
-29.85245541258937
 21
13.894610216978949
 31
0.0
 11
-29.964793381268
 21
13.63457412174591
 31
0.0
 11
-30.05501255964002
 21
13.367406925685895
 31
0.0
 11
-30.12229254886017
 21
13.096300827566495
 31
0.0
 11
-30.166274202329195
 21
12.824736523232904
 31
0.0
 11
-30.18719996574649
 21
12.55644185768746
 31
0.0
 11
-30.186057282439844
 21
12.295237020053637
 31
0.0
 11
-30.164671200847728
 21
12.04476340437448
 31
0.0
 11
-30.12570253362562
 21
11.808107723234425
 31
0.0
 11
-30.072521942357888
 21
11.58732376309486
 31
0.0
 11
-30.008936775394076
 21
11.382809883184395
 31
0.0
 11
-29.938737003304908
 21
11.19239217121963
 31
0.0
 11
-29.86499491124439
 21
11.009701776022919
 31
0.0
 11
-29.789037768443414
 21
10.82074979140279
 31
0.0
 11
-29.70939298989264
 21
10.595740722875146
 31
0.0
 11
-29.624613987627583
 21
10.269194575647967
 31
0.0
 11
-29.565324346971813
 21
9.711002773324573
 31
0.0
 11
-29.689935907055318
 21
8.849673212670249
 31
0.0
 11
-30.07218122250603
 21
8.067813140931442
 31
0.0
 11
-30.435609261026535
 21
7.640012474163303
 31
0.0
 11
-30.689606954562215
 21
7.417965098199238
 31
0.0
 11
-30.882164680320503
 21
7.276919382486659
 31
0.0
 11
-31.05136385983638
 21
7.163588108402539
 31
0.0
 11
-31.21520559962584
 21
7.054182619777171
 31
0.0
 11
-31.380473489834394
 21
6.936397062524674
 31
0.0
 11
-31.548216790957227
 21
6.8032385650028795
 31
0.0
 11
-31.716528690749016
 21
6.650775990149331
 31
0.0
 11
-31.88203900663224
 21
6.477193722111475
 31
0.0
 11
-32.040805828202124
 21
6.282289917618456
 31
0.0
 11
-32.188891881759226
 21
6.06711604915313
 31
0.0
 11
-32.322737971214906
 21
5.833652691274079
 31
0.0
 11
-32.43937624344547
 21
5.584499985727613
 31
0.0
 11
-32.53650641055024
 21
5.322601448073833
 31
0.0
 11
-32.61246446758956
 21
5.051035278664788
 31
0.0
 11
-32.66613003030471
 21
4.772901143022734
 31
0.0
 11
-32.666130030304714
 21
4.772901143022724
 31
0.0
 11
-32.696830153627715
 21
4.491305524344382
 31
0.0
 11
-32.70429223356885
 21
4.209415247535045
 31
0.0
 11
-32.68867323640616
 21
3.930522507732406
 31
0.0
 11
-32.65065592452705
 21
3.658059223549854
 31
0.0
 11
-32.59157077405257
 21
3.3955161601713932
 31
0.0
 11
-32.51348737948538
 21
3.1462527324060767
 31
0.0
 11
-32.41922302721879
 21
2.913210614905794
 31
0.0
 11
-32.312230141973856
 21
2.698555097977172
 31
0.0
 11
-32.19633500048471
 21
2.5032552041684295
 31
0.0
 11
-32.07529321974026
 21
2.3265693590985412
 31
0.0
 11
-31.952085620658362
 21
2.165303117870744
 31
0.0
 11
-31.827770743544153
 21
2.0124650075491664
 31
0.0
 11
-31.69949358829633
 21
1.8542963903209038
 31
0.0
 11
-31.55706461655245
 21
1.6627595539732694
 31
0.0
 11
-31.37980094090713
 21
1.3757099854477595
 31
0.0
 11
-31.15861545058307
 21
0.8597930071070232
 31
0.0
 11
-31.023809523809526
 21
-4.440892098500626e-15
 31
0.0
 11
-31.15861545058307
 21
-0.859793007107033
 31
0.0
 11
-31.37980094090712
 21
-1.375709985447771
 31
0.0
 11
-31.55706461655245
 21
-1.6627595539732791
 31
0.0
 11
-31.69949358829632
 21
-1.854296390320914
 31
0.0
 11
-31.827770743544146
 21
-2.012465007549178
 31
0.0
 11
-31.952085620658362
 21
-2.165303117870753
 31
0.0
 11
-32.07529321974026
 21
-2.32656935909855
 31
0.0
 11
-32.19633500048471
 21
-2.5032552041684406
 31
0.0
 11
-32.312230141973856
 21
-2.6985550979771844
 31
0.0
 11
-32.41922302721879
 21
-2.913210614905804
 31
0.0
 11
-32.51348737948538
 21
-3.1462527324060874
 31
0.0
 11
-32.59157077405257
 21
-3.395516160171404
 31
0.0
 11
-32.650655924527044
 21
-3.6580592235498672
 31
0.0
 11
-32.68867323640616
 21
-3.9305225077324186
 31
0.0
 11
-32.704292233568836
 21
-4.2094152475350555
 31
0.0
 11
-32.6968301536277
 21
-4.491305524344391
 31
0.0
 11
-32.666130030304714
 21
-4.772901143022733
 31
0.0
 11
-32.666130030304714
 21
-4.772901143022731
 31
0.0
 11
-32.612464467589575
 21
-5.051035278664785
 31
0.0
 11
-32.536506410550246
 21
-5.322601448073832
 31
0.0
 11
-32.43937624344548
 21
-5.584499985727614
 31
0.0
 11
-32.322737971214906
 21
-5.83365269127408
 31
0.0
 11
-32.18889188175922
 21
-6.0671160491531255
 31
0.0
 11
-32.040805828202124
 21
-6.282289917618453
 31
0.0
 11
-31.882039006632244
 21
-6.477193722111473
 31
0.0
 11
-31.71652869074902
 21
-6.65077599014933
 31
0.0
 11
-31.54821679095723
 21
-6.803238565002879
 31
0.0
 11
-31.380473489834394
 21
-6.936397062524669
 31
0.0
 11
-31.21520559962584
 21
-7.054182619777167
 31
0.0
 11
-31.05136385983639
 21
-7.16358810840254
 31
0.0
 11
-30.88216468032051
 21
-7.276919382486659
 31
0.0
 11
-30.68960695456222
 21
-7.417965098199234
 31
0.0
 11
-30.435609261026542
 21
-7.640012474163302
 31
0.0
 11
-30.07218122250603
 21
-8.067813140931438
 31
0.0
 11
-29.68993590705532
 21
-8.849673212670243
 31
0.0
 11
-29.565324346971813
 21
-9.711002773324571
 31
0.0
 11
-29.62461398762758
 21
-10.269194575647964
 31
0.0
 11
-29.70939298989264
 21
-10.595740722875142
 31
0.0
 11
-29.789037768443404
 21
-10.820749791402783
 31
0.0
 11
-29.864994911244384
 21
-11.009701776022915
 31
0.0
 11
-29.938737003304905
 21
-11.192392171219627
 31
0.0
 11
-30.008936775394076
 21
-11.38280988318439
 31
0.0
 11
-30.072521942357888
 21
-11.587323763094858
 31
0.0
 11
-30.125702533625624
 21
-11.808107723234421
 31
0.0
 11
-30.16467120084773
 21
-12.044763404374478
 31
0.0
 11
-30.186057282439847
 21
-12.295237020053637
 31
0.0
 11
-30.187199965746498
 21
-12.556441857687458
 31
0.0
 11
-30.16627420232919
 21
-12.824736523232902
 31
0.0
 11
-30.122292548860166
 21
-13.096300827566491
 31
0.0
 11
-30.055012559640016
 21
-13.367406925685891
 31
0.0
 11
-29.964793381267988
 21
-13.634574121745901
 31
0.0
 11
-29.852455412589375
 21
-13.894610216978943
 31
0.0
 11
-29.852455412589375
 21
-13.894610216978942
 31
0.0
 11
-29.71919258459078
 21
-14.144569431061363
 31
0.0
 11
-29.56656359727538
 21
-14.381681647169621
 31
0.0
 11
-29.396552701824497
 21
-14.603315148281204
 31
0.0
 11
-29.211657291588786
 21
-14.80701896391514
 31
0.0
 11
-29.014943075573925
 21
-14.990658372410149
 31
0.0
 11
-28.8100124587504
 21
-15.152623539087372
 31
0.0
 11
-28.600850296710437
 21
-15.292070972222666
 31
0.0
 11
-28.391528868085214
 21
-15.40915644510136
 31
0.0
 11
-28.18575546091189
 21
-15.505234732152987
 31
0.0
 11
-27.986215367844775
 21
-15.583034165265428
 31
0.0
 11
-27.79357196382079
 21
-15.646873274887337
 31
0.0
 11
-27.604761418944015
 21
-15.703124984034064
 31
0.0
 11
-27.40967430477844
 21
-15.761548933925557
 31
0.0
 11
-27.184097423965024
 21
-15.839570998193086
 31
0.0
 11
-26.875934522260156
 21
-15.976886297802444
 31
0.0
 11
-26.402556111643413
 21
-16.278558686383327
 31
0.0
 11
-25.806835581249274
 21
-16.913014124243507
 31
0.0
 11
-25.43387881827096
 21
-17.699347327098476
 31
0.0
 11
-25.32600446449787
 21
-18.250216162183712
 31
0.0
 11
-25.310765806984886
 21
-18.587243829907262
 31
0.0
 11
-25.32054960425296
 21
-18.825732087440194
 31
0.0
 11
-25.337437609136792
 21
-19.02867822641657
 31
0.0
 11
-25.354054607652206
 21
-19.224988063151596
 31
0.0
 11
-25.365008994931905
 21
-19.427637796510894
 31
0.0
 11
-25.365487726991432
 21
-19.64180775553751
 31
0.0
 11
-25.351228439124437
 21
-19.868458158255045
 31
0.0
 11
-25.318710351229846
 21
-20.106086107790894
 31
0.0
 11
-25.265317914946756
 21
-20.351735541710475
 31
0.0
 11
-25.189418354566488
 21
-20.60167259311049
 31
0.0
 11
-25.090341023168232
 21
-20.851879702397454
 31
0.0
 11
-24.968268367272103
 21
-21.09841534670172
 31
0.0
 11
-24.824067513964696
 21
-21.337645836590458
 31
0.0
 11
-24.65910760708048
 21
-21.566350974087285
 31
0.0
 11
-24.47511351455039
 21
-21.78172219766396
 31
0.0
 11
-24.47511351455039
 21
-21.78172219766397
 31
0.0
 11
-24.274094408350297
 21
-21.98129651708759
 31
0.0
 11
-24.05835624608308
 21
-22.162886318944018
 31
0.0
 11
-23.83057083642742
 21
-22.32456167431704
 31
0.0
 11
-23.593847056786156
 21
-22.464716622079905
 31
0.0
 11
-23.35174363557115
 21
-22.58221491385782
 31
0.0
 11
-23.108177440109177
 21
-22.676580062915242
 31
0.0
 11
-22.8672049135894
 21
-22.74818060830376
 31
0.0
 11
-22.632671499747495
 21
-22.798365727936883
 31
0.0
 11
-22.4077204554417
 21
-22.82952274974943
 31
0.0
 11
-22.194113583366608
 21
-22.84505029740329
 31
0.0
 11
-21.991211877376372
 21
-22.84927057435139
 31
0.0
 11
-21.794209172906008
 21
-22.84737029280522
 31
0.0
 11
-21.59056847031005
 21
-22.845695694166952
 31
0.0
 11
-21.352015930229605
 21
-22.85376150418507
 31
0.0
 11
-21.017069446522648
 21
-22.894143660471162
 31
0.0
 11
-20.47580241297991
 21
-23.04288285527191
 31
0.0
 11
-19.719539051044354
 21
-23.473559509337754
 31
0.0
 11
-19.131375930255643
 21
-24.11502719855328
 31
0.0
 11
-18.865922691785244
 21
-24.60962595295497
 31
0.0
 11
-18.752020396087996
 21
-24.927188753876095
 31
0.0
 11
-18.69107387875062
 21
-25.15796547214404
 31
0.0
 11
-18.647392172371593
 21
-25.35687311041415
 31
0.0
 11
-18.605407584101304
 21
-25.54935939820205
 31
0.0
 11
-18.556143241189186
 21
-25.7462348348332
 31
0.0
 11
-18.493473000900064
 21
-25.95103093224707
 31
0.0
 11
-18.413040834201183
 21
-26.16340889462221
 31
0.0
 11
-18.311925366002598
 21
-26.38089482642451
 31
0.0
 11
-18.188498564116905
 21
-26.599893048365978
 31
0.0
 11
-18.042300769069236
 21
-26.816354309684606
 31
0.0
 11
-17.873875325378474
 21
-27.02624186303713
 31
0.0
 11
-17.684558358238633
 21
-27.225843073411784
 31
0.0
 11
-17.47624951947536
 21
-27.411941276197535
 31
0.0
 11
-17.25120629572024
 21
-27.581862900008616
 31
0.0
 11
-17.01190476190476
 21
-27.733432573573097
 31
0.0
 11
-17.01190476190475
 21
-27.7334325735731
 31
0.0
 11
-16.760990807246856
 21
-27.86488894423966
 31
0.0
 11
-16.501312752496595
 21
-27.974821281055593
 31
0.0
 11
-16.23599256190387
 21
-28.062172925864548
 31
0.0
 11
-15.968474359523375
 21
-28.126325623587746
 31
0.0
 11
-15.702493684536545
 21
-28.167242559791344
 31
0.0
 11
-15.44193383577556
 21
-28.18562293362058
 31
0.0
 11
-15.190562411247777
 21
-28.18301456859073
 31
0.0
 11
-14.951656335241967
 21
-28.161840166865108
 31
0.0
 11
-14.727515541271679
 21
-28.125307485320196
 31
0.0
 11
-14.51882179817079
 21
-28.077183456764914
 31
0.0
 11
-14.323690497211008
 21
-28.02140991091198
 31
0.0
 11
-14.136000187971376
 21
-27.96152648702754
 31
0.0
 11
-13.941900267033185
 21
-27.899902135297374
 31
0.0
 11
-13.71156850774245
 21
-27.83729500844975
 31
0.0
 11
-13.379599906999193
 21
-27.777155889612384
 31
0.0
 11
-12.818538201771986
 21
-27.759745760443742
 31
0.0
 11
-11.968929326810088
 21
-27.948376120008135
 31
0.0
 11
-11.217820722604404
 21
-28.38798107636283
 31
0.0
 11
-10.81837528459714
 21
-28.782362480241506
 31
0.0
 11
-10.615930069540315
 21
-29.052243565896962
 31
0.0
 11
-10.4896686031223
 21
-29.254803220734864
 31
0.0
 11
-10.389298496786203
 21
-29.43199854174661
 31
0.0
 11
-10.292442836644351
 21
-29.603558029205274
 31
0.0
 11
-10.187337116601176
 21
-29.777165922589973
 31
0.0
 11
-10.067086429836907
 21
-29.954391126403003
 31
0.0
 11
-9.927628135288078
 21
-30.133625934473386
 31
0.0
 11
-9.76689983987288
 21
-30.31164526908021
 31
0.0
 11
-9.584405685381718
 21
-30.48453332596619
 31
0.0
 11
-9.380899971335097
 21
-30.648285264210678
 31
0.0
 11
-9.15809175514664
 21
-30.799203831437033
 31
0.0
 11
-8.918352120097289
 21
-30.934135164404804
 31
0.0
 11
-8.664444450350544
 21
-31.05056543809154
 31
0.0
 11
-8.399313987741088
 21
-31.146605266252497
 31
0.0
 11
-8.125968004077198
 21
-31.220905759156018
 31
0.0
 11
-8.125968004077217
 21
-31.220905759156018
 31
0.0
 11
-7.847454006950634
 21
-31.27256370564501
 31
0.0
 11
-7.56690959446026
 21
-31.30107060686424
 31
0.0
 11
-7.287629486203111
 21
-31.306336964131475
 31
0.0
 11
-7.013087027349186
 21
-31.288787163092827
 31
0.0
 11
-6.746862648800079
 21
-31.2494870943794
 31
0.0
 11
-6.4924610327505565
 21
-31.190249516104775
 31
0.0
 11
-6.253026164409386
 21
-31.113664005336084
 31
0.0
 11
-6.0309752795148395
 21
-31.023011520767373
 31
0.0
 11
-5.827560629049984
 21
-30.922035224941297
 31
0.0
 11
-5.642323369835226
 21
-30.81453565130283
 31
0.0
 11
-5.472300746315781
 21
-30.703724006956072
 31
0.0
 11
-5.310599939948178
 21
-30.59117834573957
 31
0.0
 11
-5.143287430436588
 21
-30.475079835002745
 31
0.0
 11
-4.941642439542819
 21
-30.34736268925664
 31
0.0
 11
-4.642148588759512
 21
-30.19204591992069
 31
0.0
 11
-4.111145006536012
 21
-30.01003343316239
 31
0.0
 11
-3.2436820955352674
 21
-29.93985686298734
 31
0.0
 11
-2.396367303582105
 21
-30.13853825693451
 31
0.0
 11
-1.898422146142356
 21
-30.39765979184126
 31
0.0
 11
-1.6254221574999486
 21
-30.595879043416932
 31
0.0
 11
-1.4450646273818553
 21
-30.75222332057404
 31
0.0
 11
-1.2969244455036035
 21
-30.891961742446668
 31
0.0
 11
-1.153803763937863
 21
-31.027350616238987
 31
0.0
 11
-1.0021957712383154
 21
-31.16226514318431
 31
0.0
 11
-0.8350494392293557
 21
-31.296172216297716
 31
0.0
 11
-0.6489564983038916
 21
-31.426338070807287
 31
0.0
 11
-0.44289679006421867
 21
-31.549073009113833
 31
0.0
 11
-0.2175506894565391
 21
-31.66048903838328
 31
0.0
 11
0.025180567825879407
 21
-31.75698157522705
 31
0.0
 11
0.28257406872593727
 21
-31.83552137933395
 31
0.0
 11
0.5514344530306019
 21
-31.893793593824252
 31
0.0
 11
0.8283801430483608
 21
-31.930210597649065
 31
0.0
 11
1.110039839403436
 21
-31.943835069963956
 31
0.0
 11
1.3931422827081041
 21
-31.934264457349702
 31
0.0
 11
1.393142282708114
 21
-31.9342644573497
 31
0.0
 11
1.6745091314201472
 21
-31.901533944418407
 31
0.0
 11
1.950992299451988
 21
-31.84608244676713
 31
0.0
 11
2.219417062154342
 21
-31.768795577538423
 31
0.0
 11
2.4765894752027915
 21
-31.67110265457625
 31
0.0
 11
2.7194023529736446
 21
-31.55507756451649
 31
0.0
 11
2.945041036302599
 21
-31.42348555292754
 31
0.0
 11
3.1512645096624325
 21
-31.279727855141786
 31
0.0
 11
3.336730007868578
 21
-31.127652158805788
 31
0.0
 11
3.5013442304637055
 21
-30.971204435709872
 31
0.0
 11
3.6466658624107815
 21
-30.813881125860103
 31
0.0
 11
3.7764725522581903
 21
-30.65787748390862
 31
0.0
 11
3.8978160294957025
 21
-30.50266976125765
 31
0.0
 11
4.023474676871734
 21
-30.342412953683052
 31
0.0
 11
4.178515857023157
 21
-30.160934017915473
 31
0.0
 11
4.418923614897301
 21
-29.924240174632853
 31
0.0
 11
4.872687075565697
 21
-29.593797938482005
 31
0.0
 11
5.680926136164585
 21
-29.27104993479237
 31
0.0
 11
6.549159478220469
 21
-29.211154052580877
 31
0.0
 11
7.101359742657852
 21
-29.311991633003114
 31
0.0
 11
7.420657257854247
 21
-29.42093640012564
 31
0.0
 11
7.639085293635441
 21
-29.517173424470982
 31
0.0
 11
7.821832645793485
 21
-29.607038575189154
 31
0.0
 11
7.998501448151233
 21
-29.69422693973438
 31
0.0
 11
8.183140678035079
 21
-29.7784603524586
 31
0.0
 11
8.382330970180139
 21
-29.85715106378474
 31
0.0
 11
8.598523383025592
 21
-29.926682157336877
 31
0.0
 11
8.831605194734507
 21
-29.98322716146121
 31
0.0
 11
9.079780251504639
 21
-30.023271359972327
 31
0.0
 11
9.340169314604733
 21
-30.043930710066295
 31
0.0
 11
9.609277558108648
 21
-30.043113144792592
 31
0.0
 11
9.883369266648794
 21
-30.019548498824555
 31
0.0
 11
10.158745137023349
 21
-29.972716422184224
 31
0.0
 11
10.43190736705967
 21
-29.90271494449786
 31
0.0
 11
10.69961137554289
 21
-29.81012361729654
 31
0.0
 11
10.6996113755429
 21
-29.81012361729654
 31
0.0
 11
10.95883039657424
 21
-29.695912894654402
 31
0.0
 11
11.20668557734152
 21
-29.561430107043826
 31
0.0
 11
11.440404276360308
 21
-29.40845728881798
 31
0.0
 11
11.657355746121379
 21
-29.2393016888558
 31
0.0
 11
11.855182133357276
 21
-29.056860915869247
 31
0.0
 11
12.032008896752833
 21
-28.864606998677676
 31
0.0
 11
12.186697114526503
 21
-28.666450616193387
 31
0.0
 11
12.319097802626697
 21
-28.46646430108276
 31
0.0
 11
12.430284901276902
 21
-28.268446217473603
 31
0.0
 11
12.52277844122432
 21
-28.07527803789466
 31
0.0
 11
12.600835303359474
 21
-27.88794400653655
 31
0.0
 11
12.671039551007265
 21
-27.70386510972651
 31
0.0
 11
12.743879013984484
 21
-27.513689525942567
 31
0.0
 11
12.838540294150096
 21
-27.294574000003653
 31
0.0
 11
12.99850067481589
 21
-26.997534369463846
 31
0.0
 11
13.334705139140647
 21
-26.548023626724326
 31
0.0
 11
14.011904761904773
 21
-26.00138176600421
 31
0.0
 11
14.823910311442447
 21
-25.688230619617293
 31
0.0
 11
15.381300266091255
 21
-25.621824384016072
 31
0.0
 11
15.718524322402374
 21
-25.631814446030376
 31
0.0
 11
15.955614574311863
 21
-25.65939313562165
 31
0.0
 11
16.15673119253691
 21
-25.69140010217733
 31
0.0
 11
16.35125031729891
 21
-25.722640888665797
 31
0.0
 11
16.552514778515963
 21
-25.74870867879611
 31
0.0
 11
16.76605009920783
 21
-25.765191013305163
 31
0.0
 11
16.993132339347177
 21
-25.76790920310558
 31
0.0
 11
17.232525912692317
 21
-25.753240001287583
 31
0.0
 11
17.481478482732577
 21
-25.718354266271596
 31
0.0
 11
17.73638864069532
 21
-25.661344755697847
 31
0.0
 11
17.993300178405693
 21
-25.581242465305934
 31
0.0
 11
18.248268960045877
 21
-25.477934781085565
 31
0.0
 11
18.497606656227347
 21
-25.352014859508767
 31
0.0
 11
18.73799975705349
 21
-25.20460737031
 31
0.0
 11
18.96651865476183
 21
-25.037222474273804
 31
0.0
 11
18.96651865476182
 21
-25.037222474273815
 31
0.0
 11
19.180557100529896
 21
-24.85167966583309
 31
0.0
 11
19.377761273526897
 21
-24.650114974110405
 31
0.0
 11
19.55600697679668
 21
-24.43504851309695
 31
0.0
 11
19.71346041310626
 21
-24.209460453518524
 31
0.0
 11
19.84872256715449
 21
-23.976814660913174
 31
0.0
 11
19.961025576697484
 21
-23.740981442353878
 31
0.0
 11
20.050433811897737
 21
-23.506033439349743
 31
0.0
 11
20.11800530772343
 21
-23.275906167187554
 31
0.0
 11
20.165885820777092
 21
-23.053912498781873
 31
0.0
 11
20.197332811799313
 21
-22.842063289933936
 31
0.0
 11
20.21670415147461
 21
-22.640044319957223
 31
0.0
 11
20.229531214042904
 21
-22.44345046678663
 31
0.0
 11
20.243079386685068
 21
-22.24025404198434
 31
0.0
 11
20.26894969670797
 21
-22.002971301926408
 31
0.0
 11
20.334249518368686
 21
-21.671979158839825
 31
0.0
 11
20.523021744285558
 21
-21.143340911649442
 31
0.0
 11
21.009009770890735
 21
-20.421376722122133
 31
0.0
 11
21.69263727140612
 21
-19.88279516515744
 31
0.0
 11
22.205690372730277
 21
-19.655045598984888
 31
0.0
 11
22.53087713286948
 21
-19.565193295040338
 31
0.0
 11
22.765563091571675
 21
-19.521663162280266
 31
0.0
 11
22.967178881748683
 21
-19.49296798523473
 31
0.0
 11
23.162264451046713
 21
-19.465485312689
 31
0.0
 11
23.3622709129833
 21
-19.43107124267572
 31
0.0
 11
23.571177711894183
 21
-19.383880672615017
 31
0.0
 11
23.788972525757046
 21
-19.319544435571373
 31
0.0
 11
24.0134066911853
 21
-19.23496445076731
 31
0.0
 11
24.24101624613725
 21
-19.12824853287391
 31
0.0
 11
24.46779761277285
 21
-18.998635706829038
 31
0.0
 11
24.6896847271264
 21
-18.846366131343345
 31
0.0
 11
24.902875486705828
 21
-18.672494749971936
 31
0.0
 11
25.104020260188026
 21
-18.478675521081236
 31
0.0
 11
25.290284249847844
 21
-18.266959822672497
 31
0.0
 11
25.45931312988126
 21
-18.03965424037076
 31
0.0
 11
25.459313129881266
 21
-18.03965424037075
 31
0.0
 11
25.609152745187338
 21
-17.7992656389026
 31
0.0
 11
25.738183454227016
 21
-17.548528950479444
 31
0.0
 11
25.84511824879389
 21
-17.290478445543044
 31
0.0
 11
25.92908322286285
 21
-17.028502415418806
 31
0.0
 11
25.98976250774804
 21
-16.766323202816892
 31
0.0
 11
26.027563148206937
 21
-16.507865499295896
 31
0.0
 11
26.04374708677465
 21
-16.257002036891162
 31
0.0
 11
26.040485366389102
 21
-16.017181625705916
 31
0.0
 11
26.02080490014124
 21
-15.790937484144726
 31
0.0
 11
25.988411139083087
 21
-15.57923097791888
 31
0.0
 11
25.947375727758647
 21
-15.38047734135164
 31
0.0
 11
25.901685864447618
 21
-15.18883675841261
 31
0.0
 11
25.854738932160295
 21
-14.990674386648482
 31
0.0
 11
25.80951958146496
 21
-14.75630804522384
 31
0.0
 11
25.774356668402508
 21
-14.42077349403882
 31
0.0
 11
25.798923415225513
 21
-13.859979570551179
 31
0.0
 11
26.050517676784537
 21
-13.026842738743825
 31
0.0
 11
26.545023824806965
 21
-12.310686106063905
 31
0.0
 11
26.968153053257375
 21
-11.941829757736963
 31
0.0
 11
27.252408246527697
 21
-11.760118859349374
 31
0.0
 11
27.46383703468954
 21
-11.649347747562537
 31
0.0
 11
27.648037549084968
 21
-11.562500119322987
 31
0.0
 11
27.82635535396798
 21
-11.478735943804466
 31
0.0
 11
28.007332364767123
 21
-11.386897854791929
 31
0.0
 11
28.19304835604141
 21
-11.280227469403776
 31
0.0
 11
28.38220371863927
 21
-11.154553362512319
 31
0.0
 11
28.571736515639227
 21
-11.007577897545183
 31
0.0
 11
28.757778947697307
 21
-10.838513974394292
 31
0.0
 11
28.93628100336656
 21
-10.647814501268904
 31
0.0
 11
29.103428050517415
 21
-10.436907460695366
 31
0.0
 11
29.255897853475208
 21
-10.207921617429745
 31
0.0
 11
29.39097710842495
 21
-9.963424770273768
 31
0.0
 11
29.506561614031103
 21
-9.70621273155771
 31
0.0
 11
29.601081518627602
 21
-9.439183561492051
 31
0.0
 11
29.601081518627606
 21
-9.439183561492042
 31
0.0
 11
29.673408396091403
 21
-9.165308749164907
 31
0.0
 11
29.722800696433644
 21
-8.887679119147515
 31
0.0
 11
29.74892295652473
 21
-8.609573490087756
 31
0.0
 11
29.751938811932817
 21
-8.334487209357123
 31
0.0
 11
29.732643606906265
 21
-8.066070350352845
 31
0.0
 11
29.69258312549091
 21
-7.807953263050939
 31
0.0
 11
29.6341047534623
 21
-7.563464660776439
 31
0.0
 11
29.56029963503559
 21
-7.335260206536494
 31
0.0
 11
29.474806885278632
 21
-7.124868376653565
 31
0.0
 11
29.3814506999678
 21
-6.932115625186669
 31
0.0
 11
29.28365471402074
 21
-6.754287454853873
 31
0.0
 11
29.183507669692233
 21
-6.584628248941387
 31
0.0
 11
29.080237073432368
 21
-6.40910752656791
 31
0.0
 11
28.96794599976994
 21
-6.198482061711881
 31
0.0
 11
28.83544473111981
 21
-5.888218819770339
 31
0.0
 11
28.693623135584332
 21
-5.345098221090909
 31
0.0
 11
28.688468377854456
 21
-4.474816610670372
 31
0.0
 11
28.949914132027647
 21
-3.644718561890449
 31
0.0
 11
29.245522598784454
 21
-3.167529936657391
 31
0.0
 11
29.463588903830463
 21
-2.910106254573642
 31
0.0
 11
29.632974145783816
 21
-2.7419366631533144
 31
0.0
 11
29.783392360342983
 21
-2.6046533766133724
 31
0.0
 11
29.929098081312322
 21
-2.4720505127099166
 31
0.0
 11
30.074965039359995
 21
-2.330948621931703
 31
0.0
 11
30.220988542171757
 21
-2.1742765530731116
 31
0.0
 11
30.364697169443165
 21
-1.9984312722428816
 31
0.0
 11
30.502487777250394
 21
-1.802119742166207
 31
0.0
 11
30.63043239989248
 21
-1.5857298852545894
 31
0.0
 11
30.7447944536058
 21
-1.3508882501067268
 31
0.0
 11
30.842349684901865
 21
-1.100083760550599
 31
0.0
 11
30.92055092014252
 21
-0.8363298524527458
 31
0.0
 11
30.97756227197197
 21
-0.5628800048580374
 31
0.0
 11
31.012197102967107
 21
-0.2830260442310184
 31
0.0
 11
31.023809523809526
 21
8.881784197001252e-15
 31
0.0
 11
31.023809523809526
 21
-7.843571165967572e-15
 31
0.0
 11
31.01219710296712
 21
0.28302604423102157
 31
0.0
 11
30.977562271971976
 21
0.5628800048580426
 31
0.0
 11
30.920550920142524
 21
0.8363298524527508
 31
0.0
 11
30.842349684901873
 21
1.1000837605506057
 31
0.0
 11
30.7447944536058
 21
1.3508882501067296
 31
0.0
 11
30.630432399892477
 21
1.585729885254593
 31
0.0
 11
30.502487777250394
 21
1.8021197421662094
 31
0.0
 11
30.364697169443165
 21
1.9984312722428863
 31
0.0
 11
30.22098854217176
 21
2.1742765530731165
 31
0.0
 11
30.074965039359995
 21
2.330948621931706
 31
0.0
 11
29.929098081312326
 21
2.472050512709919
 31
0.0
 11
29.783392360342994
 21
2.6046533766133773
 31
0.0
 11
29.632974145783827
 21
2.7419366631533175
 31
0.0
 11
29.463588903830463
 21
2.910106254573645
 31
0.0
 11
29.24552259878446
 21
3.167529936657395
 31
0.0
 11
28.949914132027647
 21
3.644718561890452
 31
0.0
 11
28.688468377854456
 21
4.474816610670373
 31
0.0
 11
28.69362313558433
 21
5.345098221090913
 31
0.0
 11
28.8354447311198
 21
5.888218819770341
 31
0.0
 11
28.96794599976994
 21
6.198482061711884
 31
0.0
 11
29.08023707343236
 21
6.409107526567912
 31
0.0
 11
29.183507669692222
 21
6.5846282489413905
 31
0.0
 11
29.283654714020738
 21
6.754287454853877
 31
0.0
 11
29.3814506999678
 21
6.932115625186673
 31
0.0
 11
29.474806885278625
 21
7.124868376653569
 31
0.0
 11
29.560299635035594
 21
7.335260206536499
 31
0.0
 11
29.634104753462303
 21
7.563464660776442
 31
0.0
 11
29.692583125490916
 21
7.807953263050943
 31
0.0
 11
29.73264360690627
 21
8.06607035035285
 31
0.0
 11
29.751938811932813
 21
8.334487209357128
 31
0.0
 11
29.748922956524726
 21
8.609573490087762
 31
0.0
 11
29.72280069643364
 21
8.887679119147519
 31
0.0
 11
29.673408396091396
 21
9.16530874916491
 31
0.0
 11
29.601081518627606
 21
9.439183561492044
 31
0.0
  0
SPLINE
  5
2E
330
17
100
AcDbEntity
  8
0
100
AcDbSpline
 70
0
 71
3
 72
0
 73
0
 74
361
 11
43.578825623905864
 21
4.538277446870621
 31
0.0
 11
43.33152981133523
 21
5.935388075232938
 31
0.0
 11
42.933928725603344
 21
7.183172035633682
 31
0.0
 11
42.490909922281794
 21
8.182083872112011
 31
0.0
 11
42.1413147377692
 21
8.85267158833915
 31
0.0
 11
42.016882949954095
 21
9.092675936343504
 31
0.0
 11
42.08539025127235
 21
8.860503223683509
 31
0.0
 11
42.117238867098834
 21
8.620538466880044
 31
0.0
 11
42.133294398812794
 21
8.890404316481733
 31
0.0
 11
42.1799128950519
 21
9.645209850376078
 31
0.0
 11
42.17833666337867
 21
10.737953202058748
 31
0.0
 11
42.03404386986559
 21
12.039579502096025
 31
0.0
 11
41.69170374914791
 21
13.416487839112303
 31
0.0
 11
41.159336310408165
 21
14.731652557680889
 31
0.0
 11
40.510994889368156
 21
15.869503530775507
 31
0.0
 11
39.86997166091915
 21
16.754477958508744
 31
0.0
 11
39.38859294403766
 21
17.33772679830412
 31
0.0
 11
39.21698057953409
 21
17.546615652074145
 31
0.0
 11
39.332262253202174
 21
17.333759939080352
 31
0.0
 11
39.41330637868322
 21
17.10566068751906
 31
0.0
 11
39.37290279342308
 21
17.372967453572567
 31
0.0
 11
39.261569668878614
 21
18.12097120594838
 31
0.0
 11
39.03283376377103
 21
19.189507776622296
 31
0.0
 11
38.62107078913942
 21
20.43269026038366
 31
0.0
 11
37.999936280974374
 21
21.708333333333336
 31
0.0
 11
37.205764227720834
 21
22.884073133046243
 31
0.0
 11
36.33501810255947
 21
23.86226157129576
 31
0.0
 11
35.52400624003693
 21
24.5946209612135
 31
0.0
 11
34.93188255062564
 21
25.065040151539616
 31
0.0
 11
34.7205898932499
 21
25.233684065805626
 31
0.0
 11
34.87760757694568
 21
25.049448168530894
 31
0.0
 11
35.0043051949049
 21
24.84318345404665
 31
0.0
 11
34.90920832322445
 21
25.096248548195266
 31
0.0
 11
34.644789369674584
 21
25.804759165753488
 31
0.0
 11
34.19889064778251
 21
26.802388779872864
 31
0.0
 11
33.537653509881736
 21
27.93279440736652
 31
0.0
 11
32.6648711728102
 21
29.05142049274709
 31
0.0
 11
31.643603634630356
 21
30.036349902531363
 31
0.0
 11
30.58850858932067
 21
30.812124277315366
 31
0.0
 11
29.642953202783545
 21
31.35986100982796
 31
0.0
 11
28.9659631873944
 21
31.69689097474583
 31
0.0
 11
28.724224740168488
 21
31.81791940121112
 31
0.0
 11
28.91611600766
 21
31.670355312428285
 31
0.0
 11
29.08292982422997
 21
31.49493989281196
 31
0.0
 11
28.937295855747042
 21
31.722703156100344
 31
0.0
 11
28.531347450284848
 21
32.360755325042525
 31
0.0
 11
27.88777382541442
 21
33.24387678131234
 31
0.0
 11
27.00596176013856
 21
34.21210140232879
 31
0.0
 11
25.91967637036487
 21
35.124821172445635
 31
0.0
 11
24.715947639262556
 21
35.875894050878024
 31
0.0
 11
23.522616390192336
 21
36.41534929943998
 31
0.0
 11
22.48384278731042
 21
36.754524651004175
 31
0.0
 11
21.751574158174467
 21
36.9434355637977
 31
0.0
 11
21.48995505123191
 21
37.01155897946691
 31
0.0
 11
21.70833333333333
 21
36.90711595794683
 31
0.0
 11
21.90797278426843
 21
36.770216328772236
 31
0.0
 11
21.718166622235053
 21
36.96272341366528
 31
0.0
 11
21.188430658135786
 21
37.502431192494655
 31
0.0
 11
20.37530938590271
 21
38.232447845588986
 31
0.0
 11
19.311461811908096
 21
38.996175398132635
 31
0.0
 11
18.059149253540998
 21
39.66309861931625
 31
0.0
 11
16.725568051196678
 21
40.14748947756173
 31
0.0
 11
15.446154900188933
 21
40.427048816946005
 31
0.0
 11
14.359562471996957
 21
40.54283919715454
 31
0.0
 11
13.604018882022162
 21
40.57537474443949
 31
0.0
 11
13.333953125724113
 21
40.58761582915547
 31
0.0
 11
13.569274243612346
 21
40.530858536111786
 31
0.0
 11
13.793014126930334
 21
40.43845786809118
 31
0.0
 11
13.567331211418383
 21
40.58729529122757
 31
0.0
 11
12.936959692268369
 21
41.00507086020404
 31
0.0
 11
11.989828074058012
 21
41.55007747937412
 31
0.0
 11
10.790440235235243
 21
42.07592940462739
 31
0.0
 11
9.42683257633772
 21
42.46790833185939
 31
0.0
 11
8.021682800526433
 21
42.664446965047404
 31
0.0
 11
6.71210424158565
 21
42.671892310648374
 31
0.0
 11
5.625182291244562
 21
42.55923712426223
 31
0.0
 11
4.87938462081322
 21
42.43397534649939
 31
0.0
 11
4.61267538462918
 21
42.38979910612078
 31
0.0
 11
4.8546546762564935
 21
42.38320810761125
 31
0.0
 11
5.092716485433322
 21
42.33934475332468
 31
0.0
 11
4.841020242797448
 21
42.43800760511218
 31
0.0
 11
4.137563428841678
 21
42.71559216716188
 31
0.0
 11
3.0978156612115675
 21
43.05176934791807
 31
0.0
 11
1.815306561418582
 21
43.3167633934299
 31
0.0
 11
0.4000000000000018
 21
43.41666666666666
 31
0.0
 11
-1.0153065614185883
 21
43.316763393429895
 31
0.0
 11
-2.2978156612115725
 21
43.05176934791805
 31
0.0
 11
-3.337563428841667
 21
42.71559216716187
 31
0.0
 11
-4.041020242797444
 21
42.43800760511219
 31
0.0
 11
-4.292716485433318
 21
42.33934475332468
 31
0.0
 11
-4.054654676256506
 21
42.383208107611246
 31
0.0
 11
-3.812675384629187
 21
42.38979910612079
 31
0.0
 11
-4.07938462081322
 21
42.43397534649939
 31
0.0
 11
-4.825182291244564
 21
42.559237124262225
 31
0.0
 11
-5.912104241585645
 21
42.67189231064837
 31
0.0
 11
-7.2216828005264375
 21
42.66444696504741
 31
0.0
 11
-8.626832576337728
 21
42.467908331859384
 31
0.0
 11
-9.990440235235221
 21
42.075929404627395
 31
0.0
 11
-11.189828074058003
 21
41.550077479374124
 31
0.0
 11
-12.136959692268361
 21
41.005070860204036
 31
0.0
 11
-12.767331211418387
 21
40.58729529122757
 31
0.0
 11
-12.993014126930342
 21
40.43845786809116
 31
0.0
 11
-12.76927424361234
 21
40.5308585361118
 31
0.0
 11
-12.533953125724109
 21
40.58761582915546
 31
0.0
 11
-12.804018882022165
 21
40.5753747444395
 31
0.0
 11
-13.559562471996957
 21
40.54283919715454
 31
0.0
 11
-14.64615490018892
 21
40.42704881694601
 31
0.0
 11
-15.925568051196661
 21
40.14748947756174
 31
0.0
 11
-17.259149253540986
 21
39.66309861931626
 31
0.0
 11
-18.511461811908102
 21
38.996175398132635
 31
0.0
 11
-19.57530938590272
 21
38.232447845588986
 31
0.0
 11
-20.388430658135785
 21
37.502431192494655
 31
0.0
 11
-20.91816662223506
 21
36.96272341366528
 31
0.0
 11
-21.107972784268437
 21
36.770216328772236
 31
0.0
 11
-20.90833333333333
 21
36.90711595794683
 31
0.0
 11
-20.689955051231916
 21
37.011558979466905
 31
0.0
 11
-20.951574158174477
 21
36.9434355637977
 31
0.0
 11
-21.683842787310418
 21
36.754524651004175
 31
0.0
 11
-22.72261639019235
 21
36.415349299439974
 31
0.0
 11
-23.915947639262562
 21
35.875894050878024
 31
0.0
 11
-25.11967637036486
 21
35.124821172445635
 31
0.0
 11
-26.20596176013857
 21
34.21210140232879
 31
0.0
 11
-27.087773825414413
 21
33.24387678131233
 31
0.0
 11
-27.73134745028485
 21
32.36075532504252
 31
0.0
 11
-28.13729585574705
 21
31.722703156100344
 31
0.0
 11
-28.28292982422998
 21
31.49493989281196
 31
0.0
 11
-28.116116007660004
 21
31.670355312428285
 31
0.0
 11
-27.92422474016849
 21
31.817919401211128
 31
0.0
 11
-28.16596318739441
 21
31.696890974745834
 31
0.0
 11
-28.842953202783537
 21
31.359861009827963
 31
0.0
 11
-29.788508589320674
 21
30.812124277315363
 31
0.0
 11
-30.843603634630348
 21
30.036349902531374
 31
0.0
 11
-31.864871172810204
 21
29.05142049274709
 31
0.0
 11
-32.737653509881724
 21
27.93279440736653
 31
0.0
 11
-33.398890647782515
 21
26.80238877987286
 31
0.0
 11
-33.84478936967459
 21
25.804759165753484
 31
0.0
 11
-34.10920832322445
 21
25.096248548195263
 31
0.0
 11
-34.204305194904904
 21
24.84318345404666
 31
0.0
 11
-34.07760757694568
 21
25.04944816853089
 31
0.0
 11
-33.920589893249904
 21
25.23368406580562
 31
0.0
 11
-34.13188255062563
 21
25.065040151539623
 31
0.0
 11
-34.72400624003694
 21
24.5946209612135
 31
0.0
 11
-35.53501810255946
 21
23.862261571295765
 31
0.0
 11
-36.40576422772084
 21
22.88407313304623
 31
0.0
 11
-37.19993628097438
 21
21.70833333333334
 31
0.0
 11
-37.82107078913942
 21
20.43269026038365
 31
0.0
 11
-38.23283376377103
 21
19.1895077766223
 31
0.0
 11
-38.46156966887862
 21
18.120971205948393
 31
0.0
 11
-38.57290279342309
 21
17.372967453572564
 31
0.0
 11
-38.61330637868323
 21
17.10566068751906
 31
0.0
 11
-38.53226225320218
 21
17.33375993908035
 31
0.0
 11
-38.4169805795341
 21
17.546615652074134
 31
0.0
 11
-38.58859294403766
 21
17.33772679830412
 31
0.0
 11
-39.069971660919144
 21
16.754477958508748
 31
0.0
 11
-39.71099488936816
 21
15.869503530775503
 31
0.0
 11
-40.35933631040817
 21
14.73165255768089
 31
0.0
 11
-40.89170374914791
 21
13.416487839112321
 31
0.0
 11
-41.234043869865594
 21
12.039579502096029
 31
0.0
 11
-41.37833666337868
 21
10.737953202058762
 31
0.0
 11
-41.37991289505191
 21
9.645209850376078
 31
0.0
 11
-41.3332943988128
 21
8.890404316481739
 31
0.0
 11
-41.31723886709884
 21
8.620538466880046
 31
0.0
 11
-41.28539025127235
 21
8.860503223683502
 31
0.0
 11
-41.21688294995409
 21
9.092675936343515
 31
0.0
 11
-41.34131473776922
 21
8.852671588339156
 31
0.0
 11
-41.6909099222818
 21
8.182083872112024
 31
0.0
 11
-42.13392872560335
 21
7.183172035633677
 31
0.0
 11
-42.53152981133523
 21
5.935388075232954
 31
0.0
 11
-42.77882562390587
 21
4.538277446870626
 31
0.0
 11
-42.82740945117066
 21
3.1202813472546156
 31
0.0
 11
-42.69792577609505
 21
1.817098546148996
 31
0.0
 11
-42.472273445446206
 21
0.7479065414904902
 31
0.0
 11
-42.26974078040953
 21
0.01928784986758103
 31
0.0
 11
-42.19792783550035
 21
-0.24134265069467276
 31
0.0
 11
-42.21666666666667
 21
-1.865174681370263e-14
 31
0.0
 11
-42.197927835500344
 21
0.24134265069467808
 31
0.0
 11
-42.26974078040951
 21
-0.019287849867577478
 31
0.0
 11
-42.4722734454462
 21
-0.7479065414904809
 31
0.0
 11
-42.697925776095055
 21
-1.8170985461489928
 31
0.0
 11
-42.82740945117065
 21
-3.120281347254614
 31
0.0
 11
-42.77882562390587
 21
-4.5382774468706035
 31
0.0
 11
-42.531529811335226
 21
-5.935388075232953
 31
0.0
 11
-42.13392872560335
 21
-7.183172035633675
 31
0.0
 11
-41.690909922281804
 21
-8.182083872111999
 31
0.0
 11
-41.3413147377692
 21
-8.852671588339149
 31
0.0
 11
-41.21688294995409
 21
-9.092675936343507
 31
0.0
 11
-41.28539025127236
 21
-8.860503223683496
 31
0.0
 11
-41.31723886709884
 21
-8.62053846688004
 31
0.0
 11
-41.33329439881278
 21
-8.890404316481735
 31
0.0
 11
-41.3799128950519
 21
-9.645209850376073
 31
0.0
 11
-41.37833666337868
 21
-10.737953202058758
 31
0.0
 11
-41.234043869865594
 21
-12.039579502096014
 31
0.0
 11
-40.89170374914791
 21
-13.416487839112321
 31
0.0
 11
-40.35933631040816
 21
-14.731652557680887
 31
0.0
 11
-39.71099488936817
 21
-15.86950353077549
 31
0.0
 11
-39.06997166091915
 21
-16.754477958508748
 31
0.0
 11
-38.588592944037664
 21
-17.337726798304118
 31
0.0
 11
-38.41698057953409
 21
-17.54661565207415
 31
0.0
 11
-38.532262253202184
 21
-17.333759939080345
 31
0.0
 11
-38.61330637868322
 21
-17.105660687519062
 31
0.0
 11
-38.572902793423076
 21
-17.37296745357257
 31
0.0
 11
-38.46156966887862
 21
-18.120971205948386
 31
0.0
 11
-38.23283376377103
 21
-19.189507776622293
 31
0.0
 11
-37.82107078913942
 21
-20.43269026038363
 31
0.0
 11
-37.19993628097438
 21
-21.708333333333336
 31
0.0
 11
-36.405764227720844
 21
-22.884073133046233
 31
0.0
 11
-35.53501810255947
 21
-23.862261571295765
 31
0.0
 11
-34.72400624003694
 21
-24.5946209612135
 31
0.0
 11
-34.131882550625626
 21
-25.06504015153962
 31
0.0
 11
-33.920589893249904
 21
-25.233684065805615
 31
0.0
 11
-34.07760757694569
 21
-25.049448168530887
 31
0.0
 11
-34.204305194904904
 21
-24.843183454046656
 31
0.0
 11
-34.10920832322445
 21
-25.096248548195263
 31
0.0
 11
-33.84478936967459
 21
-25.804759165753488
 31
0.0
 11
-33.39889064778253
 21
-26.802388779872853
 31
0.0
 11
-32.73765350988174
 21
-27.932794407366533
 31
0.0
 11
-31.864871172810204
 21
-29.051420492747088
 31
0.0
 11
-30.84360363463036
 21
-30.03634990253137
 31
0.0
 11
-29.788508589320678
 21
-30.81212427731536
 31
0.0
 11
-28.84295320278354
 21
-31.359861009827966
 31
0.0
 11
-28.165963187394407
 21
-31.696890974745834
 31
0.0
 11
-27.924224740168498
 21
-31.817919401211118
 31
0.0
 11
-28.116116007660004
 21
-31.670355312428292
 31
0.0
 11
-28.282929824229964
 21
-31.494939892811974
 31
0.0
 11
-28.137295855747045
 21
-31.722703156100348
 31
0.0
 11
-27.731347450284854
 21
-32.36075532504252
 31
0.0
 11
-27.087773825414423
 21
-33.24387678131233
 31
0.0
 11
-26.205961760138567
 21
-34.21210140232879
 31
0.0
 11
-25.11967637036487
 21
-35.124821172445635
 31
0.0
 11
-23.91594763926255
 21
-35.87589405087802
 31
0.0
 11
-22.72261639019235
 21
-36.41534929943998
 31
0.0
 11
-21.683842787310454
 21
-36.75452465100417
 31
0.0
 11
-20.95157415817446
 21
-36.9434355637977
 31
0.0
 11
-20.68995505123192
 21
-37.011558979466905
 31
0.0
 11
-20.908333333333317
 21
-36.907115957946836
 31
0.0
 11
-21.10797278426844
 21
-36.77021632877223
 31
0.0
 11
-20.918166622235052
 21
-36.96272341366528
 31
0.0
 11
-20.388430658135782
 21
-37.50243119249466
 31
0.0
 11
-19.575309385902717
 21
-38.232447845588986
 31
0.0
 11
-18.511461811908124
 21
-38.99617539813262
 31
0.0
 11
-17.25914925354103
 21
-39.66309861931624
 31
0.0
 11
-15.925568051196647
 21
-40.14748947756173
 31
0.0
 11
-14.646154900188922
 21
-40.42704881694601
 31
0.0
 11
-13.559562471996964
 21
-40.54283919715454
 31
0.0
 11
-12.804018882022168
 21
-40.5753747444395
 31
0.0
 11
-12.533953125724098
 21
-40.58761582915548
 31
0.0
 11
-12.769274243612367
 21
-40.530858536111786
 31
0.0
 11
-12.99301412693035
 21
-40.43845786809116
 31
0.0
 11
-12.767331211418389
 21
-40.58729529122756
 31
0.0
 11
-12.136959692268386
 21
-41.00507086020403
 31
0.0
 11
-11.189828074058003
 21
-41.55007747937411
 31
0.0
 11
-9.990440235235218
 21
-42.075929404627395
 31
0.0
 11
-8.626832576337721
 21
-42.46790833185939
 31
0.0
 11
-7.221682800526463
 21
-42.6644469650474
 31
0.0
 11
-5.912104241585627
 21
-42.67189231064838
 31
0.0
 11
-4.825182291244556
 21
-42.55923712426223
 31
0.0
 11
-4.079384620813218
 21
-42.433975346499395
 31
0.0
 11
-3.8126753846291996
 21
-42.38979910612079
 31
0.0
 11
-4.054654676256502
 21
-42.38320810761125
 31
0.0
 11
-4.292716485433327
 21
-42.33934475332468
 31
0.0
 11
-4.0410202427974395
 21
-42.438007605112176
 31
0.0
 11
-3.3375634288416856
 21
-42.715592167161866
 31
0.0
 11
-2.2978156612115828
 21
-43.051769347918054
 31
0.0
 11
-1.015306561418551
 21
-43.3167633934299
 31
0.0
 11
0.40000000000001423
 21
-43.41666666666666
 31
0.0
 11
1.815306561418577
 21
-43.3167633934299
 31
0.0
 11
3.097815661211545
 21
-43.05176934791806
 31
0.0
 11
4.137563428841649
 21
-42.715592167161894
 31
0.0
 11
4.841020242797457
 21
-42.43800760511218
 31
0.0
 11
5.092716485433303
 21
-42.33934475332468
 31
0.0
 11
4.85465467625649
 21
-42.383208107611246
 31
0.0
 11
4.612675384629192
 21
-42.38979910612079
 31
0.0
 11
4.879384620813235
 21
-42.43397534649939
 31
0.0
 11
5.625182291244563
 21
-42.55923712426222
 31
0.0
 11
6.712104241585651
 21
-42.67189231064838
 31
0.0
 11
8.021682800526417
 21
-42.664446965047404
 31
0.0
 11
9.426832576337683
 21
-42.4679083318594
 31
0.0
 11
10.79044023523525
 21
-42.075929404627395
 31
0.0
 11
11.989828074058005
 21
-41.550077479374124
 31
0.0
 11
12.936959692268351
 21
-41.00507086020404
 31
0.0
 11
13.567331211418368
 21
-40.58729529122756
 31
0.0
 11
13.793014126930329
 21
-40.43845786809116
 31
0.0
 11
13.569274243612329
 21
-40.5308585361118
 31
0.0
 11
13.333953125724127
 21
-40.58761582915545
 31
0.0
 11
13.604018882022157
 21
-40.575374744439486
 31
0.0
 11
14.359562471996933
 21
-40.54283919715454
 31
0.0
 11
15.446154900188949
 21
-40.427048816946005
 31
0.0
 11
16.725568051196674
 21
-40.14748947756173
 31
0.0
 11
18.059149253540973
 21
-39.66309861931626
 31
0.0
 11
19.311461811908067
 21
-38.99617539813265
 31
0.0
 11
20.37530938590273
 21
-38.23244784558898
 31
0.0
 11
21.188430658135786
 21
-37.502431192494655
 31
0.0
 11
21.718166622235046
 21
-36.96272341366528
 31
0.0
 11
21.907972784268424
 21
-36.770216328772236
 31
0.0
 11
21.708333333333346
 21
-36.907115957946814
 31
0.0
 11
21.489955051231924
 21
-37.0115589794669
 31
0.0
 11
21.75157415817447
 21
-36.94343556379769
 31
0.0
 11
22.48384278731042
 21
-36.75452465100418
 31
0.0
 11
23.52261639019231
 21
-36.41534929943999
 31
0.0
 11
24.715947639262577
 21
-35.875894050878
 31
0.0
 11
25.919676370364876
 21
-35.12482117244563
 31
0.0
 11
27.005961760138554
 21
-34.2121014023288
 31
0.0
 11
27.887773825414396
 21
-33.243876781312345
 31
0.0
 11
28.53134745028483
 21
-32.36075532504254
 31
0.0
 11
28.937295855747042
 21
-31.722703156100337
 31
0.0
 11
29.08292982422997
 21
-31.494939892811967
 31
0.0
 11
28.91611600766002
 21
-31.67035531242827
 31
0.0
 11
28.7242247401685
 21
-31.817919401211114
 31
0.0
 11
28.96596318739441
 21
-31.69689097474582
 31
0.0
 11
29.64295320278355
 21
-31.359861009827956
 31
0.0
 11
30.58850858932067
 21
-30.81212427731537
 31
0.0
 11
31.643603634630338
 21
-30.03634990253138
 31
0.0
 11
32.66487117281016
 21
-29.05142049274713
 31
0.0
 11
33.53765350988173
 21
-27.932794407366515
 31
0.0
 11
34.198890647782505
 21
-26.80238877987287
 31
0.0
 11
34.64478936967458
 21
-25.80475916575349
 31
0.0
 11
34.909208323224426
 21
-25.096248548195284
 31
0.0
 11
35.00430519490491
 21
-24.84318345404665
 31
0.0
 11
34.87760757694568
 21
-25.049448168530883
 31
0.0
 11
34.72058989324991
 21
-25.23368406580561
 31
0.0
 11
34.93188255062562
 21
-25.065040151539627
 31
0.0
 11
35.52400624003691
 21
-24.594620961213522
 31
0.0
 11
36.335018102559474
 21
-23.862261571295747
 31
0.0
 11
37.20576422772083
 21
-22.884073133046243
 31
0.0
 11
37.99993628097437
 21
-21.708333333333353
 31
0.0
 11
38.621070789139395
 21
-20.4326902603837
 31
0.0
 11
39.03283376377104
 21
-19.189507776622264
 31
0.0
 11
39.26156966887861
 21
-18.120971205948365
 31
0.0
 11
39.372902793423066
 21
-17.37296745357257
 31
0.0
 11
39.413306378683224
 21
-17.105660687519052
 31
0.0
 11
39.33226225320219
 21
-17.333759939080316
 31
0.0
 11
39.21698057953409
 21
-17.546615652074124
 31
0.0
 11
39.388592944037654
 21
-17.33772679830412
 31
0.0
 11
39.86997166091915
 21
-16.75447795850875
 31
0.0
 11
40.51099488936814
 21
-15.869503530775534
 31
0.0
 11
41.15933631040817
 21
-14.731652557680878
 31
0.0
 11
41.69170374914791
 21
-13.416487839112301
 31
0.0
 11
42.03404386986559
 21
-12.039579502096052
 31
0.0
 11
42.17833666337867
 21
-10.737953202058762
 31
0.0
 11
42.179912895051906
 21
-9.645209850376103
 31
0.0
 11
42.13329439881279
 21
-8.89040431648173
 31
0.0
 11
42.117238867098834
 21
-8.620538466880031
 31
0.0
 11
42.08539025127235
 21
-8.860503223683478
 31
0.0
 11
42.01688294995409
 21
-9.092675936343518
 31
0.0
 11
42.14131473776922
 21
-8.852671588339147
 31
0.0
 11
42.4909099222818
 21
-8.182083872112006
 31
0.0
 11
42.93392872560334
 21
-7.183172035633692
 31
0.0
 11
43.33152981133522
 21
-5.935388075232971
 31
0.0
 11
43.578825623905864
 21
-4.53827744687068
 31
0.0
 11
43.62740945117066
 21
-3.12028134725458
 31
0.0
 11
43.497925776095045
 21
-1.817098546148996
 31
0.0
 11
43.272273445446196
 21
-0.7479065414904964
 31
0.0
 11
43.06974078040953
 21
-0.019287849867593465
 31
0.0
 11
42.99792783550035
 21
0.2413426506946834
 31
0.0
 11
43.016666666666666
 21
2.930988785010413e-14
 31
0.0
 11
42.99792783550034
 21
-0.24134265069468608
 31
0.0
 11
43.06974078040952
 21
0.019287849867570372
 31
0.0
 11
43.2722734454462
 21
0.747906541490456
 31
0.0
 11
43.49792577609505
 21
1.817098546149011
 31
0.0
 11
43.62740945117064
 21
3.1202813472545983
 31
0.0
 11
43.57882562390587
 21
4.538277446870585
 31
0.0
  0
CIRCLE
  5
2F
330
17
100
AcDbEntity
  8
0
100
AcDbCircle
 10
-1.0
 20
0.0
 30
0.0
 40
32.0
  0
CIRCLE
  5
30
330
17
100
AcDbEntity
  8
0
100
AcDbCircle
 10
1.0
 20
0.0
 30
0.0
 40
32.0
  0
CIRCLE
  5
31
330
17
100
AcDbEntity
  8
0
100
AcDbCircle
 10
0.0
 20
0.0
 30
0.0
 40
33.523809523809526
  0
CIRCLE
  5
32
330
17
100
AcDbEntity
  8
0
100
AcDbCircle
 10
33.523809523809526
 20
0.0
 30
0.0
 40
2.5
  0
CIRCLE
  5
33
330
17
100
AcDbEntity
  8
0
100
AcDbCircle
 10
32.16585968688601
 20
9.444748572207928
 30
0.0
 40
2.5
  0
CIRCLE
  5
34
330
17
100
AcDbEntity
  8
0
100
AcDbCircle
 10
28.202023195864363
 20
18.12433978517813
 30
0.0
 40
2.5
  0
CIRCLE
  5
35
330
17
100
AcDbEntity
  8
0
100
AcDbCircle
 10
21.953426509403844
 20
25.335604778352277
 30
0.0
 40
2.5
  0
CIRCLE
  5
36
330
17
100
AcDbEntity
  8
0
100
AcDbCircle
 10
13.926293769206099
 20
30.494329749027663
 30
0.0
 40
2.5
  0
CIRCLE
  5
37
330
17
100
AcDbEntity
  8
0
100
AcDbCircle
 10
4.770935530685368
 20
33.18258548019889
 30
0.0
 40
2.5
  0
CIRCLE
  5
38
330
17
100
AcDbEntity
  8
0
100
AcDbCircle
 10
-4.770935530685364
 20
33.18258548019889
 30
0.0
 40
2.5
  0
CIRCLE
  5
39
330
17
100
AcDbEntity
  8
0
100
AcDbCircle
 10
-13.926293769206094
 20
30.494329749027667
 30
0.0
 40
2.5
  0
CIRCLE
  5
3A
330
17
100
AcDbEntity
  8
0
100
AcDbCircle
 10
-21.95342650940384
 20
25.335604778352277
 30
0.0
 40
2.5
  0
CIRCLE
  5
3B
330
17
100
AcDbEntity
  8
0
100
AcDbCircle
 10
-28.202023195864356
 20
18.124339785178137
 30
0.0
 40
2.5
  0
CIRCLE
  5
3C
330
17
100
AcDbEntity
  8
0
100
AcDbCircle
 10
-32.16585968688601
 20
9.444748572207928
 30
0.0
 40
2.5
  0
CIRCLE
  5
3D
330
17
100
AcDbEntity
  8
0
100
AcDbCircle
 10
-33.523809523809526
 20
4.105482602855889e-15
 30
0.0
 40
2.5
  0
CIRCLE
  5
3E
330
17
100
AcDbEntity
  8
0
100
AcDbCircle
 10
-32.165859686886016
 20
-9.444748572207919
 30
0.0
 40
2.5
  0
CIRCLE
  5
3F
330
17
100
AcDbEntity
  8
0
100
AcDbCircle
 10
-28.202023195864363
 20
-18.12433978517813
 30
0.0
 40
2.5
  0
CIRCLE
  5
40
330
17
100
AcDbEntity
  8
0
100
AcDbCircle
 10
-21.953426509403847
 20
-25.335604778352273
 30
0.0
 40
2.5
  0
CIRCLE
  5
41
330
17
100
AcDbEntity
  8
0
100
AcDbCircle
 10
-13.926293769206097
 20
-30.494329749027667
 30
0.0
 40
2.5
  0
CIRCLE
  5
42
330
17
100
AcDbEntity
  8
0
100
AcDbCircle
 10
-4.770935530685372
 20
-33.18258548019889
 30
0.0
 40
2.5
  0
CIRCLE
  5
43
330
17
100
AcDbEntity
  8
0
100
AcDbCircle
 10
4.770935530685359
 20
-33.18258548019889
 30
0.0
 40
2.5
  0
CIRCLE
  5
44
330
17
100
AcDbEntity
  8
0
100
AcDbCircle
 10
13.926293769206085
 20
-30.49432974902767
 30
0.0
 40
2.5
  0
CIRCLE
  5
45
330
17
100
AcDbEntity
  8
0
100
AcDbCircle
 10
21.95342650940385
 20
-25.335604778352273
 30
0.0
 40
2.5
  0
CIRCLE
  5
46
330
17
100
AcDbEntity
  8
0
100
AcDbCircle
 10
28.202023195864363
 20
-18.124339785178126
 30
0.0
 40
2.5
  0
CIRCLE
  5
47
330
17
100
AcDbEntity
  8
0
100
AcDbCircle
 10
32.16585968688601
 20
-9.444748572207931
 30
0.0
 40
2.5
  0
ENDSEC
  0
SECTION
  2
OBJECTS
  0
DICTIONARY
  5
A
330
0
100
AcDbDictionary
281
1
  3
ACAD_COLOR
350
B
  3
ACAD_GROUP
350
C
  3
ACAD_LAYOUT
350
D
  3
ACAD_MATERIAL
350
E
  3
ACAD_MLEADERSTYLE
350
F
  3
ACAD_MLINESTYLE
350
10
  3
ACAD_PLOTSETTINGS
350
11
  3
ACAD_PLOTSTYLENAME
350
12
  3
ACAD_SCALELIST
350
14
  3
ACAD_TABLESTYLE
350
15
  3
ACAD_VISUALSTYLE
350
16
  0
DICTIONARY
  5
B
330
A
100
AcDbDictionary
281
1
  0
DICTIONARY
  5
C
330
A
100
AcDbDictionary
281
1
  0
DICTIONARY
  5
D
330
A
100
AcDbDictionary
281
1
  3
Model
350
1A
  3
Layout1
350
1E
  0
DICTIONARY
  5
E
330
A
100
AcDbDictionary
281
1
  3
ByBlock
350
1F
  3
ByLayer
350
20
  3
Global
350
21
  0
DICTIONARY
  5
F
330
A
100
AcDbDictionary
281
1
  3
Standard
350
2C
  0
DICTIONARY
  5
10
330
A
100
AcDbDictionary
281
1
  3
Standard
350
22
  0
DICTIONARY
  5
11
330
A
100
AcDbDictionary
281
1
  0
ACDBDICTIONARYWDFLT
  5
12
330
A
100
AcDbDictionary
281
1
  3
Normal
350
13
100
AcDbDictionaryWithDefault
340
13
  0
ACDBPLACEHOLDER
  5
13
330
12
  0
DICTIONARY
  5
14
330
A
100
AcDbDictionary
281
1
  0
DICTIONARY
  5
15
330
A
100
AcDbDictionary
281
1
  0
DICTIONARY
  5
16
330
A
100
AcDbDictionary
281
1
  0
LAYOUT
  5
1A
330
D
100
AcDbPlotSettings
  1

  2
Adobe PDF
  4
A4
  6

 40
3.175
 41
3.175
 42
3.175
 43
3.175
 44
209.91
 45
297.03
 46
0.0
 47
0.0
 48
0.0
 49
0.0
140
0.0
141
0.0
142
1.0
143
1.0
 70
1024
 72
0
 73
1
 74
5
  7

 75
16
 76
0
 77
2
 78
300
147
1.0
148
0.0
149
0.0
100
AcDbLayout
  1
Model
 70
1
 71
0
 10
-3.175
 20
-3.175
 11
293.857
 21
206.735
 12
0.0
 22
0.0
 32
0.0
 14
29.068
 24
20.356
 34
0.0
 15
261.614
 25
183.204
 35
0.0
146
0.0
 13
0.0
 23
0.0
 33
0.0
 16
1.0
 26
0.0
 36
0.0
 17
0.0
 27
1.0
 37
0.0
 76
1
330
17
  0
LAYOUT
  5
1E
330
D
100
AcDbPlotSettings
  1

  2
Adobe PDF
  4
A4
  6

 40
3.175
 41
3.175
 42
3.175
 43
3.175
 44
209.91
 45
297.03
 46
0.0
 47
0.0
 48
0.0
 49
0.0
140
0.0
141
0.0
142
1.0
143
1.0
 70
0
 72
0
 73
1
 74
5
  7

 75
16
 76
0
 77
2
 78
300
147
1.0
148
0.0
149
0.0
100
AcDbLayout
  1
Layout1
 70
1
 71
1
 10
-3.175
 20
-3.175
 11
293.857
 21
206.735
 12
0.0
 22
0.0
 32
0.0
 14
29.068
 24
20.356
 34
0.0
 15
261.614
 25
183.204
 35
0.0
146
0.0
 13
0.0
 23
0.0
 33
0.0
 16
1.0
 26
0.0
 36
0.0
 17
0.0
 27
1.0
 37
0.0
 76
1
330
1B
  0
MATERIAL
  5
1F
102
{ACAD_REACTORS
330
E
102
}
330
E
100
AcDbMaterial
  1
ByBlock
  2

 70
0
 40
1.0
 71
1
 41
1.0
 91
-1023410177
 42
1.0
 72
1
  3

 73
1
 74
1
 75
1
 44
0.5
 73
0
 45
1.0
 46
1.0
 77
1
  4

 78
1
 79
1
170
1
 48
1.0
171
1
  6

172
1
173
1
174
1
140
1.0
141
1.0
175
1
  7

176
1
177
1
178
1
143
1.0
179
1
  8

270
1
271
1
272
1
145
1.0
146
1.0
273
1
  9

274
1
275
1
276
1
 42
1.0
 72
1
  3

 73
1
 74
1
 75
1
 94
63
  0
MATERIAL
  5
20
102
{ACAD_REACTORS
330
E
102
}
330
E
100
AcDbMaterial
  1
ByLayer
  2

 70
0
 40
1.0
 71
1
 41
1.0
 91
-1023410177
 42
1.0
 72
1
  3

 73
1
 74
1
 75
1
 44
0.5
 73
0
 45
1.0
 46
1.0
 77
1
  4

 78
1
 79
1
170
1
 48
1.0
171
1
  6

172
1
173
1
174
1
140
1.0
141
1.0
175
1
  7

176
1
177
1
178
1
143
1.0
179
1
  8

270
1
271
1
272
1
145
1.0
146
1.0
273
1
  9

274
1
275
1
276
1
 42
1.0
 72
1
  3

 73
1
 74
1
 75
1
 94
63
  0
MATERIAL
  5
21
102
{ACAD_REACTORS
330
E
102
}
330
E
100
AcDbMaterial
  1
Global
  2

 70
0
 40
1.0
 71
1
 41
1.0
 91
-1023410177
 42
1.0
 72
1
  3

 73
1
 74
1
 75
1
 44
0.5
 73
0
 45
1.0
 46
1.0
 77
1
  4

 78
1
 79
1
170
1
 48
1.0
171
1
  6

172
1
173
1
174
1
140
1.0
141
1.0
175
1
  7

176
1
177
1
178
1
143
1.0
179
1
  8

270
1
271
1
272
1
145
1.0
146
1.0
273
1
  9

274
1
275
1
276
1
 42
1.0
 72
1
  3

 73
1
 74
1
 75
1
 94
63
  0
MLINESTYLE
  5
22
102
{ACAD_REACTORS
330
10
102
}
330
10
100
AcDbMlineStyle
  2
Standard
 70
0
  3

 62
256
 51
90.0
 52
90.0
 71
2
 49
0.5
 62
256
  6
BYLAYER
 49
-0.5
 62
256
  6
BYLAYER
  0
ENDSEC
  0
EOF
